<svg width="422" height="421" viewBox="0 0 422 421" fill="none" xmlns="http://www.w3.org/2000/svg">
<path d="M326.629 110.184C326.629 110.184 290.599 73.0434 233.553 74.8201C176.507 76.5967 127.858 112.567 87.625 140.723C47.3915 168.88 36.5883 212.63 60.0093 246.773C83.4303 280.916 120.659 266.543 168.092 288.705C215.525 310.866 224.505 323.454 277.382 318.065C330.258 312.677 370.466 257.559 364.457 198.847C358.448 140.134 326.629 110.184 326.629 110.184Z" fill="#00446B"/>
<path opacity="0.7" d="M326.629 110.184C326.629 110.184 290.599 73.0434 233.553 74.8201C176.507 76.5967 127.858 112.567 87.625 140.723C47.3915 168.88 36.5883 212.63 60.0093 246.773C83.4303 280.916 120.659 266.543 168.092 288.705C215.525 310.866 224.505 323.454 277.382 318.065C330.258 312.677 370.466 257.559 364.457 198.847C358.448 140.134 326.629 110.184 326.629 110.184Z" fill="white"/>
<path d="M340.436 336.211C340.436 338.686 284.732 340.682 216.089 340.682C147.447 340.682 91.7344 338.686 91.7344 336.211C91.7344 333.735 147.438 331.748 216.089 331.748C284.74 331.748 340.436 333.744 340.436 336.211Z" fill="#00446B"/>
<path opacity="0.6" d="M340.436 336.211C340.436 338.686 284.732 340.682 216.089 340.682C147.447 340.682 91.7344 338.686 91.7344 336.211C91.7344 333.735 147.438 331.748 216.089 331.748C284.74 331.748 340.436 333.744 340.436 336.211Z" fill="white"/>
<path d="M98.4676 196.843C98.5182 196.843 97.8852 193.702 97.8177 193.475C97.0919 191.235 94.3658 187.328 91.7156 187.328C91.276 187.342 90.8442 187.447 90.4481 187.638C90.052 187.829 89.7006 188.101 89.4165 188.436C89.1324 188.771 88.9221 189.162 88.7991 189.583C88.6761 190.004 88.6432 190.447 88.7025 190.881C88.8966 192.734 90.5678 194.317 92.0785 195.226C93.8509 196.329 98.4676 196.843 98.4676 196.843Z" fill="#00446B"/>
<path d="M103.591 175.692C101.101 176.584 99.8691 181.182 99.9451 183.539C99.9451 183.741 100.418 186.907 100.468 186.907H100.519C100.316 187.631 100.105 188.406 99.8945 189.265C99.5231 190.848 99.118 192.633 98.8057 194.62C98.4436 196.749 98.2069 198.896 98.0967 201.053C97.9664 203.469 98.0483 205.892 98.3415 208.294C98.3447 208.322 98.3447 208.35 98.3415 208.378C98.0208 207.679 97.0417 205.751 96.9489 205.608C95.6491 203.638 91.9862 200.556 89.4289 201.289C89.0097 201.417 88.6224 201.633 88.292 201.92C87.9616 202.208 87.6955 202.562 87.5109 202.959C87.3263 203.356 87.2274 203.787 87.2205 204.224C87.2135 204.662 87.2988 205.096 87.4708 205.499C88.146 207.241 90.1716 208.319 91.868 208.808C93.7839 209.346 98.0545 208.707 98.3921 208.656C98.758 211.09 99.2824 213.498 99.962 215.864C100.359 217.244 100.806 218.625 101.245 219.998C100.949 219.4 100.671 218.869 100.629 218.802C99.329 216.832 95.666 213.75 93.1087 214.483C92.6896 214.612 92.3023 214.827 91.9719 215.115C91.6415 215.402 91.3754 215.756 91.1908 216.153C91.0062 216.55 90.9072 216.981 90.9003 217.419C90.8934 217.856 90.9787 218.29 91.1506 218.693C91.8258 220.427 93.8514 221.513 95.5479 221.993C97.2443 222.473 100.924 221.993 101.886 221.875C102.064 222.397 102.241 222.928 102.426 223.45C103.27 225.976 104.182 228.502 104.958 230.977C105.237 231.819 105.473 232.729 105.718 233.604C105.456 233.074 105.22 232.628 105.178 232.569C103.887 230.59 100.215 227.517 97.6663 228.249C97.2464 228.377 96.8582 228.592 96.5269 228.879C96.1956 229.167 95.9285 229.52 95.7431 229.917C95.5576 230.314 95.4579 230.746 95.4505 231.184C95.443 231.622 95.528 232.056 95.6998 232.459C96.375 234.194 98.409 235.28 100.105 235.76C101.802 236.24 105.119 235.819 106.267 235.659C106.495 236.56 106.722 237.469 106.9 238.353C107.001 238.96 107.144 239.532 107.22 240.155L107.474 241.957C107.592 243.111 107.727 244.298 107.811 245.426C107.879 246.218 107.929 246.967 107.98 247.716C107.718 246.874 107.136 245.131 107.136 244.997C106.202 243.144 104.807 241.561 103.085 240.399C102.989 240.189 102.876 239.986 102.747 239.793C102.507 239.426 102.191 239.114 101.822 238.876C101.452 238.638 101.037 238.48 100.603 238.413C100.168 238.345 99.7244 238.37 99.3 238.484C98.8756 238.599 98.4801 238.801 98.1389 239.077C96.1387 240.804 96.6366 245.536 97.5566 247.708C97.6072 247.834 98.4006 249.165 98.8395 249.99L97.7676 248.659C97.0249 247.758 96.2653 246.883 95.455 245.94C95.0386 245.502 94.6251 245.056 94.2143 244.601C93.8092 244.146 93.3281 243.717 92.8808 243.262C91.8174 242.243 90.6949 241.258 89.5048 240.298C90.2982 239.65 93.0581 237.326 93.8514 235.743C94.6448 234.16 95.2103 231.946 94.3831 230.27C94.2013 229.872 93.9375 229.516 93.6089 229.225C93.2802 228.935 92.8941 228.717 92.4754 228.585C92.0568 228.453 91.6151 228.411 91.1789 228.46C90.7428 228.51 90.3219 228.65 89.9437 228.872C87.6987 230.27 87.4708 235.027 88.0531 237.292C88.0531 237.436 88.6946 239.035 89.0406 239.903C88.3401 239.322 87.648 238.749 86.9222 238.219C84.8291 236.61 82.7022 235.044 80.5078 233.47L78.5413 232.013C78.8198 231.786 82.162 229.091 83.0567 227.315C83.85 225.74 84.4155 223.517 83.5884 221.85C83.4075 221.45 83.144 221.092 82.8151 220.8C82.4861 220.508 82.0992 220.288 81.6794 220.155C81.2597 220.023 80.8166 219.98 80.3791 220.03C79.9416 220.079 79.5196 220.221 79.1405 220.444C76.9039 221.85 76.676 226.599 77.2584 228.864C77.3006 229.032 78.1699 231.323 78.4231 231.895C76.9799 230.826 75.5535 229.748 74.2031 228.628C72.3561 227.12 70.6082 225.494 68.9703 223.761C69.0969 223.66 72.5995 220.857 73.511 219.046C74.3044 217.472 74.8699 215.249 74.0427 213.573C73.86 213.177 73.5959 212.822 73.2676 212.534C72.9392 212.245 72.5538 212.028 72.1363 211.897C71.7188 211.767 71.2784 211.724 70.8436 211.774C70.4088 211.823 69.9891 211.963 69.6117 212.184C67.3667 213.59 67.1473 218.347 67.7212 220.604C67.7634 220.756 68.4217 222.507 68.7593 223.324L68.6327 223.408C67.0294 221.619 65.5889 219.692 64.3283 217.649C63.6278 216.537 63.0117 215.426 62.4377 214.34C63.1467 213.885 66.3455 211.814 67.3498 210.231C68.3542 208.648 69.1222 206.602 68.4808 204.85C68.3435 204.439 68.1218 204.06 67.8299 203.739C67.538 203.418 67.1823 203.161 66.7853 202.984C66.3884 202.807 65.9589 202.715 65.5243 202.713C65.0896 202.711 64.6593 202.8 64.2608 202.973C61.8807 204.118 61.1295 208.867 61.4587 211.157C61.4587 211.283 61.7963 212.554 62.0495 213.472C61.7963 212.984 61.5262 212.47 61.2983 211.99C60.4543 210.197 59.7369 208.496 59.1461 206.989C58.817 206.147 58.53 205.305 58.3021 204.598C58.7579 203.798 60.5725 200.522 60.7413 198.704C60.9101 196.885 60.64 194.67 59.2643 193.407C58.9503 193.1 58.575 192.861 58.1627 192.708C57.7504 192.554 57.3103 192.488 56.871 192.515C56.4316 192.542 56.0029 192.661 55.6126 192.864C55.2223 193.067 54.8792 193.35 54.6054 193.694C53.0271 195.807 54.5379 200.329 55.9052 202.248C56.0233 202.417 58.1671 204.774 58.1924 204.774V204.724C58.4287 205.44 58.6819 206.197 58.9858 207.031C59.5513 208.555 60.2011 210.273 61.0367 212.083C61.9134 214.059 62.9054 215.982 64.0076 217.842C65.2366 219.928 66.6488 221.9 68.2276 223.736L68.2867 223.795C67.6283 223.391 65.7547 222.322 65.5943 222.254C63.4252 221.32 58.6735 220.798 56.9349 222.785C56.6554 223.123 56.4506 223.517 56.3338 223.94C56.217 224.363 56.1908 224.806 56.2569 225.239C56.323 225.673 56.4799 226.088 56.7174 226.457C56.9549 226.826 57.2677 227.142 57.6354 227.382C59.1546 228.46 61.4503 228.224 63.1298 227.719C65.0288 227.121 68.1938 224.233 68.4892 224.006C70.1401 225.836 71.9107 227.554 73.7895 229.15C74.8783 230.085 76.0008 230.994 77.1655 231.895C76.5832 231.567 76.0599 231.272 75.9839 231.238C73.8149 230.304 69.0716 229.782 67.3329 231.769C67.0518 232.107 66.8454 232.5 66.7272 232.922C66.609 233.345 66.5816 233.788 66.647 234.222C66.7123 234.656 66.8689 235.072 67.1063 235.441C67.3438 235.811 67.6569 236.126 68.025 236.366C69.5527 237.444 71.8399 237.208 73.5279 236.703C75.2159 236.198 78.0095 233.756 78.7438 233.108L80.0605 234.135C82.1873 235.76 84.2805 237.368 86.3483 239.01C87.0657 239.591 87.7493 240.18 88.4414 240.778C87.9265 240.484 87.4877 240.239 87.4117 240.206C85.2426 239.28 80.4993 238.749 78.7607 240.745C78.4796 241.082 78.2732 241.475 78.1549 241.898C78.0367 242.321 78.0094 242.764 78.0747 243.198C78.1401 243.632 78.2966 244.047 78.5341 244.417C78.7716 244.786 79.0847 245.102 79.4528 245.342C80.9804 246.42 83.2677 246.184 84.9557 245.67C86.6437 245.157 89.1757 242.959 90.0197 242.201C90.7033 242.824 91.3954 243.456 92.0368 244.096C92.4588 244.542 92.8808 244.938 93.3028 245.418L94.5097 246.79C95.2525 247.683 96.0121 248.6 96.7126 249.493C97.2021 250.116 97.6579 250.714 98.1221 251.312C97.4131 250.731 96.0036 249.628 95.8686 249.535C93.8683 248.281 89.2601 247.051 87.2345 248.752C86.9076 249.045 86.6461 249.403 86.4671 249.804C86.2882 250.204 86.1957 250.638 86.1957 251.076C86.1957 251.514 86.2882 251.948 86.4671 252.348C86.6461 252.749 86.9076 253.107 87.2345 253.4C88.5764 254.697 90.8721 254.831 92.6192 254.562C94.5351 254.267 98.0123 252.036 98.4428 251.724C99.2024 252.718 99.9282 253.695 100.603 254.621C102.941 257.846 104.764 260.624 106.013 262.578L106.14 262.78L107.761 261.997L107.507 261.609C106.199 259.664 104.3 256.903 101.861 253.695C101.101 252.676 100.257 251.615 99.3881 250.52C100.291 249.537 101.136 248.502 101.92 247.422C103.777 248.146 107.651 248.171 108.149 248.171C108.233 249.426 108.301 250.638 108.343 251.783C108.512 255.766 108.495 259.083 108.461 261.399C108.461 261.492 108.461 261.576 108.461 261.668L110.242 260.826C110.242 258.519 110.149 255.404 109.921 251.716C109.837 250.453 109.727 249.097 109.609 247.708C110.098 247.59 114.124 246.554 115.644 245.342C117.028 244.247 118.479 242.462 118.429 240.601C118.432 240.163 118.343 239.729 118.167 239.327C117.991 238.925 117.732 238.565 117.407 238.269C117.082 237.974 116.699 237.75 116.282 237.612C115.864 237.474 115.423 237.426 114.985 237.469C112.352 237.806 110.158 242.024 109.727 244.348C109.727 244.483 109.584 246.032 109.533 246.95C109.482 246.386 109.432 245.839 109.373 245.266C109.254 244.113 109.103 242.968 108.951 241.73C108.849 241.14 108.748 240.534 108.655 239.928C108.562 239.322 108.402 238.699 108.275 238.084C107.955 236.644 107.566 235.204 107.136 233.764C108.149 233.663 111.744 233.242 113.28 232.358C114.816 231.474 116.513 229.942 116.749 228.089C116.818 227.657 116.796 227.214 116.682 226.791C116.569 226.368 116.368 225.973 116.092 225.632C115.815 225.292 115.47 225.013 115.079 224.814C114.688 224.615 114.259 224.5 113.82 224.477C111.17 224.41 108.351 228.249 107.575 230.481C107.524 230.615 107.144 232.274 106.959 233.192C106.689 232.35 106.435 231.466 106.115 230.599C105.271 228.073 104.317 225.605 103.389 223.105L102.545 220.806C102.908 220.806 107.187 220.368 108.908 219.375C110.436 218.533 112.141 216.958 112.377 215.106C112.448 214.673 112.426 214.23 112.313 213.806C112.201 213.382 111.999 212.987 111.723 212.646C111.447 212.305 111.101 212.026 110.709 211.828C110.317 211.629 109.888 211.515 109.449 211.494C106.798 211.426 103.979 215.274 103.203 217.497C103.144 217.665 102.604 220.023 102.494 220.671C101.886 218.987 101.296 217.303 100.806 215.619C100.101 213.343 99.5373 211.026 99.118 208.681C99.2868 208.681 103.76 208.26 105.524 207.25C107.052 206.366 108.756 204.825 108.993 202.973C109.062 202.539 109.039 202.096 108.925 201.672C108.812 201.248 108.61 200.853 108.332 200.512C108.055 200.172 107.709 199.893 107.317 199.694C106.925 199.496 106.495 199.382 106.056 199.36C103.414 199.293 100.595 203.141 99.8185 205.364C99.7679 205.507 99.3543 207.334 99.1771 208.201H99.0251C98.6765 205.83 98.541 203.432 98.62 201.036C98.62 199.722 98.7466 198.459 98.8732 197.238C99.7172 197.238 103.557 197.238 105.245 196.514C106.933 195.79 108.723 194.46 109.162 192.65C109.279 192.226 109.305 191.782 109.238 191.347C109.171 190.912 109.013 190.496 108.774 190.127C108.535 189.757 108.22 189.442 107.851 189.202C107.481 188.962 107.065 188.803 106.63 188.734C104.005 188.381 100.781 191.892 99.7679 194.014C99.7088 194.132 99.2783 195.369 98.9745 196.279C99.0336 195.723 99.0927 195.159 99.1686 194.595C99.4387 192.616 99.8016 190.822 100.139 189.231C100.342 188.33 100.536 187.547 100.73 186.764C101.574 186.343 104.883 184.617 106.022 183.211C107.161 181.805 108.157 179.792 107.71 177.982C107.617 177.546 107.432 177.135 107.166 176.777C106.901 176.418 106.562 176.121 106.172 175.904C105.782 175.687 105.35 175.556 104.904 175.519C104.459 175.483 104.012 175.541 103.591 175.692Z" fill="#00446B"/>
<path d="M55.754 216.394C57.8218 216.31 61.9574 214.188 61.9658 214.188C61.9743 214.188 59.7377 211.898 59.5773 211.763C57.729 210.298 53.2895 208.538 51.0867 210.003C50.7277 210.256 50.4259 210.581 50.2011 210.957C49.9762 211.334 49.8333 211.753 49.7816 212.188C49.7298 212.624 49.7704 213.065 49.9008 213.483C50.0311 213.902 50.2482 214.288 50.5381 214.617C51.7281 216.057 54.0154 216.461 55.754 216.394Z" fill="#00446B"/>
<g opacity="0.5">
<path d="M98.4696 196.843C98.5202 196.843 97.8872 193.702 97.8197 193.475C97.0938 191.235 94.3677 187.328 91.7176 187.328C91.2779 187.342 90.8461 187.447 90.45 187.638C90.054 187.829 89.7025 188.101 89.4185 188.436C89.1344 188.771 88.924 189.162 88.801 189.583C88.678 190.004 88.6451 190.447 88.7045 190.881C88.8986 192.734 90.5697 194.317 92.0805 195.226C93.8529 196.329 98.4696 196.843 98.4696 196.843Z" fill="white"/>
<path d="M103.591 175.692C101.101 176.584 99.8691 181.182 99.9451 183.539C99.9451 183.741 100.418 186.907 100.468 186.907H100.519C100.316 187.631 100.105 188.406 99.8945 189.265C99.5231 190.848 99.118 192.633 98.8057 194.62C98.4436 196.749 98.2069 198.896 98.0967 201.053C97.9664 203.469 98.0483 205.892 98.3415 208.294C98.3447 208.322 98.3447 208.35 98.3415 208.378C98.0208 207.679 97.0417 205.751 96.9489 205.608C95.6491 203.638 91.9862 200.556 89.4289 201.289C89.0097 201.417 88.6224 201.633 88.292 201.92C87.9616 202.208 87.6955 202.562 87.5109 202.959C87.3263 203.356 87.2274 203.787 87.2205 204.224C87.2135 204.662 87.2988 205.096 87.4708 205.499C88.146 207.241 90.1716 208.319 91.868 208.808C93.7839 209.346 98.0545 208.707 98.3921 208.656C98.758 211.09 99.2824 213.498 99.962 215.864C100.359 217.244 100.806 218.625 101.245 219.998C100.949 219.4 100.671 218.869 100.629 218.802C99.329 216.832 95.666 213.75 93.1087 214.483C92.6896 214.612 92.3023 214.827 91.9719 215.115C91.6415 215.402 91.3754 215.756 91.1908 216.153C91.0062 216.55 90.9072 216.981 90.9003 217.419C90.8934 217.856 90.9787 218.29 91.1506 218.693C91.8258 220.427 93.8514 221.513 95.5479 221.993C97.2443 222.473 100.924 221.993 101.886 221.875C102.064 222.397 102.241 222.928 102.426 223.45C103.27 225.976 104.182 228.502 104.958 230.977C105.237 231.819 105.473 232.729 105.718 233.604C105.456 233.074 105.22 232.628 105.178 232.569C103.887 230.59 100.215 227.517 97.6663 228.249C97.2464 228.377 96.8582 228.592 96.5269 228.879C96.1956 229.167 95.9285 229.52 95.7431 229.917C95.5576 230.314 95.4579 230.746 95.4505 231.184C95.443 231.622 95.528 232.056 95.6998 232.459C96.375 234.194 98.409 235.28 100.105 235.76C101.802 236.24 105.119 235.819 106.267 235.659C106.495 236.56 106.722 237.469 106.9 238.353C107.001 238.96 107.144 239.532 107.22 240.155L107.474 241.957C107.592 243.111 107.727 244.298 107.811 245.426C107.879 246.218 107.929 246.967 107.98 247.716C107.718 246.874 107.136 245.131 107.136 244.997C106.202 243.144 104.807 241.561 103.085 240.399C102.989 240.189 102.876 239.986 102.747 239.793C102.507 239.426 102.191 239.114 101.822 238.876C101.452 238.638 101.037 238.48 100.603 238.413C100.168 238.345 99.7244 238.37 99.3 238.484C98.8756 238.599 98.4801 238.801 98.1389 239.077C96.1387 240.804 96.6366 245.536 97.5566 247.708C97.6072 247.834 98.4006 249.165 98.8395 249.99L97.7676 248.659C97.0249 247.758 96.2653 246.883 95.455 245.94C95.0386 245.502 94.6251 245.056 94.2143 244.601C93.8092 244.146 93.3281 243.717 92.8808 243.262C91.8174 242.243 90.6949 241.258 89.5048 240.298C90.2982 239.65 93.0581 237.326 93.8514 235.743C94.6448 234.16 95.2103 231.946 94.3831 230.27C94.2013 229.872 93.9375 229.516 93.6089 229.225C93.2802 228.935 92.8941 228.717 92.4754 228.585C92.0568 228.453 91.6151 228.411 91.1789 228.46C90.7428 228.51 90.3219 228.65 89.9437 228.872C87.6987 230.27 87.4708 235.027 88.0531 237.292C88.0531 237.436 88.6946 239.035 89.0406 239.903C88.3401 239.322 87.648 238.749 86.9222 238.219C84.8291 236.61 82.7022 235.044 80.5078 233.47L78.5413 232.013C78.8198 231.786 82.162 229.091 83.0567 227.315C83.85 225.74 84.4155 223.517 83.5884 221.85C83.4075 221.45 83.144 221.092 82.8151 220.8C82.4861 220.508 82.0992 220.288 81.6794 220.155C81.2597 220.023 80.8166 219.98 80.3791 220.03C79.9416 220.079 79.5196 220.221 79.1405 220.444C76.9039 221.85 76.676 226.599 77.2584 228.864C77.3006 229.032 78.1699 231.323 78.4231 231.895C76.9799 230.826 75.5535 229.748 74.2031 228.628C72.3561 227.12 70.6082 225.494 68.9703 223.761C69.0969 223.66 72.5995 220.857 73.511 219.046C74.3044 217.472 74.8699 215.249 74.0427 213.573C73.86 213.177 73.5959 212.822 73.2676 212.534C72.9392 212.245 72.5538 212.028 72.1363 211.897C71.7188 211.767 71.2784 211.724 70.8436 211.774C70.4088 211.823 69.9891 211.963 69.6117 212.184C67.3667 213.59 67.1473 218.347 67.7212 220.604C67.7634 220.756 68.4217 222.507 68.7593 223.324L68.6327 223.408C67.0294 221.619 65.5889 219.692 64.3283 217.649C63.6278 216.537 63.0117 215.426 62.4377 214.34C63.1467 213.885 66.3455 211.814 67.3498 210.231C68.3542 208.648 69.1222 206.602 68.4808 204.85C68.3435 204.439 68.1218 204.06 67.8299 203.739C67.538 203.418 67.1823 203.161 66.7853 202.984C66.3884 202.807 65.9589 202.715 65.5243 202.713C65.0896 202.711 64.6593 202.8 64.2608 202.973C61.8807 204.118 61.1295 208.867 61.4587 211.157C61.4587 211.283 61.7963 212.554 62.0495 213.472C61.7963 212.984 61.5262 212.47 61.2983 211.99C60.4543 210.197 59.7369 208.496 59.1461 206.989C58.817 206.147 58.53 205.305 58.3021 204.598C58.7579 203.798 60.5725 200.522 60.7413 198.704C60.9101 196.885 60.64 194.67 59.2643 193.407C58.9503 193.1 58.575 192.861 58.1627 192.708C57.7504 192.554 57.3103 192.488 56.871 192.515C56.4316 192.542 56.0029 192.661 55.6126 192.864C55.2223 193.067 54.8792 193.35 54.6054 193.694C53.0271 195.807 54.5379 200.329 55.9052 202.248C56.0233 202.417 58.1671 204.774 58.1924 204.774V204.724C58.4287 205.44 58.6819 206.197 58.9858 207.031C59.5513 208.555 60.2011 210.273 61.0367 212.083C61.9134 214.059 62.9054 215.982 64.0076 217.842C65.2366 219.928 66.6488 221.9 68.2276 223.736L68.2867 223.795C67.6283 223.391 65.7547 222.322 65.5943 222.254C63.4252 221.32 58.6735 220.798 56.9349 222.785C56.6554 223.123 56.4506 223.517 56.3338 223.94C56.217 224.363 56.1908 224.806 56.2569 225.239C56.323 225.673 56.4799 226.088 56.7174 226.457C56.9549 226.826 57.2677 227.142 57.6354 227.382C59.1546 228.46 61.4503 228.224 63.1298 227.719C65.0288 227.121 68.1938 224.233 68.4892 224.006C70.1401 225.836 71.9107 227.554 73.7895 229.15C74.8783 230.085 76.0008 230.994 77.1655 231.895C76.5832 231.567 76.0599 231.272 75.9839 231.238C73.8149 230.304 69.0716 229.782 67.3329 231.769C67.0518 232.107 66.8454 232.5 66.7272 232.922C66.609 233.345 66.5816 233.788 66.647 234.222C66.7123 234.656 66.8689 235.072 67.1063 235.441C67.3438 235.811 67.6569 236.126 68.025 236.366C69.5527 237.444 71.8399 237.208 73.5279 236.703C75.2159 236.198 78.0095 233.756 78.7438 233.108L80.0605 234.135C82.1873 235.76 84.2805 237.368 86.3483 239.01C87.0657 239.591 87.7493 240.18 88.4414 240.778C87.9265 240.484 87.4877 240.239 87.4117 240.206C85.2426 239.28 80.4993 238.749 78.7607 240.745C78.4796 241.082 78.2732 241.475 78.1549 241.898C78.0367 242.321 78.0094 242.764 78.0747 243.198C78.1401 243.632 78.2966 244.047 78.5341 244.417C78.7716 244.786 79.0847 245.102 79.4528 245.342C80.9804 246.42 83.2677 246.184 84.9557 245.67C86.6437 245.157 89.1757 242.959 90.0197 242.201C90.7033 242.824 91.3954 243.456 92.0368 244.096C92.4588 244.542 92.8808 244.938 93.3028 245.418L94.5097 246.79C95.2525 247.683 96.0121 248.6 96.7126 249.493C97.2021 250.116 97.6579 250.714 98.1221 251.312C97.4131 250.731 96.0036 249.628 95.8686 249.535C93.8683 248.281 89.2601 247.051 87.2345 248.752C86.9076 249.045 86.6461 249.403 86.4671 249.804C86.2882 250.204 86.1957 250.638 86.1957 251.076C86.1957 251.514 86.2882 251.948 86.4671 252.348C86.6461 252.749 86.9076 253.107 87.2345 253.4C88.5764 254.697 90.8721 254.831 92.6192 254.562C94.5351 254.267 98.0123 252.036 98.4428 251.724C99.2024 252.718 99.9282 253.695 100.603 254.621C102.941 257.846 104.764 260.624 106.013 262.578L106.14 262.78L107.761 261.997L107.507 261.609C106.199 259.664 104.3 256.903 101.861 253.695C101.101 252.676 100.257 251.615 99.3881 250.52C100.291 249.537 101.136 248.502 101.92 247.422C103.777 248.146 107.651 248.171 108.149 248.171C108.233 249.426 108.301 250.638 108.343 251.783C108.512 255.766 108.495 259.083 108.461 261.399C108.461 261.492 108.461 261.576 108.461 261.668L110.242 260.826C110.242 258.519 110.149 255.404 109.921 251.716C109.837 250.453 109.727 249.097 109.609 247.708C110.098 247.59 114.124 246.554 115.644 245.342C117.028 244.247 118.479 242.462 118.429 240.601C118.432 240.163 118.343 239.729 118.167 239.327C117.991 238.925 117.732 238.565 117.407 238.269C117.082 237.974 116.699 237.75 116.282 237.612C115.864 237.474 115.423 237.426 114.985 237.469C112.352 237.806 110.158 242.024 109.727 244.348C109.727 244.483 109.584 246.032 109.533 246.95C109.482 246.386 109.432 245.839 109.373 245.266C109.254 244.113 109.103 242.968 108.951 241.73C108.849 241.14 108.748 240.534 108.655 239.928C108.562 239.322 108.402 238.699 108.275 238.084C107.955 236.644 107.566 235.204 107.136 233.764C108.149 233.663 111.744 233.242 113.28 232.358C114.816 231.474 116.513 229.942 116.749 228.089C116.818 227.657 116.796 227.214 116.682 226.791C116.569 226.368 116.368 225.973 116.092 225.632C115.815 225.292 115.47 225.013 115.079 224.814C114.688 224.615 114.259 224.5 113.82 224.477C111.17 224.41 108.351 228.249 107.575 230.481C107.524 230.615 107.144 232.274 106.959 233.192C106.689 232.35 106.435 231.466 106.115 230.599C105.271 228.073 104.317 225.605 103.389 223.105L102.545 220.806C102.908 220.806 107.187 220.368 108.908 219.375C110.436 218.533 112.141 216.958 112.377 215.106C112.448 214.673 112.426 214.23 112.313 213.806C112.201 213.382 111.999 212.987 111.723 212.646C111.447 212.305 111.101 212.026 110.709 211.828C110.317 211.629 109.888 211.515 109.449 211.494C106.798 211.426 103.979 215.274 103.203 217.497C103.144 217.665 102.604 220.023 102.494 220.671C101.886 218.987 101.296 217.303 100.806 215.619C100.101 213.343 99.5373 211.026 99.118 208.681C99.2868 208.681 103.76 208.26 105.524 207.25C107.052 206.366 108.756 204.825 108.993 202.973C109.062 202.539 109.039 202.096 108.925 201.672C108.812 201.248 108.61 200.853 108.332 200.512C108.055 200.172 107.709 199.893 107.317 199.694C106.925 199.496 106.495 199.382 106.056 199.36C103.414 199.293 100.595 203.141 99.8185 205.364C99.7679 205.507 99.3543 207.334 99.1771 208.201H99.0251C98.6765 205.83 98.541 203.432 98.62 201.036C98.62 199.722 98.7466 198.459 98.8732 197.238C99.7172 197.238 103.557 197.238 105.245 196.514C106.933 195.79 108.723 194.46 109.162 192.65C109.279 192.226 109.305 191.782 109.238 191.347C109.171 190.912 109.013 190.496 108.774 190.127C108.535 189.757 108.22 189.442 107.851 189.202C107.481 188.962 107.065 188.803 106.63 188.734C104.005 188.381 100.781 191.892 99.7679 194.014C99.7088 194.132 99.2783 195.369 98.9745 196.279C99.0336 195.723 99.0927 195.159 99.1686 194.595C99.4387 192.616 99.8016 190.822 100.139 189.231C100.342 188.33 100.536 187.547 100.73 186.764C101.574 186.343 104.883 184.617 106.022 183.211C107.161 181.805 108.157 179.792 107.71 177.982C107.617 177.546 107.432 177.135 107.166 176.777C106.901 176.418 106.562 176.121 106.172 175.904C105.782 175.687 105.35 175.556 104.904 175.519C104.459 175.483 104.012 175.541 103.591 175.692Z" fill="white"/>
<path d="M55.754 216.394C57.8218 216.31 61.9574 214.188 61.9658 214.188C61.9743 214.188 59.7377 211.898 59.5773 211.763C57.729 210.298 53.2895 208.538 51.0867 210.003C50.7277 210.256 50.4259 210.581 50.2011 210.957C49.9762 211.334 49.8333 211.753 49.7816 212.188C49.7298 212.624 49.7704 213.065 49.9008 213.483C50.0311 213.902 50.2482 214.288 50.5381 214.617C51.7281 216.057 54.0154 216.461 55.754 216.394Z" fill="white"/>
</g>
<path d="M79.9006 268.051C79.9006 268.051 92.4509 237.873 99.4729 239.187C106.495 240.5 87.4291 287.299 87.4291 287.299C87.4291 287.299 109.508 245.746 124.565 245.746C139.622 245.746 119.045 291.669 99.9793 306.976C99.9793 306.976 130.085 274.61 147.657 281.615C165.229 288.621 112.521 321.417 112.521 321.417C112.521 321.417 143.133 311.793 139.622 319.227C136.111 326.662 126.599 327.976 126.599 327.976L161.203 329.727H40.7559L67.8567 327.1C67.8567 327.1 39.7515 313.106 47.2631 307.414C54.7747 301.722 71.3509 313.973 71.3509 313.973C71.3509 313.973 42.7477 282.483 48.2675 270.678C53.7872 258.873 78.3814 292.107 78.3814 292.107C78.3814 292.107 58.3026 249.687 62.3454 242.243C66.3881 234.8 79.9006 268.051 79.9006 268.051Z" fill="#00446B"/>
<path opacity="0.4" d="M79.9006 268.051C79.9006 268.051 92.4509 237.873 99.4729 239.187C106.495 240.5 87.4291 287.299 87.4291 287.299C87.4291 287.299 109.508 245.746 124.565 245.746C139.622 245.746 119.045 291.669 99.9793 306.976C99.9793 306.976 130.085 274.61 147.657 281.615C165.229 288.621 112.521 321.417 112.521 321.417C112.521 321.417 143.133 311.793 139.622 319.227C136.111 326.662 126.599 327.976 126.599 327.976L161.203 329.727H40.7559L67.8567 327.1C67.8567 327.1 39.7515 313.106 47.2631 307.414C54.7747 301.722 71.3509 313.973 71.3509 313.973C71.3509 313.973 42.7477 282.483 48.2675 270.678C53.7872 258.873 78.3814 292.107 78.3814 292.107C78.3814 292.107 58.3026 249.687 62.3454 242.243C66.3881 234.8 79.9006 268.051 79.9006 268.051Z" fill="white"/>
<path d="M75.8915 269.642C86.931 302.185 86.931 325.214 86.931 325.214C86.931 325.214 73.8828 325.719 60.3281 315.708" stroke="#263238" stroke-linecap="round" stroke-linejoin="round"/>
<path d="M81.4121 287.164C83.6843 277.435 86.7034 267.895 90.4429 258.629" stroke="#263238" stroke-linecap="round" stroke-linejoin="round"/>
<path d="M114.032 268.143L85.9266 309.696C85.9266 309.696 66.8522 293.698 60.3281 284.663" stroke="#263238" stroke-linecap="round" stroke-linejoin="round"/>
<path d="M86.4238 319.707C86.4238 319.707 116.031 305.688 128.084 297.681" stroke="#263238" stroke-linecap="round" stroke-linejoin="round"/>
<path d="M333.058 196.843C333.007 196.843 333.648 193.702 333.707 193.475C334.433 191.235 337.168 187.328 339.81 187.328C340.249 187.342 340.681 187.447 341.077 187.638C341.473 187.829 341.825 188.101 342.109 188.436C342.393 188.771 342.603 189.162 342.726 189.583C342.849 190.004 342.882 190.447 342.823 190.881C342.628 192.734 340.957 194.317 339.447 195.226C337.674 196.329 333.058 196.843 333.058 196.843Z" fill="#00446B"/>
<path d="M327.935 175.692C330.425 176.584 331.665 181.182 331.581 183.539C331.581 183.741 331.108 186.907 331.066 186.907H331.015C331.209 187.631 331.42 188.406 331.631 189.265C332.003 190.848 332.408 192.633 332.72 194.62C333.082 196.749 333.319 198.897 333.429 201.053C333.564 203.469 333.482 205.892 333.184 208.294C333.181 208.322 333.181 208.35 333.184 208.378C333.514 207.679 334.493 205.751 334.577 205.608C335.877 203.638 339.54 200.556 342.097 201.289C342.517 201.416 342.905 201.631 343.236 201.918C343.567 202.206 343.834 202.56 344.019 202.957C344.204 203.354 344.302 203.786 344.309 204.224C344.315 204.662 344.228 205.096 344.055 205.499C343.38 207.241 341.354 208.319 339.658 208.808C337.742 209.347 333.471 208.707 333.134 208.656C332.772 211.091 332.247 213.499 331.564 215.864C331.17 217.244 330.742 218.623 330.281 219.998C330.576 219.4 330.855 218.87 330.897 218.802C332.197 216.832 335.868 213.75 338.417 214.483C338.837 214.61 339.225 214.825 339.556 215.113C339.888 215.4 340.154 215.754 340.339 216.151C340.524 216.549 340.622 216.98 340.629 217.418C340.635 217.856 340.549 218.29 340.375 218.693C339.7 220.427 337.674 221.513 335.978 221.993C334.282 222.473 330.602 221.993 329.64 221.875L329.108 223.45C328.264 225.976 327.344 228.502 326.576 230.977C326.297 231.819 326.053 232.729 325.808 233.605C326.078 233.074 326.306 232.628 326.348 232.569C327.648 230.59 331.311 227.517 333.86 228.249C334.279 228.377 334.668 228.592 334.999 228.879C335.33 229.167 335.597 229.52 335.783 229.917C335.968 230.314 336.068 230.746 336.075 231.184C336.083 231.622 335.998 232.056 335.826 232.459C335.151 234.194 333.117 235.28 331.42 235.76C329.724 236.24 326.407 235.819 325.259 235.659C325.031 236.56 324.812 237.469 324.635 238.353C324.525 238.96 324.381 239.532 324.306 240.155L324.052 241.957C323.934 243.111 323.799 244.298 323.715 245.426C323.647 246.218 323.597 246.967 323.546 247.716C323.816 246.874 324.39 245.132 324.432 244.997C325.369 243.146 326.764 241.564 328.483 240.399C328.579 240.187 328.695 239.984 328.829 239.793C329.068 239.425 329.382 239.112 329.751 238.873C330.12 238.635 330.535 238.477 330.969 238.409C331.403 238.342 331.847 238.366 332.27 238.481C332.694 238.597 333.089 238.8 333.429 239.078C335.438 240.804 334.931 245.536 334.012 247.708C333.961 247.834 333.21 249.165 332.729 249.99C333.092 249.544 333.429 249.148 333.809 248.659C334.543 247.759 335.303 246.883 336.113 245.94L337.354 244.601C337.759 244.146 338.248 243.717 338.696 243.262C339.751 242.243 340.873 241.258 342.03 240.298C341.245 239.65 338.476 237.326 337.683 235.743C336.89 234.16 336.324 231.946 337.151 230.27C337.333 229.87 337.597 229.513 337.926 229.222C338.256 228.931 338.643 228.712 339.062 228.581C339.482 228.449 339.925 228.406 340.362 228.457C340.799 228.507 341.221 228.649 341.599 228.872C343.836 230.27 344.064 235.028 343.481 237.292C343.481 237.436 342.84 239.035 342.494 239.903C343.194 239.322 343.886 238.749 344.612 238.219C346.705 236.61 348.874 235.044 351.027 233.47L352.993 232.013C352.715 231.786 349.372 229.091 348.478 227.315C347.693 225.74 347.119 223.517 347.946 221.85C348.127 221.45 348.39 221.092 348.719 220.8C349.048 220.508 349.435 220.288 349.855 220.156C350.275 220.023 350.718 219.98 351.155 220.03C351.593 220.079 352.015 220.221 352.394 220.444C354.639 221.85 354.858 226.599 354.276 228.864C354.234 229.032 353.364 231.323 353.12 231.895C354.554 230.826 355.981 229.748 357.34 228.628C359.187 227.12 360.935 225.494 362.572 223.762C362.446 223.66 358.943 220.857 358.032 219.046C357.238 217.472 356.673 215.249 357.5 213.573C357.681 213.174 357.944 212.817 358.273 212.526C358.601 212.235 358.987 212.016 359.406 211.883C359.824 211.75 360.266 211.707 360.703 211.756C361.139 211.805 361.561 211.945 361.939 212.167C364.185 213.573 364.412 218.331 363.83 220.587C363.788 220.739 363.13 222.49 362.8 223.307C362.839 223.34 362.882 223.368 362.927 223.391C364.528 221.603 365.965 219.675 367.223 217.632C367.932 216.52 368.54 215.409 369.113 214.323C368.405 213.868 365.206 211.797 364.201 210.214C363.197 208.631 362.437 206.585 363.07 204.833C363.207 204.417 363.43 204.033 363.725 203.708C364.02 203.383 364.38 203.123 364.782 202.946C365.184 202.769 365.619 202.679 366.058 202.68C366.498 202.682 366.932 202.776 367.333 202.956C369.721 204.101 370.464 208.85 370.135 211.14C370.135 211.266 369.797 212.538 369.552 213.455C369.797 212.967 370.067 212.453 370.295 211.974C371.139 210.18 371.856 208.479 372.447 206.972C372.785 206.13 373.063 205.288 373.291 204.581C372.827 203.781 371.021 200.506 370.844 198.687C370.666 196.868 370.953 194.654 372.329 193.391C372.642 193.083 373.017 192.845 373.429 192.691C373.84 192.538 374.28 192.472 374.718 192.499C375.157 192.526 375.585 192.645 375.975 192.848C376.364 193.051 376.707 193.333 376.98 193.677C378.566 195.79 377.056 200.312 375.688 202.232C375.57 202.4 373.418 204.758 373.393 204.758V204.707C373.156 205.423 372.903 206.181 372.599 207.014C372.042 208.538 371.392 210.256 370.557 212.066C369.674 214.041 368.679 215.963 367.577 217.825C366.348 219.911 364.936 221.883 363.357 223.719L363.298 223.778C363.957 223.374 365.83 222.305 365.991 222.238C368.168 221.303 372.911 220.781 374.65 222.768C374.93 223.106 375.135 223.499 375.253 223.922C375.37 224.344 375.397 224.787 375.332 225.221C375.267 225.654 375.111 226.069 374.874 226.439C374.637 226.808 374.325 227.124 373.958 227.365C372.43 228.443 370.143 228.207 368.455 227.702C366.556 227.104 363.391 224.216 363.104 223.989C361.453 225.819 359.683 227.537 357.804 229.133C356.715 230.068 355.584 230.977 354.428 231.878C355.01 231.55 355.534 231.255 355.609 231.222C357.779 230.287 362.522 229.765 364.26 231.752C364.542 232.09 364.748 232.483 364.866 232.906C364.984 233.328 365.012 233.771 364.946 234.205C364.881 234.639 364.725 235.055 364.487 235.424C364.25 235.794 363.937 236.109 363.568 236.349C362.049 237.427 359.754 237.191 358.074 236.686C356.394 236.181 353.584 233.739 352.858 233.091C352.411 233.436 352.014 233.781 351.533 234.118C349.415 235.743 347.313 237.351 345.245 238.993C344.528 239.574 343.844 240.164 343.152 240.762L344.182 240.189C346.351 239.263 351.094 238.732 352.833 240.728C353.114 241.065 353.32 241.459 353.438 241.881C353.557 242.304 353.584 242.747 353.519 243.181C353.453 243.615 353.297 244.031 353.059 244.4C352.822 244.77 352.509 245.085 352.141 245.325C350.613 246.403 348.326 246.167 346.646 245.654C344.967 245.14 342.426 242.942 341.582 242.185C340.899 242.808 340.206 243.439 339.573 244.079C339.143 244.525 338.729 244.921 338.307 245.401L337.092 246.773C336.358 247.666 335.59 248.584 334.889 249.476C334.4 250.099 333.944 250.697 333.488 251.295C334.189 250.714 335.607 249.611 335.733 249.518C337.734 248.264 342.35 247.034 344.367 248.735C344.694 249.028 344.956 249.387 345.135 249.787C345.314 250.187 345.406 250.621 345.406 251.059C345.406 251.498 345.314 251.931 345.135 252.331C344.956 252.732 344.694 253.09 344.367 253.383C343.017 254.68 340.721 254.814 338.983 254.545C337.058 254.25 333.581 252.019 333.151 251.708C332.391 252.701 331.665 253.678 330.99 254.604C328.652 257.829 326.829 260.607 325.58 262.561C325.58 262.637 325.496 262.696 325.453 262.763L323.833 261.98L324.086 261.593C325.394 259.648 327.302 256.886 329.732 253.678C330.5 252.659 331.336 251.598 332.205 250.503C331.301 249.522 330.455 248.487 329.673 247.405C327.808 248.129 323.943 248.154 323.436 248.154C323.36 249.409 323.293 250.621 323.242 251.766C323.073 255.749 323.09 259.067 323.132 261.382V261.652L321.352 260.81C321.352 258.502 321.444 255.387 321.681 251.699C321.757 250.436 321.866 249.08 321.993 247.691C321.495 247.573 317.469 246.538 315.95 245.325C314.574 244.231 313.123 242.446 313.173 240.585C313.168 240.146 313.257 239.711 313.432 239.308C313.608 238.906 313.867 238.545 314.192 238.249C314.517 237.953 314.901 237.73 315.319 237.592C315.737 237.455 316.179 237.407 316.617 237.452C319.242 237.789 321.444 242.008 321.875 244.332C321.875 244.466 322.01 246.016 322.06 246.933C322.12 246.369 322.162 245.822 322.229 245.249C322.339 244.096 322.491 242.951 322.651 241.713C322.744 241.124 322.845 240.517 322.938 239.911C323.031 239.305 323.191 238.682 323.318 238.067C323.639 236.627 324.027 235.187 324.457 233.748C323.445 233.647 319.858 233.226 318.313 232.342C316.769 231.457 315.081 229.925 314.853 228.073C314.782 227.64 314.804 227.197 314.917 226.773C315.029 226.349 315.231 225.954 315.507 225.613C315.783 225.272 316.129 224.993 316.521 224.794C316.913 224.596 317.342 224.482 317.781 224.46C320.423 224.393 323.242 228.233 324.019 230.464C324.069 230.599 324.449 232.257 324.635 233.175C324.905 232.333 325.158 231.449 325.479 230.582C326.323 228.056 327.276 225.589 328.205 223.088C328.492 222.322 328.762 221.555 329.049 220.789C328.686 220.789 324.407 220.351 322.685 219.358C321.157 218.516 319.453 216.941 319.216 215.089C319.147 214.656 319.17 214.214 319.283 213.791C319.396 213.367 319.598 212.972 319.874 212.632C320.15 212.291 320.495 212.012 320.886 211.813C321.277 211.614 321.706 211.5 322.145 211.477C324.795 211.409 327.614 215.257 328.39 217.48C328.45 217.649 328.99 220.006 329.099 220.655C329.707 218.971 330.306 217.287 330.787 215.603C331.5 213.329 332.064 211.011 332.475 208.664C332.307 208.664 327.842 208.243 326.078 207.233C324.542 206.349 322.837 204.808 322.609 202.956C322.538 202.523 322.56 202.08 322.673 201.656C322.786 201.232 322.987 200.837 323.263 200.496C323.54 200.155 323.885 199.876 324.277 199.677C324.669 199.479 325.099 199.365 325.538 199.344C328.179 199.276 330.998 203.124 331.775 205.347C331.826 205.49 332.248 207.317 332.425 208.185H332.568C332.917 205.813 333.052 203.415 332.973 201.019C332.973 199.706 332.847 198.443 332.72 197.222C331.876 197.222 328.044 197.222 326.356 196.498C324.668 195.773 322.871 194.443 322.432 192.633C322.315 192.209 322.289 191.765 322.356 191.33C322.422 190.895 322.58 190.479 322.82 190.11C323.059 189.74 323.373 189.425 323.743 189.185C324.112 188.945 324.528 188.786 324.964 188.718C327.589 188.364 330.813 191.875 331.834 193.997C331.885 194.115 332.324 195.352 332.619 196.262C332.56 195.706 332.501 195.142 332.425 194.578C332.163 192.599 331.792 190.806 331.454 189.214C331.252 188.313 331.058 187.53 330.863 186.747C330.019 186.326 326.711 184.6 325.58 183.194C324.449 181.788 323.436 179.775 323.892 177.965C323.989 177.54 324.173 177.139 324.435 176.79C324.696 176.44 325.027 176.149 325.408 175.934C325.789 175.72 326.211 175.588 326.646 175.546C327.081 175.504 327.52 175.554 327.935 175.692Z" fill="#00446B"/>
<path d="M375.774 216.394C373.706 216.31 369.57 214.188 369.57 214.188C369.57 214.188 371.79 211.898 371.95 211.763C373.799 210.298 378.238 208.538 380.441 210.003C380.801 210.255 381.104 210.58 381.33 210.956C381.555 211.333 381.699 211.752 381.75 212.188C381.802 212.623 381.761 213.065 381.63 213.484C381.499 213.902 381.281 214.289 380.99 214.617C379.8 216.057 377.538 216.461 375.774 216.394Z" fill="#00446B"/>
<g opacity="0.5">
<path d="M333.058 196.843C333.007 196.843 333.648 193.702 333.707 193.475C334.433 191.235 337.168 187.328 339.81 187.328C340.249 187.342 340.681 187.448 341.077 187.638C341.473 187.829 341.825 188.101 342.109 188.436C342.393 188.771 342.603 189.162 342.726 189.583C342.849 190.004 342.882 190.447 342.823 190.881C342.628 192.734 340.957 194.317 339.447 195.226C337.674 196.329 333.058 196.843 333.058 196.843Z" fill="white"/>
<path d="M327.935 175.692C330.425 176.584 331.665 181.182 331.581 183.539C331.581 183.741 331.108 186.907 331.066 186.907H331.015C331.209 187.631 331.42 188.406 331.631 189.265C332.003 190.848 332.408 192.633 332.72 194.62C333.082 196.749 333.319 198.897 333.429 201.053C333.564 203.469 333.482 205.892 333.184 208.294C333.181 208.322 333.181 208.35 333.184 208.378C333.514 207.679 334.493 205.751 334.577 205.608C335.877 203.638 339.54 200.556 342.097 201.289C342.517 201.416 342.905 201.631 343.236 201.918C343.567 202.206 343.834 202.56 344.019 202.957C344.204 203.354 344.302 203.786 344.309 204.224C344.315 204.662 344.228 205.096 344.055 205.499C343.38 207.241 341.354 208.319 339.658 208.808C337.742 209.347 333.471 208.707 333.134 208.656C332.772 211.091 332.247 213.499 331.564 215.864C331.17 217.244 330.742 218.623 330.281 219.998C330.576 219.4 330.855 218.87 330.897 218.802C332.197 216.832 335.868 213.75 338.417 214.483C338.837 214.61 339.225 214.825 339.556 215.113C339.888 215.4 340.154 215.754 340.339 216.151C340.524 216.549 340.622 216.98 340.629 217.418C340.635 217.856 340.549 218.29 340.375 218.693C339.7 220.427 337.674 221.513 335.978 221.993C334.282 222.473 330.602 221.993 329.64 221.875L329.108 223.45C328.264 225.976 327.344 228.502 326.576 230.977C326.297 231.819 326.053 232.729 325.808 233.605C326.078 233.074 326.306 232.628 326.348 232.569C327.648 230.59 331.311 227.517 333.86 228.249C334.279 228.377 334.668 228.592 334.999 228.879C335.33 229.167 335.597 229.52 335.783 229.917C335.968 230.314 336.068 230.746 336.075 231.184C336.083 231.622 335.998 232.056 335.826 232.459C335.151 234.194 333.117 235.28 331.42 235.76C329.724 236.24 326.407 235.819 325.259 235.659C325.031 236.56 324.812 237.469 324.635 238.353C324.525 238.96 324.381 239.532 324.306 240.155L324.052 241.957C323.934 243.111 323.799 244.298 323.715 245.426C323.647 246.218 323.597 246.967 323.546 247.716C323.816 246.874 324.39 245.132 324.432 244.997C325.369 243.146 326.764 241.564 328.483 240.399C328.579 240.187 328.695 239.984 328.829 239.793C329.068 239.425 329.382 239.112 329.751 238.873C330.12 238.635 330.535 238.477 330.969 238.409C331.403 238.342 331.847 238.366 332.27 238.481C332.694 238.597 333.089 238.8 333.429 239.078C335.438 240.804 334.931 245.536 334.012 247.708C333.961 247.834 333.21 249.165 332.729 249.99C333.092 249.544 333.429 249.148 333.809 248.659C334.543 247.759 335.303 246.883 336.113 245.94L337.354 244.601C337.759 244.146 338.248 243.717 338.696 243.262C339.751 242.243 340.873 241.258 342.03 240.298C341.245 239.65 338.476 237.326 337.683 235.743C336.89 234.16 336.324 231.946 337.151 230.27C337.333 229.87 337.597 229.513 337.926 229.222C338.256 228.931 338.643 228.712 339.062 228.581C339.482 228.449 339.925 228.406 340.362 228.457C340.799 228.507 341.221 228.649 341.599 228.872C343.836 230.27 344.064 235.028 343.481 237.292C343.481 237.436 342.84 239.035 342.494 239.903C343.194 239.322 343.886 238.749 344.612 238.219C346.705 236.61 348.874 235.044 351.027 233.47L352.993 232.013C352.715 231.786 349.372 229.091 348.478 227.315C347.693 225.74 347.119 223.517 347.946 221.85C348.127 221.45 348.39 221.092 348.719 220.8C349.048 220.508 349.435 220.288 349.855 220.156C350.275 220.023 350.718 219.98 351.155 220.03C351.593 220.079 352.015 220.221 352.394 220.444C354.639 221.85 354.858 226.599 354.276 228.864C354.234 229.032 353.364 231.323 353.12 231.895C354.554 230.826 355.981 229.748 357.34 228.628C359.187 227.12 360.935 225.494 362.572 223.762C362.446 223.66 358.943 220.857 358.032 219.046C357.238 217.472 356.673 215.249 357.5 213.573C357.681 213.174 357.944 212.817 358.273 212.526C358.601 212.235 358.987 212.016 359.406 211.883C359.824 211.75 360.266 211.707 360.703 211.756C361.139 211.805 361.561 211.945 361.939 212.167C364.185 213.573 364.412 218.331 363.83 220.587C363.788 220.739 363.13 222.49 362.8 223.307C362.839 223.34 362.882 223.368 362.927 223.391C364.528 221.603 365.965 219.675 367.223 217.632C367.932 216.52 368.54 215.409 369.113 214.323C368.405 213.868 365.206 211.797 364.201 210.214C363.197 208.631 362.437 206.585 363.07 204.833C363.207 204.417 363.43 204.033 363.725 203.708C364.02 203.383 364.38 203.123 364.782 202.946C365.184 202.769 365.619 202.679 366.058 202.68C366.498 202.682 366.932 202.776 367.333 202.956C369.721 204.101 370.464 208.85 370.135 211.14C370.135 211.266 369.797 212.538 369.552 213.455C369.797 212.967 370.067 212.453 370.295 211.974C371.139 210.18 371.856 208.479 372.447 206.972C372.785 206.13 373.063 205.288 373.291 204.581C372.827 203.781 371.021 200.506 370.844 198.687C370.666 196.868 370.953 194.654 372.329 193.391C372.642 193.083 373.017 192.845 373.429 192.691C373.84 192.538 374.28 192.472 374.718 192.499C375.157 192.526 375.585 192.645 375.975 192.848C376.364 193.051 376.707 193.333 376.98 193.677C378.566 195.79 377.056 200.312 375.688 202.232C375.57 202.4 373.418 204.758 373.393 204.758V204.707C373.156 205.423 372.903 206.181 372.599 207.014C372.042 208.538 371.392 210.256 370.557 212.066C369.674 214.041 368.679 215.963 367.577 217.825C366.348 219.911 364.936 221.883 363.357 223.719L363.298 223.778C363.957 223.374 365.83 222.305 365.991 222.238C368.168 221.303 372.911 220.781 374.65 222.768C374.93 223.106 375.135 223.499 375.253 223.922C375.37 224.344 375.397 224.787 375.332 225.221C375.267 225.654 375.111 226.069 374.874 226.439C374.637 226.808 374.325 227.124 373.958 227.365C372.43 228.443 370.143 228.207 368.455 227.702C366.556 227.104 363.391 224.216 363.104 223.989C361.453 225.819 359.683 227.537 357.804 229.133C356.715 230.068 355.584 230.977 354.428 231.878C355.01 231.55 355.534 231.255 355.609 231.222C357.779 230.287 362.522 229.765 364.26 231.752C364.542 232.09 364.748 232.483 364.866 232.906C364.984 233.328 365.012 233.771 364.946 234.205C364.881 234.639 364.725 235.055 364.487 235.424C364.25 235.794 363.937 236.109 363.568 236.349C362.049 237.427 359.754 237.191 358.074 236.686C356.394 236.181 353.584 233.739 352.858 233.091C352.411 233.436 352.014 233.781 351.533 234.118C349.415 235.743 347.313 237.351 345.245 238.993C344.528 239.574 343.844 240.164 343.152 240.762L344.182 240.189C346.351 239.263 351.094 238.732 352.833 240.728C353.114 241.065 353.32 241.459 353.438 241.881C353.557 242.304 353.584 242.747 353.519 243.181C353.453 243.615 353.297 244.031 353.059 244.4C352.822 244.77 352.509 245.085 352.141 245.325C350.613 246.403 348.326 246.167 346.646 245.654C344.967 245.14 342.426 242.942 341.582 242.185C340.899 242.808 340.206 243.439 339.573 244.079C339.143 244.525 338.729 244.921 338.307 245.401L337.092 246.773C336.358 247.666 335.59 248.584 334.889 249.476C334.4 250.099 333.944 250.697 333.488 251.295C334.189 250.714 335.607 249.611 335.733 249.518C337.734 248.264 342.35 247.034 344.367 248.735C344.694 249.028 344.956 249.387 345.135 249.787C345.314 250.187 345.406 250.621 345.406 251.059C345.406 251.498 345.314 251.931 345.135 252.331C344.956 252.732 344.694 253.09 344.367 253.383C343.017 254.68 340.721 254.814 338.983 254.545C337.058 254.25 333.581 252.019 333.151 251.708C332.391 252.701 331.665 253.678 330.99 254.604C328.652 257.829 326.829 260.607 325.58 262.561C325.58 262.637 325.496 262.696 325.453 262.763L323.833 261.98L324.086 261.593C325.394 259.648 327.302 256.886 329.732 253.678C330.5 252.659 331.336 251.598 332.205 250.503C331.301 249.522 330.455 248.487 329.673 247.405C327.808 248.129 323.943 248.154 323.436 248.154C323.36 249.409 323.293 250.621 323.242 251.766C323.073 255.749 323.09 259.067 323.132 261.382V261.652L321.352 260.81C321.352 258.502 321.444 255.387 321.681 251.699C321.757 250.436 321.866 249.08 321.993 247.691C321.495 247.573 317.469 246.538 315.95 245.325C314.574 244.231 313.123 242.446 313.173 240.585C313.168 240.146 313.257 239.711 313.432 239.308C313.608 238.906 313.867 238.545 314.192 238.249C314.517 237.953 314.901 237.73 315.319 237.592C315.737 237.455 316.179 237.407 316.617 237.452C319.242 237.789 321.444 242.008 321.875 244.332C321.875 244.466 322.01 246.016 322.06 246.933C322.12 246.369 322.162 245.822 322.229 245.249C322.339 244.096 322.491 242.951 322.651 241.713C322.744 241.124 322.845 240.517 322.938 239.911C323.031 239.305 323.191 238.682 323.318 238.067C323.639 236.627 324.027 235.187 324.457 233.748C323.445 233.647 319.858 233.226 318.313 232.342C316.769 231.457 315.081 229.925 314.853 228.073C314.782 227.64 314.804 227.197 314.917 226.773C315.029 226.349 315.231 225.954 315.507 225.613C315.783 225.272 316.129 224.993 316.521 224.794C316.913 224.596 317.342 224.482 317.781 224.46C320.423 224.393 323.242 228.233 324.019 230.464C324.069 230.599 324.449 232.257 324.635 233.175C324.905 232.333 325.158 231.449 325.479 230.582C326.323 228.056 327.276 225.589 328.205 223.088C328.492 222.322 328.762 221.555 329.049 220.789C328.686 220.789 324.407 220.351 322.685 219.358C321.157 218.516 319.453 216.941 319.216 215.089C319.147 214.656 319.17 214.214 319.283 213.791C319.396 213.367 319.598 212.972 319.874 212.632C320.15 212.291 320.495 212.012 320.886 211.813C321.277 211.614 321.706 211.5 322.145 211.477C324.795 211.409 327.614 215.257 328.39 217.48C328.45 217.649 328.99 220.006 329.099 220.655C329.707 218.971 330.306 217.287 330.787 215.603C331.5 213.329 332.064 211.011 332.475 208.664C332.307 208.664 327.842 208.243 326.078 207.233C324.542 206.349 322.837 204.808 322.609 202.956C322.538 202.523 322.56 202.08 322.673 201.656C322.786 201.232 322.987 200.837 323.263 200.496C323.54 200.155 323.885 199.876 324.277 199.677C324.669 199.479 325.099 199.365 325.538 199.344C328.179 199.276 330.998 203.124 331.775 205.347C331.826 205.49 332.248 207.317 332.425 208.185H332.568C332.917 205.813 333.052 203.415 332.973 201.019C332.973 199.706 332.847 198.443 332.72 197.222C331.876 197.222 328.044 197.222 326.356 196.498C324.668 195.773 322.871 194.443 322.432 192.633C322.315 192.209 322.289 191.765 322.356 191.33C322.422 190.895 322.58 190.479 322.82 190.11C323.059 189.74 323.373 189.425 323.743 189.185C324.112 188.945 324.528 188.786 324.964 188.718C327.589 188.364 330.813 191.875 331.834 193.997C331.885 194.115 332.324 195.352 332.619 196.262C332.56 195.706 332.501 195.142 332.425 194.578C332.163 192.599 331.792 190.806 331.454 189.214C331.252 188.313 331.058 187.53 330.863 186.747C330.019 186.326 326.711 184.6 325.58 183.194C324.449 181.788 323.436 179.775 323.892 177.965C323.989 177.54 324.173 177.139 324.435 176.79C324.696 176.44 325.027 176.149 325.408 175.934C325.789 175.72 326.211 175.588 326.646 175.546C327.081 175.504 327.52 175.554 327.935 175.692Z" fill="white"/>
<path d="M375.772 216.394C373.704 216.31 369.568 214.188 369.568 214.188C369.568 214.188 371.788 211.898 371.948 211.763C373.797 210.298 378.236 208.538 380.439 210.003C380.799 210.255 381.102 210.58 381.328 210.956C381.553 211.333 381.697 211.752 381.748 212.188C381.8 212.623 381.759 213.065 381.628 213.484C381.497 213.902 381.279 214.289 380.988 214.617C379.798 216.057 377.536 216.461 375.772 216.394Z" fill="white"/>
</g>
<path d="M351.627 268.051C351.627 268.051 339.077 237.873 332.055 239.187C325.032 240.5 344.098 287.299 344.098 287.299C344.098 287.299 322.019 245.746 306.962 245.746C291.905 245.746 312.482 291.669 331.557 306.976C331.557 306.976 301.443 274.61 283.879 281.615C266.315 288.621 319.032 321.417 319.032 321.417C319.032 321.417 288.42 311.793 291.931 319.227C295.442 326.662 304.979 327.976 304.979 327.976L270.375 329.727H390.772L363.671 327.1C363.671 327.1 391.776 313.106 384.247 307.414C376.719 301.722 360.16 313.973 360.16 313.973C360.16 313.973 388.763 282.483 383.243 270.678C377.723 258.873 353.129 292.107 353.129 292.107C353.129 292.107 373.208 249.687 369.165 242.243C365.122 234.8 351.627 268.051 351.627 268.051Z" fill="#00446B"/>
<path opacity="0.4" d="M351.627 268.051C351.627 268.051 339.077 237.873 332.055 239.187C325.032 240.5 344.098 287.299 344.098 287.299C344.098 287.299 322.019 245.746 306.962 245.746C291.905 245.746 312.482 291.669 331.557 306.976C331.557 306.976 301.443 274.61 283.879 281.615C266.315 288.621 319.032 321.417 319.032 321.417C319.032 321.417 288.42 311.793 291.931 319.227C295.442 326.662 304.979 327.976 304.979 327.976L270.375 329.727H390.772L363.671 327.1C363.671 327.1 391.776 313.106 384.247 307.414C376.719 301.722 360.16 313.973 360.16 313.973C360.16 313.973 388.763 282.483 383.243 270.678C377.723 258.873 353.129 292.107 353.129 292.107C353.129 292.107 373.208 249.687 369.165 242.243C365.122 234.8 351.627 268.051 351.627 268.051Z" fill="white"/>
<path d="M355.643 269.642C344.604 302.185 344.604 325.214 344.604 325.214C344.604 325.214 357.652 325.719 371.198 315.708" stroke="#263238" stroke-linecap="round" stroke-linejoin="round"/>
<path d="M350.123 287.164C347.845 277.436 344.823 267.896 341.084 258.629" stroke="#263238" stroke-linecap="round" stroke-linejoin="round"/>
<path d="M317.504 268.143L345.601 309.696C345.601 309.696 364.675 293.698 371.199 284.663" stroke="#263238" stroke-linecap="round" stroke-linejoin="round"/>
<path d="M345.103 319.707C345.103 319.707 315.495 305.688 303.451 297.681" stroke="#263238" stroke-linecap="round" stroke-linejoin="round"/>
<path d="M157.575 117.072L150.68 106.092H89.9453V117.072V121.021V303.684H339.938V117.072H157.575Z" fill="#263238"/>
<path d="M338.293 122.107H91.8027V299.702H338.293V122.107Z" fill="white"/>
<mask id="mask0_167_4645" style="mask-type:luminance" maskUnits="userSpaceOnUse" x="91" y="122" width="248" height="178">
<path d="M338.293 122.107H91.8027V299.702H338.293V122.107Z" fill="white"/>
</mask>
<g mask="url(#mask0_167_4645)">
<path opacity="0.17" d="M339.5 120.583H333.777V301.049H339.5V120.583Z" fill="black"/>
<path opacity="0.17" d="M339.5 229.698H333.777V299.584H339.5V229.698Z" fill="black"/>
<path d="M338.614 119.707H90.8242V129.365H338.614V119.707Z" fill="#00446B" stroke="#263238" stroke-miterlimit="10"/>
</g>
<path d="M338.293 122.107H91.8027V299.702H338.293V122.107Z" stroke="#263238" stroke-linecap="round" stroke-linejoin="round"/>
<g opacity="0.17">
<path d="M220.225 138.677H202.982C202.783 138.677 202.585 138.638 202.401 138.562C202.216 138.486 202.049 138.374 201.908 138.234C201.767 138.093 201.655 137.926 201.579 137.742C201.502 137.558 201.463 137.361 201.463 137.162C201.462 136.962 201.5 136.764 201.576 136.579C201.652 136.394 201.764 136.226 201.905 136.085C202.046 135.943 202.214 135.831 202.399 135.754C202.584 135.677 202.782 135.638 202.982 135.638H220.225C220.425 135.638 220.624 135.677 220.808 135.754C220.993 135.831 221.161 135.943 221.302 136.085C221.443 136.226 221.555 136.394 221.631 136.579C221.707 136.764 221.745 136.962 221.744 137.162C221.744 137.361 221.705 137.558 221.629 137.742C221.552 137.926 221.44 138.093 221.299 138.234C221.158 138.374 220.991 138.486 220.806 138.562C220.622 138.638 220.425 138.677 220.225 138.677Z" fill="black"/>
<path d="M254.711 138.677H237.468C237.066 138.675 236.681 138.515 236.397 138.231C236.112 137.947 235.951 137.563 235.949 137.162C235.949 136.759 236.109 136.373 236.394 136.087C236.678 135.802 237.065 135.64 237.468 135.638H254.711C255.117 135.638 255.505 135.798 255.792 136.084C256.078 136.37 256.239 136.758 256.239 137.162C256.237 137.565 256.075 137.95 255.789 138.234C255.502 138.518 255.115 138.677 254.711 138.677Z" fill="black"/>
<path d="M289.206 138.677H271.963C271.559 138.677 271.172 138.518 270.886 138.234C270.6 137.95 270.438 137.565 270.436 137.162C270.436 136.758 270.596 136.37 270.883 136.084C271.169 135.798 271.558 135.638 271.963 135.638H289.206C289.61 135.64 289.996 135.802 290.281 136.087C290.566 136.373 290.725 136.759 290.725 137.162C290.723 137.563 290.562 137.947 290.278 138.231C289.993 138.515 289.608 138.675 289.206 138.677Z" fill="black"/>
<path d="M323.692 138.677H306.449C306.249 138.677 306.052 138.638 305.868 138.562C305.683 138.486 305.516 138.374 305.375 138.234C305.234 138.093 305.122 137.926 305.045 137.742C304.969 137.558 304.93 137.361 304.93 137.162C304.929 136.962 304.967 136.764 305.043 136.579C305.119 136.394 305.23 136.226 305.372 136.085C305.513 135.943 305.681 135.831 305.866 135.754C306.05 135.677 306.249 135.638 306.449 135.638H323.692C324.096 135.64 324.482 135.802 324.767 136.087C325.051 136.373 325.211 136.759 325.211 137.162C325.209 137.563 325.048 137.947 324.764 138.231C324.479 138.515 324.094 138.675 323.692 138.677Z" fill="black"/>
</g>
<path d="M115.096 211.165H141.15" stroke="#263238" stroke-width="3" stroke-linecap="round" stroke-linejoin="round"/>
<path d="M140.688 215.215H143.532" stroke="#263238" stroke-linecap="round" stroke-linejoin="round"/>
<path d="M124.371 215.215H138.964" stroke="#263238" stroke-linecap="round" stroke-linejoin="round"/>
<path d="M113.105 215.215H122.828" stroke="#263238" stroke-linecap="round" stroke-linejoin="round"/>
<path d="M131.58 219.265H143.531" stroke="#263238" stroke-linecap="round" stroke-linejoin="round"/>
<path d="M125.057 219.265H129.699" stroke="#263238" stroke-linecap="round" stroke-linejoin="round"/>
<path d="M113.105 219.265H122.997" stroke="#263238" stroke-linecap="round" stroke-linejoin="round"/>
<path d="M119.561 223.307H143.53" stroke="#263238" stroke-linecap="round" stroke-linejoin="round"/>
<path d="M113.105 223.307H117.334" stroke="#263238" stroke-linecap="round" stroke-linejoin="round"/>
<path d="M137.598 227.357H143.531" stroke="#263238" stroke-linecap="round" stroke-linejoin="round"/>
<path d="M126.262 227.357H135.529" stroke="#263238" stroke-linecap="round" stroke-linejoin="round"/>
<path d="M113.105 227.357H124.373" stroke="#263238" stroke-linecap="round" stroke-linejoin="round"/>
<path d="M122.996 231.407H143.531" stroke="#263238" stroke-linecap="round" stroke-linejoin="round"/>
<path d="M113.105 231.407H121.107" stroke="#263238" stroke-linecap="round" stroke-linejoin="round"/>
<path d="M174.514 211.165H200.568" stroke="#263238" stroke-width="3" stroke-linecap="round" stroke-linejoin="round"/>
<path d="M200.104 215.215H202.948" stroke="#263238" stroke-linecap="round" stroke-linejoin="round"/>
<path d="M183.789 215.215H198.382" stroke="#263238" stroke-linecap="round" stroke-linejoin="round"/>
<path d="M172.521 215.215H182.244" stroke="#263238" stroke-linecap="round" stroke-linejoin="round"/>
<path d="M190.998 219.265H202.949" stroke="#263238" stroke-linecap="round" stroke-linejoin="round"/>
<path d="M184.473 219.265H189.115" stroke="#263238" stroke-linecap="round" stroke-linejoin="round"/>
<path d="M172.521 219.265H182.413" stroke="#263238" stroke-linecap="round" stroke-linejoin="round"/>
<path d="M178.979 223.307H202.948" stroke="#263238" stroke-linecap="round" stroke-linejoin="round"/>
<path d="M172.521 223.307H176.75" stroke="#263238" stroke-linecap="round" stroke-linejoin="round"/>
<path d="M197.016 227.357H202.949" stroke="#263238" stroke-linecap="round" stroke-linejoin="round"/>
<path d="M185.68 227.357H194.947" stroke="#263238" stroke-linecap="round" stroke-linejoin="round"/>
<path d="M172.521 227.357H183.789" stroke="#263238" stroke-linecap="round" stroke-linejoin="round"/>
<path d="M182.414 231.407H202.949" stroke="#263238" stroke-linecap="round" stroke-linejoin="round"/>
<path d="M172.521 231.407H180.523" stroke="#263238" stroke-linecap="round" stroke-linejoin="round"/>
<path d="M233.932 211.165H259.986" stroke="#263238" stroke-width="3" stroke-linecap="round" stroke-linejoin="round"/>
<path d="M259.521 215.215H262.366" stroke="#263238" stroke-linecap="round" stroke-linejoin="round"/>
<path d="M243.207 215.215H257.8" stroke="#263238" stroke-linecap="round" stroke-linejoin="round"/>
<path d="M231.939 215.215H241.662" stroke="#263238" stroke-linecap="round" stroke-linejoin="round"/>
<path d="M250.414 219.265H262.365" stroke="#263238" stroke-linecap="round" stroke-linejoin="round"/>
<path d="M243.891 219.265H248.533" stroke="#263238" stroke-linecap="round" stroke-linejoin="round"/>
<path d="M231.939 219.265H241.831" stroke="#263238" stroke-linecap="round" stroke-linejoin="round"/>
<path d="M238.396 223.307H262.366" stroke="#263238" stroke-linecap="round" stroke-linejoin="round"/>
<path d="M231.939 223.307H236.168" stroke="#263238" stroke-linecap="round" stroke-linejoin="round"/>
<path d="M256.434 227.357H262.367" stroke="#263238" stroke-linecap="round" stroke-linejoin="round"/>
<path d="M245.098 227.357H254.365" stroke="#263238" stroke-linecap="round" stroke-linejoin="round"/>
<path d="M231.939 227.357H243.207" stroke="#263238" stroke-linecap="round" stroke-linejoin="round"/>
<path d="M241.832 231.407H262.367" stroke="#263238" stroke-linecap="round" stroke-linejoin="round"/>
<path d="M231.939 231.407H239.941" stroke="#263238" stroke-linecap="round" stroke-linejoin="round"/>
<path d="M293.35 211.165H319.404" stroke="#263238" stroke-width="3" stroke-linecap="round" stroke-linejoin="round"/>
<path d="M318.939 215.215H321.784" stroke="#263238" stroke-linecap="round" stroke-linejoin="round"/>
<path d="M302.625 215.215H317.218" stroke="#263238" stroke-linecap="round" stroke-linejoin="round"/>
<path d="M291.357 215.215H301.08" stroke="#263238" stroke-linecap="round" stroke-linejoin="round"/>
<path d="M309.832 219.265H321.783" stroke="#263238" stroke-linecap="round" stroke-linejoin="round"/>
<path d="M303.309 219.265H307.951" stroke="#263238" stroke-linecap="round" stroke-linejoin="round"/>
<path d="M291.357 219.265H301.249" stroke="#263238" stroke-linecap="round" stroke-linejoin="round"/>
<path d="M297.814 223.307H321.784" stroke="#263238" stroke-linecap="round" stroke-linejoin="round"/>
<path d="M291.357 223.307H295.586" stroke="#263238" stroke-linecap="round" stroke-linejoin="round"/>
<path d="M315.85 227.357H321.783" stroke="#263238" stroke-linecap="round" stroke-linejoin="round"/>
<path d="M304.516 227.357H313.783" stroke="#263238" stroke-linecap="round" stroke-linejoin="round"/>
<path d="M291.357 227.357H302.625" stroke="#263238" stroke-linecap="round" stroke-linejoin="round"/>
<path d="M301.25 231.407H321.785" stroke="#263238" stroke-linecap="round" stroke-linejoin="round"/>
<path d="M291.357 231.407H299.359" stroke="#263238" stroke-linecap="round" stroke-linejoin="round"/>
<path d="M329.81 198.123H100.242V150.878H329.81V198.123Z" fill="#00446B"/>
<path opacity="0.7" d="M329.81 198.123H100.242V150.878H329.81V198.123Z" fill="white"/>
<path d="M271.718 198.123H158.377V150.878H271.718V198.123Z" fill="#00446B"/>
<path opacity="0.92" d="M271.718 198.123H158.377V150.878H271.718V198.123Z" fill="white"/>
<path d="M248.559 164.569H256.281" stroke="#263238" stroke-linecap="round" stroke-linejoin="round"/>
<path d="M204.35 164.569H243.908" stroke="#263238" stroke-linecap="round" stroke-linejoin="round"/>
<path d="M173.814 164.569H200.156" stroke="#263238" stroke-linecap="round" stroke-linejoin="round"/>
<path d="M223.896 168.619H256.281" stroke="#263238" stroke-linecap="round" stroke-linejoin="round"/>
<path d="M206.207 168.619H218.774" stroke="#263238" stroke-linecap="round" stroke-linejoin="round"/>
<path d="M173.814 168.619H200.628" stroke="#263238" stroke-linecap="round" stroke-linejoin="round"/>
<path d="M191.318 172.669H256.281" stroke="#263238" stroke-linecap="round" stroke-linejoin="round"/>
<path d="M173.814 172.669H185.268" stroke="#263238" stroke-linecap="round" stroke-linejoin="round"/>
<path d="M240.186 176.719H256.281" stroke="#263238" stroke-linecap="round" stroke-linejoin="round"/>
<path d="M209.465 176.719H234.599" stroke="#263238" stroke-linecap="round" stroke-linejoin="round"/>
<path d="M173.814 176.719H204.35" stroke="#263238" stroke-linecap="round" stroke-linejoin="round"/>
<path d="M200.627 180.761H256.28" stroke="#263238" stroke-linecap="round" stroke-linejoin="round"/>
<path d="M173.814 180.761H195.505" stroke="#263238" stroke-linecap="round" stroke-linejoin="round"/>
<path d="M329.81 299.112H100.242V251.867H329.81V299.112Z" fill="#00446B"/>
<path opacity="0.7" d="M329.81 299.112H100.242V251.867H329.81V299.112Z" fill="white"/>
<mask id="mask1_167_4645" style="mask-type:luminance" maskUnits="userSpaceOnUse" x="280" y="232" width="52" height="68">
<path d="M331.582 232.687H280.613V299.407H331.582V232.687Z" fill="white"/>
</mask>
<g mask="url(#mask1_167_4645)">
<path d="M302.641 269.844C302.641 269.844 289.196 275.233 287.086 275.898C284.976 276.563 284.85 277.473 284.85 280.361C284.85 283.249 285.246 296.275 285.246 297.327C285.246 298.38 285.111 300.35 285.111 300.35H329.16C329.16 300.35 326.256 288.562 324.543 282.996C322.83 277.431 323.623 276.942 320.593 275.107C317.563 273.271 309.621 270.636 307.933 270.24C306.183 269.966 304.413 269.834 302.641 269.844Z" fill="#263238" stroke="#263238" stroke-linecap="round" stroke-linejoin="round"/>
<path d="M303.299 268.396C303.299 268.396 300.134 268.135 298.817 270.77C297.5 273.406 294.335 279.544 294.335 279.544L298.159 281.91L293.711 284.175C294.454 287.424 295.378 290.628 296.479 293.774C297.245 295.838 298.124 297.859 299.113 299.828C299.113 299.828 305.527 292.595 308.059 290.355C309.728 288.762 311.11 286.893 312.144 284.832L308.852 281.809L314.524 281.152C314.524 281.152 313.072 273.793 311.224 270.77C309.376 267.748 303.299 268.396 303.299 268.396Z" fill="#263238" stroke="#263238" stroke-linecap="round" stroke-linejoin="round"/>
<path d="M296.826 293.858C297.062 294.515 297.316 295.138 297.56 295.685" stroke="white" stroke-width="0.5" stroke-linecap="round" stroke-linejoin="round"/>
<path d="M297.307 274.046L294.336 279.544L298.16 281.91L294.066 284.226C294.066 284.226 295.02 288.377 296.219 292.098" stroke="white" stroke-width="0.5" stroke-linecap="round" stroke-linejoin="round"/>
<path d="M312.279 271.553L314.499 281.152L308.827 281.809L312.119 284.832C312.119 284.832 305.789 292.233 303.164 295.222" stroke="white" stroke-width="0.5" stroke-linecap="round" stroke-linejoin="round"/>
<path d="M320.567 286.28L318.195 300.88" stroke="white" stroke-width="0.5" stroke-linecap="round" stroke-linejoin="round"/>
<path d="M288.015 283.653C288.015 283.653 287.754 292.46 287.88 295.222C287.985 296.973 288.34 298.7 288.935 300.35" stroke="white" stroke-width="0.5" stroke-linecap="round" stroke-linejoin="round"/>
<path d="M312.398 289.833L314.635 286.811L316.483 289.833H312.398Z" fill="white" stroke="#263238" stroke-miterlimit="10"/>
<path d="M315.031 260.902C315.031 260.902 317.267 260.641 317.799 263.933C318.331 267.226 316.744 271.427 311.469 271.427C306.194 271.427 306.599 267.478 306.726 264.59C306.852 261.702 315.031 260.902 315.031 260.902Z" fill="#263238" stroke="#263238" stroke-miterlimit="10"/>
<path d="M301.983 266.299C301.983 266.299 301.848 270.105 301.586 274.45C301.324 278.795 299.214 284.705 299.214 289.699C299.197 292.465 299.329 295.231 299.611 297.984C299.611 297.984 303.958 289.564 305.933 284.705C307.908 279.847 310.153 265.769 310.153 265.769L301.983 266.299Z" fill="white" stroke="#263238" stroke-miterlimit="10"/>
<path d="M314.897 257.652C315.878 255.735 316.42 253.624 316.483 251.472C316.483 248.188 315.825 243.717 312.002 241.738C308.178 239.76 300.793 241.082 298.953 244.896C297.711 247.334 297.129 250.054 297.265 252.785C297.398 254.262 297.707 255.718 298.185 257.122C298.185 257.122 298.717 254.596 302.27 253.316C305.824 252.036 309.655 250.68 311.495 251.632C313.335 252.583 314.897 257.652 314.897 257.652Z" fill="#263238" stroke="#263238" stroke-linecap="round" stroke-linejoin="round"/>
<path d="M298.295 256.305C298.295 256.305 296.709 253.939 296.05 255.648C295.392 257.357 296.32 259.858 297.367 260.38C298.414 260.902 298.954 260.641 298.954 260.641L298.295 256.305Z" fill="white" stroke="#263238" stroke-linecap="round" stroke-linejoin="round"/>
<path d="M314.897 256.701C314.897 256.701 316.745 254.857 316.745 256.566C316.652 258.152 316.062 259.669 315.057 260.902C314.264 261.955 313.867 261.433 313.867 261.433L314.897 256.701Z" fill="white" stroke="#263238" stroke-linecap="round" stroke-linejoin="round"/>
<path d="M311.765 249.131L313.074 245.452C313.125 245.307 313.117 245.149 313.051 245.011C312.986 244.873 312.868 244.766 312.723 244.715C312.579 244.663 312.42 244.671 312.282 244.737C312.143 244.802 312.036 244.92 311.985 245.064L310.888 248.138C309.733 247.865 308.535 247.831 307.367 248.036C306.199 248.242 305.085 248.683 304.093 249.333C300.667 251.573 297.898 253.543 297.898 253.543C297.898 253.543 298.033 261.037 299.477 263.799C300.92 266.56 303.435 269.844 305.545 269.844C307.655 269.844 311.343 265.247 312.795 263.799C314.247 262.35 315.167 256.701 315.167 254.857C315.167 253.535 312.989 250.655 311.765 249.131Z" fill="white" stroke="#263238" stroke-miterlimit="10"/>
<path d="M306.574 282.912C304.433 283.105 302.276 282.818 300.261 282.07C299.657 284.592 299.307 287.167 299.214 289.758C299.197 292.524 299.329 295.29 299.611 298.043C299.611 298.043 303.958 289.623 305.933 284.764C306.144 284.192 306.372 283.56 306.574 282.912Z" fill="#00446B" stroke="#263238" stroke-miterlimit="10"/>
</g>
<mask id="mask2_167_4645" style="mask-type:luminance" maskUnits="userSpaceOnUse" x="220" y="232" width="52" height="68">
<path d="M271.844 232.687H220.875V299.407H271.844V232.687Z" fill="white"/>
</mask>
<g mask="url(#mask2_167_4645)">
<path d="M244.279 262.864C240.917 263.245 237.579 263.807 234.278 264.548C230.421 265.542 228.564 265.971 228.564 267.823C228.564 269.676 228.133 277.658 226.876 281.228C225.618 284.798 224.158 289.926 224.158 291.778C224.158 293.631 226.876 301.47 226.876 301.47H231.872C231.872 301.47 230.016 292.342 230.016 291.492C230.016 290.642 232.59 283.072 232.59 283.072L232.733 301.748H258.897L258.619 283.922C258.619 283.922 260.898 291.197 260.898 292.477C260.898 293.757 260.054 302.177 260.054 302.177H265.016C265.016 302.177 267.447 292.915 267.303 289.631C267.16 286.347 264.771 275.94 264.451 272.791C264.13 269.642 266.021 267.941 262.594 265.803C259.167 263.664 251.301 262.384 249.588 262.241C247.802 262.276 246.024 262.485 244.279 262.864Z" fill="#00446B" stroke="#263238" stroke-miterlimit="10"/>
<path d="M232.564 283.114L232.994 275.982L231.416 270.568" stroke="#263238" stroke-linecap="round" stroke-linejoin="round"/>
<path d="M258.576 274.846V283.965" stroke="#263238" stroke-linecap="round" stroke-linejoin="round"/>
<path d="M258.711 277.414L260.998 273.987" stroke="#263238" stroke-linecap="round" stroke-linejoin="round"/>
<path d="M246.71 272.564L245.857 301.503" stroke="#263238" stroke-linecap="round" stroke-linejoin="round"/>
<path d="M246.279 259.446C245.008 259.515 243.798 260.017 242.853 260.869C241.283 262.3 240.709 267.857 240.709 267.857C240.709 267.857 245.714 266.434 246.566 266.173C247.419 265.912 255.006 267.596 255.006 267.596C255.006 267.596 254.297 262.611 252.297 260.473C250.297 258.334 246.279 259.446 246.279 259.446Z" fill="#263238" stroke="#263238" stroke-linecap="round" stroke-linejoin="round"/>
<path d="M244.279 254.882C244.279 254.882 245.427 256.566 245.427 261.618C245.427 266.67 245.993 271.882 246.71 272.564C247.427 273.246 250.424 265.828 250.424 262.46C250.481 260.233 251.019 258.044 252.002 256.044C252.002 256.044 248.423 253.619 246.567 253.333C246.06 253.254 245.541 253.37 245.117 253.657C244.692 253.945 244.393 254.383 244.279 254.882Z" fill="white" stroke="#263238" stroke-linecap="round" stroke-linejoin="round"/>
<path d="M245.654 267.175C245.882 269.945 246.27 272.126 246.709 272.564C247.148 273.002 248.524 270.223 249.469 267.242C248.202 267.421 246.914 267.398 245.654 267.175Z" fill="#263238" stroke="#263238" stroke-linecap="round" stroke-linejoin="round"/>
<path d="M252.998 241.199C252.998 241.199 253.842 241.486 255.429 240.054C257.016 238.623 256.273 235.92 255.573 236.493C255.125 236.857 254.738 237.289 254.425 237.772C254.148 236.938 253.637 236.2 252.954 235.645C252.271 235.09 251.443 234.742 250.568 234.64C247.571 234.354 243.993 238.488 243.993 238.488C243.993 238.488 237.427 243.338 238.136 247.186C238.845 251.034 242.567 254.452 244.28 254.882C245.993 255.311 249.141 252.179 248.567 249.468C247.994 246.757 247.572 242.732 248.567 242.336C250.022 241.874 251.501 241.495 252.998 241.199Z" fill="#263238" stroke="#263238" stroke-linecap="round" stroke-linejoin="round"/>
<path d="M243.992 252.6C243.992 252.6 241.57 250.916 240.996 252.179C240.422 253.442 241.714 255.741 243.284 256.448C244.853 257.155 246.28 254.882 246.28 254.882C246.28 254.882 251.285 258.873 254.72 259.016C258.155 259.159 258.298 256.448 257.724 251.32C257.15 246.192 255.437 242.193 254.154 240.77C252.871 239.347 247.866 240.627 246.288 241.907C244.71 243.186 243.756 244.332 245.292 244.618C246.828 244.904 248.288 245.46 246.862 247.043C245.436 248.626 244.718 248.036 245.174 249.182C245.63 250.327 247.461 251.463 245.748 252.036L243.992 252.6Z" fill="white" stroke="#263238" stroke-linecap="round" stroke-linejoin="round"/>
</g>
<mask id="mask3_167_4645" style="mask-type:luminance" maskUnits="userSpaceOnUse" x="153" y="232" width="52" height="68">
<path d="M204.965 232.367H153.996V299.415H204.965V232.367Z" fill="white"/>
</mask>
<g mask="url(#mask3_167_4645)">
<path d="M181.19 260.178C181.19 260.178 163.179 262.317 162.622 263.883C162.065 265.449 155.481 280.723 156.477 282.129C157.473 283.535 159.482 283.813 161.052 283.813C162.164 283.714 163.216 283.266 164.057 282.533L159.482 301.899H192.634L193.639 288.351C193.639 288.351 197.496 290.035 200.07 289.783C202.644 289.53 202.07 287.501 201.496 283.653C200.922 279.805 200.652 269.962 199.64 268.11C198.627 266.257 186.49 261.121 186.49 261.121L181.19 260.178Z" fill="#263238" stroke="#263238" stroke-linecap="round" stroke-linejoin="round"/>
<path d="M193.91 283.4V274.559L194.619 272.85" stroke="white" stroke-linecap="round" stroke-linejoin="round"/>
<path d="M165.037 275.982L166.472 269.996L166.185 268.716" stroke="white" stroke-linecap="round" stroke-linejoin="round"/>
<path d="M168.801 302.505C168.801 302.505 171.51 290.81 172.801 283.543C174.093 276.277 179.469 260.178 179.469 260.178L187.765 262.46C187.765 262.46 182.187 278.71 180.76 285.699C179.334 292.688 178.135 302.59 178.135 302.59L168.801 302.505Z" fill="#00446B" stroke="#263238" stroke-miterlimit="10"/>
<path d="M180.616 258.494C180.616 258.494 178.185 258.494 177.325 260.178C176.464 261.862 175.324 268.446 175.324 268.446C175.324 268.446 180.473 266.165 180.903 266.165C181.333 266.165 183.334 266.308 184.33 267.444C185.326 268.581 187.478 271.292 187.478 271.292C187.478 271.292 190.761 266.021 189.909 262.603C189.616 261.476 188.975 260.47 188.077 259.728C187.178 258.986 186.068 258.545 184.904 258.469L180.616 258.494Z" fill="#00446B" stroke="#263238" stroke-miterlimit="10"/>
<path d="M179.772 254.739C179.772 254.739 179.485 264.725 179.772 267.571C180.059 270.417 180.489 271.132 180.489 271.132C180.489 271.132 182.92 267.141 183.629 265.718C184.338 264.295 186.49 262.721 187.495 261.441C188.499 260.161 189.183 255.311 189.183 255.311C189.183 255.311 185.469 258.166 183.469 257.45C182.053 256.825 180.792 255.9 179.772 254.739Z" fill="white" stroke="#263238" stroke-linecap="round" stroke-linejoin="round"/>
<path d="M185.681 236.695C183.25 237.048 180.878 238.261 180.195 240.627C179.621 242.622 179.351 249.181 179.199 252.457C179.047 255.732 180.769 259.875 182.195 260.304C183.386 260.726 184.667 260.825 185.909 260.591C186.626 260.304 189.918 255.884 190.77 255.025C191.623 254.166 194.197 246.184 194.197 243.338C194.26 241.934 193.862 240.548 193.064 239.39C192.266 238.232 191.111 237.366 189.774 236.922C188.441 236.561 187.046 236.483 185.681 236.695Z" fill="white" stroke="#263238" stroke-linecap="round" stroke-linejoin="round"/>
<path d="M192.762 250.074C192.762 250.074 195.05 248.07 194.45 250.638C194.266 251.405 193.915 252.123 193.422 252.74C192.929 253.357 192.306 253.858 191.598 254.208L192.762 250.074Z" fill="white" stroke="#263238" stroke-linecap="round" stroke-linejoin="round"/>
<path d="M179.469 247.329C179.469 247.329 177.781 245.763 177.781 247.902C177.847 249.302 178.348 250.647 179.216 251.75L179.469 247.329Z" fill="white" stroke="#263238" stroke-linecap="round" stroke-linejoin="round"/>
<path d="M192.762 250.074C193.503 247.893 193.982 245.632 194.188 243.338C194.251 241.934 193.853 240.548 193.055 239.39C192.257 238.232 191.102 237.366 189.765 236.922C188.432 236.561 187.037 236.483 185.672 236.695C183.241 237.048 180.87 238.261 180.186 240.627C179.746 242.986 179.489 245.376 179.418 247.775C180.144 247.211 181.655 245.83 181.334 244.188C180.903 242.05 180.043 241.056 181.612 240.054C183.182 239.052 185.047 240.484 187.622 241.342C190.196 242.201 192.762 241.056 193.479 241.763C194.196 242.471 191.192 245.477 191.622 246.613C192.053 247.75 193.049 249.038 192.762 250.04V250.074Z" fill="#263238" stroke="#263238" stroke-linecap="round" stroke-linejoin="round"/>
<path d="M172.176 277.414C172.176 277.414 170.032 274.416 168.606 274.273C167.179 274.13 163.744 277.414 163.744 277.414H172.176Z" fill="white" stroke="#263238" stroke-linecap="round" stroke-linejoin="round"/>
<path d="M185.756 277.692H187.765L188.187 281.691L186.043 281.118L185.756 277.692Z" fill="white" stroke="#263238" stroke-linecap="round" stroke-linejoin="round"/>
<path d="M187.766 277.692L191.336 279.266L192.188 283.687L188.188 281.691L187.766 277.692Z" fill="white" stroke="#263238" stroke-linecap="round" stroke-linejoin="round"/>
<path d="M199.184 285.438L178.75 277.456C177.572 278.033 176.467 278.748 175.459 279.586C174.863 280.184 174.422 280.918 174.176 281.725C174.176 281.725 183.89 288.713 188.608 290.852C193.326 292.991 200.188 293.706 201.327 292.536C202.467 291.366 202.171 286.979 201.471 286.263C201.092 285.873 200.66 285.539 200.188 285.27" fill="#263238"/>
<path d="M199.184 285.438L178.75 277.456C177.572 278.033 176.467 278.748 175.459 279.586C174.863 280.184 174.422 280.918 174.176 281.725C174.176 281.725 183.89 288.713 188.608 290.852C193.326 292.991 200.188 293.706 201.327 292.536C202.467 291.366 202.171 286.979 201.471 286.263C201.092 285.873 200.66 285.539 200.188 285.27" stroke="#263238" stroke-linecap="round" stroke-linejoin="round"/>
<path d="M185.756 277.018L186.043 281.152C186.043 281.152 171.037 284.571 165.467 285.573C159.896 286.575 156.892 285.851 156.039 283.291C155.187 280.731 158.039 277.582 159.322 276.875C160.605 276.168 185.756 277.018 185.756 277.018Z" fill="#263238" stroke="#263238" stroke-linecap="round" stroke-linejoin="round"/>
</g>
<mask id="mask4_167_4645" style="mask-type:luminance" maskUnits="userSpaceOnUse" x="102" y="232" width="46" height="68">
<path d="M147.826 232.687H102.697V299.407H147.826V232.687Z" fill="white"/>
</mask>
<g mask="url(#mask4_167_4645)">
<path d="M130.559 267.242C130.559 267.242 136.281 268.665 138.568 269.381C140.855 270.097 141.564 270.947 141.564 272.656C141.564 274.366 140.281 281.918 140.281 283.064V290.768C140.281 292.907 142.425 300.746 142.425 300.746H114.573C114.573 300.746 111.433 288.772 109.29 282.222C107.146 275.671 106.859 273.381 109.003 272.379C114.099 270.516 119.298 268.947 124.575 267.68C126.557 267.395 128.556 267.249 130.559 267.242Z" fill="#00446B" stroke="#263238" stroke-miterlimit="10"/>
<path d="M138.854 276.647C138.854 276.647 140.542 284.495 139.993 287.341C139.445 290.187 135.562 301.032 135.562 301.032" stroke="#263238" stroke-linecap="round" stroke-linejoin="round"/>
<path d="M108.986 272.37C108.986 272.37 106.454 272.8 107.129 276.083C107.804 279.367 104.555 300.594 104.555 300.594H110.842C110.842 300.594 115.13 289.328 115.839 286.625C116.548 283.922 117.13 281.775 115.839 279.493" fill="#00446B"/>
<path d="M108.986 272.37C108.986 272.37 106.454 272.8 107.129 276.083C107.804 279.367 104.555 300.594 104.555 300.594H110.842C110.842 300.594 115.13 289.328 115.839 286.625C116.548 283.922 117.13 281.775 115.839 279.493" stroke="#263238" stroke-miterlimit="10"/>
<path d="M135.613 253.358L136.55 282.398H128.102V255.859L135.613 253.358Z" fill="#263238" stroke="#263238" stroke-linecap="round" stroke-linejoin="round"/>
<path d="M124.702 274.231C124.702 274.231 127.132 285.177 128.137 288.486C129.141 291.795 129.276 299.432 128.981 300.459C128.685 301.487 132.551 300.459 132.551 300.459C132.551 300.459 133.555 292.881 134.129 288.486C134.703 284.091 132.981 275.797 132.981 275.797L131.124 268.522L124.119 269.81L124.702 274.231Z" fill="white" stroke="#263238" stroke-linecap="round" stroke-linejoin="round"/>
<path d="M130.821 262.249C130.422 264.519 130.471 266.844 130.964 269.095C131.808 272.235 134.112 277.936 132.112 279.502C130.112 281.068 127.394 280.218 125.968 277.363C124.541 274.509 123.25 267.385 123.25 261.542C123.25 255.699 123.824 254.697 125.824 254.697C127.824 254.697 130.821 262.249 130.821 262.249Z" fill="white" stroke="#263238" stroke-linecap="round" stroke-linejoin="round"/>
<path d="M126.701 259.546C125.416 260.661 123.904 261.485 122.27 261.963C120.126 262.392 118.987 256.692 118.7 251.017C118.413 245.342 119.848 242.176 122.844 240.753C125.84 239.33 133.132 240.037 135.994 241.174C138.855 242.311 142.281 244.172 142.281 247.161C142.281 250.15 138.416 252.6 137.276 253.274C136.137 253.947 133.419 254.958 131.706 256.692C130.226 257.939 128.53 258.907 126.701 259.546Z" fill="#263238" stroke="#263238" stroke-linecap="round" stroke-linejoin="round"/>
<path d="M126.701 259.546C126.701 259.546 128.389 263.824 131.563 263.959C134.736 264.093 138.315 256.835 138.424 253.695C138.534 250.554 135.276 245.14 135.276 245.14C135.276 245.14 129.706 257.829 126.701 259.546Z" fill="white" stroke="#263238" stroke-linecap="round" stroke-linejoin="round"/>
<path d="M125.849 253.131L126.128 283.922H116.557L118.7 248.137" fill="#263238"/>
<path d="M125.849 253.131L126.128 283.922H116.557L118.7 248.137" stroke="#263238" stroke-linecap="round" stroke-linejoin="round"/>
</g>
</svg>
