<svg width="246" height="245" viewBox="0 0 246 245" fill="none" xmlns="http://www.w3.org/2000/svg">
<path d="M149.118 235.861C164.724 235.861 177.376 234.185 177.376 232.118C177.376 230.05 164.724 228.374 149.118 228.374C133.511 228.374 120.859 230.05 120.859 232.118C120.859 234.185 133.511 235.861 149.118 235.861Z" fill="#B2B2B2"/>
<path d="M228.929 42.5712H166.008V144.231H228.929V42.5712Z" stroke="#B2B2B2" stroke-linecap="round" stroke-linejoin="round"/>
<path d="M225.548 45.9521H169.648V89.1114H225.548V45.9521Z" stroke="#B2B2B2" stroke-linecap="round" stroke-linejoin="round"/>
<path d="M196.74 45.9521V89.1114" stroke="#B2B2B2" stroke-linecap="round" stroke-linejoin="round"/>
<path d="M169.918 68.3354H225.548" stroke="#B2B2B2" stroke-linecap="round" stroke-linejoin="round"/>
<path d="M225.548 96.6525H169.648V139.812H225.548V96.6525Z" stroke="#B2B2B2" stroke-linecap="round" stroke-linejoin="round"/>
<path d="M196.74 96.6525V139.812" stroke="#B2B2B2" stroke-linecap="round" stroke-linejoin="round"/>
<path d="M169.918 119.036H225.548" stroke="#B2B2B2" stroke-linecap="round" stroke-linejoin="round"/>
<path d="M213.649 162.376C213.652 162.37 213.653 162.364 213.653 162.358C213.652 162.352 213.651 162.346 213.648 162.34C213.645 162.335 213.641 162.33 213.636 162.326C213.632 162.322 213.626 162.319 213.62 162.317C213.596 162.317 213.571 162.317 213.556 162.342C212.144 165.736 211.027 169.246 210.219 172.833C209.4 176.421 208.783 180.053 208.372 183.711L208.112 186.46C208.068 186.92 208.019 187.376 207.99 187.837L207.912 189.218C207.872 190.14 207.818 191.056 207.789 191.977L207.814 194.741L207.848 196.123C207.848 196.583 207.902 197.044 207.931 197.504C208 198.421 208.059 199.342 208.142 200.258C208.318 202.091 208.593 203.914 208.877 205.727C208.879 205.738 208.885 205.748 208.894 205.755C208.903 205.762 208.914 205.766 208.926 205.766C208.932 205.766 208.938 205.764 208.944 205.762C208.95 205.759 208.955 205.756 208.959 205.751C208.963 205.747 208.966 205.741 208.968 205.735C208.97 205.729 208.971 205.723 208.97 205.717C208.97 204.796 208.931 203.879 208.906 202.963C208.882 202.047 208.803 201.135 208.813 200.219C208.823 199.303 208.813 198.386 208.784 197.475L208.759 196.103L208.784 194.736V191.997L208.862 189.258V187.891C208.862 187.435 208.916 186.979 208.941 186.523L209.107 183.784C209.421 180.142 209.94 176.52 210.66 172.936C211.351 169.336 212.351 165.803 213.649 162.376Z" fill="#263238"/>
<path d="M214.033 176.694C214.037 176.682 214.036 176.67 214.03 176.659C214.025 176.647 214.015 176.639 214.003 176.635C213.992 176.631 213.979 176.632 213.968 176.638C213.957 176.643 213.948 176.653 213.944 176.665C213.161 178.944 212.507 181.265 211.984 183.618C211.468 185.977 211.084 188.364 210.833 190.767C210.588 193.163 210.343 195.564 210.289 197.975C210.227 200.387 210.312 202.8 210.544 205.202C210.546 205.213 210.551 205.222 210.559 205.229C210.567 205.236 210.577 205.241 210.588 205.241C210.594 205.243 210.601 205.243 210.607 205.242C210.613 205.24 210.619 205.238 210.624 205.234C210.629 205.23 210.633 205.226 210.636 205.22C210.639 205.215 210.641 205.208 210.642 205.202C210.921 202.801 211.088 200.405 211.254 198.014C211.421 195.623 211.45 193.227 211.602 190.835C211.938 186.053 212.749 181.316 214.023 176.694H214.033Z" fill="#263238"/>
<path d="M221.98 181.731C221.97 181.723 221.958 181.719 221.946 181.719C221.933 181.719 221.921 181.723 221.911 181.731C219.922 183.003 218.13 184.558 216.59 186.347C215.817 187.248 215.122 188.214 214.512 189.233L214.086 190.037L213.753 190.875C213.638 191.151 213.54 191.434 213.459 191.722C213.376 192.006 213.278 192.291 213.204 192.58C212.593 194.869 212.225 197.216 212.107 199.582C211.987 201.935 212.074 204.295 212.366 206.633C212.369 206.644 212.374 206.654 212.382 206.661C212.39 206.669 212.4 206.675 212.41 206.677C212.417 206.678 212.423 206.677 212.429 206.675C212.436 206.673 212.441 206.67 212.446 206.666C212.451 206.662 212.456 206.657 212.459 206.651C212.462 206.646 212.464 206.639 212.464 206.633L213.072 199.65C213.237 197.341 213.531 195.043 213.954 192.766C214.018 192.482 214.096 192.207 214.169 191.933C214.236 191.654 214.317 191.379 214.414 191.11L214.699 190.301L215.061 189.542C215.614 188.527 216.25 187.561 216.962 186.651C218.389 184.795 220.079 183.157 221.98 181.79C221.986 181.781 221.989 181.771 221.989 181.761C221.989 181.75 221.986 181.74 221.98 181.731Z" fill="#263238"/>
<path d="M218.134 190.703C217.102 191.456 216.272 192.453 215.718 193.604C215.137 194.736 214.683 195.929 214.366 197.161C214.271 197.464 214.192 197.771 214.131 198.083L213.91 199.009C213.793 199.632 213.714 200.262 213.675 200.895C213.675 201.527 213.65 202.164 213.675 202.791C213.724 203.424 213.807 204.054 213.925 204.678C213.927 204.687 213.932 204.696 213.939 204.703C213.946 204.71 213.955 204.715 213.964 204.717C213.971 204.719 213.977 204.719 213.984 204.717C213.99 204.716 213.996 204.714 214.002 204.71C214.007 204.706 214.012 204.702 214.016 204.696C214.019 204.691 214.022 204.684 214.023 204.678C214.169 204.066 214.28 203.446 214.356 202.821C214.454 202.208 214.552 201.596 214.626 200.988C214.699 200.381 214.797 199.768 214.841 199.156C214.885 198.543 214.973 197.936 215.106 197.338C215.319 196.129 215.665 194.947 216.14 193.815C216.565 192.658 217.261 191.62 218.168 190.786C218.173 190.782 218.176 190.777 218.178 190.772C218.181 190.766 218.182 190.761 218.182 190.755C218.182 190.749 218.181 190.743 218.178 190.737C218.176 190.732 218.173 190.727 218.168 190.723C218.164 190.717 218.159 190.712 218.153 190.709C218.147 190.705 218.141 190.704 218.134 190.703Z" fill="#263238"/>
<path d="M206.997 197.695C206.737 194.599 206.227 191.526 205.742 188.464C205.257 185.401 204.723 182.334 204.164 179.286C203.606 176.238 202.974 173.191 202.317 170.157C202.314 170.145 202.306 170.135 202.295 170.128C202.284 170.122 202.271 170.12 202.258 170.123C202.252 170.124 202.247 170.127 202.242 170.13C202.237 170.133 202.233 170.138 202.23 170.143C202.226 170.148 202.224 170.153 202.223 170.159C202.222 170.165 202.223 170.171 202.224 170.177C202.753 173.235 203.233 176.297 203.694 179.364C204.155 182.432 204.596 185.499 204.988 188.572C205.38 191.644 205.659 194.726 206.046 197.798L207.178 207.025C207.181 207.036 207.187 207.047 207.196 207.055C207.204 207.062 207.215 207.067 207.227 207.069C207.24 207.069 207.252 207.064 207.262 207.055C207.271 207.046 207.276 207.033 207.276 207.02C207.31 206.246 207.31 205.467 207.33 204.688C207.349 203.909 207.281 203.134 207.281 202.37C207.246 200.797 207.114 199.249 206.997 197.695Z" fill="#263238"/>
<path d="M205.138 197.651C204.972 196.426 204.746 195.201 204.511 193.986L204.075 192.178C203.933 191.575 203.801 190.968 203.624 190.375C203.006 187.97 202.213 185.613 201.253 183.324L200.88 182.471L200.469 181.638C200.209 181.075 199.89 180.541 199.587 180.002C198.979 178.915 198.228 177.916 197.352 177.032C197.342 177.025 197.33 177.021 197.318 177.021C197.306 177.021 197.294 177.025 197.284 177.032C197.275 177.041 197.27 177.054 197.27 177.066C197.27 177.079 197.275 177.092 197.284 177.101C198.097 178.016 198.785 179.036 199.327 180.134C199.596 180.688 199.885 181.231 200.116 181.8L200.478 182.643L200.802 183.505C201.662 185.802 202.353 188.158 202.87 190.556C203.154 191.752 203.36 192.967 203.57 194.167L203.85 196C203.952 196.603 204.08 197.205 204.168 197.813C204.359 199.023 204.585 200.234 204.795 201.444C205.006 202.654 205.202 203.894 205.462 205.089C205.464 205.1 205.47 205.109 205.478 205.116C205.486 205.123 205.495 205.127 205.506 205.129C205.512 205.129 205.519 205.129 205.525 205.127C205.532 205.124 205.537 205.121 205.542 205.116C205.547 205.111 205.55 205.106 205.553 205.099C205.555 205.093 205.556 205.086 205.555 205.08C205.555 203.84 205.555 202.605 205.471 201.366C205.388 200.126 205.266 198.886 205.138 197.651Z" fill="#263238"/>
<path d="M202.576 197.808C201.998 196.186 201.336 194.594 200.616 193.031C199.89 191.474 199.072 189.962 198.166 188.503C198.157 188.496 198.145 188.493 198.134 188.493C198.123 188.493 198.111 188.496 198.102 188.503C198.094 188.513 198.09 188.525 198.09 188.537C198.09 188.55 198.094 188.562 198.102 188.572C198.899 190.082 199.602 191.64 200.209 193.236C200.841 194.824 201.405 196.431 201.88 198.068C202.355 199.704 202.713 201.361 203.149 203.002C203.585 204.644 203.972 206.295 204.477 207.956C204.477 207.969 204.482 207.981 204.491 207.991C204.501 208 204.513 208.005 204.526 208.005C204.539 208.005 204.552 208 204.561 207.991C204.57 207.981 204.575 207.969 204.575 207.956C204.594 206.225 204.429 204.497 204.085 202.801C203.717 201.099 203.212 199.429 202.576 197.808Z" fill="#263238"/>
<path d="M202.469 203.228C202.154 202.213 201.693 201.249 201.102 200.366C200.552 199.465 199.884 198.641 199.117 197.916C198.724 197.563 198.301 197.245 197.853 196.965C197.412 196.677 196.93 196.459 196.422 196.319C196.411 196.316 196.399 196.317 196.389 196.321C196.378 196.326 196.369 196.333 196.363 196.343C196.356 196.352 196.352 196.363 196.352 196.375C196.352 196.387 196.356 196.398 196.363 196.407C197.277 196.847 198.087 197.477 198.74 198.254C199.4 199.012 199.957 199.854 200.396 200.758C200.886 201.65 201.107 202.635 201.518 203.551C201.695 204.041 201.876 204.497 202.087 204.962C202.262 205.454 202.47 205.934 202.709 206.398C202.719 206.413 202.735 206.423 202.753 206.427C202.766 206.426 202.777 206.421 202.786 206.412C202.795 206.403 202.801 206.391 202.802 206.378C202.819 205.85 202.799 205.321 202.743 204.796C202.704 204.257 202.591 203.742 202.469 203.228Z" fill="#263238"/>
<path d="M202.659 174.597C201.11 174.165 199.71 173.318 198.608 172.148C197.506 170.978 196.745 169.529 196.406 167.957C195.235 162.484 199.013 164.831 195.627 156.237C192.241 147.642 193.02 145.687 194.191 143.212C195.363 140.738 196.014 141.517 197.058 144.775C198.102 148.034 201.875 153.105 203.31 162.616C204.746 172.127 202.659 174.597 202.659 174.597Z" fill="#36A9E1"/>
<path d="M212.67 165.351C212.67 165.351 209.284 164.179 209.157 157.795C209.029 151.41 211.631 152.718 212.018 144.775C212.406 136.833 212.935 131.232 214.366 131.1C215.796 130.967 219.574 135.02 220.878 143.864C222.181 152.709 219.182 158.564 216.58 161.186C213.978 163.807 212.67 165.351 212.67 165.351Z" fill="#36A9E1"/>
<path d="M200.836 182.28C200.836 182.28 200.052 177.591 198.489 175.376C196.925 173.161 193.544 171.211 191.33 166.914C189.115 162.616 186.64 160.544 186.773 166.654C186.905 172.764 189.639 175.91 193.02 177.983C196.401 180.055 200.836 182.28 200.836 182.28Z" fill="#36A9E1"/>
<path d="M199.401 190.355C199.401 190.355 196.28 184.362 191.718 179.938C187.156 175.513 183.515 173.293 184.819 175.528C186.122 177.762 187.685 177.61 189.895 181.521C192.105 185.431 191.458 188.292 194.584 190.502C197.71 192.712 199.401 190.355 199.401 190.355Z" fill="#36A9E1"/>
<path d="M199.014 198.038C198.881 197.646 198.754 194.78 194.324 192.438C189.895 190.096 185.73 191.007 186.249 192.178C186.768 193.349 189.508 195.304 192.242 196.475C194.976 197.646 199.014 198.038 199.014 198.038Z" fill="#36A9E1"/>
<path d="M212.425 182.54C212.425 182.54 210.465 180.09 211.514 174.857C212.562 169.623 214.9 170.937 217.506 168.217C220.113 165.498 219.589 165.091 222.191 162.224C224.793 159.358 227.14 157.814 228.183 158.971C229.227 160.127 227.664 163.787 226.101 165.87C224.538 167.952 222.063 168.996 220.892 171.603C219.721 174.21 220.241 178.36 217.247 180.32C214.253 182.28 212.425 182.54 212.425 182.54Z" fill="#36A9E1"/>
<path d="M218.938 183.971C218.938 183.971 223.627 178.634 227.013 174.729C230.399 170.824 231.702 167.825 231.829 170.427C231.957 173.029 233 175.116 230.266 178.502C227.532 181.888 218.938 183.971 218.938 183.971Z" fill="#36A9E1"/>
<path d="M216.463 192.57C216.463 192.57 216.336 190.483 223.754 185.666C231.173 180.849 234.304 179.938 233.525 181.888C232.746 183.838 229.487 185.808 225.969 189.312C222.451 192.815 216.463 192.57 216.463 192.57Z" fill="#36A9E1"/>
<path d="M202.967 174.043C202.967 174.043 201.228 164.699 199.4 158.059C197.572 151.42 196.406 147.377 196.406 147.377" stroke="#263238" stroke-linecap="round" stroke-linejoin="round"/>
<path d="M212.387 165.449C212.387 165.449 215.552 155.33 216.591 149.2C217.63 143.07 216.459 138.523 215.939 135.789" stroke="#263238" stroke-linecap="round" stroke-linejoin="round"/>
<path d="M200.421 182.084C199.019 179.666 197.414 177.371 195.624 175.224C192.757 171.838 190.543 170.015 189.254 166.757" stroke="#263238" stroke-linecap="round" stroke-linejoin="round"/>
<path d="M212.426 182.54C212.426 182.54 213.469 176.287 215.944 173.034C218.418 169.78 223.367 164.704 225.318 161.445" stroke="#263238" stroke-linecap="round" stroke-linejoin="round"/>
<path d="M198.706 197.896C198.706 197.896 194.325 195.045 191.199 193.486" stroke="#263238" stroke-linecap="round" stroke-linejoin="round"/>
<path d="M211.45 225.518H205.717C205.221 225.517 204.736 225.369 204.322 225.094C203.909 224.818 203.587 224.427 203.395 223.969C201.523 219.481 196.535 206.53 199.533 202.855C202.405 199.356 214.768 199.356 217.634 202.855C220.648 206.53 215.645 219.481 213.773 223.969C213.581 224.427 213.258 224.818 212.845 225.094C212.432 225.369 211.947 225.517 211.45 225.518Z" fill="#263238" stroke="#263238" stroke-linecap="round" stroke-linejoin="round"/>
<path d="M23.9961 54.1695V46.5402H120.791V225.518H23.9961V195.829" stroke="#B2B2B2" stroke-linecap="round" stroke-linejoin="round"/>
<path d="M23.9961 191.281V57.7563" stroke="#B2B2B2" stroke-linecap="round" stroke-linejoin="round"/>
<path d="M37.6471 222.788H118.781L118.781 48.804H37.6471L37.6471 222.788Z" stroke="#B2B2B2" stroke-linecap="round" stroke-linejoin="round"/>
<path d="M35.1191 46.9861V121.888" stroke="#B2B2B2" stroke-linecap="round" stroke-linejoin="round"/>
<path d="M35.1191 209.705V225.263" stroke="#B2B2B2" stroke-linecap="round" stroke-linejoin="round"/>
<path d="M35.1191 125.955V207.554" stroke="#B2B2B2" stroke-linecap="round" stroke-linejoin="round"/>
<path d="M37.6471 78.3559L118.781 78.3559V75.7932L37.6471 75.7932V78.3559Z" stroke="#B2B2B2" stroke-linecap="round" stroke-linejoin="round"/>
<path d="M37.6471 108.016L118.781 108.016V105.453L37.6471 105.453V108.016Z" stroke="#B2B2B2" stroke-linecap="round" stroke-linejoin="round"/>
<path d="M63.7947 75.7785H65.5195V48.8285H63.7947V75.7785Z" stroke="#B2B2B2" stroke-linecap="round" stroke-linejoin="round"/>
<path d="M91.3768 75.7785H93.1016V48.8285H91.3768V75.7785Z" stroke="#B2B2B2" stroke-linecap="round" stroke-linejoin="round"/>
<path d="M63.7947 134.995H65.5195V108.045H63.7947V134.995Z" stroke="#B2B2B2" stroke-linecap="round" stroke-linejoin="round"/>
<path d="M91.3768 134.995H93.1016V108.045H91.3768V134.995Z" stroke="#B2B2B2" stroke-linecap="round" stroke-linejoin="round"/>
<path d="M77.7244 105.448H79.4492V78.498H77.7244V105.448Z" stroke="#B2B2B2" stroke-linecap="round" stroke-linejoin="round"/>
<path d="M37.6471 137.568H118.781V135.005H37.6471V137.568Z" stroke="#B2B2B2" stroke-linecap="round" stroke-linejoin="round"/>
<path d="M37.6471 167.129H118.781V164.567H37.6471V167.129Z" stroke="#B2B2B2" stroke-linecap="round" stroke-linejoin="round"/>
<path d="M63.7947 194.104H65.5195V167.154H63.7947V194.104Z" stroke="#B2B2B2" stroke-linecap="round" stroke-linejoin="round"/>
<path d="M91.3768 194.104H93.1016V167.154H91.3768V194.104Z" stroke="#B2B2B2" stroke-linecap="round" stroke-linejoin="round"/>
<path d="M77.7244 164.562H79.4492V137.612H77.7244V164.562Z" stroke="#B2B2B2" stroke-linecap="round" stroke-linejoin="round"/>
<path d="M37.6471 196.676H118.781V194.114H37.6471V196.676Z" stroke="#B2B2B2" stroke-linecap="round" stroke-linejoin="round"/>
<path d="M75.9018 137.381H88.5781V134.897H75.9018V137.381Z" stroke="#B2B2B2" stroke-linecap="round" stroke-linejoin="round"/>
<path d="M42.8413 137.381H55.5176V134.897H42.8413V137.381Z" stroke="#B2B2B2" stroke-linecap="round" stroke-linejoin="round"/>
<path d="M58.4327 75.7246H62.5977V50.9257H58.4327V75.7246Z" stroke="#B2B2B2" stroke-linecap="round" stroke-linejoin="round"/>
<path d="M58.4327 72.4318H62.5977V70.3983H58.4327V72.4318Z" stroke="#B2B2B2" stroke-linecap="round" stroke-linejoin="round"/>
<path d="M58.4327 55.4827H62.5977V53.4492H58.4327V55.4827Z" stroke="#B2B2B2" stroke-linecap="round" stroke-linejoin="round"/>
<path d="M54.1709 75.7246H58.3359V50.9257H54.1709V75.7246Z" stroke="#B2B2B2" stroke-linecap="round" stroke-linejoin="round"/>
<path d="M54.1709 72.4318H58.3359V70.3983H54.1709V72.4318Z" stroke="#B2B2B2" stroke-linecap="round" stroke-linejoin="round"/>
<path d="M54.1709 55.4827H58.3359V53.4492H54.1709V55.4827Z" stroke="#B2B2B2" stroke-linecap="round" stroke-linejoin="round"/>
<path d="M49.9131 75.7246H54.0781V50.9257H49.9131V75.7246Z" stroke="#B2B2B2" stroke-linecap="round" stroke-linejoin="round"/>
<path d="M49.9131 72.4318H54.0781V70.3983H49.9131V72.4318Z" stroke="#B2B2B2" stroke-linecap="round" stroke-linejoin="round"/>
<path d="M49.9131 55.4827H54.0781V53.4492H49.9131V55.4827Z" stroke="#B2B2B2" stroke-linecap="round" stroke-linejoin="round"/>
<path d="M45.6495 75.7246H49.8145V50.9257H45.6495V75.7246Z" stroke="#B2B2B2" stroke-linecap="round" stroke-linejoin="round"/>
<path d="M38.7099 75.7246H45.6875V50.9257H38.7099V75.7246Z" stroke="#B2B2B2" stroke-linecap="round" stroke-linejoin="round"/>
<path d="M45.6495 72.4318H49.8145V70.3983H45.6495V72.4318Z" stroke="#B2B2B2" stroke-linecap="round" stroke-linejoin="round"/>
<path d="M45.6495 55.4827H49.8145V53.4492H45.6495V55.4827Z" stroke="#B2B2B2" stroke-linecap="round" stroke-linejoin="round"/>
<path d="M86.2998 75.7246H90.4648V50.9257H86.2998V75.7246Z" stroke="#B2B2B2" stroke-linecap="round" stroke-linejoin="round"/>
<path d="M86.2998 72.4318H90.4648V70.3983H86.2998V72.4318Z" stroke="#B2B2B2" stroke-linecap="round" stroke-linejoin="round"/>
<path d="M86.2998 55.4827H90.4648V53.4492H86.2998V55.4827Z" stroke="#B2B2B2" stroke-linecap="round" stroke-linejoin="round"/>
<path d="M82.042 75.7246H86.207V50.9257H82.042V75.7246Z" stroke="#B2B2B2" stroke-linecap="round" stroke-linejoin="round"/>
<path d="M82.042 72.4318H86.207V70.3983H82.042V72.4318Z" stroke="#B2B2B2" stroke-linecap="round" stroke-linejoin="round"/>
<path d="M82.042 55.4827H86.207V53.4492H82.042V55.4827Z" stroke="#B2B2B2" stroke-linecap="round" stroke-linejoin="round"/>
<path d="M77.7784 75.7246H81.9434V50.9257H77.7784V75.7246Z" stroke="#B2B2B2" stroke-linecap="round" stroke-linejoin="round"/>
<path d="M77.7784 72.4318H81.9434V70.3983H77.7784V72.4318Z" stroke="#B2B2B2" stroke-linecap="round" stroke-linejoin="round"/>
<path d="M77.7784 55.4827H81.9434V53.4492H77.7784V55.4827Z" stroke="#B2B2B2" stroke-linecap="round" stroke-linejoin="round"/>
<path d="M73.5147 75.7246H77.6797V50.9257H73.5147V75.7246Z" stroke="#B2B2B2" stroke-linecap="round" stroke-linejoin="round"/>
<path d="M66.5771 75.7246H73.5547V50.9257H66.5771V75.7246Z" stroke="#B2B2B2" stroke-linecap="round" stroke-linejoin="round"/>
<path d="M73.5147 72.4318H77.6797V70.3983H73.5147V72.4318Z" stroke="#B2B2B2" stroke-linecap="round" stroke-linejoin="round"/>
<path d="M73.5147 55.4827H77.6797V53.4492H73.5147V55.4827Z" stroke="#B2B2B2" stroke-linecap="round" stroke-linejoin="round"/>
<path d="M86.2998 135.034H90.4648V110.235H86.2998V135.034Z" stroke="#B2B2B2" stroke-linecap="round" stroke-linejoin="round"/>
<path d="M86.2998 131.737H90.4648V129.703H86.2998V131.737Z" stroke="#B2B2B2" stroke-linecap="round" stroke-linejoin="round"/>
<path d="M86.2998 114.787H90.4648V112.754H86.2998V114.787Z" stroke="#B2B2B2" stroke-linecap="round" stroke-linejoin="round"/>
<path d="M82.042 135.034H86.207V110.235H82.042V135.034Z" stroke="#B2B2B2" stroke-linecap="round" stroke-linejoin="round"/>
<path d="M82.042 131.737H86.207V129.703H82.042V131.737Z" stroke="#B2B2B2" stroke-linecap="round" stroke-linejoin="round"/>
<path d="M82.042 114.787H86.207V112.754H82.042V114.787Z" stroke="#B2B2B2" stroke-linecap="round" stroke-linejoin="round"/>
<path d="M77.7784 135.034H81.9434V110.235H77.7784V135.034Z" stroke="#B2B2B2" stroke-linecap="round" stroke-linejoin="round"/>
<path d="M77.7784 131.737H81.9434V129.703H77.7784V131.737Z" stroke="#B2B2B2" stroke-linecap="round" stroke-linejoin="round"/>
<path d="M77.7784 114.787H81.9434V112.754H77.7784V114.787Z" stroke="#B2B2B2" stroke-linecap="round" stroke-linejoin="round"/>
<path d="M73.5147 135.034H77.6797V110.235H73.5147V135.034Z" stroke="#B2B2B2" stroke-linecap="round" stroke-linejoin="round"/>
<path d="M66.5771 135.034H73.5547V110.235H66.5771V135.034Z" stroke="#B2B2B2" stroke-linecap="round" stroke-linejoin="round"/>
<path d="M73.5147 131.737H77.6797V129.703H73.5147V131.737Z" stroke="#B2B2B2" stroke-linecap="round" stroke-linejoin="round"/>
<path d="M73.5147 114.787H77.6797V112.754H73.5147V114.787Z" stroke="#B2B2B2" stroke-linecap="round" stroke-linejoin="round"/>
<path d="M58.7959 135.034H62.9609V110.235H58.7959V135.034Z" stroke="#B2B2B2" stroke-linecap="round" stroke-linejoin="round"/>
<path d="M58.7959 131.737H62.9609V129.703H58.7959V131.737Z" stroke="#B2B2B2" stroke-linecap="round" stroke-linejoin="round"/>
<path d="M58.7959 114.787H62.9609V112.754H58.7959V114.787Z" stroke="#B2B2B2" stroke-linecap="round" stroke-linejoin="round"/>
<path d="M54.5284 135.034H58.6934V110.235H54.5284V135.034Z" stroke="#B2B2B2" stroke-linecap="round" stroke-linejoin="round"/>
<path d="M54.5284 131.737H58.6934V129.703H54.5284V131.737Z" stroke="#B2B2B2" stroke-linecap="round" stroke-linejoin="round"/>
<path d="M54.5284 114.787H58.6934V112.754H54.5284V114.787Z" stroke="#B2B2B2" stroke-linecap="round" stroke-linejoin="round"/>
<path d="M50.2705 135.034H54.4355V110.235H50.2705V135.034Z" stroke="#B2B2B2" stroke-linecap="round" stroke-linejoin="round"/>
<path d="M50.2705 131.737H54.4355V129.703H50.2705V131.737Z" stroke="#B2B2B2" stroke-linecap="round" stroke-linejoin="round"/>
<path d="M50.2705 114.787H54.4355V112.754H50.2705V114.787Z" stroke="#B2B2B2" stroke-linecap="round" stroke-linejoin="round"/>
<path d="M46.0069 135.034H50.1719V110.235H46.0069V135.034Z" stroke="#B2B2B2" stroke-linecap="round" stroke-linejoin="round"/>
<path d="M39.0634 135.034H46.041V110.235H39.0634V135.034Z" stroke="#B2B2B2" stroke-linecap="round" stroke-linejoin="round"/>
<path d="M46.0069 131.737H50.1719V129.703H46.0069V131.737Z" stroke="#B2B2B2" stroke-linecap="round" stroke-linejoin="round"/>
<path d="M46.0069 114.787H50.1719V112.754H46.0069V114.787Z" stroke="#B2B2B2" stroke-linecap="round" stroke-linejoin="round"/>
<path d="M113.636 135.034H117.801V110.235H113.636V135.034Z" stroke="#B2B2B2" stroke-linecap="round" stroke-linejoin="round"/>
<path d="M113.636 131.737H117.801V129.703H113.636V131.737Z" stroke="#B2B2B2" stroke-linecap="round" stroke-linejoin="round"/>
<path d="M113.636 114.787H117.801V112.754H113.636V114.787Z" stroke="#B2B2B2" stroke-linecap="round" stroke-linejoin="round"/>
<path d="M109.374 135.034H113.539V110.235H109.374V135.034Z" stroke="#B2B2B2" stroke-linecap="round" stroke-linejoin="round"/>
<path d="M109.374 131.737H113.539V129.703H109.374V131.737Z" stroke="#B2B2B2" stroke-linecap="round" stroke-linejoin="round"/>
<path d="M109.374 114.787H113.539V112.754H109.374V114.787Z" stroke="#B2B2B2" stroke-linecap="round" stroke-linejoin="round"/>
<path d="M105.106 135.034H109.271V110.235H105.106V135.034Z" stroke="#B2B2B2" stroke-linecap="round" stroke-linejoin="round"/>
<path d="M105.106 131.737H109.271V129.703H105.106V131.737Z" stroke="#B2B2B2" stroke-linecap="round" stroke-linejoin="round"/>
<path d="M105.106 114.787H109.271V112.754H105.106V114.787Z" stroke="#B2B2B2" stroke-linecap="round" stroke-linejoin="round"/>
<path d="M100.849 135.034H105.014V110.235H100.849V135.034Z" stroke="#B2B2B2" stroke-linecap="round" stroke-linejoin="round"/>
<path d="M93.9052 135.034H100.883V110.235H93.9052V135.034Z" stroke="#B2B2B2" stroke-linecap="round" stroke-linejoin="round"/>
<path d="M100.849 131.737H105.014V129.703H100.849V131.737Z" stroke="#B2B2B2" stroke-linecap="round" stroke-linejoin="round"/>
<path d="M100.849 114.787H105.014V112.754H100.849V114.787Z" stroke="#B2B2B2" stroke-linecap="round" stroke-linejoin="round"/>
<path d="M86.2998 194.025H90.4648V169.226H86.2998V194.025Z" stroke="#B2B2B2" stroke-linecap="round" stroke-linejoin="round"/>
<path d="M86.2998 190.733H90.4648V188.699H86.2998V190.733Z" stroke="#B2B2B2" stroke-linecap="round" stroke-linejoin="round"/>
<path d="M86.2998 173.779H90.4648V171.745H86.2998V173.779Z" stroke="#B2B2B2" stroke-linecap="round" stroke-linejoin="round"/>
<path d="M82.042 194.025H86.207V169.226H82.042V194.025Z" stroke="#B2B2B2" stroke-linecap="round" stroke-linejoin="round"/>
<path d="M82.042 190.733H86.207V188.699H82.042V190.733Z" stroke="#B2B2B2" stroke-linecap="round" stroke-linejoin="round"/>
<path d="M82.042 173.779H86.207V171.745H82.042V173.779Z" stroke="#B2B2B2" stroke-linecap="round" stroke-linejoin="round"/>
<path d="M77.7784 194.025H81.9434V169.226H77.7784V194.025Z" stroke="#B2B2B2" stroke-linecap="round" stroke-linejoin="round"/>
<path d="M77.7784 190.733H81.9434V188.699H77.7784V190.733Z" stroke="#B2B2B2" stroke-linecap="round" stroke-linejoin="round"/>
<path d="M77.7784 173.779H81.9434V171.745H77.7784V173.779Z" stroke="#B2B2B2" stroke-linecap="round" stroke-linejoin="round"/>
<path d="M73.5147 194.025H77.6797V169.226H73.5147V194.025Z" stroke="#B2B2B2" stroke-linecap="round" stroke-linejoin="round"/>
<path d="M66.5771 194.025H73.5547V169.226H66.5771V194.025Z" stroke="#B2B2B2" stroke-linecap="round" stroke-linejoin="round"/>
<path d="M73.5147 190.733H77.6797V188.699H73.5147V190.733Z" stroke="#B2B2B2" stroke-linecap="round" stroke-linejoin="round"/>
<path d="M73.5147 173.779H77.6797V171.745H73.5147V173.779Z" stroke="#B2B2B2" stroke-linecap="round" stroke-linejoin="round"/>
<path d="M58.7959 194.025H62.9609V169.226H58.7959V194.025Z" stroke="#B2B2B2" stroke-linecap="round" stroke-linejoin="round"/>
<path d="M58.7959 190.733H62.9609V188.699H58.7959V190.733Z" stroke="#B2B2B2" stroke-linecap="round" stroke-linejoin="round"/>
<path d="M58.7959 173.779H62.9609V171.745H58.7959V173.779Z" stroke="#B2B2B2" stroke-linecap="round" stroke-linejoin="round"/>
<path d="M54.5284 194.025H58.6934V169.226H54.5284V194.025Z" stroke="#B2B2B2" stroke-linecap="round" stroke-linejoin="round"/>
<path d="M54.5284 190.733H58.6934V188.699H54.5284V190.733Z" stroke="#B2B2B2" stroke-linecap="round" stroke-linejoin="round"/>
<path d="M54.5284 173.779H58.6934V171.745H54.5284V173.779Z" stroke="#B2B2B2" stroke-linecap="round" stroke-linejoin="round"/>
<path d="M50.2705 194.025H54.4355V169.226H50.2705V194.025Z" stroke="#B2B2B2" stroke-linecap="round" stroke-linejoin="round"/>
<path d="M50.2705 190.733H54.4355V188.699H50.2705V190.733Z" stroke="#B2B2B2" stroke-linecap="round" stroke-linejoin="round"/>
<path d="M50.2705 173.779H54.4355V171.745H50.2705V173.779Z" stroke="#B2B2B2" stroke-linecap="round" stroke-linejoin="round"/>
<path d="M46.0069 194.025H50.1719V169.226H46.0069V194.025Z" stroke="#B2B2B2" stroke-linecap="round" stroke-linejoin="round"/>
<path d="M39.0634 194.025H46.041V169.226H39.0634V194.025Z" stroke="#B2B2B2" stroke-linecap="round" stroke-linejoin="round"/>
<path d="M46.0069 190.733H50.1719V188.699H46.0069V190.733Z" stroke="#B2B2B2" stroke-linecap="round" stroke-linejoin="round"/>
<path d="M46.0069 173.779H50.1719V171.745H46.0069V173.779Z" stroke="#B2B2B2" stroke-linecap="round" stroke-linejoin="round"/>
<path d="M113.636 194.025H117.801V169.226H113.636V194.025Z" stroke="#B2B2B2" stroke-linecap="round" stroke-linejoin="round"/>
<path d="M113.636 190.733H117.801V188.699H113.636V190.733Z" stroke="#B2B2B2" stroke-linecap="round" stroke-linejoin="round"/>
<path d="M113.636 173.779H117.801V171.745H113.636V173.779Z" stroke="#B2B2B2" stroke-linecap="round" stroke-linejoin="round"/>
<path d="M109.374 194.025H113.539V169.226H109.374V194.025Z" stroke="#B2B2B2" stroke-linecap="round" stroke-linejoin="round"/>
<path d="M109.374 190.733H113.539V188.699H109.374V190.733Z" stroke="#B2B2B2" stroke-linecap="round" stroke-linejoin="round"/>
<path d="M109.374 173.779H113.539V171.745H109.374V173.779Z" stroke="#B2B2B2" stroke-linecap="round" stroke-linejoin="round"/>
<path d="M105.106 194.025H109.271V169.226H105.106V194.025Z" stroke="#B2B2B2" stroke-linecap="round" stroke-linejoin="round"/>
<path d="M105.106 190.733H109.271V188.699H105.106V190.733Z" stroke="#B2B2B2" stroke-linecap="round" stroke-linejoin="round"/>
<path d="M105.106 173.779H109.271V171.745H105.106V173.779Z" stroke="#B2B2B2" stroke-linecap="round" stroke-linejoin="round"/>
<path d="M100.849 194.025H105.014V169.226H100.849V194.025Z" stroke="#B2B2B2" stroke-linecap="round" stroke-linejoin="round"/>
<path d="M93.9052 194.025H100.883V169.226H93.9052V194.025Z" stroke="#B2B2B2" stroke-linecap="round" stroke-linejoin="round"/>
<path d="M100.849 190.733H105.014V188.699H100.849V190.733Z" stroke="#B2B2B2" stroke-linecap="round" stroke-linejoin="round"/>
<path d="M100.849 173.779H105.014V171.745H100.849V173.779Z" stroke="#B2B2B2" stroke-linecap="round" stroke-linejoin="round"/>
<path d="M114.165 75.7246H118.33V50.9257H114.165V75.7246Z" stroke="#B2B2B2" stroke-linecap="round" stroke-linejoin="round"/>
<path d="M114.165 72.4318H118.33V70.3983H114.165V72.4318Z" stroke="#B2B2B2" stroke-linecap="round" stroke-linejoin="round"/>
<path d="M114.165 55.4827H118.33V53.4492H114.165V55.4827Z" stroke="#B2B2B2" stroke-linecap="round" stroke-linejoin="round"/>
<path d="M109.907 75.7246H114.072V50.9257H109.907V75.7246Z" stroke="#B2B2B2" stroke-linecap="round" stroke-linejoin="round"/>
<path d="M109.907 72.4318H114.072V70.3983H109.907V72.4318Z" stroke="#B2B2B2" stroke-linecap="round" stroke-linejoin="round"/>
<path d="M109.907 55.4827H114.072V53.4492H109.907V55.4827Z" stroke="#B2B2B2" stroke-linecap="round" stroke-linejoin="round"/>
<path d="M105.646 75.7246H109.811V50.9257H105.646V75.7246Z" stroke="#B2B2B2" stroke-linecap="round" stroke-linejoin="round"/>
<path d="M105.646 72.4318H109.811V70.3983H105.646V72.4318Z" stroke="#B2B2B2" stroke-linecap="round" stroke-linejoin="round"/>
<path d="M105.646 55.4827H109.811V53.4492H105.646V55.4827Z" stroke="#B2B2B2" stroke-linecap="round" stroke-linejoin="round"/>
<path d="M101.382 75.7246H105.547V50.9257H101.382V75.7246Z" stroke="#B2B2B2" stroke-linecap="round" stroke-linejoin="round"/>
<path d="M94.4443 75.7246H101.422V50.9257H94.4443V75.7246Z" stroke="#B2B2B2" stroke-linecap="round" stroke-linejoin="round"/>
<path d="M101.382 72.4318H105.547V70.3983H101.382V72.4318Z" stroke="#B2B2B2" stroke-linecap="round" stroke-linejoin="round"/>
<path d="M101.382 55.4827H105.547V53.4492H101.382V55.4827Z" stroke="#B2B2B2" stroke-linecap="round" stroke-linejoin="round"/>
<path d="M101.843 105.281H106.008V80.4825H101.843V105.281Z" stroke="#B2B2B2" stroke-linecap="round" stroke-linejoin="round"/>
<path d="M101.843 101.984H106.008V99.9502H101.843V101.984Z" stroke="#B2B2B2" stroke-linecap="round" stroke-linejoin="round"/>
<path d="M101.843 85.0346H106.008V83.0011H101.843V85.0346Z" stroke="#B2B2B2" stroke-linecap="round" stroke-linejoin="round"/>
<path d="M105.948 105.281H110.113V80.4825H105.948V105.281Z" stroke="#B2B2B2" stroke-linecap="round" stroke-linejoin="round"/>
<path d="M105.948 101.984H110.113V99.9502H105.948V101.984Z" stroke="#B2B2B2" stroke-linecap="round" stroke-linejoin="round"/>
<path d="M105.948 85.0346H110.113V83.0011H105.948V85.0346Z" stroke="#B2B2B2" stroke-linecap="round" stroke-linejoin="round"/>
<path d="M110.06 105.281H114.225V80.4825H110.06V105.281Z" stroke="#B2B2B2" stroke-linecap="round" stroke-linejoin="round"/>
<path d="M110.06 101.984H114.225V99.9502H110.06V101.984Z" stroke="#B2B2B2" stroke-linecap="round" stroke-linejoin="round"/>
<path d="M110.06 85.0346H114.225V83.0011H110.06V85.0346Z" stroke="#B2B2B2" stroke-linecap="round" stroke-linejoin="round"/>
<path d="M114.165 105.281H118.33V80.4825H114.165V105.281Z" stroke="#B2B2B2" stroke-linecap="round" stroke-linejoin="round"/>
<path d="M114.165 101.984H118.33V99.9502H114.165V101.984Z" stroke="#B2B2B2" stroke-linecap="round" stroke-linejoin="round"/>
<path d="M114.165 85.0346H118.33V83.0011H114.165V85.0346Z" stroke="#B2B2B2" stroke-linecap="round" stroke-linejoin="round"/>
<path d="M97.585 105.281H101.75V80.4825H97.585V105.281Z" stroke="#B2B2B2" stroke-linecap="round" stroke-linejoin="round"/>
<path d="M97.585 101.984H101.75V99.9502H97.585V101.984Z" stroke="#B2B2B2" stroke-linecap="round" stroke-linejoin="round"/>
<path d="M97.585 85.0346H101.75V83.0011H97.585V85.0346Z" stroke="#B2B2B2" stroke-linecap="round" stroke-linejoin="round"/>
<path d="M93.3155 105.281H97.4805V80.4825H93.3155V105.281Z" stroke="#B2B2B2" stroke-linecap="round" stroke-linejoin="round"/>
<path d="M93.3155 101.984H97.4805V99.9502H93.3155V101.984Z" stroke="#B2B2B2" stroke-linecap="round" stroke-linejoin="round"/>
<path d="M93.3155 85.0346H97.4805V83.0011H93.3155V85.0346Z" stroke="#B2B2B2" stroke-linecap="round" stroke-linejoin="round"/>
<path d="M89.0538 105.281H93.2188V80.4825H89.0538V105.281Z" stroke="#B2B2B2" stroke-linecap="round" stroke-linejoin="round"/>
<path d="M82.1142 105.281H89.0918V80.4825H82.1142V105.281Z" stroke="#B2B2B2" stroke-linecap="round" stroke-linejoin="round"/>
<path d="M89.0538 101.984H93.2188V99.9502H89.0538V101.984Z" stroke="#B2B2B2" stroke-linecap="round" stroke-linejoin="round"/>
<path d="M89.0538 85.0346H93.2188V83.0011H89.0538V85.0346Z" stroke="#B2B2B2" stroke-linecap="round" stroke-linejoin="round"/>
<path d="M72.2217 105.281H76.3867V80.4825H72.2217V105.281Z" stroke="#B2B2B2" stroke-linecap="round" stroke-linejoin="round"/>
<path d="M72.2217 101.984H76.3867V99.9502H72.2217V101.984Z" stroke="#B2B2B2" stroke-linecap="round" stroke-linejoin="round"/>
<path d="M72.2217 85.0346H76.3867V83.0011H72.2217V85.0346Z" stroke="#B2B2B2" stroke-linecap="round" stroke-linejoin="round"/>
<path d="M67.958 105.281H72.123V80.4825H67.958V105.281Z" stroke="#B2B2B2" stroke-linecap="round" stroke-linejoin="round"/>
<path d="M67.958 101.984H72.123V99.9502H67.958V101.984Z" stroke="#B2B2B2" stroke-linecap="round" stroke-linejoin="round"/>
<path d="M67.958 85.0346H72.123V83.0011H67.958V85.0346Z" stroke="#B2B2B2" stroke-linecap="round" stroke-linejoin="round"/>
<path d="M49.6582 103.593L53.5449 105.234L63.3109 82.1034L59.4242 80.4624L49.6582 103.593Z" stroke="#B2B2B2" stroke-linecap="round" stroke-linejoin="round"/>
<path d="M50.9551 100.517L54.8418 102.158L55.6423 100.262L51.7556 98.6213L50.9551 100.517Z" stroke="#B2B2B2" stroke-linecap="round" stroke-linejoin="round"/>
<path d="M57.6309 84.7085L61.5176 86.3495L62.3181 84.4535L58.4314 82.8125L57.6309 84.7085Z" stroke="#B2B2B2" stroke-linecap="round" stroke-linejoin="round"/>
<path d="M53.5521 105.232H44.8546L40.9395 103.601L49.6664 103.591L53.5521 105.232Z" stroke="#B2B2B2" stroke-linecap="round" stroke-linejoin="round"/>
<path d="M59.4321 80.4629H51.2638L40.9395 103.601L49.6664 103.591L59.4321 80.4629Z" stroke="#B2B2B2" stroke-linecap="round" stroke-linejoin="round"/>
<path d="M63.8526 105.281H68.0176V80.4825H63.8526V105.281Z" stroke="#B2B2B2" stroke-linecap="round" stroke-linejoin="round"/>
<path d="M63.8526 101.984H68.0176V99.9502H63.8526V101.984Z" stroke="#B2B2B2" stroke-linecap="round" stroke-linejoin="round"/>
<path d="M63.8526 85.0346H68.0176V83.0011H63.8526V85.0346Z" stroke="#B2B2B2" stroke-linecap="round" stroke-linejoin="round"/>
<path d="M63.8525 80.4776H59.4327L63.3135 82.1044L53.5527 105.232H63.8525V80.4776Z" stroke="#B2B2B2" stroke-linecap="round" stroke-linejoin="round"/>
<path d="M101.843 164.473H106.008V139.674H101.843V164.473Z" stroke="#B2B2B2" stroke-linecap="round" stroke-linejoin="round"/>
<path d="M101.843 161.176H106.008V159.142H101.843V161.176Z" stroke="#B2B2B2" stroke-linecap="round" stroke-linejoin="round"/>
<path d="M101.843 144.227H106.008V142.193H101.843V144.227Z" stroke="#B2B2B2" stroke-linecap="round" stroke-linejoin="round"/>
<path d="M105.948 164.473H110.113V139.674H105.948V164.473Z" stroke="#B2B2B2" stroke-linecap="round" stroke-linejoin="round"/>
<path d="M105.948 161.176H110.113V159.142H105.948V161.176Z" stroke="#B2B2B2" stroke-linecap="round" stroke-linejoin="round"/>
<path d="M105.948 144.227H110.113V142.193H105.948V144.227Z" stroke="#B2B2B2" stroke-linecap="round" stroke-linejoin="round"/>
<path d="M110.06 164.473H114.225V139.674H110.06V164.473Z" stroke="#B2B2B2" stroke-linecap="round" stroke-linejoin="round"/>
<path d="M110.06 161.176H114.225V159.142H110.06V161.176Z" stroke="#B2B2B2" stroke-linecap="round" stroke-linejoin="round"/>
<path d="M110.06 144.227H114.225V142.193H110.06V144.227Z" stroke="#B2B2B2" stroke-linecap="round" stroke-linejoin="round"/>
<path d="M114.165 164.473H118.33V139.674H114.165V164.473Z" stroke="#B2B2B2" stroke-linecap="round" stroke-linejoin="round"/>
<path d="M114.165 161.176H118.33V159.142H114.165V161.176Z" stroke="#B2B2B2" stroke-linecap="round" stroke-linejoin="round"/>
<path d="M114.165 144.227H118.33V142.193H114.165V144.227Z" stroke="#B2B2B2" stroke-linecap="round" stroke-linejoin="round"/>
<path d="M97.585 164.473H101.75V139.674H97.585V164.473Z" stroke="#B2B2B2" stroke-linecap="round" stroke-linejoin="round"/>
<path d="M97.585 161.176H101.75V159.142H97.585V161.176Z" stroke="#B2B2B2" stroke-linecap="round" stroke-linejoin="round"/>
<path d="M97.585 144.227H101.75V142.193H97.585V144.227Z" stroke="#B2B2B2" stroke-linecap="round" stroke-linejoin="round"/>
<path d="M93.3155 164.473H97.4805V139.674H93.3155V164.473Z" stroke="#B2B2B2" stroke-linecap="round" stroke-linejoin="round"/>
<path d="M93.3155 161.176H97.4805V159.142H93.3155V161.176Z" stroke="#B2B2B2" stroke-linecap="round" stroke-linejoin="round"/>
<path d="M93.3155 144.227H97.4805V142.193H93.3155V144.227Z" stroke="#B2B2B2" stroke-linecap="round" stroke-linejoin="round"/>
<path d="M89.0538 164.473H93.2188V139.674H89.0538V164.473Z" stroke="#B2B2B2" stroke-linecap="round" stroke-linejoin="round"/>
<path d="M82.1142 164.473H89.0918V139.674H82.1142V164.473Z" stroke="#B2B2B2" stroke-linecap="round" stroke-linejoin="round"/>
<path d="M89.0538 161.176H93.2188V159.142H89.0538V161.176Z" stroke="#B2B2B2" stroke-linecap="round" stroke-linejoin="round"/>
<path d="M89.0538 144.227H93.2188V142.193H89.0538V144.227Z" stroke="#B2B2B2" stroke-linecap="round" stroke-linejoin="round"/>
<path d="M72.2217 164.473H76.3867V139.674H72.2217V164.473Z" stroke="#B2B2B2" stroke-linecap="round" stroke-linejoin="round"/>
<path d="M72.2217 161.176H76.3867V159.142H72.2217V161.176Z" stroke="#B2B2B2" stroke-linecap="round" stroke-linejoin="round"/>
<path d="M72.2217 144.227H76.3867V142.193H72.2217V144.227Z" stroke="#B2B2B2" stroke-linecap="round" stroke-linejoin="round"/>
<path d="M67.958 164.473H72.123V139.674H67.958V164.473Z" stroke="#B2B2B2" stroke-linecap="round" stroke-linejoin="round"/>
<path d="M67.958 161.176H72.123V159.142H67.958V161.176Z" stroke="#B2B2B2" stroke-linecap="round" stroke-linejoin="round"/>
<path d="M67.958 144.227H72.123V142.193H67.958V144.227Z" stroke="#B2B2B2" stroke-linecap="round" stroke-linejoin="round"/>
<path d="M49.6582 162.787L53.5449 164.428L63.3109 141.297L59.4242 139.656L49.6582 162.787Z" stroke="#B2B2B2" stroke-linecap="round" stroke-linejoin="round"/>
<path d="M50.9532 159.715L54.8398 161.356L55.6403 159.46L51.7537 157.819L50.9532 159.715Z" stroke="#B2B2B2" stroke-linecap="round" stroke-linejoin="round"/>
<path d="M57.6309 143.902L61.5176 145.543L62.3181 143.647L58.4314 142.006L57.6309 143.902Z" stroke="#B2B2B2" stroke-linecap="round" stroke-linejoin="round"/>
<path d="M53.5521 164.424H44.8546L40.9395 162.798L49.6664 162.788L53.5521 164.424Z" stroke="#B2B2B2" stroke-linecap="round" stroke-linejoin="round"/>
<path d="M59.4321 139.655H51.2638L40.9395 162.798L49.6664 162.788L59.4321 139.655Z" stroke="#B2B2B2" stroke-linecap="round" stroke-linejoin="round"/>
<path d="M63.8526 164.473H68.0176V139.674H63.8526V164.473Z" stroke="#B2B2B2" stroke-linecap="round" stroke-linejoin="round"/>
<path d="M63.8526 161.176H68.0176V159.142H63.8526V161.176Z" stroke="#B2B2B2" stroke-linecap="round" stroke-linejoin="round"/>
<path d="M63.8526 144.227H68.0176V142.193H63.8526V144.227Z" stroke="#B2B2B2" stroke-linecap="round" stroke-linejoin="round"/>
<path d="M63.8525 139.674H59.4327L63.3135 141.296L53.5527 164.424H63.8525V139.674Z" stroke="#B2B2B2" stroke-linecap="round" stroke-linejoin="round"/>
<path d="M72.2217 222.455H76.3867V197.656H72.2217V222.455Z" stroke="#B2B2B2" stroke-linecap="round" stroke-linejoin="round"/>
<path d="M72.2217 219.162H76.3867V217.129H72.2217V219.162Z" stroke="#B2B2B2" stroke-linecap="round" stroke-linejoin="round"/>
<path d="M72.2217 202.213H76.3867V200.18H72.2217V202.213Z" stroke="#B2B2B2" stroke-linecap="round" stroke-linejoin="round"/>
<path d="M67.958 222.455H72.123V197.656H67.958V222.455Z" stroke="#B2B2B2" stroke-linecap="round" stroke-linejoin="round"/>
<path d="M67.958 219.162H72.123V217.129H67.958V219.162Z" stroke="#B2B2B2" stroke-linecap="round" stroke-linejoin="round"/>
<path d="M67.958 202.213H72.123V200.18H67.958V202.213Z" stroke="#B2B2B2" stroke-linecap="round" stroke-linejoin="round"/>
<path d="M49.6563 220.767L53.543 222.408L63.3089 199.278L59.4222 197.637L49.6563 220.767Z" stroke="#B2B2B2" stroke-linecap="round" stroke-linejoin="round"/>
<path d="M50.9532 217.692L54.8398 219.333L55.6403 217.437L51.7537 215.796L50.9532 217.692Z" stroke="#B2B2B2" stroke-linecap="round" stroke-linejoin="round"/>
<path d="M57.6329 201.883L61.5195 203.524L62.32 201.628L58.4333 199.987L57.6329 201.883Z" stroke="#B2B2B2" stroke-linecap="round" stroke-linejoin="round"/>
<path d="M53.5521 222.411H44.8546L40.9395 220.779L49.6664 220.77L53.5521 222.411Z" stroke="#B2B2B2" stroke-linecap="round" stroke-linejoin="round"/>
<path d="M59.4321 197.642H51.2638L40.9395 220.779L49.6664 220.77L59.4321 197.642Z" stroke="#B2B2B2" stroke-linecap="round" stroke-linejoin="round"/>
<path d="M63.8526 222.455H68.0176V197.656H63.8526V222.455Z" stroke="#B2B2B2" stroke-linecap="round" stroke-linejoin="round"/>
<path d="M63.8526 219.162H68.0176V217.129H63.8526V219.162Z" stroke="#B2B2B2" stroke-linecap="round" stroke-linejoin="round"/>
<path d="M63.8526 202.213H68.0176V200.18H63.8526V202.213Z" stroke="#B2B2B2" stroke-linecap="round" stroke-linejoin="round"/>
<path d="M63.8525 197.656H59.4327L63.3135 199.278L53.5527 222.411H63.8525V197.656Z" stroke="#B2B2B2" stroke-linecap="round" stroke-linejoin="round"/>
<path d="M109.394 222.455H113.559V197.656H109.394V222.455Z" stroke="#B2B2B2" stroke-linecap="round" stroke-linejoin="round"/>
<path d="M109.394 219.162H113.559V217.129H109.394V219.162Z" stroke="#B2B2B2" stroke-linecap="round" stroke-linejoin="round"/>
<path d="M109.394 202.213H113.559V200.18H109.394V202.213Z" stroke="#B2B2B2" stroke-linecap="round" stroke-linejoin="round"/>
<path d="M113.636 222.455H117.801V197.656H113.636V222.455Z" stroke="#B2B2B2" stroke-linecap="round" stroke-linejoin="round"/>
<path d="M113.636 219.162H117.801V217.129H113.636V219.162Z" stroke="#B2B2B2" stroke-linecap="round" stroke-linejoin="round"/>
<path d="M113.636 202.213H117.801V200.18H113.636V202.213Z" stroke="#B2B2B2" stroke-linecap="round" stroke-linejoin="round"/>
<path d="M105.126 222.455H109.291V197.656H105.126V222.455Z" stroke="#B2B2B2" stroke-linecap="round" stroke-linejoin="round"/>
<path d="M105.126 219.162H109.291V217.129H105.126V219.162Z" stroke="#B2B2B2" stroke-linecap="round" stroke-linejoin="round"/>
<path d="M105.126 202.213H109.291V200.18H105.126V202.213Z" stroke="#B2B2B2" stroke-linecap="round" stroke-linejoin="round"/>
<path d="M86.8243 220.771L90.7109 222.412L100.477 199.281L96.5902 197.64L86.8243 220.771Z" stroke="#B2B2B2" stroke-linecap="round" stroke-linejoin="round"/>
<path d="M88.1211 217.695L92.0078 219.336L92.8083 217.44L88.9216 215.799L88.1211 217.695Z" stroke="#B2B2B2" stroke-linecap="round" stroke-linejoin="round"/>
<path d="M94.7969 201.886L98.6836 203.527L99.4841 201.631L95.5974 199.99L94.7969 201.886Z" stroke="#B2B2B2" stroke-linecap="round" stroke-linejoin="round"/>
<path d="M90.7151 222.411H82.0225L78.1074 220.779L86.8343 220.77L90.7151 222.411Z" stroke="#B2B2B2" stroke-linecap="round" stroke-linejoin="round"/>
<path d="M96.6 197.642H88.4317L78.1074 220.779L86.8343 220.77L96.6 197.642Z" stroke="#B2B2B2" stroke-linecap="round" stroke-linejoin="round"/>
<path d="M101.019 222.455H105.184V197.656H101.019V222.455Z" stroke="#B2B2B2" stroke-linecap="round" stroke-linejoin="round"/>
<path d="M101.019 219.162H105.184V217.129H101.019V219.162Z" stroke="#B2B2B2" stroke-linecap="round" stroke-linejoin="round"/>
<path d="M101.019 202.213H105.184V200.18H101.019V202.213Z" stroke="#B2B2B2" stroke-linecap="round" stroke-linejoin="round"/>
<path d="M101.02 197.656H96.5997L100.481 199.278L90.7148 222.411H101.02V197.656Z" stroke="#B2B2B2" stroke-linecap="round" stroke-linejoin="round"/>
<path d="M235.469 225.518H10.7207" stroke="#263238" stroke-linejoin="round"/>
<path d="M174.784 20.7858H71.8056C66.5907 20.7858 62.3633 25.0133 62.3633 30.2281V184.157C62.3633 189.372 66.5907 193.599 71.8056 193.599H174.784C179.999 193.599 184.226 189.372 184.226 184.157V30.2281C184.226 25.0133 179.999 20.7858 174.784 20.7858Z" fill="#263238" stroke="#263238" stroke-linejoin="round"/>
<path d="M123.575 30.2232C124.554 30.2232 125.348 29.429 125.348 28.4494C125.348 27.4698 124.554 26.6756 123.575 26.6756C122.595 26.6756 121.801 27.4698 121.801 28.4494C121.801 29.429 122.595 30.2232 123.575 30.2232Z" fill="#263238" stroke="white" stroke-linejoin="round"/>
<path d="M177.146 33.2661H69.4395V181.114H177.146V33.2661Z" fill="white" stroke="#263238" stroke-linejoin="round"/>
<path d="M75.1973 49.5145H171.771" stroke="#263238" stroke-linejoin="round"/>
<path d="M75.1973 88.6508H171.771" stroke="#263238" stroke-linejoin="round"/>
<path d="M75.1973 97.1719H111.492" stroke="#263238" stroke-linejoin="round"/>
<path d="M75.1973 105.693H171.771" stroke="#263238" stroke-linejoin="round"/>
<path d="M75.1973 114.214H171.771" stroke="#263238" stroke-linejoin="round"/>
<path d="M75.1973 122.735H171.771" stroke="#263238" stroke-linejoin="round"/>
<path d="M102.02 54.5615H171.771" stroke="#263238" stroke-linejoin="round"/>
<path d="M102.02 63.0826H171.771" stroke="#263238" stroke-linejoin="round"/>
<path d="M102.02 71.6038H171.771" stroke="#263238" stroke-linejoin="round"/>
<path d="M102.02 80.1248H171.771" stroke="#263238" stroke-linejoin="round"/>
<path d="M172.083 41.9391H74.877V47.9368H172.083V41.9391Z" fill="#36A9E1"/>
<path d="M81.1445 77.91L76.9648 52.2585H79.944L82.6978 70.6874L86.1278 52.3516H88.7003L92.1842 70.7805L94.8792 52.2585H97.7898L93.6542 77.91H91.0572L87.4802 58.9078L83.8689 77.91H81.1445Z" fill="#36A9E1"/>
<path d="M75.5098 173.862L101.392 150.822L114.332 157.77L141.155 132.521L171.138 161.553V173.862H75.5098Z" fill="#36A9E1"/>
<path d="M86.5541 144.824C89.6906 144.824 92.2332 142.282 92.2332 139.145C92.2332 136.009 89.6906 133.466 86.5541 133.466C83.4176 133.466 80.875 136.009 80.875 139.145C80.875 142.282 83.4176 144.824 86.5541 144.824Z" fill="#36A9E1"/>
<path d="M171.138 127.155H75.5098V173.867H171.138V127.155Z" stroke="#263238" stroke-linejoin="round"/>
<path d="M171.771 71.6037L165.313 64.2586L158.762 71.6037V33.3984H171.771V71.6037Z" fill="#36A9E1" stroke="#263238" stroke-linejoin="round"/>
<path d="M123.294 192.08C125.6 192.08 127.469 190.211 127.469 187.905C127.469 185.6 125.6 183.73 123.294 183.73C120.988 183.73 119.119 185.6 119.119 187.905C119.119 190.211 120.988 192.08 123.294 192.08Z" fill="#263238" stroke="white" stroke-linejoin="round"/>
<path d="M135.828 95.8342C135.828 95.8342 134.148 97.6031 133.962 98.1666C133.862 98.6894 133.862 99.2264 133.962 99.7493C133.962 99.7493 131.815 100.871 131.722 101.523C131.629 102.175 132.751 103.39 132.751 103.39C132.751 103.39 132.261 108.608 132.751 108.893C133.241 109.177 136.573 110.01 136.573 110.01L136.666 112.808L146.177 112.435L146.667 107.957C146.667 107.957 141.165 97.3238 138.739 95.8342C136.314 94.3446 135.828 95.8342 135.828 95.8342Z" fill="white" stroke="#263238" stroke-linejoin="round"/>
<path d="M141.238 88.4646C141.238 88.4646 142.82 86.9946 141.424 86.1322C140.027 85.2698 135.735 86.4115 134.985 90.4246C134.235 94.4377 134.799 95.8146 135.642 96.6721C136.485 97.5296 135.264 98.539 135.828 99.6562L136.387 100.778C137.197 101.459 137.781 102.37 138.062 103.39C138.44 104.973 138.719 108.893 140.209 109.544C141.698 110.196 145.804 110.01 146.74 109.358C147.676 108.706 152.243 103.669 152.522 99.9355C152.802 96.2017 148.137 92.6639 148.137 92.6639C148.137 92.6639 149.631 91.3556 148.23 89.9591C146.828 88.5626 143.006 87.6267 141.238 88.4646Z" fill="#263238" stroke="#263238" stroke-linejoin="round"/>
<path d="M136.107 102.361C136.107 102.361 136.666 99.911 137.69 101.802C138.714 103.694 138.156 105.624 137.504 106.281C136.852 106.938 136.294 105.438 136.294 105.438" fill="white"/>
<path d="M136.107 102.361C136.107 102.361 136.666 99.911 137.69 101.802C138.714 103.694 138.156 105.624 137.504 106.281C136.852 106.938 136.294 105.438 136.294 105.438" stroke="#263238" stroke-linejoin="round"/>
<path d="M147.798 111.671C147.798 111.671 140.193 111.323 138.361 111.583C136.528 111.842 134.931 112.195 134.441 112.563C133.951 112.93 131.555 115.189 131.555 115.189C131.555 115.189 143.707 114.665 145.804 114.665C147.296 114.688 148.785 114.804 150.263 115.013C150.263 115.013 148.935 112.283 147.798 111.671Z" fill="#36A9E1" stroke="#263238" stroke-linejoin="round"/>
<path d="M118.163 151.797L116.242 156.344C116.242 156.344 116.943 158.706 118.339 159.402C119.736 160.098 124.636 163.513 124.636 163.513L124.548 153.982C124.548 153.982 120.961 151.797 118.163 151.797Z" fill="white" stroke="#263238" stroke-linejoin="round"/>
<path d="M127.434 222.872C127.434 222.872 124.112 225.581 123.411 225.929C122.71 226.277 120.701 225.758 119.912 227.242C119.123 228.727 119.128 229.516 121.485 230.212C123.842 230.908 129.967 231.349 131.976 231.265C133.985 231.182 135.999 231.089 136.435 230.388C136.871 229.687 136.259 227.59 136.087 226.194C135.944 225.191 135.74 224.197 135.475 223.219L127.434 222.872Z" fill="white" stroke="#263238" stroke-linejoin="round"/>
<path d="M124.025 229.776C122.427 229.515 120.907 228.897 119.581 227.968C119.203 229.001 119.546 229.638 121.487 230.212C123.849 230.912 129.969 231.349 131.978 231.265C133.987 231.182 136.001 231.089 136.437 230.388C136.587 230.052 136.636 229.679 136.579 229.315C132.673 229.761 126.23 230.158 124.025 229.776Z" fill="white" stroke="#263238" stroke-linejoin="round"/>
<path d="M144.561 224.704L144.737 229.952C145.001 230.372 145.361 230.724 145.787 230.979C146.212 231.235 146.692 231.386 147.187 231.422C148.496 231.455 149.8 231.248 151.033 230.81C151.367 230.674 151.644 230.429 151.817 230.114C151.994 229.849 152.342 225.214 152.342 225.214L144.561 224.704Z" fill="white" stroke="#263238" stroke-linejoin="round"/>
<path d="M151.821 230.128C151.907 229.835 151.962 229.532 151.983 229.227C148.268 230.403 145.848 229.624 144.711 229.036L144.74 229.952C145.005 230.372 145.364 230.724 145.79 230.979C146.216 231.235 146.695 231.386 147.19 231.422C148.499 231.455 149.803 231.248 151.037 230.81C151.368 230.678 151.644 230.438 151.821 230.128Z" stroke="#263238" stroke-linejoin="round"/>
<path d="M124.196 154.84C124.196 154.84 121.746 164.802 122.01 173.984C122.275 183.167 125.773 196.975 126.033 197.676C126.293 198.376 127.871 216.555 128.13 217.604C128.39 218.653 128.566 219.265 128.395 219.706C128.223 220.147 126.994 220.402 126.994 221.103C126.949 221.865 126.862 222.624 126.734 223.376C126.734 223.376 130.492 225.214 132.589 225.562C134.687 225.91 136.088 226.174 136.088 226.174C136.647 224.327 136.976 222.418 137.068 220.49C137.068 217.957 136.455 216.82 136.544 215.943C136.632 215.066 138.205 198.636 137.333 193.403C136.46 188.17 136.196 185.186 136.196 185.186L138.028 169.996C138.028 169.996 140.478 188.356 140.826 190.017C141.174 191.678 141.262 196.049 141.806 198.323C142.35 200.596 142.159 201.292 142.507 204.266C142.855 207.241 144.168 218.863 144.256 219.128C144.344 219.393 143.384 222.009 143.644 222.533C143.903 223.058 144.624 225.772 144.624 225.772C144.624 225.772 148.211 226.752 149.259 226.645C150.308 226.537 152.405 225.248 152.405 225.248C152.405 225.248 152.581 221.749 152.581 220.613C152.581 219.476 151.881 218.339 152.057 217.114C152.233 215.889 154.36 195.51 153.836 190.61C153.311 185.71 152.782 182.569 152.782 182.133C152.782 181.697 152.346 168.32 152.346 168.32C152.346 168.32 153.135 162.636 152.959 159.755C152.869 158.143 152.694 156.536 152.434 154.943C152.434 154.943 132.942 155.031 129.894 154.507C127.994 154.193 126.047 154.307 124.196 154.84Z" fill="#263238" stroke="#263238" stroke-linejoin="round"/>
<path d="M124.112 151.709C124.112 151.709 123.411 155.467 124.46 156.168C125.509 156.869 128.042 157.045 135.387 157.393C142.732 157.741 149.46 157.045 151.557 156.521C153.654 155.996 153.027 152.846 153.027 152.321C153.027 151.797 148.568 153.11 138.165 152.498C127.763 151.885 124.112 151.709 124.112 151.709Z" fill="#36A9E1" stroke="#263238" stroke-linejoin="round"/>
<path d="M167.208 110.916C167.208 110.916 167.15 108.28 166.552 106.996C165.954 105.713 165.415 105.62 165.572 104.546C165.729 103.473 165.395 101.851 165.033 100.626C164.67 99.4014 166.292 99.5484 166.772 100.391C167.253 101.234 167.429 103.023 167.787 103.444C168.144 103.865 168.688 103.326 169.105 102.067C169.521 100.808 170.183 98.2352 170.487 97.5737C170.79 96.9122 171.383 96.2556 172.04 96.9759C172.696 97.6962 171.981 99.0731 171.741 100.029C171.62 100.439 171.539 100.861 171.501 101.288C171.501 101.288 172.941 102.243 173.059 102.665C173.177 103.086 173.657 103.204 174.137 103.743C174.451 104.025 174.662 104.405 174.735 104.821C174.735 105.002 175.338 105.899 175.274 106.619C175.21 107.339 172.402 111.519 172.28 111.71C172.157 111.901 167.208 110.916 167.208 110.916Z" fill="white" stroke="#263238" stroke-linejoin="round"/>
<path d="M132.677 114.66C132.677 114.66 120.427 117.37 119.825 118.506C119.222 119.643 106.012 140.63 106.541 141.742C107.07 142.855 115.719 156.256 116.243 156.344C116.767 156.432 119.129 156.256 119.741 154.874C120.08 154.225 120.26 153.504 120.266 152.772L117.203 139.135L124.024 132.579C124.024 132.579 123.323 152.512 124.372 153.296C125.421 154.08 136.176 155.134 143.516 154.874C150.856 154.615 152.959 154.521 153.483 152.949C154.007 151.376 154.708 144.129 154.708 144.129L155.756 130.227C155.756 130.227 163.449 133.814 164.062 134.147C164.674 134.48 167.908 136.333 170.27 135.196C172.632 134.059 172.191 129.6 172.367 128.826C172.544 128.052 173.504 111.955 173.504 111.602C173.504 111.25 172.627 110.132 170.966 109.77C169.305 109.407 166.683 110.118 166.683 110.118L163.102 120.785C163.102 120.785 157.942 116.061 156.981 115.713C156.021 115.366 149.46 114.905 149.46 114.905C143.919 113.88 138.246 113.797 132.677 114.66Z" fill="#36A9E1" stroke="#263238" stroke-linejoin="round"/>
<path d="M156.545 124.171L155.756 130.203L158.99 124.783" stroke="#263238" stroke-linejoin="round"/>
<path d="M163.102 120.765L168.256 124.435" stroke="#263238" stroke-linejoin="round"/>
<path d="M122.888 126.273L124.024 132.565C124.024 132.565 121.227 127.322 121.227 127.057" stroke="#263238" stroke-linejoin="round"/>
<path d="M117.203 139.121L113.18 141.919" stroke="#263238" stroke-linejoin="round"/>
<path d="M147.717 116.478C147.717 116.478 138.191 127.057 134.428 129.678" stroke="#263238" stroke-linejoin="round"/>
<path d="M142.643 124.612C142.643 124.612 135.038 131.251 133.549 132.04" stroke="#263238" stroke-linejoin="round"/>
<path d="M120.35 152.321C120.993 152.274 121.639 152.303 122.276 152.41C123.256 152.586 125.421 154.159 126.646 154.943C127.871 155.727 128.92 155.467 128.396 156.256C127.871 157.045 127.259 157.236 126.21 156.957C125.585 156.801 124.992 156.533 124.461 156.168C123.712 156.533 122.918 156.798 122.099 156.957C121.405 157.06 120.702 157.09 120.002 157.045" fill="white"/>
<path d="M120.35 152.321C120.993 152.274 121.639 152.303 122.276 152.41C123.256 152.586 125.421 154.159 126.646 154.943C127.871 155.727 128.92 155.467 128.396 156.256C127.871 157.045 127.259 157.236 126.21 156.957C125.585 156.801 124.992 156.533 124.461 156.168C123.712 156.533 122.918 156.798 122.099 156.957C121.405 157.06 120.702 157.09 120.002 157.045" stroke="#263238" stroke-linejoin="round"/>
<path d="M135.387 169.893L140.894 169.457" stroke="white" stroke-linejoin="round"/>
</svg>
