<svg width="246" height="245" viewBox="0 0 246 245" fill="none" xmlns="http://www.w3.org/2000/svg">
<path d="M151.385 230.378H232.847" stroke="#263238" stroke-miterlimit="10"/>
<path d="M20.0742 230.378H145.157" stroke="#263238" stroke-miterlimit="10"/>
<path d="M7.60938 230.378H16.5127" stroke="#263238" stroke-miterlimit="10"/>
<g opacity="0.3">
<path d="M93.7571 189.512H83.0898V164.14H99.7498L102.117 167.521V169.633" stroke="black" stroke-linecap="round" stroke-linejoin="round"/>
<path d="M99.75 164.14V167.82H102.117L99.75 164.14Z" stroke="black" stroke-linecap="round" stroke-linejoin="round"/>
<path d="M86.0098 171.402H91.6056" stroke="black" stroke-linecap="round" stroke-linejoin="round"/>
<path d="M86.0098 174.989H91.6056" stroke="black" stroke-linecap="round" stroke-linejoin="round"/>
<path d="M86.0098 178.571H91.6056" stroke="black" stroke-linecap="round" stroke-linejoin="round"/>
<path d="M86.0098 182.158H91.6056" stroke="black" stroke-linecap="round" stroke-linejoin="round"/>
</g>
<path opacity="0.3" d="M93.7573 171.103H91.6895V189.262H93.7573V171.103Z" fill="black"/>
<g opacity="0.3">
<path d="M112.72 195.339H93.9727V169.966H110.353L112.72 173.342V195.339Z" stroke="black" stroke-linecap="round" stroke-linejoin="round"/>
<path d="M110.354 169.966V173.641H112.72L110.354 169.966Z" stroke="black" stroke-linecap="round" stroke-linejoin="round"/>
<path d="M96.6133 177.228H109.907" stroke="black" stroke-linecap="round" stroke-linejoin="round"/>
<path d="M96.6133 180.81H109.907" stroke="black" stroke-linecap="round" stroke-linejoin="round"/>
<path d="M96.6133 184.397H109.907" stroke="black" stroke-linecap="round" stroke-linejoin="round"/>
<path d="M96.6133 187.979H109.907" stroke="black" stroke-linecap="round" stroke-linejoin="round"/>
</g>
<path opacity="0.3" d="M53.8425 20.2272L52.9409 17.6351H42.2246V20.2272V32.977V35.5642H64.7989V20.2272H53.8425Z" stroke="black" stroke-linecap="round" stroke-linejoin="round"/>
<path opacity="0.3" d="M27.8669 20.2272L26.9702 17.6351H16.2539V20.2272V32.977V35.5642H38.8282V20.2272H27.8669Z" stroke="black" stroke-linecap="round" stroke-linejoin="round"/>
<path opacity="0.3" d="M196.269 152.018L195.368 149.426H184.656V152.018V164.767V167.36H207.231V152.018H196.269Z" stroke="black" stroke-linecap="round" stroke-linejoin="round"/>
<path opacity="0.3" d="M170.301 152.018L169.399 149.426H158.688V152.018V164.767V167.36H181.262V152.018H170.301Z" stroke="black" stroke-linecap="round" stroke-linejoin="round"/>
<path opacity="0.3" d="M27.8669 44.2372L26.9702 41.6451H16.2539V44.2372V56.987V59.5742H38.8282V44.2372H27.8669Z" stroke="black" stroke-linecap="round" stroke-linejoin="round"/>
<path d="M238.615 65.2435H212.748V70.4179H238.615V65.2435Z" stroke="#ABABAB" stroke-miterlimit="10"/>
<path d="M238.615 71.7115H212.748V76.8859H238.615V71.7115Z" stroke="#ABABAB" stroke-miterlimit="10"/>
<path d="M238.615 78.1844H212.748V83.3588H238.615V78.1844Z" stroke="#ABABAB" stroke-miterlimit="10"/>
<path d="M238.615 84.6524H212.748V89.8268H238.615V84.6524Z" stroke="#ABABAB" stroke-miterlimit="10"/>
<path d="M238.615 91.1204H212.748V96.2948H238.615V91.1204Z" stroke="#ABABAB" stroke-miterlimit="10"/>
<path d="M230.991 67.9777C230.992 67.7893 230.937 67.6048 230.833 67.4477C230.729 67.2907 230.58 67.1681 230.406 67.0955C230.233 67.023 230.041 67.0037 229.856 67.0402C229.671 67.0768 229.502 67.1674 229.368 67.3006C229.235 67.4339 229.144 67.6037 229.108 67.7886C229.071 67.9734 229.091 68.165 229.163 68.3389C229.236 68.5128 229.358 68.6612 229.515 68.7652C229.672 68.8693 229.857 68.9244 230.045 68.9234C230.296 68.9234 230.537 68.8238 230.714 68.6464C230.891 68.4691 230.991 68.2285 230.991 67.9777Z" stroke="#ABABAB" stroke-miterlimit="10"/>
<path d="M234.304 67.9777C234.304 67.7907 234.248 67.6078 234.144 67.4523C234.04 67.2968 233.893 67.1756 233.72 67.104C233.547 67.0324 233.357 67.0137 233.173 67.0502C232.99 67.0867 232.821 67.1767 232.689 67.309C232.557 67.4413 232.467 67.6098 232.43 67.7932C232.394 67.9767 232.413 68.1668 232.484 68.3396C232.556 68.5124 232.677 68.6601 232.832 68.764C232.988 68.8679 233.171 68.9234 233.358 68.9234C233.482 68.9241 233.605 68.9 233.72 68.8528C233.836 68.8055 233.94 68.7358 234.028 68.6479C234.116 68.5599 234.186 68.4554 234.233 68.3404C234.28 68.2254 234.304 68.1021 234.304 67.9777Z" stroke="#ABABAB" stroke-miterlimit="10"/>
<path d="M230.045 75.2346C230.568 75.2346 230.991 74.8112 230.991 74.2889C230.991 73.7666 230.568 73.3432 230.045 73.3432C229.523 73.3432 229.1 73.7666 229.1 74.2889C229.1 74.8112 229.523 75.2346 230.045 75.2346Z" stroke="#ABABAB" stroke-miterlimit="10"/>
<path d="M233.358 75.2346C233.88 75.2346 234.304 74.8112 234.304 74.2889C234.304 73.7666 233.88 73.3432 233.358 73.3432C232.836 73.3432 232.412 73.7666 232.412 74.2889C232.412 74.8112 232.836 75.2346 233.358 75.2346Z" stroke="#ABABAB" stroke-miterlimit="10"/>
<path d="M230.045 81.5458C230.568 81.5458 230.991 81.1224 230.991 80.6001C230.991 80.0778 230.568 79.6544 230.045 79.6544C229.523 79.6544 229.1 80.0778 229.1 80.6001C229.1 81.1224 229.523 81.5458 230.045 81.5458Z" stroke="#ABABAB" stroke-miterlimit="10"/>
<path d="M233.358 81.5458C233.88 81.5458 234.304 81.1224 234.304 80.6001C234.304 80.0778 233.88 79.6544 233.358 79.6544C232.836 79.6544 232.412 80.0778 232.412 80.6001C232.412 81.1224 232.836 81.5458 233.358 81.5458Z" stroke="#ABABAB" stroke-miterlimit="10"/>
<path d="M230.991 86.9162C230.992 86.7278 230.937 86.5433 230.833 86.3863C230.729 86.2292 230.58 86.1066 230.406 86.034C230.233 85.9615 230.041 85.9422 229.856 85.9788C229.671 86.0153 229.502 86.1059 229.368 86.2392C229.235 86.3724 229.144 86.5422 229.108 86.7271C229.071 86.9119 229.091 87.1035 229.163 87.2774C229.236 87.4513 229.358 87.5997 229.515 87.7038C229.672 87.8078 229.857 87.8629 230.045 87.8619C230.296 87.8606 230.536 87.7606 230.713 87.5835C230.89 87.4064 230.99 87.1666 230.991 86.9162Z" stroke="#ABABAB" stroke-miterlimit="10"/>
<path d="M234.304 86.9162C234.304 86.7291 234.248 86.5463 234.144 86.3908C234.04 86.2353 233.893 86.1141 233.72 86.0425C233.547 85.9709 233.357 85.9522 233.173 85.9887C232.99 86.0252 232.821 86.1152 232.689 86.2475C232.557 86.3797 232.467 86.5482 232.43 86.7317C232.394 86.9151 232.413 87.1053 232.484 87.2781C232.556 87.4509 232.677 87.5986 232.832 87.7025C232.988 87.8064 233.171 87.8619 233.358 87.8619C233.609 87.8619 233.849 87.7623 234.027 87.5849C234.204 87.4075 234.304 87.167 234.304 86.9162Z" stroke="#ABABAB" stroke-miterlimit="10"/>
<path d="M230.045 94.1731C230.568 94.1731 230.991 93.7497 230.991 93.2274C230.991 92.7051 230.568 92.2817 230.045 92.2817C229.523 92.2817 229.1 92.7051 229.1 93.2274C229.1 93.7497 229.523 94.1731 230.045 94.1731Z" stroke="#ABABAB" stroke-miterlimit="10"/>
<path d="M233.358 94.1731C233.88 94.1731 234.304 93.7497 234.304 93.2274C234.304 92.7051 233.88 92.2817 233.358 92.2817C232.836 92.2817 232.412 92.7051 232.412 93.2274C232.412 93.7497 232.836 94.1731 233.358 94.1731Z" stroke="#ABABAB" stroke-miterlimit="10"/>
<path d="M224.397 65.0916V9.8392H143.768V176.42H223.971V96.6084" stroke="#ABABAB" stroke-miterlimit="10"/>
<path d="M191.242 200.802C194.08 200.802 196.382 194.767 196.382 187.322C196.382 179.877 194.08 173.842 191.242 173.842C188.403 173.842 186.102 179.877 186.102 187.322C186.102 194.767 188.403 200.802 191.242 200.802Z" fill="#36A9E1" stroke="#263238" stroke-miterlimit="10"/>
<path d="M207.213 179.03C208.82 173.973 208.34 169.306 206.14 168.607C203.94 167.908 200.853 171.441 199.246 176.498C197.639 181.556 198.119 186.223 200.319 186.922C202.519 187.621 205.606 184.088 207.213 179.03Z" fill="#36A9E1" stroke="#263238" stroke-miterlimit="10"/>
<path d="M169.496 209.504C164.262 208.617 160.333 206.074 160.72 203.776C161.107 201.478 165.659 200.371 170.892 201.258C176.125 202.145 180.05 204.688 179.668 206.986C179.286 209.284 174.729 210.391 169.496 209.504Z" fill="#36A9E1" stroke="#263238" stroke-miterlimit="10"/>
<path d="M212.053 197.051C216.423 192.718 218.344 187.571 216.346 185.555C214.347 183.539 209.184 185.418 204.814 189.751C200.445 194.085 198.523 199.231 200.522 201.247C202.521 203.263 207.683 201.384 212.053 197.051Z" fill="#36A9E1" stroke="#263238" stroke-miterlimit="10"/>
<path d="M184.756 199.567C187.427 197.725 186.167 191.263 181.942 185.134C177.717 179.004 172.126 175.528 169.454 177.37C166.783 179.211 168.042 185.673 172.268 191.803C176.493 197.932 182.084 201.408 184.756 199.567Z" fill="#36A9E1" stroke="#263238" stroke-miterlimit="10"/>
<path d="M191.6 200.136L191.997 218.667" stroke="#263238" stroke-miterlimit="10" stroke-linecap="round"/>
<path d="M191.119 182.309L191.599 200.136" stroke="#263238" stroke-miterlimit="10" stroke-linecap="round"/>
<path d="M191.153 179.404L191.119 180.771" stroke="#263238" stroke-miterlimit="10" stroke-linecap="round"/>
<path d="M184.74 198.715C187.69 204.802 189.414 211.41 189.817 218.163" stroke="#263238" stroke-miterlimit="10" stroke-linecap="round"/>
<path d="M175.92 185.22C179.444 189.314 182.41 193.856 184.74 198.729" stroke="#263238" stroke-miterlimit="10" stroke-linecap="round"/>
<path d="M173.121 182.28C173.121 182.28 173.655 182.77 174.532 183.696" stroke="#263238" stroke-miterlimit="10" stroke-linecap="round"/>
<path d="M200.836 200.616C197.232 205.671 194.423 211.248 192.506 217.153" stroke="#263238" stroke-miterlimit="10" stroke-linecap="round"/>
<path d="M206.75 193.819C204.573 195.897 202.593 198.173 200.836 200.616" stroke="#263238" stroke-miterlimit="10" stroke-linecap="round"/>
<path d="M213.062 189.008C211.455 189.916 209.947 190.986 208.559 192.202" stroke="#263238" stroke-miterlimit="10" stroke-linecap="round"/>
<path d="M200.62 185.646C197.774 194.608 193.952 207.848 192.168 219.344" stroke="#263238" stroke-miterlimit="10" stroke-linecap="round"/>
<path d="M202.379 180.32C201.889 181.829 201.282 183.623 200.645 185.632" stroke="#263238" stroke-miterlimit="10" stroke-linecap="round"/>
<path d="M204.134 175.19C204.134 175.19 203.644 176.562 202.836 178.914" stroke="#263238" stroke-miterlimit="10" stroke-linecap="round"/>
<path d="M179.404 205.746C181.44 206.458 183.285 207.629 184.797 209.168C186.308 210.706 187.446 212.572 188.121 214.62" stroke="#263238" stroke-miterlimit="10" stroke-linecap="round"/>
<path d="M172.832 204.408C175.077 204.522 177.292 204.973 179.403 205.746" stroke="#263238" stroke-miterlimit="10" stroke-linecap="round"/>
<path d="M168.57 204.516C168.57 204.516 169.202 204.423 170.246 204.384" stroke="#263238" stroke-miterlimit="10" stroke-linecap="round"/>
<path d="M214.266 209.504C219.5 208.617 223.429 206.074 223.042 203.776C222.655 201.478 218.103 200.371 212.87 201.258C207.637 202.145 203.712 204.688 204.094 206.986C204.476 209.284 209.033 210.391 214.266 209.504Z" fill="#36A9E1" stroke="#263238" stroke-miterlimit="10"/>
<path d="M204.472 205.702C200.876 207.04 197.348 209.647 195.652 214.625" stroke="#263238" stroke-miterlimit="10" stroke-linecap="round"/>
<path d="M211.485 204.384C209.092 204.452 206.726 204.897 204.473 205.702" stroke="#263238" stroke-miterlimit="10" stroke-linecap="round"/>
<path d="M215.189 204.516C215.189 204.516 214.772 204.452 214.057 204.408" stroke="#263238" stroke-miterlimit="10" stroke-linecap="round"/>
<path d="M204.399 230.378C205.986 227.064 206.823 223.44 206.849 219.765C206.851 217.565 206.521 215.378 205.869 213.277H178.478C177.826 215.378 177.496 217.565 177.498 219.765C177.522 223.44 178.358 227.065 179.948 230.378H204.399Z" fill="#263238"/>
<path d="M177.776 216.311C177.698 216.801 177.634 217.315 177.59 217.829H206.74C206.696 217.315 206.637 216.81 206.559 216.311H177.776Z" fill="#7A7A7A"/>
<path d="M206.431 224.062C206.519 223.572 206.602 223.053 206.661 222.543H177.668C177.732 223.033 177.81 223.558 177.903 224.062H206.431Z" fill="#7A7A7A"/>
<path d="M181.045 219.848C181.045 220.082 180.976 220.31 180.846 220.504C180.717 220.699 180.532 220.85 180.316 220.939C180.101 221.029 179.863 221.052 179.634 221.007C179.405 220.961 179.195 220.848 179.029 220.683C178.864 220.518 178.752 220.308 178.706 220.079C178.661 219.85 178.684 219.612 178.773 219.396C178.863 219.181 179.014 218.996 179.208 218.866C179.403 218.737 179.631 218.667 179.864 218.667C180.02 218.667 180.173 218.698 180.316 218.757C180.46 218.817 180.59 218.904 180.7 219.013C180.809 219.123 180.896 219.253 180.956 219.396C181.015 219.54 181.045 219.693 181.045 219.848Z" fill="#8C8C8C"/>
<path d="M186.944 219.848C186.944 220.082 186.875 220.31 186.745 220.504C186.615 220.699 186.431 220.85 186.215 220.939C185.999 221.029 185.762 221.052 185.533 221.007C185.303 220.961 185.093 220.848 184.928 220.683C184.763 220.518 184.65 220.308 184.605 220.079C184.559 219.85 184.583 219.612 184.672 219.396C184.761 219.181 184.913 218.996 185.107 218.866C185.301 218.737 185.529 218.667 185.763 218.667C185.918 218.667 186.072 218.698 186.215 218.757C186.358 218.817 186.488 218.904 186.598 219.013C186.708 219.123 186.795 219.253 186.854 219.396C186.913 219.54 186.944 219.693 186.944 219.848Z" fill="#8C8C8C"/>
<path d="M192.838 219.848C192.838 220.082 192.769 220.311 192.639 220.505C192.509 220.699 192.324 220.851 192.108 220.94C191.892 221.029 191.654 221.052 191.425 221.006C191.196 220.96 190.986 220.847 190.821 220.682C190.656 220.516 190.544 220.305 190.499 220.076C190.454 219.846 190.478 219.609 190.568 219.393C190.658 219.177 190.81 218.993 191.005 218.864C191.2 218.735 191.429 218.666 191.662 218.667C191.975 218.669 192.274 218.794 192.494 219.015C192.715 219.236 192.838 219.536 192.838 219.848Z" fill="#8C8C8C"/>
<path d="M198.739 219.848C198.739 220.082 198.67 220.31 198.54 220.504C198.41 220.699 198.226 220.85 198.01 220.939C197.794 221.029 197.557 221.052 197.327 221.007C197.098 220.961 196.888 220.848 196.723 220.683C196.558 220.518 196.445 220.308 196.4 220.079C196.354 219.85 196.377 219.612 196.467 219.396C196.556 219.181 196.708 218.996 196.902 218.866C197.096 218.737 197.324 218.667 197.558 218.667C197.713 218.667 197.867 218.698 198.01 218.757C198.153 218.817 198.283 218.904 198.393 219.013C198.503 219.123 198.59 219.253 198.649 219.396C198.708 219.54 198.739 219.693 198.739 219.848Z" fill="#8C8C8C"/>
<path d="M204.639 219.848C204.639 220.082 204.57 220.31 204.44 220.504C204.31 220.699 204.126 220.85 203.91 220.939C203.694 221.029 203.457 221.052 203.228 221.007C202.999 220.961 202.788 220.848 202.623 220.683C202.458 220.518 202.346 220.308 202.3 220.079C202.254 219.85 202.278 219.612 202.367 219.396C202.457 219.181 202.608 218.996 202.802 218.866C202.996 218.737 203.225 218.667 203.458 218.667C203.613 218.667 203.767 218.698 203.91 218.757C204.053 218.817 204.184 218.904 204.293 219.013C204.403 219.123 204.49 219.253 204.549 219.396C204.609 219.54 204.639 219.693 204.639 219.848Z" fill="#8C8C8C"/>
<path d="M210.069 19.2521H84.418V146.539H210.069V19.2521Z" fill="#263238" stroke="#263238" stroke-linecap="round" stroke-linejoin="round"/>
<path d="M208.266 16.5473H80.1602V144.06H208.266V16.5473Z" fill="white" stroke="#263238" stroke-linecap="round" stroke-linejoin="round"/>
<path d="M208.27 16.5473H204.83V144.06H208.27V16.5473Z" fill="#DEDEDE" stroke="#263238" stroke-linecap="round" stroke-linejoin="round"/>
<path d="M208.27 34.3H204.83V60.025H208.27V34.3Z" fill="#B8B8B8" stroke="#263238" stroke-linecap="round" stroke-linejoin="round"/>
<path d="M125.299 16.5473H121.859V144.06H125.299V16.5473Z" fill="#DEDEDE" stroke="#263238" stroke-linecap="round" stroke-linejoin="round"/>
<path d="M125.299 34.3H121.859V86.485H125.299V34.3Z" fill="#B8B8B8" stroke="#263238" stroke-linecap="round" stroke-linejoin="round"/>
<path d="M121.972 16.5473H80.1602V144.06H121.972V16.5473Z" fill="white" stroke="#263238" stroke-linecap="round" stroke-linejoin="round"/>
<path d="M208.266 16.5473H80.1602V27.93H208.266V16.5473Z" fill="#DEDEDE" stroke="#263238" stroke-linecap="round" stroke-linejoin="round"/>
<path d="M121.271 57.4525H81.2188V79.037H121.271V57.4525Z" fill="#36A9E1"/>
<path d="M208.266 16.5473H80.1602V22.5694H208.266V16.5473Z" fill="#263238" stroke="#263238" stroke-linecap="round" stroke-linejoin="round"/>
<path d="M195.065 19.796C195.065 19.5169 194.982 19.244 194.827 19.012C194.672 18.7799 194.451 18.599 194.193 18.4922C193.936 18.3854 193.652 18.3575 193.378 18.4119C193.104 18.4664 192.853 18.6008 192.656 18.7981C192.458 18.9955 192.324 19.2469 192.269 19.5207C192.215 19.7944 192.243 20.0782 192.35 20.336C192.456 20.5939 192.637 20.8143 192.869 20.9694C193.101 21.1244 193.374 21.2072 193.653 21.2072C193.839 21.2078 194.023 21.1718 194.194 21.1011C194.366 21.0304 194.522 20.9265 194.653 20.7953C194.784 20.6641 194.888 20.5083 194.958 20.3368C195.029 20.1653 195.065 19.9815 195.065 19.796Z" fill="white" stroke="#263238" stroke-linecap="round" stroke-linejoin="round"/>
<path d="M199.342 19.796C199.342 19.5169 199.259 19.244 199.104 19.012C198.949 18.7799 198.729 18.599 198.471 18.4922C198.213 18.3854 197.929 18.3575 197.655 18.4119C197.382 18.4664 197.13 18.6008 196.933 18.7981C196.736 18.9955 196.601 19.2469 196.547 19.5207C196.492 19.7944 196.52 20.0782 196.627 20.336C196.734 20.5939 196.915 20.8143 197.147 20.9694C197.379 21.1244 197.652 21.2072 197.931 21.2072C198.116 21.2078 198.3 21.1718 198.472 21.1011C198.643 21.0304 198.799 20.9265 198.93 20.7953C199.061 20.6641 199.165 20.5083 199.236 20.3368C199.307 20.1653 199.343 19.9815 199.342 19.796Z" fill="white" stroke="#263238" stroke-linecap="round" stroke-linejoin="round"/>
<path d="M203.621 19.796C203.621 19.5169 203.538 19.244 203.383 19.012C203.228 18.7799 203.008 18.599 202.75 18.4922C202.492 18.3854 202.208 18.3575 201.935 18.4119C201.661 18.4664 201.41 18.6008 201.212 18.7981C201.015 18.9955 200.88 19.2469 200.826 19.5207C200.771 19.7944 200.799 20.0782 200.906 20.336C201.013 20.5939 201.194 20.8143 201.426 20.9694C201.658 21.1244 201.931 21.2072 202.21 21.2072C202.396 21.2078 202.579 21.1718 202.751 21.1011C202.922 21.0304 203.078 20.9265 203.209 20.7953C203.341 20.6641 203.444 20.5083 203.515 20.3368C203.586 20.1653 203.622 19.9815 203.621 19.796Z" fill="white" stroke="#263238" stroke-linecap="round" stroke-linejoin="round"/>
<path d="M102.24 40.2094L101.426 37.8721H91.7832V40.2094V51.6852V54.0225H112.108V40.2094H102.24Z" fill="white" stroke="#263238" stroke-linecap="round" stroke-linejoin="round"/>
<path d="M111.211 41.5618H92.6738V51.7587H111.211V41.5618Z" fill="white" stroke="#263238" stroke-linecap="round" stroke-linejoin="round"/>
<path d="M112.108 43.8256H91.7832V54.0225H112.108V43.8256Z" fill="white" stroke="#263238" stroke-linecap="round" stroke-linejoin="round"/>
<path d="M102.24 87.4944L101.426 85.162H91.7832V87.4944V98.9751V101.307H112.108V87.4944H102.24Z" fill="white" stroke="#263238" stroke-linecap="round" stroke-linejoin="round"/>
<path d="M111.211 88.8468H92.6738V99.0437H111.211V88.8468Z" fill="white" stroke="#263238" stroke-linecap="round" stroke-linejoin="round"/>
<path d="M112.108 91.1106H91.7832V101.307H112.108V91.1106Z" fill="white" stroke="#263238" stroke-linecap="round" stroke-linejoin="round"/>
<path d="M102.24 111.627L101.426 109.294H91.7832V111.627V123.108V125.44H112.108V111.627H102.24Z" fill="white" stroke="#263238" stroke-linecap="round" stroke-linejoin="round"/>
<path d="M111.211 112.979H92.6738V123.176H111.211V112.979Z" fill="white" stroke="#263238" stroke-linecap="round" stroke-linejoin="round"/>
<path d="M112.108 115.243H91.7832V125.44H112.108V115.243Z" fill="white" stroke="#263238" stroke-linecap="round" stroke-linejoin="round"/>
<path d="M102.24 62.7494L101.426 60.4121H91.7832V62.7494V74.2252V76.5625H112.108V62.7494H102.24Z" fill="#36A9E1" stroke="#263238" stroke-linecap="round" stroke-linejoin="round"/>
<path d="M111.211 64.1018H92.6738V74.2987H111.211V64.1018Z" fill="white" stroke="#263238" stroke-linecap="round" stroke-linejoin="round"/>
<path d="M112.108 66.3656H91.7832V76.5625H112.108V66.3656Z" fill="#36A9E1" stroke="#263238" stroke-linecap="round" stroke-linejoin="round"/>
<path d="M148.481 38.8717H129.777V62.8915H148.481V38.8717Z" fill="white" stroke="#263238" stroke-linecap="round" stroke-linejoin="round"/>
<path d="M132.281 43.6884H145.81" stroke="#263238" stroke-linecap="round" stroke-linejoin="round"/>
<path d="M132.281 47.8632H145.81" stroke="#263238" stroke-linecap="round" stroke-linejoin="round"/>
<path d="M132.281 52.038H145.81" stroke="#263238" stroke-linecap="round" stroke-linejoin="round"/>
<path d="M132.281 56.2128H145.81" stroke="#263238" stroke-linecap="round" stroke-linejoin="round"/>
<path d="M173.227 38.8717H154.523V62.8915H173.227V38.8717Z" fill="white" stroke="#263238" stroke-linecap="round" stroke-linejoin="round"/>
<path d="M157.027 43.6884H170.556" stroke="#263238" stroke-linecap="round" stroke-linejoin="round"/>
<path d="M157.027 47.8632H170.556" stroke="#263238" stroke-linecap="round" stroke-linejoin="round"/>
<path d="M157.027 52.038H170.556" stroke="#263238" stroke-linecap="round" stroke-linejoin="round"/>
<path d="M157.027 56.2128H170.556" stroke="#263238" stroke-linecap="round" stroke-linejoin="round"/>
<path d="M197.971 38.8717H179.268V62.8915H197.971V38.8717Z" fill="white" stroke="#263238" stroke-linecap="round" stroke-linejoin="round"/>
<path d="M181.771 43.6884H195.3" stroke="#263238" stroke-linecap="round" stroke-linejoin="round"/>
<path d="M181.771 47.8632H195.3" stroke="#263238" stroke-linecap="round" stroke-linejoin="round"/>
<path d="M181.771 52.038H195.3" stroke="#263238" stroke-linecap="round" stroke-linejoin="round"/>
<path d="M181.771 56.2128H195.3" stroke="#263238" stroke-linecap="round" stroke-linejoin="round"/>
<path d="M130.352 68.11H147.747" stroke="#263238" stroke-linecap="round" stroke-linejoin="round"/>
<path d="M155.342 68.11H172.737" stroke="#263238" stroke-linecap="round" stroke-linejoin="round"/>
<path d="M180.33 68.11H197.725" stroke="#263238" stroke-linecap="round" stroke-linejoin="round"/>
<path d="M148.481 74.6417H129.777V98.6615H148.481V74.6417Z" fill="white" stroke="#263238" stroke-linecap="round" stroke-linejoin="round"/>
<path d="M132.281 79.4584H145.81" stroke="#263238" stroke-linecap="round" stroke-linejoin="round"/>
<path d="M132.281 83.6332H145.81" stroke="#263238" stroke-linecap="round" stroke-linejoin="round"/>
<path d="M132.281 87.808H145.81" stroke="#263238" stroke-linecap="round" stroke-linejoin="round"/>
<path d="M132.281 91.9828H145.81" stroke="#263238" stroke-linecap="round" stroke-linejoin="round"/>
<path d="M173.227 74.6417H154.523V98.6615H173.227V74.6417Z" fill="white" stroke="#263238" stroke-linecap="round" stroke-linejoin="round"/>
<path d="M157.027 79.4584H170.556" stroke="#263238" stroke-linecap="round" stroke-linejoin="round"/>
<path d="M157.027 83.6332H170.556" stroke="#263238" stroke-linecap="round" stroke-linejoin="round"/>
<path d="M157.027 87.808H170.556" stroke="#263238" stroke-linecap="round" stroke-linejoin="round"/>
<path d="M157.027 91.9828H170.556" stroke="#263238" stroke-linecap="round" stroke-linejoin="round"/>
<path d="M197.971 74.6417H179.268V98.6615H197.971V74.6417Z" fill="white" stroke="#263238" stroke-linecap="round" stroke-linejoin="round"/>
<path d="M181.771 79.4584H195.3" stroke="#263238" stroke-linecap="round" stroke-linejoin="round"/>
<path d="M181.771 83.6332H195.3" stroke="#263238" stroke-linecap="round" stroke-linejoin="round"/>
<path d="M181.771 87.808H195.3" stroke="#263238" stroke-linecap="round" stroke-linejoin="round"/>
<path d="M181.771 91.9828H195.3" stroke="#263238" stroke-linecap="round" stroke-linejoin="round"/>
<path d="M130.352 103.88H147.747" stroke="#263238" stroke-linecap="round" stroke-linejoin="round"/>
<path d="M155.342 103.88H172.737" stroke="#263238" stroke-linecap="round" stroke-linejoin="round"/>
<path d="M180.33 103.88H197.725" stroke="#263238" stroke-linecap="round" stroke-linejoin="round"/>
<path d="M148.481 110.412H129.777V134.431H148.481V110.412Z" fill="white" stroke="#263238" stroke-linecap="round" stroke-linejoin="round"/>
<path d="M132.281 115.228H145.81" stroke="#263238" stroke-linecap="round" stroke-linejoin="round"/>
<path d="M132.281 119.403H145.81" stroke="#263238" stroke-linecap="round" stroke-linejoin="round"/>
<path d="M132.281 123.578H145.81" stroke="#263238" stroke-linecap="round" stroke-linejoin="round"/>
<path d="M132.281 127.753H145.81" stroke="#263238" stroke-linecap="round" stroke-linejoin="round"/>
<path d="M173.227 110.412H154.523V134.431H173.227V110.412Z" fill="white" stroke="#263238" stroke-linecap="round" stroke-linejoin="round"/>
<path d="M157.027 115.228H170.556" stroke="#263238" stroke-linecap="round" stroke-linejoin="round"/>
<path d="M157.027 119.403H170.556" stroke="#263238" stroke-linecap="round" stroke-linejoin="round"/>
<path d="M157.027 123.578H170.556" stroke="#263238" stroke-linecap="round" stroke-linejoin="round"/>
<path d="M157.027 127.753H170.556" stroke="#263238" stroke-linecap="round" stroke-linejoin="round"/>
<path d="M197.971 110.412H179.268V134.431H197.971V110.412Z" fill="white" stroke="#263238" stroke-linecap="round" stroke-linejoin="round"/>
<path d="M181.771 115.228H195.3" stroke="#263238" stroke-linecap="round" stroke-linejoin="round"/>
<path d="M181.771 119.403H195.3" stroke="#263238" stroke-linecap="round" stroke-linejoin="round"/>
<path d="M181.771 123.578H195.3" stroke="#263238" stroke-linecap="round" stroke-linejoin="round"/>
<path d="M181.771 127.753H195.3" stroke="#263238" stroke-linecap="round" stroke-linejoin="round"/>
<path d="M130.352 139.65H147.747" stroke="#263238" stroke-linecap="round" stroke-linejoin="round"/>
<path d="M155.342 139.65H172.737" stroke="#263238" stroke-linecap="round" stroke-linejoin="round"/>
<path d="M180.33 139.65H197.725" stroke="#263238" stroke-linecap="round" stroke-linejoin="round"/>
<path d="M156.565 24.01H102.91V26.46H156.565V24.01Z" fill="white" stroke="#263238" stroke-linecap="round" stroke-linejoin="round"/>
<path d="M176.41 24.01H160.24V26.46H176.41V24.01Z" fill="white" stroke="#263238" stroke-linecap="round" stroke-linejoin="round"/>
<path d="M132.101 34.79H131.66L130.979 31.5168V34.79H130.582V30.674H131.224L131.895 33.9619L132.552 30.674H133.189V34.79H132.758V31.4825L132.101 34.79Z" fill="#263238"/>
<path d="M134.389 33.32L133.521 30.6789H134.011L134.653 32.7026L135.3 30.6789H135.741L134.844 33.32V34.79H134.389V33.32Z" fill="#263238"/>
<path d="M138.362 32.5899V33.0113H137.417V34.79H136.961V30.674H138.593V31.0954H137.417V32.5899H138.362Z" fill="#263238"/>
<path d="M139.417 30.674V34.79H138.961V30.674H139.417Z" fill="#263238"/>
<path d="M139.887 34.79V30.674H140.347V34.3735H141.523V34.79H139.887Z" fill="#263238"/>
<path d="M143.331 32.4968V32.9084H142.327V34.3784H143.581V34.79H141.891V30.674H143.581V31.0954H142.346V32.4968H143.331Z" fill="#263238"/>
<path d="M145.766 31.6638V31.7765H145.33V31.6393C145.33 31.2718 145.193 31.0513 144.84 31.0513C144.487 31.0513 144.35 31.2718 144.35 31.6344C144.35 32.5556 145.732 32.6438 145.732 33.8051C145.732 34.4274 145.433 34.8292 144.806 34.8292C144.179 34.8292 143.885 34.4274 143.885 33.8051V33.5699H144.311V33.81C144.311 34.1824 144.463 34.398 144.801 34.398C145.139 34.398 145.291 34.1824 145.291 33.81C145.291 32.8937 143.914 32.83 143.914 31.6491C143.914 31.0121 144.208 30.6201 144.826 30.6201C145.443 30.6201 145.766 31.0415 145.766 31.6638Z" fill="#263238"/>
<path d="M81.1499 97.02L95.208 80.4335C95.208 80.4335 95.3501 76.636 95.0708 75.9353C94.7915 75.2346 95.7715 72.2799 96.0508 71.295C96.3301 70.3101 95.4922 68.6245 96.4722 68.6245C97.4522 68.6245 97.7413 71.295 97.7413 71.7164V72.1378C97.7413 72.1378 100.128 66.2333 100.412 65.6747C100.696 65.1161 101.534 64.5477 101.818 65.6747C102.102 66.8017 100.412 71.05 100.412 71.05C100.771 70.975 101.145 71.0007 101.49 71.1244C101.836 71.248 102.141 71.4647 102.372 71.7507C103.077 72.7307 103.636 72.3142 103.92 73.0198C104.086 73.4325 104.226 73.8546 104.342 74.284C104.342 74.284 106.169 75.1268 106.302 75.6903C106.434 76.2538 103.362 76.1117 103.362 76.1117C103.362 76.1117 100.422 80.8892 99.2848 81.4527C98.5349 81.8459 97.8287 82.3173 97.1778 82.859C97.1778 82.859 88.7449 101.832 87.1965 104.365C85.6481 106.898 80.7285 105.208 80.7285 105.208L81.1499 97.02Z" fill="white" stroke="#263238" stroke-linecap="round" stroke-linejoin="round"/>
<path d="M29.9832 166.894L31.9432 179.144C31.9432 179.144 26.8815 190.669 28.2878 196.573C29.6941 202.478 34.3295 221.313 34.3295 221.313C34.3295 221.313 33.6288 228.904 34.0502 229.609C34.4716 230.315 37.7056 230.168 38.5484 229.888C39.3912 229.609 40.5084 229.046 40.5084 226.797C40.5084 224.547 39.2393 220.892 39.2393 219.349C39.2393 217.805 39.1022 201.219 41.7727 190.811C43.4192 184.196 44.1285 177.382 43.8796 170.569C43.8992 169.844 29.9832 166.894 29.9832 166.894Z" fill="white" stroke="#263238" stroke-linecap="round" stroke-linejoin="round"/>
<path d="M34.0657 224.807C33.9285 226.895 33.8354 229.217 34.0657 229.589C34.4871 230.29 37.7211 230.148 38.5639 229.869C39.4067 229.589 40.5239 229.026 40.5239 226.777C40.4933 225.873 40.3752 224.973 40.1711 224.092C39.2618 224.636 38.2475 224.981 37.1951 225.104C36.1427 225.227 35.0762 225.126 34.0657 224.807Z" fill="#263238" stroke="#263238" stroke-linecap="round" stroke-linejoin="round"/>
<path d="M38.5575 229.869C38.9443 229.769 39.3016 229.578 39.5999 229.312C39.8981 229.046 40.1287 228.713 40.2725 228.34C38.1742 228.652 36.0487 228.739 33.9319 228.6C33.9134 228.931 33.9566 229.264 34.0593 229.58C34.4807 230.3 37.7392 230.148 38.5575 229.869Z" fill="white" stroke="#263238" stroke-linecap="round" stroke-linejoin="round"/>
<path d="M58.2363 168.864L62.4552 176.312C62.4552 176.312 62.7345 186.435 66.2527 194.584C69.7709 202.733 79.1838 219.887 79.321 220.451C79.4582 221.014 79.321 223.264 79.321 225.351C79.321 227.438 79.6052 229.428 80.448 229.57C81.2908 229.712 84.1034 230.413 87.6167 230.976C91.13 231.54 92.3942 230.692 92.6784 229.996C92.9626 229.3 89.7384 227.056 88.1802 225.214C86.622 223.371 84.2602 220.314 83.2802 217.065C82.3002 213.816 79.6248 192.32 78.2185 187.964C76.8122 183.608 74.7052 175.312 74.7052 175.312L73.2989 165.194L58.2363 168.864Z" fill="white" stroke="#263238" stroke-linecap="round" stroke-linejoin="round"/>
<path d="M92.6786 230.011C92.7913 229.722 92.316 229.173 91.6055 228.502C89.4936 229.516 86.1763 227.169 83.5401 225.072C82.9715 224.579 82.2935 224.228 81.5624 224.049C80.8313 223.87 80.0681 223.868 79.3359 224.043C79.3359 224.474 79.3359 224.915 79.3359 225.351C79.3359 227.458 79.6201 229.428 80.4629 229.57C81.3057 229.712 84.1183 230.413 87.6316 230.976C91.1449 231.54 92.3944 230.712 92.6786 230.011Z" fill="#263238" stroke="#263238" stroke-linecap="round" stroke-linejoin="round"/>
<path d="M92.2676 230.535C90.0626 231.412 87.7106 229.825 84.947 228.747C83.181 228.085 81.3299 227.677 79.4492 227.536C79.606 228.668 79.9147 229.496 80.4292 229.589C81.272 229.727 84.0846 230.432 87.5979 230.996C90.2586 231.417 91.6404 231.045 92.2676 230.535Z" fill="white" stroke="#263238" stroke-linecap="round" stroke-linejoin="round"/>
<path d="M36.5883 117.556C36.5883 117.556 28.9982 127.954 28.0133 135.828C27.0284 143.702 28.7189 169.001 28.7189 169.001C28.7189 169.001 31.9529 171.534 45.5847 172.514C59.2165 173.494 74.6858 166.894 74.6858 166.894C74.6858 166.894 70.4669 142.855 68.0757 135.686C65.6845 128.517 60.2063 117.977 60.2063 117.977L36.5883 117.556Z" fill="#263238" stroke="#263238" stroke-linecap="round" stroke-linejoin="round"/>
<path d="M43.8008 147.27C47.7551 151.052 53.9242 156.58 58.8585 159.417" stroke="#878787" stroke-linecap="round" stroke-linejoin="round"/>
<path d="M39.8223 143.325C39.8223 143.325 40.4936 144.026 41.6255 145.148" stroke="#878787" stroke-linecap="round" stroke-linejoin="round"/>
<path d="M47.9805 153.297C47.9805 153.297 55.4579 159.867 58.4077 161.455" stroke="#878787" stroke-linecap="round" stroke-linejoin="round"/>
<path d="M38.7191 79.3163C38.7191 79.3163 27.4491 86.0636 28.0126 87.3327C28.5761 88.6018 36.5876 117.556 36.5876 117.556C36.5876 117.556 39.2581 119.241 47.5538 119.241C55.8495 119.241 60.2056 117.977 60.2056 117.977L65.5466 100.543L78.7766 106.448C78.7766 106.448 79.7566 102.371 79.7566 100.827C79.7566 99.2838 78.7766 95.9273 78.7766 95.9273C78.7766 95.9273 65.4192 85.3825 64.0178 84.2604C62.6164 83.1383 55.3007 80.1836 55.3007 80.1836L38.7191 79.3163Z" fill="white" stroke="#263238" stroke-linecap="round" stroke-linejoin="round"/>
<path d="M50.8125 105.036C51.3105 105.696 51.8664 106.309 52.4736 106.869" stroke="#263238" stroke-linecap="round" stroke-linejoin="round"/>
<path d="M44.8848 93.2372C44.8848 93.2372 46.8938 99.0927 49.7505 103.527" stroke="#263238" stroke-linecap="round" stroke-linejoin="round"/>
<path d="M46.7109 102.655C46.7109 102.655 49.9449 107.555 52.4733 109.402" stroke="#263238" stroke-linecap="round" stroke-linejoin="round"/>
<path d="M65.5466 100.543L60.627 98.5782" stroke="#263238" stroke-linecap="round" stroke-linejoin="round"/>
<path d="M59.2225 55.1397C59.5097 57.181 59.932 59.201 60.4867 61.1863C61.1923 63.2933 63.1572 63.5726 63.1572 64.6996C63.1572 65.8266 60.7709 68.0708 60.7709 68.0708C60.7709 68.0708 59.7909 74.2595 58.8109 74.9602C57.8309 75.6609 53.9109 73.9802 53.9109 73.9802L52.9309 78.3412L45.7622 78.1991C45.7622 78.1991 46.1836 73.7009 45.1987 71.1725C44.2138 68.6441 43.371 66.8115 43.371 66.8115C43.371 66.8115 40.8426 58.5207 47.732 55.8502C54.6214 53.1797 59.2225 55.1397 59.2225 55.1397Z" fill="white" stroke="#263238" stroke-linecap="round" stroke-linejoin="round"/>
<path d="M54.0225 63.994C54.0225 63.994 54.1597 63.1512 55.566 61.887C56.9723 60.6228 56.4088 59.0744 56.546 57.2467C56.6832 55.419 58.0944 55.8453 58.9372 55.9825C59.78 56.1197 62.0291 54.7183 58.9372 50.7836C55.8453 46.8489 46.0012 46.9861 43.0514 49.098C40.1016 51.2099 35.0399 54.1548 38.8325 61.4656C42.6251 68.7764 44.7419 71.1676 46.1482 72.03C47.5545 72.8924 51.2099 70.2023 52.0282 69.4967C52.8465 68.7911 54.0225 63.994 54.0225 63.994Z" fill="#263238" stroke="#263238" stroke-linecap="round" stroke-linejoin="round"/>
<path d="M44.6002 51.9057C44.6002 51.9057 43.4732 55.8257 40.8027 57.1095C38.1322 58.3933 33.3547 59.2165 31.6642 56.546C29.9737 53.8755 29.9786 46.8489 34.4768 44.8791C38.975 42.9093 43.0518 45.4426 44.0367 47.8191C45.0216 50.1956 44.6002 51.9057 44.6002 51.9057Z" fill="#263238" stroke="#263238" stroke-linecap="round" stroke-linejoin="round"/>
<path d="M55.1456 65.121C55.1456 65.121 52.6172 59.9221 52.6172 62.7298C52.6172 65.5375 53.0386 68.355 53.46 68.7764C53.8814 69.1978 55.0035 68.2129 55.0035 68.2129" fill="white"/>
<path d="M55.1456 65.121C55.1456 65.121 52.6172 59.9221 52.6172 62.7298C52.6172 65.5375 53.0386 68.355 53.46 68.7764C53.8814 69.1978 55.0035 68.2129 55.0035 68.2129" stroke="#263238" stroke-linecap="round" stroke-linejoin="round"/>
<path d="M59.8139 62.1222C59.8139 62.6122 59.6669 63.0483 59.4807 63.0483C59.2945 63.0483 59.1426 62.6318 59.1426 62.1222C59.1426 61.6126 59.2945 61.1961 59.4807 61.1961C59.6669 61.1961 59.8139 61.6077 59.8139 62.1222Z" fill="#263238"/>
<path d="M58.8105 60.4366C58.8105 60.4366 59.0653 59.4272 59.8199 59.7604" stroke="#263238" stroke-linecap="round" stroke-linejoin="round"/>
<path d="M56.6925 80.5854L37.7148 80.0219L41.3702 76.3665L55.1441 77.0672L56.6925 80.5854Z" fill="white" stroke="#263238" stroke-linecap="round" stroke-linejoin="round"/>
<path d="M23.0939 114.17C23.0939 114.17 20.59 116.85 20.2862 122.5C19.9824 128.15 18.5957 144.849 18.5957 146.677C18.5957 148.504 18.5957 154.688 19.0171 155.531C19.4385 156.374 22.2511 157.643 22.2511 157.643L22.1139 155.252V151.851C22.1139 151.851 22.8146 154.242 23.3781 153.679C23.9416 153.115 23.236 150.871 23.236 150.023C23.236 149.176 23.5153 146.931 23.236 145.388C22.9514 144.104 22.5764 142.841 22.1139 141.61C22.1139 141.61 26.6121 128.537 27.5921 125.303C28.2752 122.943 28.8394 120.55 29.2826 118.134L23.0939 114.17Z" fill="white" stroke="#263238" stroke-linecap="round" stroke-linejoin="round"/>
<path d="M28.0134 87.3327L23.0938 114.18L30.1252 117.835L34.202 108.839L28.0134 87.3327Z" fill="white" stroke="#263238" stroke-linecap="round" stroke-linejoin="round"/>
<path d="M29.993 101.837L34.2021 108.839L28.082 102.435" stroke="#263238" stroke-linecap="round" stroke-linejoin="round"/>
<path d="M28.082 98.6664L29.2335 100.582" stroke="#263238" stroke-linecap="round" stroke-linejoin="round"/>
<path d="M23.2369 108.981L33.0761 114.322L29.9842 119.379L22.252 115.165L23.2369 108.981Z" fill="white" stroke="#263238" stroke-linecap="round" stroke-linejoin="round"/>
<path d="M78.1993 94.7807L75.3867 107.29H82.4182L81.7126 96.6084L78.1993 94.7807Z" fill="white" stroke="#263238" stroke-linecap="round" stroke-linejoin="round"/>
</svg>
