<svg width="156" height="38" viewBox="0 0 156 38" fill="none" xmlns="http://www.w3.org/2000/svg">
<path d="M28.7291 17.0831C28.2853 16.5213 27.7514 16.037 27.1491 15.6499C26.4349 15.2167 25.6095 15.0021 24.7748 15.0326C24.0829 15.032 23.3977 15.1684 22.7588 15.434C22.1079 15.6972 21.5196 16.0943 21.032 16.5996C20.5136 17.1472 20.1073 17.791 19.8363 18.4947C19.7593 18.6935 19.6944 18.8968 19.642 19.1034C19.642 19.043 19.6075 18.9825 19.5859 18.9221C19.3698 18.196 19.015 17.5188 18.5412 16.9277C18.0733 16.35 17.4837 15.8828 16.8144 15.5592C16.0515 15.2089 15.219 15.0362 14.3797 15.0541C13.59 15.0426 12.8075 15.2048 12.0874 15.529C11.4071 15.8344 10.7961 16.275 10.2915 16.8241C9.77933 17.3847 9.37928 18.0383 9.11302 18.7494C8.82528 19.5018 8.67894 20.3009 8.68133 21.1065V21.154C8.68042 21.3702 8.69051 21.5863 8.71155 21.8015C8.53102 21.5613 8.31904 21.3464 8.08128 21.1626C7.72284 20.9014 7.33443 20.684 6.92434 20.5151C6.49265 20.3381 6.06096 20.187 5.62926 20.0531C5.28823 19.9495 4.96446 19.8459 4.64932 19.7337C4.3617 19.6385 4.08173 19.5216 3.81184 19.384C3.59331 19.2741 3.39483 19.1281 3.22474 18.9523C3.15414 18.8814 3.09832 18.7972 3.06053 18.7046C3.02273 18.612 3.00372 18.5128 3.00458 18.4127V18.3695C3.00416 18.2056 3.04315 18.0439 3.11828 17.8981C3.19341 17.7524 3.30247 17.6268 3.43627 17.5321C3.78992 17.295 4.21129 17.1798 4.63637 17.204C5.17876 17.2146 5.71562 17.3152 6.225 17.5018C6.81653 17.7107 7.38503 17.9797 7.92155 18.3048L8.9792 16.401C8.34544 15.9802 7.655 15.6517 6.92866 15.4254C6.20905 15.1919 5.45767 15.071 4.70113 15.0671C4.15234 15.0646 3.6064 15.1462 3.08228 15.3088C2.60118 15.4572 2.15282 15.696 1.7613 16.0125C1.39442 16.3185 1.09961 16.7018 0.89792 17.1349C0.680919 17.5949 0.571666 18.0984 0.578467 18.607V18.6717C0.561457 19.1616 0.674667 19.6472 0.906553 20.079C1.12716 20.4532 1.42078 20.7791 1.76994 21.0374C2.11783 21.2925 2.49819 21.5001 2.90097 21.6547C3.33266 21.8144 3.76436 21.9526 4.19605 22.0864L5.17599 22.3972C5.46263 22.4865 5.7425 22.5961 6.01347 22.7253C6.23173 22.8295 6.42694 22.9763 6.58762 23.157C6.72331 23.3157 6.79693 23.5181 6.79483 23.7268V23.77C6.79796 23.942 6.75957 24.1123 6.68292 24.2664C6.60627 24.4204 6.49362 24.5537 6.35451 24.655C5.95532 24.9027 5.48966 25.0217 5.02058 24.996C4.36894 24.9907 3.72375 24.8663 3.11682 24.6291C2.42124 24.3692 1.76692 24.0101 1.1742 23.5628L0 25.3716C0.719254 25.9338 1.52764 26.3716 2.39157 26.6667C3.20954 26.9497 4.06869 27.0956 4.93424 27.0984C5.50802 27.1026 6.07941 27.0241 6.63079 26.8652C7.12962 26.7291 7.59729 26.4975 8.00789 26.1832C8.40235 25.8968 8.72337 25.521 8.94466 25.0867C9.13107 24.6878 9.2395 24.257 9.26411 23.8175C9.8658 25.153 10.9658 26.2003 12.3291 26.7357C13.0751 27.0302 13.8713 27.1768 14.6732 27.1674C15.63 27.1929 16.5788 26.9886 17.4404 26.5717C18.2029 26.1799 18.8806 25.6415 19.4348 24.9874L17.8677 23.5973C17.4496 24.0184 16.9655 24.3683 16.4345 24.6334C15.8932 24.8808 15.3027 25.0019 14.7077 24.9874C13.9025 25.0068 13.1169 24.7373 12.4932 24.2276C11.8557 23.6634 11.4522 22.8812 11.3621 22.0346H19.4391C19.5059 22.603 19.6512 23.1595 19.8708 23.688C20.1445 24.3881 20.5488 25.0298 21.0623 25.5788C21.5494 26.0856 22.1377 26.4842 22.789 26.7487C23.4259 27.0106 24.1078 27.1455 24.7964 27.1458C25.631 27.173 26.4546 26.9505 27.1621 26.5069C27.7851 26.0962 28.3266 25.5737 28.7593 24.9658V26.9041H31.4488V10.8279H28.7291V17.0831ZM11.3276 20.2776C11.4051 19.4539 11.7492 18.6779 12.3075 18.0674C12.5663 17.7869 12.8819 17.5649 13.2333 17.416C13.5846 17.2671 13.9636 17.1948 14.3451 17.204C14.7509 17.1974 15.1532 17.28 15.5236 17.4457C15.8614 17.6059 16.1637 17.8319 16.4129 18.1105C16.6695 18.3933 16.8715 18.7212 17.0087 19.0775C17.1569 19.4633 17.2541 19.8667 17.2979 20.2776H11.3276ZM28.7723 21.1151C28.7794 21.6357 28.6871 22.1529 28.5003 22.639C28.3285 23.0737 28.0783 23.4732 27.7621 23.8175C27.4621 24.1404 27.0987 24.398 26.6946 24.574C26.2906 24.7501 25.8545 24.8408 25.4137 24.8406C24.9682 24.8456 24.5268 24.7559 24.1186 24.5773C23.7159 24.4019 23.3531 24.1463 23.0524 23.8261C22.7352 23.485 22.4887 23.0845 22.3271 22.6476C22.1457 22.1574 22.0564 21.6378 22.0638 21.1151V21.0719C22.0582 20.548 22.1474 20.0273 22.3271 19.5351C22.4887 19.0982 22.7352 18.6977 23.0524 18.3566C23.3537 18.0403 23.7165 17.7891 24.1186 17.6184C24.5289 17.4481 24.9695 17.3629 25.4137 17.368C25.8591 17.3639 26.3004 17.4536 26.7088 17.6313C27.1137 17.8055 27.4793 18.0595 27.7837 18.3782C28.0939 18.7148 28.3372 19.1074 28.5003 19.5351C28.6863 20.0229 28.7786 20.5413 28.7723 21.0633V21.1151Z" fill="#00446C"/>
<path d="M35.472 10.8279H32.584V13.3619H35.472V10.8279Z" fill="#00446C"/>
<path d="M35.3857 14.5837H32.6963V26.9172H35.3857V14.5837Z" fill="#00446C"/>
<path d="M44.6153 22.0995C44.3919 21.7334 44.0985 21.4151 43.7519 21.1627C43.401 20.9018 43.0197 20.6844 42.6165 20.5151C42.1849 20.3382 41.7532 20.1871 41.3215 20.0532C40.9804 19.9496 40.6567 19.846 40.3372 19.7338C40.0513 19.6379 39.7728 19.521 39.504 19.3841C39.2848 19.2753 39.0862 19.1292 38.9169 18.9524C38.7901 18.807 38.7237 18.6186 38.7313 18.4258V18.3826C38.7298 18.2184 38.7683 18.0564 38.8435 17.9104C38.9188 17.7645 39.0284 17.6391 39.163 17.5451C39.5167 17.308 39.938 17.1928 40.3631 17.217C40.9041 17.2273 41.4396 17.328 41.9474 17.5149C42.5397 17.722 43.1083 17.9911 43.644 18.3178L44.7016 16.4141C44.0574 15.9899 43.355 15.6613 42.6165 15.4384C41.8968 15.2053 41.1455 15.0845 40.389 15.0801C39.8402 15.0774 39.2942 15.1589 38.7702 15.3219C38.2891 15.4702 37.8407 15.709 37.4492 16.0256C37.0823 16.3316 36.7875 16.7148 36.5858 17.148C36.3669 17.6073 36.2575 18.1112 36.2664 18.62V18.6718C36.2493 19.1617 36.3626 19.6473 36.5944 20.0791C36.8138 20.4542 37.1076 20.7803 37.4578 21.0375C37.8159 21.2984 38.2081 21.509 38.6234 21.6634C39.0551 21.8232 39.4868 21.9613 39.9185 22.0951L40.8984 22.406C41.185 22.4952 41.4649 22.6048 41.7359 22.734C41.9542 22.8382 42.1494 22.985 42.31 23.1657C42.4457 23.3244 42.5193 23.5268 42.5173 23.7356V23.7787C42.5211 23.9589 42.4797 24.1371 42.3967 24.297C42.3137 24.4569 42.1919 24.5934 42.0424 24.6939C41.6451 24.9423 41.1806 25.0615 40.7128 25.035C40.067 25.0276 39.4278 24.9032 38.8263 24.668C38.1367 24.4067 37.4883 24.0476 36.9009 23.6017L35.7095 25.3717C36.4287 25.9339 37.2371 26.3717 38.101 26.6668C38.9189 26.9502 39.7781 27.0961 40.6437 27.0985C41.2175 27.1027 41.7889 27.0242 42.3403 26.8653C42.8391 26.7292 43.3068 26.4975 43.7174 26.1833C44.107 25.8834 44.4206 25.4959 44.6325 25.0522C44.8641 24.5492 44.9778 24 44.965 23.4463V23.4204C44.9711 22.9565 44.8502 22.4996 44.6153 22.0995Z" fill="#00446C"/>
<path d="M70.4392 19.682C70.9184 19.151 71.3717 18.5984 71.8163 18.0113C72.2617 17.4148 72.6518 16.7791 72.9819 16.1119C73.3289 15.4221 73.6052 14.6989 73.8064 13.9534C74.0148 13.1573 74.1178 12.3373 74.1129 11.5144C74.1368 9.934 73.7908 8.36996 73.1028 6.94706C72.4445 5.62035 71.5185 4.44445 70.3831 3.49352C69.2145 2.51541 67.8734 1.76432 66.4288 1.27894C64.9151 0.749629 63.3226 0.481045 61.7191 0.484625C60.1684 0.474695 58.63 0.760391 57.1863 1.32642C55.8067 1.87494 54.5439 2.68067 53.4651 3.70073C52.3919 4.73917 51.5312 5.97671 50.9311 7.34421C50.2982 8.81148 49.9819 10.3957 50.0029 11.9935V13.2454C50.0063 13.4918 50.088 13.7306 50.236 13.9275C50.3343 14.0452 50.4604 14.1365 50.6029 14.193C50.7454 14.2496 50.8997 14.2696 51.0519 14.2513H57.169C57.3324 14.2584 57.4953 14.2279 57.645 14.162C57.7947 14.0961 57.9273 13.9967 58.0324 13.8714C58.2271 13.6585 58.339 13.3827 58.3475 13.0943V11.7647C58.3483 11.3088 58.4469 10.8583 58.6368 10.4438C58.8226 10.0266 59.0781 9.64413 59.3922 9.31273C59.7141 8.98646 60.095 8.72424 60.5146 8.54C60.9341 8.3415 61.3932 8.24111 61.8572 8.24645C62.288 8.24582 62.7158 8.31882 63.1221 8.46229C63.5322 8.60454 63.9127 8.82112 64.2445 9.1012C64.6075 9.4054 64.8967 9.78802 65.0904 10.2202C65.2841 10.6524 65.3771 11.123 65.3625 11.5964C65.3672 11.9984 65.3104 12.3987 65.1942 12.7835C65.0099 13.2533 64.734 13.6818 64.3826 14.0441L51.9801 29.0324H62.2371L70.4392 19.682Z" fill="#35A8E0"/>
<path style="mix-blend-mode:multiply" d="M55.0283 25.3457L64.396 14.0483C64.7474 13.6861 65.0233 13.2576 65.2076 12.7878C65.2524 12.6466 65.287 12.5023 65.3112 12.3561C68.2079 11.9805 71.5967 11.5229 71.5967 11.5229C71.5967 11.5229 72.5593 13.1677 73.5004 14.9247C73.3534 15.3339 73.1804 15.7333 72.9824 16.1205C72.6523 16.7877 72.2621 17.4234 71.8168 18.0199C71.3851 18.607 70.9189 19.1596 70.4397 19.6906L62.2376 29.0324L55.0283 25.3457Z" fill="url(#paint0_linear_293_4016)"/>
<path style="mix-blend-mode:multiply" d="M65.0648 13.1592C65.1308 13.0408 65.1858 12.9165 65.2288 12.7879C65.3451 12.4031 65.4019 12.0028 65.3972 11.6008C65.4117 11.1274 65.3187 10.6569 65.125 10.2246C64.9313 9.79244 64.6421 9.40981 64.2791 9.10561C63.9473 8.82554 63.5669 8.60896 63.1567 8.46671C63.0845 8.44117 63.011 8.41955 62.9365 8.40196C63.6315 6.13989 64.5295 3.30799 65.3324 0.925049C65.7037 1.02865 66.0836 1.14089 66.4505 1.2704C67.8951 1.75578 69.2362 2.50687 70.4048 3.48498C71.5402 4.43591 72.4662 5.61182 73.1245 6.93852C73.8137 8.36702 74.1582 9.93727 74.1303 11.5231C74.1352 12.346 74.0321 13.166 73.8238 13.9621C73.7116 14.3464 73.5907 14.7219 73.4612 15.0759L65.0648 13.1592Z" fill="url(#paint1_linear_293_4016)"/>
<path d="M78.7279 27.9446C77.6261 27.4659 76.6321 26.77 75.8053 25.8984C74.9646 25.0194 74.3046 23.9839 73.8627 22.8507C73.386 21.6595 73.1469 20.3865 73.1591 19.1036C73.1483 17.8137 73.3873 16.534 73.8627 15.3349C74.3073 14.1928 74.9668 13.1464 75.8053 12.2526C76.6343 11.3759 77.6272 10.6705 78.7279 10.1762C79.8746 9.67306 81.1149 9.41853 82.3671 9.42935V0.683269C80.7288 0.67624 79.0974 0.895599 77.5192 1.33512C75.9933 1.76935 74.5283 2.39449 73.1591 3.19572C71.805 3.98886 70.5636 4.96021 69.4681 6.08374C68.3656 7.2036 67.4071 8.45654 66.6146 9.81356C64.1429 14.1215 63.4815 19.2341 64.7756 24.0292C65.1948 25.5651 65.8131 27.0396 66.6146 28.4152C67.4063 29.7662 68.365 31.0121 69.4681 32.1234C71.1468 33.8411 73.1538 35.2036 75.3698 36.1298C77.5857 37.0561 79.9653 37.5273 82.3671 37.5152V28.6915C81.1151 28.7002 79.8752 28.4458 78.7279 27.9446Z" fill="#35A8E0"/>
<path d="M91.5839 35.0114C94.2855 33.4025 96.5332 31.1325 98.1154 28.4151C98.9102 27.0367 99.5267 25.5629 99.9501 24.0291C100.825 20.8198 100.825 17.4347 99.9501 14.2254C99.5252 12.6839 98.9088 11.2017 98.1154 9.81349C97.3331 8.45539 96.3815 7.2021 95.2835 6.08367C94.1862 4.96214 92.9451 3.99101 91.5925 3.19565C90.2198 2.39515 88.7521 1.77007 87.2238 1.33505C85.6452 0.89725 84.0141 0.677923 82.3759 0.683198V9.41201H82.4018C83.6625 9.39962 84.9115 9.65414 86.0669 10.1588C87.1773 10.647 88.1784 11.3531 89.011 12.2353C89.8505 13.1309 90.5139 14.1765 90.9666 15.3176C91.4456 16.5218 91.6861 17.8076 91.6745 19.1035C91.6852 20.3867 91.4447 21.6597 90.9666 22.8506C90.5149 23.9829 89.8495 25.0176 89.0067 25.8983C88.176 26.7751 87.1739 27.4716 86.0626 27.9446C84.9064 28.447 83.6581 28.7029 82.3975 28.6957H82.3716V37.5152C85.6141 37.5327 88.8003 36.6672 91.5882 35.0114H91.5839Z" fill="#0075BE"/>
<path style="mix-blend-mode:multiply" fill-rule="evenodd" clip-rule="evenodd" d="M73.4913 21.7498C73.589 22.125 73.713 22.4928 73.8625 22.8506C74.3044 23.9838 74.9644 25.0193 75.8051 25.8983C76.8945 27.0344 78.2577 27.8713 79.7637 28.3287V37.3382C79.0061 37.2319 78.2562 37.0761 77.5189 36.8719C74.4664 36.0199 71.6904 34.3826 69.4679 32.1233C68.3648 31.012 67.4061 29.7661 66.6144 28.4151C65.8129 27.0395 65.1946 25.565 64.7754 24.0291C64.5689 23.2809 64.4146 22.5193 64.3135 21.7498H73.4913Z" fill="url(#paint2_radial_293_4016)"/>
<path d="M73.7506 29.2999C73.5312 29.1158 73.251 29.0204 72.9649 29.0322H51.9804L49.9126 31.5274C49.8127 31.7269 49.7624 31.9476 49.7658 32.1706V35.758C49.768 35.92 49.8028 36.08 49.868 36.2283C49.9333 36.3766 50.0277 36.5103 50.1457 36.6214C50.2569 36.738 50.3909 36.8304 50.5395 36.8928C50.6881 36.9552 50.8479 36.9863 51.0091 36.984H72.9692C73.1236 36.9859 73.2763 36.9522 73.4155 36.8856C73.5548 36.8189 73.6768 36.7212 73.7722 36.5998C73.9814 36.3615 74.0938 36.0535 74.0873 35.7364V30.1158C74.0979 29.963 74.073 29.8099 74.0146 29.6684C73.9562 29.5268 73.8658 29.4007 73.7506 29.2999Z" fill="#0075BE"/>
<path d="M111.839 10.9013L111.213 11.1733C100.074 12.4538 89.7194 17.5426 81.9008 25.5789C81.6158 25.4191 81.3309 25.2724 81.0374 25.1213C80.4342 22.7533 79.6491 20.4354 78.689 18.1883C87.9849 12.1733 99.0619 9.52668 110.073 10.6898C110.656 10.7502 111.256 10.8236 111.839 10.9013Z" fill="#35A8E0"/>
<g style="mix-blend-mode:multiply">
<path d="M111.842 10.9014L111.631 11.1215C111.493 11.1215 111.35 11.1517 111.199 11.1733L111.825 10.9014H111.842Z" fill="#35A8E0"/>
</g>
<path d="M81.9005 25.5789C81.6156 25.4192 81.3307 25.2724 81.0371 25.1213C81.1321 25.484 81.2184 25.8423 81.3004 26.2049C81.8252 28.4593 82.1845 30.749 82.3754 33.0558C83.6518 31.4305 85.0348 29.8917 86.5153 28.4497C85.0345 27.4034 83.4935 26.4448 81.9005 25.5789Z" fill="#0083C9"/>
<path d="M111.212 11.1819C106.093 13.4464 101.401 16.5743 97.342 20.4287C93.3758 22.5891 89.7279 25.2884 86.5022 28.4496C85.0256 27.4037 83.489 26.4451 81.9004 25.5788C89.7203 17.5457 100.075 12.4601 111.212 11.1819Z" fill="#009EDC"/>
<path d="M111.631 11.1301C109.523 12.861 107.565 14.7673 105.778 16.8285C102.857 17.7563 100.033 18.9619 97.3423 20.4288C101.402 16.5743 106.093 13.4465 111.213 11.1819C111.351 11.1603 111.493 11.1474 111.631 11.1301Z" fill="#0083C9"/>
<g style="mix-blend-mode:multiply">
<path d="M111.842 10.9014L111.631 11.1215C111.493 11.1215 111.35 11.1517 111.199 11.1733L111.825 10.9014H111.842Z" fill="#35A8E0"/>
</g>
<path d="M81.0368 25.1212C78.634 23.8718 76.1299 22.8277 73.5513 22.0001C75.176 20.6154 76.8923 19.3419 78.6884 18.1882C79.6485 20.4353 80.4337 22.7532 81.0368 25.1212Z" fill="#008FD6"/>
<path d="M97.3419 20.4287C94.2044 23.41 91.4794 26.7971 89.239 30.5001C88.3757 29.7835 87.4432 29.0971 86.5107 28.4496C89.7338 25.289 93.3787 22.5898 97.3419 20.4287Z" fill="#0083C9"/>
<path d="M105.777 16.8284C100.841 22.4925 97.2936 29.2298 95.4168 36.5049C93.5402 34.3237 91.4728 32.3141 89.2393 30.5001C91.4823 26.7965 94.2102 23.4094 97.3507 20.4287C100.038 18.9623 102.86 17.7567 105.777 16.8284Z" fill="#0075BE"/>
<path d="M110.177 9.8566C110.074 9.80325 109.96 9.77374 109.844 9.77026C100.295 9.78701 90.8869 12.0809 82.4015 16.4615C79.2837 18.0621 76.306 19.922 73.5 22.0217C76.215 22.9066 78.8661 23.9769 81.4345 25.2248L82.2979 25.6565C82.4188 25.7213 82.5483 25.7904 82.6864 25.8551C82.6562 25.894 82.1641 33.1939 82.1468 33.4658L82.4835 33.1507L82.6648 32.9823C83.6577 32.0542 85.868 29.9994 87.2839 28.7388C87.3616 28.6697 87.4393 28.5964 87.517 28.5316C90.4756 30.4704 93.2475 32.6801 95.7969 35.1322C98.0448 26.3305 102.47 18.2355 108.666 11.592L109.158 11.074C109.516 10.7027 109.883 10.3315 110.254 9.96884H110.276C110.336 9.93862 110.259 9.91704 110.177 9.8566ZM83.1138 32.1535L84.9916 27.0379C85.4233 27.2711 85.855 27.4696 86.1054 27.6337C86.481 27.8668 86.8566 28.1042 87.2321 28.3546C85.6737 29.736 84.2664 31.0268 83.1138 32.1535ZM95.4213 34.1652C92.3018 31.172 88.8214 28.5791 85.0607 26.4465C88.4437 22.0698 92.5898 18.3405 97.2992 15.4384C100.386 13.526 104.375 12.3043 107.69 11.1215C104.085 12.2698 99.6778 13.4699 96.2372 15.3564C91.3975 18.0532 86.9633 21.4206 83.0663 25.3587C80.4038 24.0054 77.6345 22.8734 74.7864 21.9742C84.1934 14.5327 95.7445 10.3145 107.733 9.94294C108.402 9.92136 110.008 9.91272 110.008 9.91272L110.25 9.94726C103.174 16.5028 98.0433 24.8826 95.4213 34.1652Z" fill="#00446C"/>
<path d="M109.24 27.0121L113.557 16.5911H114.942L119.229 27.0121H117.977L116.682 23.7356H111.757L110.431 27.0121H109.24ZM112.158 22.7556H116.268L114.213 17.6487L112.158 22.7556Z" fill="#00446C"/>
<path d="M122.22 27.0121V16.5911H123.364L129.632 25.0479V16.5911H130.72V27.0121H129.706L123.304 18.3351V27.0121H122.22Z" fill="#00446C"/>
<path d="M139.678 27.176C138.955 27.1747 138.24 27.0279 137.576 26.7443C136.931 26.4796 136.344 26.091 135.849 25.6003C135.357 25.1063 134.968 24.5193 134.705 23.8736C134.431 23.2223 134.289 22.5235 134.286 21.8171C134.283 21.1107 134.419 20.4106 134.687 19.7569C134.955 19.1033 135.349 18.5089 135.847 18.0079C136.345 17.5068 136.937 17.1089 137.589 16.837C138.934 16.2903 140.439 16.2903 141.785 16.837C143.075 17.3788 144.101 18.4048 144.642 19.6948C145.19 21.0459 145.19 22.557 144.642 23.9081C144.104 25.2004 143.077 26.2276 141.785 26.7659C141.117 27.0428 140.401 27.1823 139.678 27.176ZM139.678 26.1184C140.234 26.1246 140.786 26.0175 141.299 25.8038C141.813 25.5901 142.278 25.2741 142.665 24.8751C143.049 24.4774 143.352 24.01 143.559 23.498C143.985 22.4041 143.985 21.1902 143.559 20.0963C143.35 19.5879 143.047 19.1236 142.665 18.7278C142.278 18.3288 141.813 18.0128 141.299 17.7991C140.786 17.5854 140.234 17.4783 139.678 17.4845C139.109 17.4797 138.545 17.5898 138.02 17.8083C137.518 18.0214 137.063 18.3325 136.682 18.7235C136.298 19.117 135.994 19.5819 135.788 20.0919C135.571 20.6293 135.462 21.2045 135.469 21.7842C135.46 22.3752 135.569 22.9622 135.788 23.5109C135.992 24.0247 136.296 24.4928 136.682 24.888C137.062 25.2805 137.517 25.5918 138.02 25.8032C138.545 26.0207 139.11 26.128 139.678 26.1184Z" fill="#00446C"/>
<path d="M152.004 27.1588C151.189 27.1609 150.383 26.9917 149.638 26.6624C148.881 26.327 148.201 25.8374 147.644 25.2248L148.403 24.4348C148.889 24.9748 149.476 25.4147 150.13 25.7299C150.733 26.0167 151.392 26.1642 152.06 26.1616C152.555 26.1704 153.048 26.0824 153.51 25.9026C153.9 25.7547 154.242 25.5023 154.499 25.173C154.733 24.8687 154.859 24.495 154.857 24.1111C154.87 23.8751 154.827 23.6393 154.73 23.4237C154.633 23.2081 154.485 23.019 154.3 22.8721C153.746 22.5182 153.116 22.2994 152.461 22.2332L150.972 21.9958C150.163 21.9104 149.395 21.6009 148.753 21.1022C148.515 20.8836 148.328 20.616 148.204 20.3178C148.081 20.0196 148.023 19.698 148.036 19.3754C148.027 18.833 148.189 18.3015 148.498 17.8558C148.827 17.4028 149.276 17.0501 149.793 16.8371C150.398 16.5807 151.05 16.4557 151.706 16.4701C152.44 16.4716 153.169 16.5926 153.864 16.8284C154.564 17.0608 155.221 17.408 155.807 17.8558L155.155 18.7495C154.164 17.9413 152.932 17.4857 151.654 17.4544C151.212 17.4478 150.772 17.5255 150.359 17.6832C150.019 17.8167 149.721 18.0388 149.496 18.3264C149.287 18.6018 149.178 18.9394 149.185 19.2847C149.167 19.4918 149.197 19.7003 149.273 19.8936C149.35 20.087 149.47 20.2598 149.625 20.3985C150.113 20.7135 150.67 20.9073 151.248 20.964L152.733 21.2015C153.633 21.2905 154.493 21.6216 155.22 22.1598C155.482 22.3987 155.688 22.6932 155.823 23.0218C155.957 23.3504 156.017 23.7048 155.997 24.0593C156.004 24.638 155.825 25.2038 155.487 25.6738C155.129 26.162 154.644 26.5427 154.084 26.7746C153.425 27.0452 152.716 27.176 152.004 27.1588Z" fill="#00446C"/>
<defs>
<linearGradient id="paint0_linear_293_4016" x1="66.9042" y1="19.8762" x2="60.5453" y2="21.5253" gradientUnits="userSpaceOnUse">
<stop offset="0.1"/>
<stop offset="0.18" stop-color="#202020"/>
<stop offset="0.35" stop-color="#636363"/>
<stop offset="0.52" stop-color="#9B9B9B"/>
<stop offset="0.67" stop-color="#C6C6C6"/>
<stop offset="0.81" stop-color="#E5E5E5"/>
<stop offset="0.92" stop-color="#F8F8F8"/>
<stop offset="1" stop-color="white"/>
</linearGradient>
<linearGradient id="paint1_linear_293_4016" x1="70.2105" y1="10.1978" x2="64.9871" y2="6.25213" gradientUnits="userSpaceOnUse">
<stop offset="0.1"/>
<stop offset="0.18" stop-color="#202020"/>
<stop offset="0.35" stop-color="#636363"/>
<stop offset="0.52" stop-color="#9B9B9B"/>
<stop offset="0.67" stop-color="#C6C6C6"/>
<stop offset="0.81" stop-color="#E5E5E5"/>
<stop offset="0.92" stop-color="#F8F8F8"/>
<stop offset="1" stop-color="white"/>
</linearGradient>
<radialGradient id="paint2_radial_293_4016" cx="0" cy="0" r="1" gradientUnits="userSpaceOnUse" gradientTransform="translate(70.0204 33.263) scale(9.71739 9.71739)">
<stop offset="0.1"/>
<stop offset="0.27" stop-color="#3F3F3F"/>
<stop offset="0.47" stop-color="#828282"/>
<stop offset="0.62" stop-color="#ACACAC"/>
<stop offset="0.69" stop-color="#BCBCBC"/>
<stop offset="0.72" stop-color="#C6C6C6"/>
<stop offset="0.84" stop-color="#E5E5E5"/>
<stop offset="0.93" stop-color="#F8F8F8"/>
<stop offset="1" stop-color="white"/>
</radialGradient>
</defs>
</svg>
