<svg width="144" height="48" viewBox="0 0 144 48" fill="none" xmlns="http://www.w3.org/2000/svg">
<path d="M58.6335 16.0452C57.8335 15.0408 56.875 14.1738 55.7956 13.4782C54.5156 12.7038 53.0373 12.3201 51.5422 12.3742C50.3064 12.3751 49.0825 12.6166 47.939 13.0854C46.7745 13.5593 45.7223 14.2723 44.8505 15.1783C43.6725 16.4458 42.8134 17.9759 42.3445 19.6416C42.3445 19.5333 42.2836 19.4249 42.2497 19.3165C41.8601 18.0184 41.2256 16.8068 40.3804 15.7472C39.5341 14.7025 38.465 13.8602 37.2513 13.2818C35.885 12.6524 34.3934 12.342 32.8895 12.3742C31.4756 12.3568 30.0748 12.648 28.7851 13.2276C27.5682 13.7879 26.4764 14.5871 25.5747 15.5779C24.6563 16.5826 23.9411 17.7556 23.4683 19.0321C22.9611 20.3829 22.7062 21.8155 22.7165 23.2584V23.3329C22.7165 23.7325 22.7165 24.1186 22.7639 24.4979C22.4391 24.0759 22.0586 23.7 21.6328 23.3803C20.9911 22.9104 20.2953 22.5193 19.5603 22.2154C18.7949 21.9038 18.0296 21.6261 17.271 21.3891C16.6615 21.2062 16.079 21.0165 15.5101 20.8201C14.9972 20.645 14.497 20.4346 14.0132 20.1902C13.625 20.0013 13.2722 19.747 12.9702 19.4384C12.8434 19.3124 12.7429 19.1626 12.6743 18.9975C12.6057 18.8324 12.5704 18.6554 12.5706 18.4767V18.3954C12.5693 18.1022 12.6389 17.813 12.7733 17.5524C12.9077 17.2918 13.1031 17.0675 13.3427 16.8986C13.9672 16.4519 14.7225 16.2255 15.4897 16.2552C16.4613 16.2719 17.4231 16.4528 18.3344 16.7902C19.3997 17.1766 20.4195 17.6785 21.3754 18.287L23.2651 14.9006C22.1324 14.1419 20.896 13.551 19.5942 13.1464C18.3076 12.7294 16.9641 12.5146 15.6117 12.5097C14.6287 12.5019 13.6505 12.6481 12.7128 12.9432C11.8502 13.2097 11.0459 13.6372 10.3423 14.2029C9.67204 14.7548 9.13297 15.4489 8.76418 16.2348C8.37522 17.0605 8.17839 17.9636 8.18848 18.8763V18.9576C8.18246 19.8096 8.39464 20.649 8.80482 21.3958C9.18705 22.0655 9.70357 22.6489 10.322 23.1094C10.9612 23.5823 11.6663 23.9588 12.4148 24.2269C13.1937 24.5182 13.959 24.7688 14.7244 24.9787C15.3272 25.1616 15.9164 25.3445 16.4786 25.5273C16.9931 25.6908 17.4955 25.8899 17.9822 26.1234C18.3561 26.3035 18.69 26.5568 18.9643 26.8684C19.2131 27.1505 19.3483 27.515 19.3436 27.8911V27.9724C19.3511 28.2944 19.2767 28.6132 19.1275 28.8986C18.9782 29.1841 18.7589 29.4271 18.4902 29.6047C17.7776 30.0494 16.9447 30.2623 16.1061 30.2142C14.9459 30.1924 13.7989 29.9631 12.7196 29.5369C11.4845 29.0665 10.3235 28.421 9.27216 27.6202L7.13867 30.8644C8.42356 31.8841 9.87051 32.6808 11.4192 33.2214C12.8841 33.7368 14.4245 34.0046 15.9774 34.0139C17.0056 34.0219 18.0296 33.8827 19.0185 33.6007C19.9111 33.3569 20.7482 32.9429 21.4838 32.3816C22.1833 31.8436 22.7451 31.1472 23.1229 30.3497C23.4558 29.6431 23.6534 28.8804 23.7053 28.1011C24.7809 30.4952 26.7497 32.3741 29.1914 33.3366C30.5303 33.8651 31.9581 34.1318 33.3975 34.1222C35.1092 34.1698 36.8072 33.8051 38.3485 33.0589C39.7177 32.3577 40.9334 31.3907 41.9246 30.2142L39.1206 27.7286C38.3765 28.4794 37.5167 29.1059 36.574 29.5843C35.6102 30.0252 34.5586 30.2406 33.499 30.2142C32.0561 30.2553 30.6468 29.7744 29.5301 28.8596C28.3849 27.8507 27.6598 26.449 27.4982 24.9313H41.9923C42.0987 25.9469 42.3449 26.9429 42.7238 27.8911C43.2255 29.1485 43.9635 30.2981 44.8979 31.2776C45.7641 32.184 46.8119 32.8972 47.9729 33.3704C49.1158 33.8294 50.3377 34.0596 51.5693 34.0477C53.0655 34.1009 54.543 33.702 55.8092 32.9031C56.9279 32.1707 57.8977 31.2331 58.6674 30.1397L58.6335 33.6143H63.4491V4.83594H58.6335V16.0452ZM27.4779 21.7683C27.6197 20.2929 28.2351 18.903 29.2321 17.8062C29.6925 17.3067 30.2534 16.9103 30.8779 16.643C31.5024 16.3756 32.1764 16.2435 32.8556 16.2552C33.5832 16.2439 34.3044 16.3918 34.9688 16.6886C35.5773 16.976 36.1229 17.3812 36.574 17.8807C37.036 18.3956 37.3968 18.993 37.6373 19.6416C37.9035 20.3309 38.0744 21.0532 38.1453 21.7887L27.4779 21.7683ZM58.7351 23.2719C58.7453 24.1977 58.5798 25.117 58.2475 25.9811C57.9303 26.7652 57.4711 27.4839 56.8929 28.1011C56.3548 28.6867 55.6963 29.1488 54.9626 29.4557C53.8731 29.925 52.6654 30.0468 51.5041 29.8044C50.3429 29.562 49.2847 28.9671 48.4741 28.1011C47.9054 27.492 47.4634 26.776 47.1737 25.9947C46.8582 25.1265 46.7 24.2091 46.7063 23.2855V23.2042C46.6925 22.2557 46.8508 21.3125 47.1737 20.4205C47.4646 19.6302 47.9089 18.9052 48.4809 18.287C49.0155 17.7066 49.6662 17.2451 50.3908 16.9325C51.1199 16.627 51.9032 16.4727 52.6936 16.4787C53.4769 16.477 54.2519 16.6385 54.9693 16.9528C55.6984 17.268 56.3553 17.7289 56.8996 18.3074C57.4814 18.9282 57.9389 19.6547 58.2475 20.4476C58.5811 21.3232 58.7465 22.2538 58.7351 23.1907V23.2719Z" fill="white"/>
<path d="M70.7029 4.83594H65.5352V9.37382H70.7029V4.83594Z" fill="white"/>
<path d="M70.5471 11.5681H65.7316V33.6615H70.5471V11.5681Z" fill="white"/>
<path d="M87.0867 25.0601C86.6961 24.408 86.1806 23.8394 85.5696 23.3872C84.9279 22.9172 84.2321 22.5261 83.4971 22.2222C82.7317 21.9107 81.9664 21.633 81.2078 21.3959C80.5982 21.213 80.0158 21.0234 79.4468 20.827C78.9339 20.6519 78.4338 20.4414 77.95 20.1971C77.5618 20.0081 77.209 19.7538 76.907 19.4453C76.7802 19.3193 76.6796 19.1694 76.611 19.0044C76.5425 18.8393 76.5072 18.6623 76.5074 18.4835V18.4023C76.5061 18.109 76.5757 17.8199 76.7101 17.5593C76.8445 17.2987 77.0398 17.0744 77.2795 16.9054C77.9132 16.4779 78.6701 16.2708 79.4333 16.3162C80.4026 16.3336 81.362 16.5145 82.2712 16.8513C83.3432 17.2164 84.3721 17.6979 85.3393 18.2871L87.2357 14.9006C86.1017 14.1445 84.8656 13.5538 83.5648 13.1464C82.2758 12.73 80.9301 12.5152 79.5755 12.5098C78.5926 12.5025 77.6145 12.6487 76.6767 12.9433C75.8141 13.2098 75.0097 13.6372 74.3062 14.203C73.6359 14.7549 73.0968 15.4489 72.7281 16.2349C72.3391 17.0606 72.1423 17.9637 72.1524 18.8764V18.9576C72.126 19.8353 72.3316 20.7044 72.7484 21.4772C73.1306 22.1468 73.6471 22.7302 74.2655 23.1907C74.9047 23.6636 75.6098 24.0401 76.3584 24.3083C77.1373 24.5995 77.9026 24.8501 78.6679 25.0601C79.2707 25.243 79.86 25.4258 80.4221 25.6087C80.9366 25.7721 81.439 25.9713 81.9257 26.2047C82.3142 26.3802 82.6624 26.6338 82.9485 26.9497C83.1973 27.2318 83.3325 27.5963 83.3277 27.9725V28.0537C83.3353 28.3758 83.2609 28.6945 83.1117 28.98C82.9624 29.2655 82.7431 29.5084 82.4743 29.686C81.7617 30.1307 80.9289 30.3437 80.0903 30.2956C78.9299 30.2753 77.7827 30.0458 76.7038 29.6183C75.4659 29.1494 74.3024 28.5038 73.2496 27.7015L71.1161 30.8916C72.401 31.9113 73.8479 32.708 75.3966 33.2486C76.8507 33.7603 78.3795 34.028 79.9209 34.041C80.9492 34.0495 81.9733 33.9104 82.962 33.6279C83.8546 33.384 84.6917 32.9701 85.4274 32.4088C86.1268 31.8707 86.6886 31.1744 87.0664 30.3769C87.4781 29.4743 87.6796 28.4901 87.6557 27.4984V27.4306C87.6827 26.6037 87.4862 25.7847 87.0867 25.0601Z" fill="white"/>
<path d="M136.706 10.7623C136.593 10.7024 136.467 10.6699 136.34 10.6675C125.958 10.6839 115.729 13.1777 106.505 17.9416C103.125 19.6822 99.8961 21.7031 96.8534 23.9831C99.8034 24.9484 102.684 26.1138 105.475 27.4712L106.41 27.9385L106.83 28.1553C106.83 28.2027 106.268 36.1609 106.247 36.4318L106.613 36.0864L106.81 35.9035C107.893 34.8944 110.291 32.6593 111.835 31.2844L112.086 31.0609C115.303 33.1718 118.318 35.5751 121.094 38.2402C123.53 28.6694 128.335 19.8652 135.066 12.6384L135.602 12.0763C135.994 11.6699 136.387 11.2635 136.794 10.8707C136.875 10.8368 136.814 10.8368 136.706 10.7623ZM107.277 35.0027L109.309 29.4421C109.797 29.6995 110.23 29.923 110.521 30.1194C110.928 30.3768 111.341 30.6342 111.747 30.9051C110.061 32.3748 108.53 33.7768 107.277 35.0027ZM120.66 37.1904C117.271 33.9369 113.49 31.118 109.404 28.7987C113.079 24.0393 117.586 19.9846 122.706 16.8309C126.092 14.7516 130.4 13.4444 134.01 12.1508C130.088 13.397 125.293 14.7042 121.554 16.7564C116.292 19.677 111.467 23.3252 107.223 27.5931C104.324 26.1266 101.309 24.9033 98.208 23.9357C108.44 15.8352 121.007 11.2425 134.051 10.8368C134.775 10.8368 136.523 10.8368 136.523 10.8368H136.814C129.105 17.9659 123.515 27.0857 120.66 37.1904Z" fill="white"/>
<path d="M132.669 22.6962V37.5967C132.669 38.6403 132.254 39.6413 131.516 40.3792C130.778 41.1172 129.777 41.5318 128.734 41.5318H96.7992C96.7273 41.5318 96.6584 41.5032 96.6076 41.4524C96.5568 41.4016 96.5283 41.3327 96.5283 41.2609V9.21797C96.5301 8.2108 96.931 7.24539 97.6431 6.53321C98.3553 5.82102 99.3207 5.42013 100.328 5.41834H131.077C131.5 5.42013 131.905 5.58933 132.203 5.8889C132.501 6.18846 132.669 6.594 132.669 7.01676V8.33072H133.285V7.15899C133.283 6.53326 133.034 5.93376 132.59 5.49194C132.147 5.05011 131.547 4.802 130.921 4.802H99.5016C98.2765 4.802 97.1016 5.28866 96.2354 6.15492C95.3691 7.02118 94.8824 8.19609 94.8824 9.42116V42.182C94.8824 42.4514 94.9895 42.7098 95.18 42.9004C95.3705 43.0909 95.6289 43.1979 95.8984 43.1979H128.524C129.781 43.1979 130.987 42.6984 131.876 41.8093C132.765 40.9202 133.265 39.7143 133.265 38.4569V21.8766C133.075 22.1476 132.872 22.4185 132.669 22.6962Z" fill="white"/>
</svg>
