<svg width="246" height="245" viewBox="0 0 246 245" fill="none" xmlns="http://www.w3.org/2000/svg">
<path d="M165.885 229.031H225.724" stroke="#263238" stroke-linecap="round" stroke-linejoin="round"/>
<path d="M20.2363 229.031H161.724" stroke="#263238" stroke-linecap="round" stroke-linejoin="round"/>
<g opacity="0.3">
<path d="M224.479 76.5527L231.471 83.545" stroke="black" stroke-width="3" stroke-linecap="round" stroke-linejoin="round"/>
<path d="M231.471 76.5527L224.479 83.545" stroke="black" stroke-width="3" stroke-linecap="round" stroke-linejoin="round"/>
</g>
<g opacity="0.3">
<path d="M32.8242 204.32L39.8165 211.312" stroke="black" stroke-width="3" stroke-linecap="round" stroke-linejoin="round"/>
<path d="M39.8165 204.32L32.8242 211.312" stroke="black" stroke-width="3" stroke-linecap="round" stroke-linejoin="round"/>
</g>
<g opacity="0.3">
<path d="M14.3027 125.695L21.295 132.687" stroke="black" stroke-width="3" stroke-linecap="round" stroke-linejoin="round"/>
<path d="M21.295 125.695L14.3027 132.687" stroke="black" stroke-width="3" stroke-linecap="round" stroke-linejoin="round"/>
</g>
<g opacity="0.3">
<path d="M146.607 135.524L153.6 142.517" stroke="black" stroke-width="3" stroke-linecap="round" stroke-linejoin="round"/>
<path d="M153.6 135.524L146.607 142.517" stroke="black" stroke-width="3" stroke-linecap="round" stroke-linejoin="round"/>
</g>
<path opacity="0.3" d="M227.125 109.059C227.125 108.611 226.992 108.172 226.743 107.799C226.494 107.426 226.139 107.135 225.725 106.963C225.31 106.792 224.854 106.747 224.414 106.834C223.974 106.922 223.57 107.138 223.252 107.455C222.935 107.772 222.719 108.177 222.631 108.617C222.544 109.057 222.589 109.513 222.761 109.928C222.932 110.342 223.223 110.696 223.596 110.946C223.969 111.195 224.408 111.328 224.857 111.328C225.458 111.327 226.034 111.087 226.459 110.662C226.885 110.237 227.124 109.661 227.125 109.059Z" stroke="black" stroke-width="3" stroke-linecap="round" stroke-linejoin="round"/>
<path opacity="0.3" d="M40.762 151.018C40.762 150.569 40.629 150.131 40.3797 149.758C40.1304 149.385 39.7761 149.094 39.3615 148.922C38.947 148.75 38.4908 148.705 38.0507 148.793C37.6106 148.88 37.2064 149.097 36.8891 149.414C36.5718 149.731 36.3557 150.135 36.2682 150.575C36.1807 151.016 36.2256 151.472 36.3973 151.886C36.569 152.301 36.8598 152.655 37.2329 152.904C37.606 153.154 38.0446 153.287 38.4933 153.287C38.7914 153.287 39.0867 153.229 39.3623 153.115C39.6378 153.002 39.8882 152.834 40.099 152.624C40.3098 152.413 40.4768 152.163 40.5906 151.887C40.7044 151.611 40.7627 151.316 40.762 151.018Z" stroke="black" stroke-width="3" stroke-linecap="round" stroke-linejoin="round"/>
<path opacity="0.3" d="M128.805 211.646C128.805 211.197 128.672 210.758 128.423 210.385C128.173 210.012 127.819 209.721 127.404 209.55C126.99 209.378 126.534 209.333 126.094 209.421C125.654 209.508 125.249 209.724 124.932 210.041C124.615 210.359 124.399 210.763 124.311 211.203C124.224 211.643 124.269 212.099 124.44 212.514C124.612 212.928 124.903 213.283 125.276 213.532C125.649 213.781 126.088 213.914 126.536 213.914C127.138 213.914 127.715 213.675 128.14 213.25C128.566 212.824 128.805 212.247 128.805 211.646Z" stroke="black" stroke-width="3" stroke-linecap="round" stroke-linejoin="round"/>
<path opacity="0.3" d="M20.7268 83.7361C20.7278 83.2872 20.5956 82.8481 20.3469 82.4743C20.0982 82.1006 19.7442 81.8091 19.3297 81.6366C18.9153 81.4641 18.459 81.4185 18.0186 81.5055C17.5782 81.5925 17.1734 81.8082 16.8557 82.1252C16.5379 82.4423 16.3213 82.8466 16.2334 83.2868C16.1455 83.727 16.1901 84.1834 16.3617 84.5983C16.5332 85.0131 16.824 85.3677 17.1972 85.6172C17.5704 85.8667 18.0092 85.9999 18.4581 85.9999C19.059 85.9999 19.6353 85.7615 20.0606 85.3371C20.486 84.9127 20.7255 84.3369 20.7268 83.7361Z" stroke="black" stroke-width="3" stroke-linecap="round" stroke-linejoin="round"/>
<g opacity="0.3">
<path d="M108.374 146.064H89.9062V191.933H108.374V146.064Z" stroke="black" stroke-linecap="round" stroke-linejoin="round"/>
<path d="M136.97 146.064H118.502V191.933H136.97V146.064Z" stroke="black" stroke-linecap="round" stroke-linejoin="round"/>
</g>
<g opacity="0.3">
<path d="M36.2559 177.669L51.9065 168.633V186.705L36.2559 177.669Z" stroke="black" stroke-linecap="round" stroke-linejoin="round"/>
<path d="M52.3906 177.669L68.0412 168.633V186.705L52.3906 177.669Z" stroke="black" stroke-linecap="round" stroke-linejoin="round"/>
</g>
<g opacity="0.3">
<path d="M190.62 177.669L174.965 168.633V186.705L190.62 177.669Z" stroke="black" stroke-linecap="round" stroke-linejoin="round"/>
<path d="M174.481 177.669L158.83 168.633V186.705L174.481 177.669Z" stroke="black" stroke-linecap="round" stroke-linejoin="round"/>
</g>
<path opacity="0.3" d="M162.367 210.7C162.897 210.457 163.311 210.016 163.519 209.472C163.728 208.928 163.716 208.324 163.485 207.789L159.075 197.499C158.908 197.066 158.576 196.716 158.152 196.526C157.727 196.337 157.245 196.324 156.811 196.49C156.531 196.591 156.281 196.763 156.086 196.989C155.892 197.215 155.758 197.487 155.699 197.779V197.73C155.574 197.327 155.309 196.982 154.951 196.759C154.593 196.536 154.167 196.449 153.75 196.515C153.334 196.58 152.955 196.794 152.683 197.116C152.411 197.438 152.264 197.847 152.269 198.269C152.007 198.039 151.683 197.892 151.337 197.847C150.992 197.801 150.641 197.859 150.329 198.014C150.017 198.168 149.757 198.411 149.584 198.713C149.41 199.015 149.33 199.362 149.353 199.709L145.81 191.781C145.729 191.559 145.603 191.357 145.441 191.184C145.279 191.012 145.084 190.875 144.868 190.78C144.652 190.685 144.419 190.634 144.182 190.631C143.946 190.628 143.712 190.673 143.493 190.762C143.275 190.852 143.076 190.984 142.91 191.152C142.744 191.32 142.613 191.52 142.526 191.739C142.438 191.959 142.396 192.194 142.401 192.43C142.407 192.666 142.46 192.899 142.557 193.114L149.329 208.916L143.728 206.089C143.521 205.978 143.294 205.91 143.06 205.888C142.827 205.867 142.591 205.892 142.367 205.963C142.144 206.034 141.936 206.148 141.758 206.3C141.579 206.453 141.432 206.639 141.327 206.848C141.221 207.058 141.159 207.287 141.143 207.521C141.127 207.755 141.158 207.99 141.234 208.212C141.31 208.434 141.43 208.638 141.587 208.813C141.743 208.988 141.933 209.13 142.145 209.23L151.485 214.37C151.935 214.618 152.441 214.748 152.955 214.747C153.116 214.728 159.315 212.116 162.367 210.7Z" stroke="black" stroke-linecap="round" stroke-linejoin="round"/>
<path d="M83.8684 20.5114H65.9834V22.1284H43.0857C41.2306 22.1284 39.3937 22.494 37.68 23.2044C35.9663 23.9148 34.4094 24.9559 33.0983 26.2684C31.7872 27.5808 30.7477 29.1388 30.0391 30.8532C29.3305 32.5676 28.9668 34.4049 28.9688 36.26V112.058C28.9688 115.802 30.4561 119.393 33.1035 122.04C35.7509 124.688 39.3416 126.175 43.0857 126.175H197.137C200.88 126.174 204.469 124.686 207.116 122.039C209.762 119.391 211.249 115.801 211.249 112.058V36.26C211.249 32.5168 209.762 28.9269 207.116 26.2796C204.469 23.6323 200.88 22.1444 197.137 22.1431H99.1368V20.5261H88.543V22.1431H83.8684V20.5114Z" fill="#707070" stroke="#263238" stroke-linejoin="round"/>
<path d="M30.9141 38.7149L30.9141 109.584C30.9141 117.843 37.6096 124.538 45.8689 124.538L194.349 124.538C202.608 124.538 209.303 117.843 209.303 109.584V38.7149C209.303 30.4556 202.608 23.7601 194.349 23.7601L45.8689 23.7601C37.6096 23.7601 30.9141 30.4556 30.9141 38.7149Z" fill="#263238" stroke="#263238" stroke-linejoin="round"/>
<path d="M32.1973 40.67V68.6588L32.3002 68.6882C35.3872 69.5163 37.3962 71.4224 37.3962 73.5343V74.7495C37.3962 76.8614 35.3872 78.7675 32.3002 79.5956L32.1973 79.625V107.614C32.1973 115.41 38.7388 121.726 46.814 121.726H192.579C200.654 121.726 207.196 115.41 207.196 107.614V40.67C207.196 32.8741 200.654 26.5531 192.579 26.5531H46.814C38.7192 26.5629 32.1973 32.8839 32.1973 40.67Z" fill="white" stroke="#263238" stroke-linecap="round" stroke-linejoin="round"/>
<path opacity="0.3" d="M181.344 91.1596H201.767" stroke="black" stroke-linecap="round" stroke-linejoin="round"/>
<path opacity="0.3" d="M107.938 91.1596H178.086" stroke="black" stroke-linecap="round" stroke-linejoin="round"/>
<path opacity="0.3" d="M36.0098 91.1596H102.611" stroke="black" stroke-linecap="round" stroke-linejoin="round"/>
<g opacity="0.3">
<path d="M196.539 82.1877L202.85 88.347" stroke="black" stroke-linecap="round" stroke-linejoin="round"/>
<path d="M99.8516 58.7314L135.166 84.035L168.804 55.125L193.834 79.5515" stroke="black" stroke-linecap="round" stroke-linejoin="round"/>
<path d="M36.1523 84.6818L87.2936 49.7399L97.3876 56.9723" stroke="black" stroke-linecap="round" stroke-linejoin="round"/>
<path d="M168.027 44.6439H181.1C181.1 44.6439 181.448 40.1506 176.95 39.1118C173.441 38.3033 169.085 41.2139 166.135 38.7884L166.062 38.7247C164.763 37.6026 163.965 36.0297 162.921 34.6675C161.864 33.2765 160.52 32.1296 158.981 31.3051C157.441 30.4807 155.741 29.998 153.998 29.89C150.514 29.7528 146.947 31.4923 145.144 34.4764C144.654 35.2898 144.227 36.2404 143.37 36.6422C141.748 37.4066 140.116 35.7504 138.47 35.0105C133.276 32.6585 132.683 38.1122 130.061 40.5671C127.44 43.022 123.593 39.4107 120.893 41.209C119.641 42.0546 118.676 43.2611 118.125 44.6684H164.16" stroke="black" stroke-linecap="round" stroke-linejoin="round"/>
<path d="M67.6004 40.817C66.7621 40.3473 65.8261 40.0789 64.8662 40.033C63.8996 39.9882 62.9381 40.1981 62.0781 40.6419C61.2181 41.0856 60.4898 41.7476 59.9662 42.5614C59.7609 43.0456 59.4207 43.4606 58.9862 43.757C58.0895 44.1735 57.1928 43.267 56.2961 42.8554C53.4345 41.5569 53.1062 44.5655 51.6607 45.9179C50.2152 47.2703 48.0984 45.2809 46.6137 46.2707C45.9246 46.7372 45.3932 47.4018 45.0898 48.1768H79.772C79.772 48.1768 79.9631 45.6974 77.4886 45.129C75.5531 44.6831 73.1521 46.2854 71.5302 44.9477C71.515 44.939 71.5017 44.9273 71.491 44.9134C70.7756 44.296 70.3346 43.4434 69.7564 42.679" stroke="black" stroke-linecap="round" stroke-linejoin="round"/>
</g>
<path d="M190.271 109.819H49.127V113.425H190.271V109.819Z" fill="white" stroke="#263238" stroke-linecap="round" stroke-linejoin="round"/>
<path d="M135.053 109.819H49.127V113.425H135.053V109.819Z" fill="#36A9E1" stroke="#263238" stroke-linecap="round" stroke-linejoin="round"/>
<path d="M138.591 111.622C138.591 111.155 138.452 110.698 138.192 110.309C137.933 109.921 137.564 109.618 137.132 109.44C136.7 109.261 136.225 109.214 135.766 109.306C135.308 109.397 134.887 109.623 134.557 109.954C134.227 110.285 134.003 110.706 133.912 111.164C133.821 111.623 133.869 112.098 134.048 112.529C134.228 112.961 134.531 113.329 134.92 113.588C135.309 113.847 135.767 113.985 136.234 113.984C136.544 113.984 136.851 113.923 137.137 113.804C137.423 113.685 137.683 113.511 137.902 113.292C138.121 113.072 138.295 112.812 138.413 112.525C138.531 112.239 138.591 111.932 138.591 111.622Z" fill="white" stroke="#263238" stroke-linecap="round" stroke-linejoin="round"/>
<path d="M32.8738 75.7638C33.6045 75.7638 34.1968 75.1715 34.1968 74.4408C34.1968 73.7101 33.6045 73.1178 32.8738 73.1178C32.1431 73.1178 31.5508 73.7101 31.5508 74.4408C31.5508 75.1715 32.1431 75.7638 32.8738 75.7638Z" fill="#707070"/>
<path d="M165.856 68.992L153.758 62.0095V75.9794L165.856 68.992Z" fill="white" stroke="#263238" stroke-linecap="round" stroke-linejoin="round"/>
<path d="M171.48 61.3774H168.217V76.6115H171.48V61.3774Z" fill="white" stroke="#263238" stroke-linecap="round" stroke-linejoin="round"/>
<path d="M73.5391 68.992L85.6421 62.0095V75.9794L73.5391 68.992Z" fill="white" stroke="#263238" stroke-linecap="round" stroke-linejoin="round"/>
<path d="M67.9182 76.6115H71.1816V61.3774H67.9182V76.6115Z" fill="white" stroke="#263238" stroke-linecap="round" stroke-linejoin="round"/>
<path d="M119.697 80.5952C126.045 80.5952 131.192 75.4485 131.192 69.0998C131.192 62.7511 126.045 57.6044 119.697 57.6044C113.348 57.6044 108.201 62.7511 108.201 69.0998C108.201 75.4485 113.348 80.5952 119.697 80.5952Z" fill="#36A9E1" stroke="#263238" stroke-linecap="round" stroke-linejoin="round"/>
<path d="M118.294 62.7298H113.164V75.4698H118.294V62.7298Z" fill="white" stroke="#263238" stroke-linecap="round" stroke-linejoin="round"/>
<path d="M126.234 62.7298H121.104V75.4698H126.234V62.7298Z" fill="white" stroke="#263238" stroke-linecap="round" stroke-linejoin="round"/>
<path d="M88.7451 92.4924C88.7451 92.4924 92.082 94.3103 92.3858 95.8244C92.6896 97.3385 92.5328 99.3132 92.9885 99.7689C93.4442 100.225 95.4924 99.9208 95.3405 101.361C95.2754 102.159 95.0434 102.933 94.6594 103.635C94.6594 103.635 94.581 105.757 94.4291 107.496C94.2772 109.236 94.4291 109.946 93.4491 110.377C92.4691 110.809 88.9754 110.456 88.4462 110.529C87.917 110.603 86.9321 108.104 86.251 102.724C85.5699 97.3434 87.231 91.9632 88.7451 92.4924Z" fill="white" stroke="#263238" stroke-linecap="round" stroke-linejoin="round"/>
<path d="M54.3567 158.858L51.3236 163.106C51.3236 163.106 47.2321 163.258 45.9336 163.484C44.6351 163.709 44.4195 164.243 44.4195 164.924C44.4195 165.605 44.2676 167.119 44.2676 167.805C44.3086 168.166 44.4756 168.5 44.7392 168.749C45.0028 168.999 45.346 169.147 45.7082 169.168C46.4628 169.241 47.1488 169.393 47.5261 169.094C47.8631 168.733 48.1439 168.323 48.3591 167.879C48.3591 167.879 49.7262 168.486 51.2991 167.198C52.3343 166.424 53.306 165.569 54.2048 164.64C54.6605 164.111 57.9974 161.151 57.9974 161.151L54.3567 158.858Z" fill="white" stroke="#263238" stroke-linecap="round" stroke-linejoin="round"/>
<path d="M48.3693 167.879C48.3693 167.879 46.5514 168.256 46.0957 167.654" stroke="#263238" stroke-linecap="round" stroke-linejoin="round"/>
<path d="M73.207 156.697C73.207 156.697 69.8848 165.693 70.2082 169.334C70.5316 172.975 70.8501 178.12 70.9579 182.618C71.0657 187.116 71.1686 195.897 71.1686 195.897C71.1686 195.897 69.777 200.611 69.4585 203.076C69.14 205.54 69.2429 225.42 69.2429 225.42C69.2429 225.42 67.7435 229.276 66.7929 230.668C65.8423 232.059 64.436 233.118 63.3629 234.098C62.2898 235.077 62.7161 236.454 64.6467 236.773C66.5773 237.091 68.8215 236.881 69.7868 236.347C70.7521 235.812 72.7856 235.367 73.5353 233.666C74.285 231.966 73.9665 226.169 73.9665 226.169C73.9665 226.169 78.3765 209.392 79.1066 204.575C79.8367 199.758 80.9245 192.364 81.0323 191.507C81.1401 190.649 85.4423 171.799 85.4423 171.799L87.5836 171.583L89.5093 180.369L91.9593 196.755C91.9593 196.755 91.3174 203.394 92.0671 208C92.8168 212.606 93.3509 230.452 93.3509 230.452C93.3509 230.452 92.4934 236.131 92.8168 236.988C93.1402 237.846 94.6347 237.968 96.8838 237.846C98.7762 237.689 100.608 237.103 102.239 236.131C102.65 235.917 102.96 235.549 103.1 235.107C103.241 234.666 103.201 234.186 102.989 233.774C102.563 232.794 101.49 231.951 100.848 230.883C100.206 229.815 99.5641 229.276 99.3485 228.311C99.1329 227.345 101.171 209.201 100.848 205.325C100.524 201.449 100.422 196.328 100.422 196.328C100.422 196.328 102.872 187.543 102.989 178.438C103.107 169.334 104.17 168.05 101.921 162.161C99.6719 156.271 98.3832 154.125 98.3832 154.125L73.7509 154.767L73.207 156.697Z" fill="white" stroke="#263238" stroke-linecap="round" stroke-linejoin="round"/>
<path d="M100.837 205.31C100.519 201.454 100.411 196.314 100.411 196.314C100.411 196.314 102.861 187.528 102.979 178.424C103.096 169.319 104.16 168.036 101.911 162.146C99.6615 156.256 98.3728 154.11 98.3728 154.11L73.7405 154.752L73.2064 156.682C73.2064 156.682 69.8842 165.679 70.2076 169.319C70.531 172.96 70.8495 178.105 70.9573 182.603C71.0651 187.102 71.168 195.882 71.168 195.882C71.168 195.882 69.7764 200.596 69.4579 203.061C69.257 204.59 69.2227 215.502 69.2227 220.265C70.1978 219.776 71.2892 219.566 72.3763 219.658C73.4633 219.751 74.5035 220.142 75.382 220.789C76.6756 216.845 78.6797 207.245 79.0962 204.56C79.8459 199.739 80.9141 192.349 81.0219 191.492C81.1297 190.634 85.4319 171.784 85.4319 171.784L87.5732 171.569L89.4989 180.354L91.9489 196.74C91.9489 196.74 91.307 203.379 92.0567 207.985C92.5173 210.808 92.8946 221.318 93.12 225.665C94.1779 226.073 95.3189 226.22 96.4459 226.093C97.5729 225.966 98.6525 225.568 99.5929 224.934C100.083 220.353 101.068 208.093 100.837 205.31Z" fill="#263238" stroke="#263238" stroke-linecap="round" stroke-linejoin="round"/>
<path d="M100.838 230.883C100.515 230.339 100.187 229.932 99.9172 229.536C99.7996 229.82 99.6477 230.192 99.4272 230.667C99.3289 231.007 99.1137 231.301 98.8196 231.498C98.5255 231.694 98.1715 231.78 97.82 231.741C97.82 231.741 96.0021 230.133 94.7134 230.026C93.4247 229.918 93.3218 230.452 93.3218 230.452C93.3218 230.452 92.4643 236.131 92.7877 236.988C93.1111 237.846 94.6056 237.968 96.8547 237.846C98.7472 237.689 100.579 237.103 102.21 236.131C102.621 235.917 102.931 235.549 103.071 235.107C103.212 234.666 103.172 234.186 102.96 233.774C102.553 232.809 101.48 231.951 100.838 230.883Z" fill="white" stroke="#263238" stroke-linecap="round" stroke-linejoin="round"/>
<path d="M71.2773 227.561C70.3146 228.217 69.4835 229.048 68.8273 230.011C68.7416 229.243 68.5537 228.49 68.2687 227.772C67.8579 228.77 67.3663 229.734 66.7987 230.653C65.8187 232.044 64.4418 233.103 63.3687 234.083C62.2956 235.063 62.7219 236.44 64.6525 236.758C66.5831 237.077 68.8273 236.866 69.7926 236.332C70.7579 235.798 72.7914 235.352 73.5411 233.652C74.085 232.412 74.0654 229.031 74.0311 227.282L73.7714 227.355C73.7714 227.355 72.7767 226.596 71.2773 227.561Z" fill="white" stroke="#263238" stroke-linecap="round" stroke-linejoin="round"/>
<path d="M71.2769 232.701C68.8269 233.132 67.4205 234.632 65.4948 235.381C64.652 235.71 63.9072 236.018 63.3438 236.258C63.7286 236.525 64.1727 236.693 64.6373 236.748C66.563 237.072 68.8122 236.856 69.7775 236.322C70.7428 235.788 72.7762 235.342 73.5259 233.642C73.5112 233.666 73.7416 232.26 71.2769 232.701Z" fill="white" stroke="#263238" stroke-linecap="round" stroke-linejoin="round"/>
<path d="M72.9023 155.702C72.9023 155.702 72.2212 157.143 72.9023 157.976C73.5834 158.809 80.1788 161.46 88.1364 160.019C96.094 158.579 97.0789 158.201 98.4264 156.153C99.7739 154.105 99.1859 152.821 98.8037 151.836C98.4215 150.851 103.126 154.869 90.0131 155.928C76.9007 156.986 73.5099 154.11 73.5099 154.11L72.9023 155.702Z" fill="#36A9E1" stroke="#263238" stroke-linecap="round" stroke-linejoin="round"/>
<path d="M115.038 95.0943C115.038 95.0943 115.616 89.7043 115.616 89.4446C115.254 88.4677 114.81 87.5235 114.288 86.6222C113.798 85.7059 113.622 84.8778 113.127 83.7998C112.632 82.7218 110.716 82.8835 111.657 82.0554C112.597 81.2273 113.127 81.3057 113.813 81.7222C114.499 82.1387 114.979 82.7022 115.64 82.3837C116.302 82.0652 117.468 76.8222 117.635 76.1558C117.801 75.4894 118.963 75.3277 119.129 76.1558C119.296 76.9839 118.718 81.0558 118.718 81.0558C118.718 81.0558 119.962 80.3943 120.462 80.7226C120.774 80.9505 121.005 81.2712 121.123 81.6389C121.123 81.6389 122.103 82.1289 122.201 82.7169L122.285 83.3C122.285 83.3 122.951 84.28 122.868 84.9611C122.631 86.2222 122.241 87.4497 121.707 88.6165C121.04 90.111 119.962 92.1886 119.712 92.8501C119.448 94.0283 119.253 95.2211 119.129 96.4222L115.038 95.0943Z" fill="white" stroke="#263238" stroke-linecap="round" stroke-linejoin="round"/>
<path d="M89.5771 113.033C89.5771 113.033 93.5216 115.532 94.0508 115.228C94.58 114.925 97.5347 112.881 99.8083 112.288C102.082 111.695 102.689 111.455 103.238 110.921C103.787 110.387 110.745 104.708 111.122 104.179C111.5 103.65 115.292 93.2666 115.292 93.2666C115.292 93.2666 117.184 93.1882 118.022 93.5655C118.578 93.8395 119.089 94.1982 119.536 94.6288C119.536 94.6288 118.247 107.134 118.022 107.893C117.796 108.653 114.91 111.681 113.322 113.499C111.735 115.317 99.9798 123.789 99.4506 124.793C98.9214 125.798 96.2656 135.024 95.8148 137.754C95.364 140.483 98.9949 148.896 99.0733 150.337C99.1517 151.777 99.6025 153.669 98.4657 154.958C97.3289 156.246 94.5457 157.839 83.9127 158.446C73.2797 159.054 72.4712 155.942 72.4712 154.806C72.4712 153.669 73.3042 148.818 73.0004 145.407C72.8381 143.473 72.56 141.551 72.1674 139.65C72.1674 139.65 69.59 146.02 68.9089 147.152C68.2278 148.284 65.4789 153.894 63.7541 155.869C62.0293 157.844 59.0746 162.587 57.1783 162.361C55.282 162.136 54.2383 160.695 54.2383 159.711C54.3085 158.833 54.4862 157.967 54.7675 157.133C54.7675 157.133 61.6275 144.8 62.2498 143.511C62.8721 142.222 64.7537 135.632 65.2829 132.903C65.8121 130.173 65.6602 124.112 66.7235 122.441C67.7868 120.77 76.4255 117.139 78.6207 115.772C80.8159 114.405 86.3186 112.577 89.5771 113.033Z" fill="#36A9E1" stroke="#263238" stroke-linecap="round" stroke-linejoin="round"/>
<path d="M69.1406 133.03L72.1492 139.635L68.043 134.25" stroke="#263238" stroke-linecap="round" stroke-linejoin="round"/>
<path d="M95.751 128.39L99.4309 124.779L94.8984 132.3" stroke="#263238" stroke-linecap="round" stroke-linejoin="round"/>
<path d="M88.6706 144.383C88.6706 144.383 82.2026 152.929 77.0723 155.124" stroke="#263238" stroke-linecap="round" stroke-linejoin="round"/>
<path d="M84.2903 146.824C84.2903 146.824 78.9003 152.562 77.8223 153.419" stroke="#263238" stroke-linecap="round" stroke-linejoin="round"/>
<path d="M77.9201 92.7178C76.2686 93.8765 74.9805 95.4807 74.2059 97.3434C73.1475 100.225 73.6032 104.086 73.5248 104.468C73.4464 104.85 65.5672 105.149 64.9596 108.03C64.352 110.911 66.704 113.033 67.0813 114.4C67.4586 115.767 62.2303 116.674 61.4757 120.236C60.7211 123.798 69.5068 124.102 69.1295 126.297C68.7522 128.493 67.9192 128.194 68.1495 130.467C68.3798 132.741 71.1826 133.804 74.5195 134.877C77.8564 135.95 77.7045 136.695 79.7478 135.029C81.7911 133.363 81.9479 131.996 82.3252 130.409C82.7025 128.821 83.1582 130.026 85.7552 127.905C88.3522 125.783 89.0137 122.515 88.7883 121.01C88.5629 119.506 88.7148 121.388 90.6062 118.658C92.4976 115.929 91.6695 114.64 90.4543 112.063C89.2391 109.486 88.7148 108.501 88.8667 106.761C89.0186 105.022 91.1403 99.3328 90.077 97.2111C89.0137 95.0894 88.3326 95.2511 88.8667 93.8742C89.4008 92.4973 90.6846 92.2082 89.0921 90.3903C87.4996 88.5724 84.9222 88.494 83.7854 89.1751C82.6486 89.8562 83.3297 90.0081 81.4383 90.5422C80.1129 90.9851 78.9085 91.7299 77.9201 92.7178Z" fill="#263238" stroke="#263238" stroke-linecap="round" stroke-linejoin="round"/>
<path d="M92.9874 104.885C92.9874 107.124 91.6154 108.937 89.92 108.937C88.2246 108.937 86.8477 107.124 86.8477 104.885C86.8477 102.645 88.2246 100.827 89.92 100.827C91.6154 100.827 92.9874 102.645 92.9874 104.885Z" fill="#787878" stroke="#263238" stroke-linecap="round" stroke-linejoin="round"/>
<path d="M93.154 104.884C93.154 106.58 92.1103 107.957 90.8265 107.957C89.5427 107.957 88.5039 106.58 88.5039 104.884C88.5039 103.189 89.5427 101.812 90.8265 101.812C92.1103 101.812 93.154 103.189 93.154 104.884Z" fill="white" stroke="#263238" stroke-linecap="round" stroke-linejoin="round"/>
<path d="M90.9687 98.6615C90.5617 96.3376 89.4737 94.187 87.8425 92.4826C86.103 90.7382 83.2022 89.9787 80.4582 90.5226C78.3512 90.9538 77.3026 91.8652 76.695 93.3793C76.6068 93.6047 76.1119 94.0457 76.205 94.2515C75.9747 93.6978 79.2479 92.1347 79.6056 92.0171C80.8146 91.6103 82.1137 91.5517 83.3545 91.848C84.5952 92.1443 85.7276 92.7836 86.6224 93.6929C87.983 95.1342 88.8984 96.9378 89.2586 98.8869C89.288 99.0934 89.3909 99.2824 89.5484 99.4192C89.7059 99.556 89.9075 99.6314 90.1161 99.6317H90.2386C90.4625 99.5965 90.6639 99.4756 90.8002 99.2945C90.9364 99.1134 90.9969 98.8864 90.9687 98.6615Z" fill="#787878" stroke="#263238" stroke-linecap="round" stroke-linejoin="round"/>
<path d="M90.6608 104.399C90.2897 104.398 89.932 104.261 89.6543 104.015C89.3767 103.769 89.198 103.43 89.1516 103.062C88.9638 101.658 88.6839 100.268 88.3137 98.9016C88.2052 98.5117 88.256 98.0947 88.4549 97.7423C88.6539 97.3899 88.9847 97.1309 89.3745 97.0224C89.7644 96.9139 90.1814 96.9647 90.5338 97.1637C90.8862 97.3626 91.1452 97.6934 91.2537 98.0833C91.6652 99.5961 91.9746 101.135 92.1798 102.689C92.2045 102.888 92.1898 103.089 92.1366 103.281C92.0835 103.474 91.9928 103.654 91.87 103.811C91.7471 103.969 91.5943 104.101 91.4205 104.199C91.2466 104.297 91.0551 104.36 90.8568 104.385C90.7919 104.395 90.7264 104.4 90.6608 104.399Z" fill="white" stroke="#263238" stroke-linecap="round" stroke-linejoin="round"/>
<path d="M197.342 150.94L203.81 212.925" stroke="#263238" stroke-linecap="round" stroke-linejoin="round"/>
<path d="M202.536 200.807L199.836 197.965" stroke="#263238" stroke-linecap="round" stroke-linejoin="round"/>
<path d="M200.727 198.896C200.721 198.422 200.614 197.954 200.413 197.525C200.212 197.096 199.921 196.715 199.561 196.407C198.806 195.735 194.847 194.069 194.47 195.461C194.048 196.98 198.115 199.959 200.727 198.896Z" fill="#36A9E1" stroke="#263238" stroke-miterlimit="10"/>
<path d="M200.728 198.896L196.955 196.544" stroke="#263238" stroke-linecap="round" stroke-linejoin="round"/>
<path d="M203.207 207.206L200.57 205.016" stroke="#263238" stroke-linecap="round" stroke-linejoin="round"/>
<path d="M201.463 205.942C201.458 205.469 201.35 205.002 201.149 204.574C200.948 204.145 200.658 203.765 200.297 203.458C199.543 202.782 195.583 201.116 195.206 202.512C194.799 204.031 198.852 207.01 201.463 205.942Z" fill="#36A9E1" stroke="#263238" stroke-miterlimit="10"/>
<path d="M201.462 205.942L197.689 203.595" stroke="#263238" stroke-linecap="round" stroke-linejoin="round"/>
<path d="M200.704 183.157L198.043 180.761" stroke="#263238" stroke-linecap="round" stroke-linejoin="round"/>
<path d="M198.949 181.692C198.943 181.217 198.835 180.75 198.633 180.32C198.431 179.891 198.139 179.51 197.778 179.203C197.028 178.531 193.064 176.865 192.687 178.262C192.265 179.776 196.322 182.77 198.949 181.692Z" fill="#36A9E1" stroke="#263238" stroke-miterlimit="10"/>
<path d="M198.935 181.692L195.162 179.34" stroke="#263238" stroke-linecap="round" stroke-linejoin="round"/>
<path d="M201.448 190.654L198.777 187.812" stroke="#263238" stroke-linecap="round" stroke-linejoin="round"/>
<path d="M199.669 188.743C199.663 188.269 199.555 187.801 199.353 187.372C199.151 186.942 198.86 186.561 198.498 186.254C197.748 185.583 193.784 183.917 193.412 185.308C193 186.827 197.057 189.806 199.669 188.743Z" fill="#36A9E1" stroke="#263238" stroke-miterlimit="10"/>
<path d="M199.669 188.743L195.896 186.391" stroke="#263238" stroke-linecap="round" stroke-linejoin="round"/>
<path d="M199.518 172.034L196.848 169.31" stroke="#263238" stroke-linecap="round" stroke-linejoin="round"/>
<path d="M197.739 170.241C197.733 169.766 197.626 169.299 197.424 168.869C197.222 168.44 196.93 168.059 196.568 167.751C195.819 167.08 191.855 165.414 191.482 166.811C191.071 168.325 195.128 171.304 197.739 170.241Z" fill="#36A9E1" stroke="#263238" stroke-miterlimit="10"/>
<path d="M197.738 170.241L193.965 167.889" stroke="#263238" stroke-linecap="round" stroke-linejoin="round"/>
<path d="M198.229 159.789L195.646 157.809" stroke="#263238" stroke-linecap="round" stroke-linejoin="round"/>
<path d="M196.538 158.76C196.532 158.286 196.424 157.819 196.222 157.391C196.02 156.962 195.729 156.582 195.367 156.276C194.617 155.604 190.653 153.933 190.281 155.33C189.869 156.824 193.927 159.804 196.538 158.76Z" fill="#36A9E1" stroke="#263238" stroke-miterlimit="10"/>
<path d="M196.539 158.736L192.766 156.388" stroke="#263238" stroke-linecap="round" stroke-linejoin="round"/>
<path d="M202.275 196.892L204.505 193.256" stroke="#263238" stroke-linecap="round" stroke-linejoin="round"/>
<path d="M203.849 194.349C203.758 193.883 203.767 193.404 203.876 192.943C203.985 192.481 204.192 192.048 204.482 191.673C205.074 190.86 208.607 188.41 209.264 189.713C209.955 191.1 206.603 194.853 203.849 194.349Z" fill="#36A9E1" stroke="#263238" stroke-miterlimit="10"/>
<path d="M203.824 194.349L206.48 191.859" stroke="#263238" stroke-linecap="round" stroke-linejoin="round"/>
<path d="M200.34 178.34L202.569 174.705" stroke="#263238" stroke-linecap="round" stroke-linejoin="round"/>
<path d="M201.889 175.797C201.797 175.332 201.806 174.853 201.914 174.392C202.022 173.931 202.228 173.498 202.516 173.122C203.114 172.308 205.877 170.27 206.534 171.559C207.249 172.97 204.667 176.302 201.889 175.797Z" fill="#36A9E1" stroke="#263238" stroke-miterlimit="10"/>
<path d="M201.889 175.797L205.284 172.549" stroke="#263238" stroke-linecap="round" stroke-linejoin="round"/>
<path d="M199.488 170.187L201.718 166.551" stroke="#263238" stroke-linecap="round" stroke-linejoin="round"/>
<path d="M201.037 167.644C200.946 167.178 200.955 166.699 201.064 166.238C201.173 165.776 201.379 165.343 201.669 164.968C202.267 164.155 205.8 161.705 206.451 163.008C207.167 164.395 203.815 168.148 201.037 167.644Z" fill="#36A9E1" stroke="#263238" stroke-miterlimit="10"/>
<path d="M201.037 167.644L204.438 164.4" stroke="#263238" stroke-linecap="round" stroke-linejoin="round"/>
<path d="M198.244 158.236L200.474 154.6" stroke="#263238" stroke-linecap="round" stroke-linejoin="round"/>
<path d="M199.793 155.693C199.7 155.228 199.708 154.748 199.816 154.287C199.924 153.825 200.13 153.392 200.42 153.017C201.018 152.204 204.551 149.754 205.207 151.057C205.923 152.444 202.566 156.197 199.793 155.693Z" fill="#36A9E1" stroke="#263238" stroke-miterlimit="10"/>
<path d="M199.791 155.693L203.187 152.444" stroke="#263238" stroke-linecap="round" stroke-linejoin="round"/>
<path d="M197.287 150.597C197.196 150.132 197.205 149.653 197.313 149.191C197.421 148.73 197.626 148.297 197.914 147.921C198.512 147.108 202.045 144.658 202.702 145.961C203.417 147.348 200.061 151.101 197.287 150.597Z" fill="#36A9E1" stroke="#263238" stroke-miterlimit="10"/>
<path d="M197.287 150.597L200.683 147.348" stroke="#263238" stroke-linecap="round" stroke-linejoin="round"/>
<path d="M197.478 150.734C197.007 150.777 196.531 150.719 196.084 150.562C195.637 150.406 195.228 150.155 194.886 149.827C194.137 149.151 192.074 145.378 193.416 144.864C194.896 144.3 198.277 148.029 197.478 150.734Z" fill="#36A9E1" stroke="#263238" stroke-miterlimit="10"/>
<path d="M197.485 150.734L194.613 147.015" stroke="#263238" stroke-linecap="round" stroke-linejoin="round"/>
<path d="M207.033 134.231V212.626" stroke="#263238" stroke-linecap="round" stroke-linejoin="round"/>
<path d="M214.404 159.475L207.971 221.465" stroke="#263238" stroke-linecap="round" stroke-linejoin="round"/>
<path d="M209.331 208.804L207.842 207.098" stroke="#263238" stroke-linecap="round" stroke-linejoin="round"/>
<path d="M207.842 207.098C207.934 206.634 207.925 206.155 207.817 205.693C207.709 205.232 207.504 204.799 207.215 204.423C206.612 203.615 203.079 201.165 202.428 202.463C201.712 203.84 205.069 207.608 207.842 207.098Z" fill="#36A9E1" stroke="#263238" stroke-miterlimit="10"/>
<path d="M207.843 207.099L204.639 204.021" stroke="#263238" stroke-linecap="round" stroke-linejoin="round"/>
<path d="M211.149 191.105L208.939 189.258" stroke="#263238" stroke-linecap="round" stroke-linejoin="round"/>
<path d="M209.626 189.895C209.719 189.431 209.711 188.952 209.603 188.491C209.495 188.03 209.289 187.598 208.999 187.224C208.401 186.411 204.868 183.961 204.212 185.264C203.501 186.651 206.853 190.404 209.626 189.895Z" fill="#36A9E1" stroke="#263238" stroke-miterlimit="10"/>
<path d="M209.626 189.895L206.422 186.817" stroke="#263238" stroke-linecap="round" stroke-linejoin="round"/>
<path d="M210.449 199.489L208.215 195.853" stroke="#263238" stroke-linecap="round" stroke-linejoin="round"/>
<path d="M208.897 196.946C208.99 196.481 208.982 196.001 208.874 195.54C208.766 195.078 208.56 194.645 208.27 194.27C207.672 193.457 204.134 191.012 203.482 192.31C202.767 193.702 206.124 197.47 208.897 196.946Z" fill="#36A9E1" stroke="#263238" stroke-miterlimit="10"/>
<path d="M208.896 196.946L205.691 193.868" stroke="#263238" stroke-linecap="round" stroke-linejoin="round"/>
<path d="M212.268 179.805L210.137 177.351" stroke="#263238" stroke-linecap="round" stroke-linejoin="round"/>
<path d="M210.817 178.443C210.908 177.978 210.899 177.499 210.79 177.037C210.681 176.576 210.474 176.143 210.185 175.768C209.587 174.954 206.054 172.509 205.397 173.808C204.687 175.199 208.043 178.948 210.817 178.443Z" fill="#36A9E1" stroke="#263238" stroke-miterlimit="10"/>
<path d="M210.816 178.443L207.611 175.366" stroke="#263238" stroke-linecap="round" stroke-linejoin="round"/>
<path d="M213.385 169.045L211.332 165.85" stroke="#263238" stroke-linecap="round" stroke-linejoin="round"/>
<path d="M212.012 166.943C212.103 166.478 212.094 165.998 211.985 165.537C211.876 165.076 211.67 164.643 211.38 164.268C210.782 163.454 207.249 161.009 206.593 162.308C205.882 163.694 209.239 167.448 212.012 166.943Z" fill="#36A9E1" stroke="#263238" stroke-miterlimit="10"/>
<path d="M212.012 166.943L208.803 163.866" stroke="#263238" stroke-linecap="round" stroke-linejoin="round"/>
<path d="M209.773 205.462L212.704 202.36" stroke="#263238" stroke-linecap="round" stroke-linejoin="round"/>
<path d="M211.812 203.291C211.818 202.817 211.925 202.35 212.127 201.921C212.328 201.491 212.618 201.11 212.979 200.802C213.728 200.131 217.692 198.46 218.07 199.856C218.476 201.39 214.424 204.354 211.812 203.291Z" fill="#36A9E1" stroke="#263238" stroke-miterlimit="10"/>
<path d="M211.812 203.291L215.806 200.812" stroke="#263238" stroke-linecap="round" stroke-linejoin="round"/>
<path d="M211.693 186.906L214.628 183.809" stroke="#263238" stroke-linecap="round" stroke-linejoin="round"/>
<path d="M213.736 184.73C213.742 184.257 213.849 183.79 214.05 183.362C214.252 182.933 214.542 182.553 214.903 182.246C215.652 181.569 219.616 179.903 219.994 181.295C220.4 182.819 216.348 185.803 213.736 184.73Z" fill="#36A9E1" stroke="#263238" stroke-miterlimit="10"/>
<path d="M213.736 184.735L217.725 182.26" stroke="#263238" stroke-linecap="round" stroke-linejoin="round"/>
<path d="M212.541 178.752L215.471 175.655" stroke="#263238" stroke-linecap="round" stroke-linejoin="round"/>
<path d="M214.586 176.586C214.59 176.112 214.696 175.645 214.896 175.216C215.097 174.786 215.387 174.405 215.747 174.097C216.502 173.421 220.461 171.755 220.838 173.146C221.25 174.665 217.198 177.649 214.586 176.586Z" fill="#36A9E1" stroke="#263238" stroke-miterlimit="10"/>
<path d="M214.586 176.586L218.575 174.107" stroke="#263238" stroke-linecap="round" stroke-linejoin="round"/>
<path d="M213.748 166.188L216.713 163.704" stroke="#263238" stroke-linecap="round" stroke-linejoin="round"/>
<path d="M215.824 164.64C215.829 164.166 215.936 163.698 216.137 163.269C216.338 162.839 216.629 162.458 216.99 162.151C217.74 161.479 221.699 159.809 222.077 161.205C222.469 162.714 218.436 165.698 215.824 164.64Z" fill="#36A9E1" stroke="#263238" stroke-miterlimit="10"/>
<path d="M215.824 164.63L219.813 162.156" stroke="#263238" stroke-miterlimit="10"/>
<path d="M214.424 159.127C214.43 158.653 214.537 158.186 214.738 157.757C214.939 157.328 215.23 156.946 215.59 156.638C216.34 155.967 220.304 154.296 220.681 155.693C221.088 157.212 217.036 160.191 214.424 159.127Z" fill="#36A9E1" stroke="#263238" stroke-miterlimit="10"/>
<path d="M214.424 159.127L218.412 156.648" stroke="#263238" stroke-linecap="round" stroke-linejoin="round"/>
<path d="M214.586 159.304C214.115 159.249 213.661 159.094 213.256 158.848C212.85 158.603 212.501 158.274 212.234 157.883C211.646 157.065 210.401 152.953 211.827 152.723C213.38 152.473 215.919 156.8 214.586 159.304Z" fill="#36A9E1" stroke="#263238" stroke-miterlimit="10"/>
<path d="M214.584 159.304L212.541 155.075" stroke="#263238" stroke-linecap="round" stroke-linejoin="round"/>
<path d="M206.926 200.694L204.5 197.45" stroke="#263238" stroke-linecap="round" stroke-linejoin="round"/>
<path d="M205.29 198.45C205.333 197.978 205.275 197.502 205.12 197.054C204.964 196.606 204.715 196.197 204.388 195.853C203.707 195.108 199.944 193.035 199.424 194.383C198.861 195.873 202.58 199.258 205.29 198.45Z" fill="#36A9E1" stroke="#263238" stroke-miterlimit="10"/>
<path d="M205.29 198.47L201.781 195.74" stroke="#263238" stroke-linecap="round" stroke-linejoin="round"/>
<path d="M207.009 185.058L204.5 182.721" stroke="#263238" stroke-linecap="round" stroke-linejoin="round"/>
<path d="M205.29 183.75C205.333 183.278 205.275 182.802 205.12 182.354C204.964 181.906 204.715 181.497 204.388 181.153C203.707 180.408 199.944 178.34 199.424 179.683C198.861 181.138 202.58 184.524 205.29 183.75Z" fill="#36A9E1" stroke="#263238" stroke-miterlimit="10"/>
<path d="M205.29 183.735L201.781 181.006" stroke="#263238" stroke-linecap="round" stroke-linejoin="round"/>
<path d="M207.097 168.81L204.5 165.424" stroke="#263238" stroke-linecap="round" stroke-linejoin="round"/>
<path d="M205.29 166.438C205.333 165.967 205.275 165.492 205.12 165.045C204.964 164.598 204.715 164.189 204.388 163.846C203.707 163.096 199.944 161.029 199.424 162.376C198.861 163.846 202.58 167.232 205.29 166.438Z" fill="#36A9E1" stroke="#263238" stroke-miterlimit="10"/>
<path d="M205.29 166.438L201.781 163.709" stroke="#263238" stroke-linecap="round" stroke-linejoin="round"/>
<path d="M206.926 156.099L204.5 153.909" stroke="#263238" stroke-linecap="round" stroke-linejoin="round"/>
<path d="M205.29 154.928C205.333 154.456 205.275 153.98 205.12 153.532C204.964 153.084 204.715 152.675 204.388 152.331C203.707 151.581 199.944 149.514 199.424 150.861C198.861 152.331 202.58 155.717 205.29 154.928Z" fill="#36A9E1" stroke="#263238" stroke-miterlimit="10"/>
<path d="M205.29 154.928L201.781 152.199" stroke="#263238" stroke-linecap="round" stroke-linejoin="round"/>
<path d="M207.067 144.579L204.549 142.732" stroke="#263238" stroke-linecap="round" stroke-linejoin="round"/>
<path d="M205.29 143.359C205.333 142.888 205.275 142.413 205.12 141.966C204.964 141.519 204.715 141.11 204.388 140.767C203.707 140.017 199.944 137.95 199.424 139.297C198.861 140.767 202.58 144.153 205.29 143.359Z" fill="#36A9E1" stroke="#263238" stroke-miterlimit="10"/>
<path d="M205.29 143.359L201.781 140.635" stroke="#263238" stroke-linecap="round" stroke-linejoin="round"/>
<path d="M207.543 204.609L209.635 201.949" stroke="#263238" stroke-linecap="round" stroke-linejoin="round"/>
<path d="M208.842 202.968C208.799 202.495 208.857 202.019 209.013 201.571C209.17 201.123 209.421 200.714 209.749 200.371C210.425 199.626 214.193 197.553 214.712 198.901C215.276 200.371 211.552 203.757 208.842 202.968Z" fill="#36A9E1" stroke="#263238" stroke-miterlimit="10"/>
<path d="M208.842 202.968L212.556 200.091" stroke="#263238" stroke-linecap="round" stroke-linejoin="round"/>
<path d="M207.039 181.908L209.636 178.522" stroke="#263238" stroke-linecap="round" stroke-linejoin="round"/>
<path d="M208.842 179.536C208.799 179.063 208.857 178.587 209.014 178.139C209.17 177.691 209.421 177.282 209.748 176.939C210.425 176.194 214.193 174.126 214.712 175.469C215.276 176.939 211.552 180.32 208.842 179.536Z" fill="#36A9E1" stroke="#263238" stroke-miterlimit="10"/>
<path d="M208.842 179.536L212.556 176.66" stroke="#263238" stroke-linecap="round" stroke-linejoin="round"/>
<path d="M207.039 170.344L209.636 166.958" stroke="#263238" stroke-linecap="round" stroke-linejoin="round"/>
<path d="M208.842 167.972C208.799 167.499 208.857 167.023 209.014 166.575C209.17 166.127 209.421 165.718 209.748 165.375C210.425 164.63 214.193 162.562 214.712 163.905C215.276 165.375 211.552 168.761 208.842 167.972Z" fill="#36A9E1" stroke="#263238" stroke-miterlimit="10"/>
<path d="M208.842 167.972L212.556 165.096" stroke="#263238" stroke-linecap="round" stroke-linejoin="round"/>
<path d="M207.039 155.056L209.636 151.67" stroke="#263238" stroke-linecap="round" stroke-linejoin="round"/>
<path d="M208.842 152.689C208.799 152.216 208.857 151.74 209.013 151.292C209.17 150.844 209.421 150.435 209.749 150.092C210.425 149.347 214.193 147.274 214.712 148.622C215.276 150.092 211.552 153.478 208.842 152.689Z" fill="#36A9E1" stroke="#263238" stroke-miterlimit="10"/>
<path d="M208.842 152.689L212.556 149.813" stroke="#263238" stroke-linecap="round" stroke-linejoin="round"/>
<path d="M207.152 141.865L209.695 139.88" stroke="#263238" stroke-linecap="round" stroke-linejoin="round"/>
<path d="M208.842 140.669C208.799 140.197 208.857 139.722 209.014 139.275C209.17 138.827 209.421 138.419 209.749 138.077C210.425 137.327 214.193 135.26 214.712 136.607C215.276 138.077 211.552 141.458 208.842 140.669Z" fill="#36A9E1" stroke="#263238" stroke-miterlimit="10"/>
<path d="M208.842 140.669L212.556 137.793" stroke="#263238" stroke-linecap="round" stroke-linejoin="round"/>
<path d="M206.883 135.343C206.84 134.871 206.898 134.395 207.053 133.947C207.209 133.499 207.458 133.09 207.785 132.746C208.466 131.996 212.234 129.928 212.753 131.276C213.317 132.746 209.593 136.132 206.883 135.343Z" fill="#36A9E1" stroke="#263238" stroke-miterlimit="10"/>
<path d="M206.883 135.343L210.597 132.467" stroke="#263238" stroke-linecap="round" stroke-linejoin="round"/>
<path d="M207.063 135.5C206.589 135.494 206.122 135.386 205.693 135.184C205.265 134.982 204.885 134.69 204.578 134.329C203.907 133.579 202.241 129.615 203.638 129.237C205.157 128.831 208.131 132.888 207.063 135.5Z" fill="#36A9E1" stroke="#263238" stroke-miterlimit="10"/>
<path d="M207.063 135.5L204.594 131.506" stroke="#263238" stroke-linecap="round" stroke-linejoin="round"/>
<path d="M210.257 232.956H201.957L200.918 211.989H211.296L210.257 232.956Z" fill="#263238" stroke="#263238" stroke-linecap="round" stroke-linejoin="round"/>
</svg>
