<svg width="246" height="245" viewBox="0 0 246 245" fill="none" xmlns="http://www.w3.org/2000/svg">
<path d="M51.8326 42.6006L50.8379 34.8439L52.6313 41.405V30.2673L53.822 38.8227L55.0176 33.0505V38.6218L55.6154 27.4792L56.2083 38.8227L58.3986 33.8443L57.4039 40.0134L59.7902 37.4262L56.4092 43.5953L51.8326 42.6006Z" fill="#36A9E1"/>
<path opacity="0.7" d="M51.8326 42.6006L50.8379 34.8439L52.6313 41.405V30.2673L53.822 38.8227L55.0176 33.0505V38.6218L55.6154 27.4792L56.2083 38.8227L58.3986 33.8443L57.4039 40.0134L59.7902 37.4262L56.4092 43.5953L51.8326 42.6006Z" fill="white"/>
<path d="M58.1678 50.96H51.5332L50.7051 40.9199H58.9959L58.1678 50.96Z" fill="#36A9E1"/>
<path d="M82.5906 41.16L86.9124 51.1805H80.6257L78.4648 47.0547L82.5906 41.16Z" fill="#36A9E1"/>
<path d="M85.1172 34.6773H73.9158L67.291 51.3814H78.4875L85.1172 34.6773Z" fill="#36A9E1"/>
<path d="M82.811 36.8382H74.5104L69.5957 49.2156H77.9012L82.811 36.8382Z" fill="white"/>
<path d="M204.85 54.292H45.4922V182.02H204.85V54.292Z" fill="#263238"/>
<path opacity="0.75" d="M204.85 54.292H45.4922V182.02H204.85V54.292Z" fill="white"/>
<path d="M57.3649 56.6146H49.9414V79.1889H57.3649V56.6146Z" fill="#36A9E1"/>
<path d="M56.8497 57.9425H50.4258V59.3292H56.8497V57.9425Z" fill="white"/>
<path d="M56.8497 76.0431H50.4258V77.4298H56.8497V76.0431Z" fill="white"/>
<path d="M65.2633 56.6146H57.8398V79.1889H65.2633V56.6146Z" fill="#36A9E1"/>
<path d="M64.7481 57.9425H58.3242V59.3292H64.7481V57.9425Z" fill="white"/>
<path d="M64.7481 76.0431H58.3242V77.4298H64.7481V76.0431Z" fill="white"/>
<path d="M73.1618 56.6146H65.7383V79.1889H73.1618V56.6146Z" fill="#36A9E1"/>
<path d="M72.6485 57.9425H66.2246V59.3292H72.6485V57.9425Z" fill="white"/>
<path d="M72.6485 76.0431H66.2246V77.4298H72.6485V76.0431Z" fill="white"/>
<path d="M81.0602 56.6146H73.6367V79.1889H81.0602V56.6146Z" fill="#36A9E1"/>
<path d="M80.5469 57.9425H74.123V59.3292H80.5469V57.9425Z" fill="white"/>
<path d="M80.5469 76.0431H74.123V77.4298H80.5469V76.0431Z" fill="white"/>
<path d="M88.9548 56.6146H81.5312V79.1889H88.9548V56.6146Z" fill="#36A9E1"/>
<path d="M88.4395 57.9425H82.0156V59.3292H88.4395V57.9425Z" fill="white"/>
<path d="M88.4395 76.0431H82.0156V77.4298H88.4395V76.0431Z" fill="white"/>
<path d="M96.8532 56.6146H89.4297V79.1889H96.8532V56.6146Z" fill="#36A9E1"/>
<path d="M96.3399 57.9425H89.916V59.3292H96.3399V57.9425Z" fill="white"/>
<path d="M96.3399 76.0431H89.916V77.4298H96.3399V76.0431Z" fill="white"/>
<path d="M99.8629 80.3453H92.4395V102.92H99.8629V80.3453Z" fill="#36A9E1"/>
<path d="M99.3477 81.6683H92.9238V83.055H99.3477V81.6683Z" fill="white"/>
<path d="M99.3477 99.7738H92.9238V101.161H99.3477V99.7738Z" fill="white"/>
<path d="M107.756 80.3453H100.332V102.92H107.756V80.3453Z" fill="#36A9E1"/>
<path d="M107.246 81.6683H100.822V83.055H107.246V81.6683Z" fill="white"/>
<path d="M107.246 99.7738H100.822V101.161H107.246V99.7738Z" fill="white"/>
<path d="M115.654 80.3453H108.23V102.92H115.654V80.3453Z" fill="#36A9E1"/>
<path d="M115.141 81.6683H108.717V83.055H115.141V81.6683Z" fill="white"/>
<path d="M115.141 99.7738H108.717V101.161H115.141V99.7738Z" fill="white"/>
<path d="M123.554 80.3453H116.131V102.92H123.554V80.3453Z" fill="#36A9E1"/>
<path d="M123.039 81.6683H116.615V83.055H123.039V81.6683Z" fill="white"/>
<path d="M123.039 99.7738H116.615V101.161H123.039V99.7738Z" fill="white"/>
<path d="M131.453 80.3453H124.029V102.92H131.453V80.3453Z" fill="#36A9E1"/>
<path d="M130.938 81.6683H124.514V83.055H130.938V81.6683Z" fill="white"/>
<path d="M130.938 99.7738H124.514V101.161H130.938V99.7738Z" fill="white"/>
<path d="M139.347 80.3453H131.924V102.92H139.347V80.3453Z" fill="#36A9E1"/>
<path d="M138.836 81.6683H132.412V83.055H138.836V81.6683Z" fill="white"/>
<path d="M138.836 99.7738H132.412V101.161H138.836V99.7738Z" fill="white"/>
<path d="M156.853 80.3453H149.43V102.92H156.853V80.3453Z" fill="#36A9E1"/>
<path d="M156.34 81.6683H149.916V83.055H156.34V81.6683Z" fill="white"/>
<path d="M156.34 99.7738H149.916V101.161H156.34V99.7738Z" fill="white"/>
<path d="M164.754 80.3453H157.33V102.92H164.754V80.3453Z" fill="#36A9E1"/>
<path d="M164.238 81.6683H157.814V83.055H164.238V81.6683Z" fill="white"/>
<path d="M164.238 99.7738H157.814V101.161H164.238V99.7738Z" fill="white"/>
<path d="M172.646 80.3453H165.223V102.92H172.646V80.3453Z" fill="#36A9E1"/>
<path d="M172.133 81.6683H165.709V83.055H172.133V81.6683Z" fill="white"/>
<path d="M172.133 99.7738H165.709V101.161H172.133V99.7738Z" fill="white"/>
<path d="M180.547 80.3453H173.123V102.92H180.547V80.3453Z" fill="#36A9E1"/>
<path d="M180.031 81.6683H173.607V83.055H180.031V81.6683Z" fill="white"/>
<path d="M180.031 99.7738H173.607V101.161H180.031V99.7738Z" fill="white"/>
<path d="M188.445 80.3453H181.021V102.92H188.445V80.3453Z" fill="#36A9E1"/>
<path d="M187.93 81.6683H181.506V83.055H187.93V81.6683Z" fill="white"/>
<path d="M187.93 99.7738H181.506V101.161H187.93V99.7738Z" fill="white"/>
<path d="M195.897 104.889L188.875 102.655L196.725 81.2959L203.751 83.5352L195.897 104.889Z" fill="#36A9E1"/>
<path d="M202.316 85.946L196.24 84.0105L196.725 82.6973L202.801 84.6328L202.316 85.946Z" fill="white"/>
<path d="M196.019 103.072L189.943 101.136L190.428 99.8277L196.504 101.763L196.019 103.072Z" fill="white"/>
<path d="M171.083 173.553L164.057 171.314L171.906 149.96L178.933 152.194L171.083 173.553Z" fill="#36A9E1"/>
<path d="M177.498 154.605L171.422 152.669L171.907 151.361L177.983 153.292L177.498 154.605Z" fill="white"/>
<path d="M171.201 171.735L165.125 169.8L165.61 168.487L171.686 170.422L171.201 171.735Z" fill="white"/>
<path d="M104.752 56.6146H97.3281V79.1889H104.752V56.6146Z" fill="#36A9E1"/>
<path d="M104.238 57.9425H97.8145V59.3292H104.238V57.9425Z" fill="white"/>
<path d="M104.238 76.0431H97.8145V77.4298H104.238V76.0431Z" fill="white"/>
<path d="M56.6149 104.537H49.1914V127.111H56.6149V104.537Z" fill="#36A9E1"/>
<path d="M56.0997 105.865H49.6758V107.251H56.0997V105.865Z" fill="white"/>
<path d="M56.0997 123.965H49.6758V125.352H56.0997V123.965Z" fill="white"/>
<path d="M64.5133 104.537H57.0898V127.111H64.5133V104.537Z" fill="#36A9E1"/>
<path d="M64.0001 105.865H57.5762V107.251H64.0001V105.865Z" fill="white"/>
<path d="M64.0001 123.965H57.5762V125.352H64.0001V123.965Z" fill="white"/>
<path d="M72.4118 104.537H64.9883V127.111H72.4118V104.537Z" fill="#36A9E1"/>
<path d="M71.8985 105.865H65.4746V107.251H71.8985V105.865Z" fill="white"/>
<path d="M71.8985 123.965H65.4746V125.352H71.8985V123.965Z" fill="white"/>
<path d="M80.3122 104.537H72.8887V127.111H80.3122V104.537Z" fill="#36A9E1"/>
<path d="M79.7969 105.865H73.373V107.251H79.7969V105.865Z" fill="white"/>
<path d="M79.7969 123.965H73.373V125.352H79.7969V123.965Z" fill="white"/>
<path d="M88.2048 104.537H80.7812V127.111H88.2048V104.537Z" fill="#36A9E1"/>
<path d="M87.6915 105.865H81.2676V107.251H87.6915V105.865Z" fill="white"/>
<path d="M87.6915 123.965H81.2676V125.352H87.6915V123.965Z" fill="white"/>
<path d="M80.8649 151.528H73.4414V174.102H80.8649V151.528Z" fill="#36A9E1"/>
<path d="M80.3497 152.855H73.9258V154.242H80.3497V152.855Z" fill="white"/>
<path d="M80.3497 170.961H73.9258V172.348H80.3497V170.961Z" fill="white"/>
<path d="M88.7594 151.528H81.3359V174.102H88.7594V151.528Z" fill="#36A9E1"/>
<path d="M88.2442 152.855H81.8203V154.242H88.2442V152.855Z" fill="white"/>
<path d="M88.2442 170.961H81.8203V172.348H88.2442V170.961Z" fill="white"/>
<path d="M96.6579 151.528H89.2344V174.102H96.6579V151.528Z" fill="#36A9E1"/>
<path d="M96.1427 152.855H89.7188V154.242H96.1427V152.855Z" fill="white"/>
<path d="M96.1427 170.961H89.7188V172.348H96.1427V170.961Z" fill="white"/>
<path d="M104.556 151.528H97.1328V174.102H104.556V151.528Z" fill="#36A9E1"/>
<path d="M104.041 152.855H97.6172V154.242H104.041V152.855Z" fill="white"/>
<path d="M104.041 170.961H97.6172V172.348H104.041V170.961Z" fill="white"/>
<path d="M112.455 151.528H105.031V174.102H112.455V151.528Z" fill="#36A9E1"/>
<path d="M111.941 152.855H105.518V154.242H111.941V152.855Z" fill="white"/>
<path d="M111.941 170.961H105.518V172.348H111.941V170.961Z" fill="white"/>
<path d="M96.1032 104.537H88.6797V127.111H96.1032V104.537Z" fill="#36A9E1"/>
<path d="M95.5899 105.865H89.166V107.251H95.5899V105.865Z" fill="white"/>
<path d="M95.5899 123.965H89.166V125.352H95.5899V123.965Z" fill="white"/>
<path d="M104.004 104.537H96.5801V127.111H104.004V104.537Z" fill="#36A9E1"/>
<path d="M103.488 105.865H97.0645V107.251H103.488V105.865Z" fill="white"/>
<path d="M103.488 123.965H97.0645V125.352H103.488V123.965Z" fill="white"/>
<path d="M111.828 104.537H104.404V127.111H111.828V104.537Z" fill="#36A9E1"/>
<path d="M111.313 105.865H104.889V107.251H111.313V105.865Z" fill="white"/>
<path d="M111.313 123.965H104.889V125.352H111.313V123.965Z" fill="white"/>
<path d="M119.654 104.537H112.23V127.111H119.654V104.537Z" fill="#36A9E1"/>
<path d="M119.139 105.865H112.715V107.251H119.139V105.865Z" fill="white"/>
<path d="M119.139 123.965H112.715V125.352H119.139V123.965Z" fill="white"/>
<path d="M140.513 125.641L133.403 127.625L126.436 106.007L133.545 104.022L140.513 125.641Z" fill="#36A9E1"/>
<path d="M133.887 106.756L127.733 108.476L127.307 107.148L133.456 105.428L133.887 106.756Z" fill="white"/>
<path d="M139.474 124.097L133.325 125.812L132.898 124.484L139.048 122.769L139.474 124.097Z" fill="white"/>
<path d="M127.478 104.537H120.055V127.111H127.478V104.537Z" fill="#36A9E1"/>
<path d="M126.965 105.865H120.541V107.251H126.965V105.865Z" fill="white"/>
<path d="M126.965 123.965H120.541V125.352H126.965V123.965Z" fill="white"/>
<path d="M80.1149 128.032H72.6914V150.606H80.1149V128.032Z" fill="#36A9E1"/>
<path d="M79.6016 129.36H73.1777V130.747H79.6016V129.36Z" fill="white"/>
<path d="M79.6016 147.461H73.1777V148.847H79.6016V147.461Z" fill="white"/>
<path d="M88.0094 128.032H80.5859V150.606H88.0094V128.032Z" fill="#36A9E1"/>
<path d="M87.4942 129.36H81.0703V130.747H87.4942V129.36Z" fill="white"/>
<path d="M87.4942 147.461H81.0703V148.847H87.4942V147.461Z" fill="white"/>
<path d="M95.9079 128.032H88.4844V150.606H95.9079V128.032Z" fill="#36A9E1"/>
<path d="M95.3927 129.36H88.9688V130.747H95.3927V129.36Z" fill="white"/>
<path d="M95.3927 147.461H88.9688V148.847H95.3927V147.461Z" fill="white"/>
<path d="M103.806 128.032H96.3828V150.606H103.806V128.032Z" fill="#36A9E1"/>
<path d="M103.293 129.36H96.8691V130.747H103.293V129.36Z" fill="white"/>
<path d="M103.293 147.461H96.8691V148.847H103.293V147.461Z" fill="white"/>
<path d="M111.705 128.032H104.281V150.606H111.705V128.032Z" fill="#36A9E1"/>
<path d="M111.191 129.36H104.768V130.747H111.191V129.36Z" fill="white"/>
<path d="M111.191 147.461H104.768V148.847H111.191V147.461Z" fill="white"/>
<path d="M119.599 128.032H112.176V150.606H119.599V128.032Z" fill="#36A9E1"/>
<path d="M119.084 129.36H112.66V130.747H119.084V129.36Z" fill="white"/>
<path d="M119.084 147.461H112.66V148.847H119.084V147.461Z" fill="white"/>
<path d="M127.498 128.032H120.074V150.606H127.498V128.032Z" fill="#36A9E1"/>
<path d="M126.984 129.36H120.561V130.747H126.984V129.36Z" fill="white"/>
<path d="M126.984 147.461H120.561V148.847H126.984V147.461Z" fill="white"/>
<path d="M155.105 128.032H147.682V150.606H155.105V128.032Z" fill="#36A9E1"/>
<path d="M154.59 129.36H148.166V130.747H154.59V129.36Z" fill="white"/>
<path d="M154.59 147.461H148.166V148.847H154.59V147.461Z" fill="white"/>
<path d="M163 128.032H155.576V150.606H163V128.032Z" fill="#36A9E1"/>
<path d="M162.488 129.36H156.064V130.747H162.488V129.36Z" fill="white"/>
<path d="M162.488 147.461H156.064V148.847H162.488V147.461Z" fill="white"/>
<path d="M170.898 128.032H163.475V150.606H170.898V128.032Z" fill="#36A9E1"/>
<path d="M170.383 129.36H163.959V130.747H170.383V129.36Z" fill="white"/>
<path d="M170.383 147.461H163.959V148.847H170.383V147.461Z" fill="white"/>
<path d="M178.797 128.032H171.373V150.606H178.797V128.032Z" fill="#36A9E1"/>
<path d="M178.281 129.36H171.857V130.747H178.281V129.36Z" fill="white"/>
<path d="M178.281 147.461H171.857V148.847H178.281V147.461Z" fill="white"/>
<path d="M186.695 128.032H179.271V150.606H186.695V128.032Z" fill="#36A9E1"/>
<path d="M186.18 129.36H179.756V130.747H186.18V129.36Z" fill="white"/>
<path d="M186.18 147.461H179.756V148.847H186.18V147.461Z" fill="white"/>
<path d="M194.59 128.032H187.166V150.606H194.59V128.032Z" fill="#36A9E1"/>
<path d="M194.08 129.36H187.656V130.747H194.08V129.36Z" fill="white"/>
<path d="M194.08 147.461H187.656V148.847H194.08V147.461Z" fill="white"/>
<path d="M202.488 128.032H195.064V150.606H202.488V128.032Z" fill="#36A9E1"/>
<path d="M201.973 129.36H195.549V130.747H201.973V129.36Z" fill="white"/>
<path d="M201.973 147.461H195.549V148.847H201.973V147.461Z" fill="white"/>
<path d="M116.336 56.6146H108.912V79.1889H116.336V56.6146Z" fill="#36A9E1"/>
<path d="M115.822 57.9425H109.398V59.3292H115.822V57.9425Z" fill="white"/>
<path d="M115.822 76.0431H109.398V77.4298H115.822V76.0431Z" fill="white"/>
<path d="M124.759 56.6146H117.336V79.1889H124.759V56.6146Z" fill="#36A9E1"/>
<path d="M124.244 57.9425H117.82V59.3292H124.244V57.9425Z" fill="white"/>
<path d="M124.244 76.0431H117.82V77.4298H124.244V76.0431Z" fill="white"/>
<path d="M133.181 56.6146H125.758V79.1889H133.181V56.6146Z" fill="#36A9E1"/>
<path d="M132.668 57.9425H126.244V59.3292H132.668V57.9425Z" fill="white"/>
<path d="M132.668 76.0431H126.244V77.4298H132.668V76.0431Z" fill="white"/>
<path d="M141.605 56.6146H134.182V79.1889H141.605V56.6146Z" fill="#36A9E1"/>
<path d="M141.09 57.9425H134.666V59.3292H141.09V57.9425Z" fill="white"/>
<path d="M141.09 76.0431H134.666V77.4298H141.09V76.0431Z" fill="white"/>
<path d="M82.58 102.611L79.5861 103.356L73.4023 81.8937L76.3962 81.1489L82.58 102.611Z" fill="#36A9E1"/>
<path d="M76.9293 83.7802L74.3421 84.4221L73.9648 83.104L76.5521 82.4621L76.9293 83.7802Z" fill="white"/>
<path d="M81.8883 100.989L79.3011 101.636L78.9238 100.318L81.5061 99.6709L81.8883 100.989Z" fill="white"/>
<path d="M85.3331 81.144H82.2363V103.365H85.3331V81.144Z" fill="#36A9E1"/>
<path d="M85.1178 82.4474H82.4375V83.8096H85.1178V82.4474Z" fill="white"/>
<path d="M85.1178 100.269H82.4375V101.631H85.1178V100.269Z" fill="white"/>
<path d="M88.6652 81.144H85.5684V103.365H88.6652V81.144Z" fill="#36A9E1"/>
<path d="M88.4498 82.4474H85.7695V83.8096H88.4498V82.4474Z" fill="white"/>
<path d="M88.4498 100.269H85.7695V101.631H88.4498V100.269Z" fill="white"/>
<path d="M50.5586 95.3687C51.4078 97.4393 51.4078 99.7611 50.5586 101.832H72.0647C72.0647 101.832 74.7205 101.146 74.7205 98.6026C74.5575 97.9134 74.2399 97.2702 73.7917 96.7218C73.3435 96.1734 72.7764 95.7341 72.1333 95.4373L50.5586 95.3687Z" fill="white"/>
<path opacity="0.25" d="M73.0942 95.9175C72.1583 95.3785 71.3008 95.4275 70.2228 95.4275H68.1893H62.8924L52.6024 95.3932C52.4358 95.3932 50.7649 95.5402 50.6914 95.3932C50.8777 95.8183 51.0189 96.2617 51.1128 96.7162H72.5895V101.626C73.2014 101.385 73.7295 100.97 74.109 100.433C74.4886 99.8962 74.703 99.2599 74.7259 98.6027C74.7464 98.0858 74.6242 97.5732 74.3727 97.1212C74.1212 96.6692 73.75 96.2951 73.3 96.04L73.0942 95.9175Z" fill="black"/>
<path d="M71.2564 102.728H49.6523C49.4797 102.714 49.3189 102.635 49.2018 102.508C49.0846 102.38 49.0195 102.213 49.0195 102.04C49.0195 101.867 49.0846 101.7 49.2018 101.572C49.3189 101.445 49.4797 101.366 49.6523 101.352H71.2564C71.6138 101.367 71.9706 101.31 72.3053 101.184C72.64 101.058 72.9458 100.865 73.2041 100.617C73.4624 100.37 73.668 100.073 73.8084 99.7439C73.9488 99.4149 74.0212 99.0608 74.0212 98.7031C74.0212 98.3454 73.9488 97.9914 73.8084 97.6624C73.668 97.3334 73.4624 97.0362 73.2041 96.7888C72.9458 96.5414 72.64 96.3488 72.3053 96.2226C71.9706 96.0964 71.6138 96.0393 71.2564 96.0547H49.8483C49.6664 96.0547 49.4919 95.9824 49.3632 95.8538C49.2346 95.7251 49.1623 95.5506 49.1623 95.3687C49.1623 95.1867 49.2346 95.0123 49.3632 94.8836C49.4919 94.755 49.6664 94.6827 49.8483 94.6827H71.2564C72.3233 94.6827 73.3466 95.1065 74.101 95.861C74.8555 96.6154 75.2793 97.6386 75.2793 98.7056C75.2793 99.7725 74.8555 100.796 74.101 101.55C73.3466 102.305 72.3233 102.728 71.2564 102.728Z" fill="#36A9E1"/>
<path d="M73.6873 87.4062C72.8386 89.477 72.8386 91.7985 73.6873 93.8693H52.1812C52.1812 93.8693 49.5254 93.1833 49.5254 90.6402C49.6883 89.9509 50.0059 89.3077 50.4542 88.7593C50.9024 88.2109 51.4695 87.7717 52.1126 87.4748L73.6873 87.4062Z" fill="white"/>
<path opacity="0.25" d="M51.1505 87.955C52.0864 87.416 52.9439 87.465 54.0219 87.465H56.0554H61.3523L71.6423 87.4356C71.8089 87.4356 73.4798 87.5826 73.5533 87.4356C73.3661 87.8625 73.2232 88.3074 73.127 88.7635H51.6601V93.6929C51.0482 93.4518 50.5201 93.0373 50.1406 92.5002C49.761 91.9631 49.5466 91.3269 49.5237 90.6696C49.5032 90.1527 49.6254 89.6402 49.8769 89.1881C50.1285 88.7361 50.4996 88.362 50.9496 88.1069L51.1505 87.955Z" fill="black"/>
<path d="M52.9897 94.766H74.5938C74.7664 94.7514 74.9272 94.6726 75.0443 94.5451C75.1615 94.4176 75.2266 94.2507 75.2266 94.0776C75.2266 93.9044 75.1615 93.7375 75.0443 93.61C74.9272 93.4825 74.7664 93.4037 74.5938 93.3891H52.9897C52.2879 93.3891 51.6149 93.1103 51.1187 92.6141C50.6225 92.1179 50.3437 91.4449 50.3437 90.7431C50.3437 90.0414 50.6225 89.3683 51.1187 88.8721C51.6149 88.3759 52.2879 88.0971 52.9897 88.0971H74.3978C74.5704 88.0825 74.7312 88.0037 74.8483 87.8762C74.9655 87.7487 75.0306 87.5818 75.0306 87.4087C75.0306 87.2355 74.9655 87.0686 74.8483 86.9411C74.7312 86.8136 74.5704 86.7348 74.3978 86.7202H52.9897C51.9228 86.7202 50.8995 87.1441 50.1451 87.8985C49.3906 88.6529 48.9668 89.6762 48.9668 90.7431C48.9668 91.8101 49.3906 92.8333 50.1451 93.5877C50.8995 94.3422 51.9228 94.766 52.9897 94.766Z" fill="#36A9E1"/>
<path d="M178.291 119.33C179.14 121.4 179.14 123.722 178.291 125.793H199.797C199.797 125.793 202.453 125.107 202.453 122.564C202.29 121.874 201.972 121.231 201.524 120.683C201.076 120.134 200.509 119.695 199.866 119.398L178.291 119.33Z" fill="white"/>
<path opacity="0.25" d="M200.827 119.878C199.891 119.339 199.033 119.388 197.955 119.388H195.922H190.625L180.335 119.359C180.168 119.359 178.497 119.501 178.424 119.359C178.61 119.784 178.751 120.228 178.845 120.682H200.322V125.587C200.934 125.346 201.462 124.931 201.841 124.394C202.221 123.857 202.435 123.221 202.458 122.564C202.479 122.047 202.357 121.534 202.105 121.082C201.854 120.63 201.482 120.256 201.032 120.001L200.827 119.878Z" fill="black"/>
<path d="M198.99 126.689H177.391C177.218 126.675 177.057 126.596 176.94 126.469C176.823 126.341 176.758 126.174 176.758 126.001C176.758 125.828 176.823 125.661 176.94 125.533C177.057 125.406 177.218 125.327 177.391 125.313H198.995C199.696 125.313 200.369 125.034 200.866 124.538C201.362 124.041 201.641 123.368 201.641 122.667C201.641 121.965 201.362 121.292 200.866 120.796C200.369 120.299 199.696 120.021 198.995 120.021H177.582C177.409 120.006 177.248 119.927 177.131 119.8C177.014 119.672 176.949 119.505 176.949 119.332C176.949 119.159 177.014 118.992 177.131 118.865C177.248 118.737 177.409 118.658 177.582 118.644H198.99C200.057 118.644 201.08 119.068 201.834 119.822C202.589 120.576 203.013 121.6 203.013 122.667C203.013 123.734 202.589 124.757 201.834 125.511C201.08 126.266 200.057 126.689 198.99 126.689Z" fill="#36A9E1"/>
<path d="M201.4 111.367C200.551 113.438 200.551 115.76 201.4 117.83H179.914C179.914 117.83 177.258 117.144 177.258 114.601C177.421 113.912 177.738 113.269 178.187 112.72C178.635 112.172 179.202 111.733 179.845 111.436L201.4 111.367Z" fill="white"/>
<path opacity="0.25" d="M178.885 111.916C179.821 111.377 180.678 111.426 181.756 111.426H183.79H189.087L199.377 111.397C199.543 111.397 201.214 111.544 201.288 111.397C201.1 111.823 200.958 112.268 200.861 112.725H179.394V117.654C178.783 117.413 178.254 116.998 177.875 116.461C177.495 115.924 177.281 115.288 177.258 114.631C177.238 114.114 177.36 113.601 177.611 113.149C177.863 112.697 178.234 112.323 178.684 112.068L178.885 111.916Z" fill="black"/>
<path d="M180.722 118.727H202.326C202.499 118.712 202.66 118.634 202.777 118.506C202.894 118.379 202.959 118.212 202.959 118.039C202.959 117.865 202.894 117.698 202.777 117.571C202.66 117.443 202.499 117.365 202.326 117.35H180.722C180.02 117.35 179.347 117.071 178.851 116.575C178.355 116.079 178.076 115.406 178.076 114.704C178.076 114.002 178.355 113.329 178.851 112.833C179.347 112.337 180.02 112.058 180.722 112.058H202.13C202.303 112.043 202.464 111.965 202.581 111.837C202.698 111.71 202.763 111.543 202.763 111.37C202.763 111.196 202.698 111.03 202.581 110.902C202.464 110.775 202.303 110.696 202.13 110.681H180.722C179.655 110.681 178.632 111.105 177.878 111.859C177.123 112.614 176.699 113.637 176.699 114.704C176.699 115.771 177.123 116.794 177.878 117.549C178.632 118.303 179.655 118.727 180.722 118.727Z" fill="#36A9E1"/>
<path d="M177.791 165.159C178.64 167.23 178.64 169.552 177.791 171.622H199.297C199.297 171.622 201.953 170.936 201.953 168.393C201.789 167.704 201.471 167.06 201.022 166.512C200.573 165.963 200.005 165.524 199.361 165.228L177.791 165.159Z" fill="white"/>
<path opacity="0.25" d="M200.327 165.708C199.391 165.169 198.533 165.218 197.455 165.218H195.422H190.125L179.835 165.184C179.663 165.184 177.997 165.331 177.924 165.184C178.111 165.609 178.252 166.052 178.345 166.507H199.822V171.441C200.434 171.2 200.962 170.786 201.341 170.248C201.721 169.711 201.935 169.075 201.958 168.418C201.979 167.901 201.857 167.388 201.605 166.936C201.354 166.484 200.982 166.11 200.532 165.855L200.327 165.708Z" fill="black"/>
<path d="M198.49 172.519H176.9C176.728 172.505 176.567 172.426 176.45 172.298C176.333 172.171 176.268 172.004 176.268 171.831C176.268 171.658 176.333 171.491 176.45 171.363C176.567 171.236 176.728 171.157 176.9 171.142H198.504C198.862 171.158 199.219 171.101 199.553 170.974C199.888 170.848 200.194 170.656 200.452 170.408C200.71 170.161 200.916 169.864 201.056 169.535C201.197 169.206 201.269 168.852 201.269 168.494C201.269 168.136 201.197 167.782 201.056 167.453C200.916 167.124 200.71 166.827 200.452 166.58C200.194 166.332 199.888 166.139 199.553 166.013C199.219 165.887 198.862 165.83 198.504 165.845H177.082C176.9 165.845 176.725 165.773 176.597 165.644C176.468 165.516 176.396 165.341 176.396 165.159C176.396 164.977 176.468 164.803 176.597 164.674C176.725 164.546 176.9 164.473 177.082 164.473H198.49C199.557 164.473 200.58 164.897 201.334 165.652C202.089 166.406 202.513 167.429 202.513 168.496C202.513 169.563 202.089 170.586 201.334 171.341C200.58 172.095 199.557 172.519 198.49 172.519Z" fill="#36A9E1"/>
<path d="M200.91 157.197C200.061 159.268 200.061 161.589 200.91 163.66H179.414C179.414 163.66 176.758 162.974 176.758 160.431C176.925 159.746 177.245 159.107 177.693 158.563C178.142 158.019 178.709 157.584 179.35 157.29L200.91 157.197Z" fill="white"/>
<path opacity="0.25" d="M178.37 157.746C179.306 157.207 180.164 157.256 181.242 157.256H183.27H188.567L198.857 157.226C199.024 157.226 200.695 157.373 200.768 157.226C200.581 157.652 200.438 158.095 200.342 158.549H178.894V163.484C178.283 163.242 177.754 162.828 177.375 162.291C176.995 161.754 176.781 161.118 176.758 160.46C176.738 159.943 176.86 159.431 177.111 158.979C177.363 158.527 177.734 158.153 178.184 157.898L178.37 157.746Z" fill="black"/>
<path d="M180.222 164.557H201.826C201.999 164.542 202.16 164.463 202.277 164.336C202.394 164.208 202.459 164.041 202.459 163.868C202.459 163.695 202.394 163.528 202.277 163.401C202.16 163.273 201.999 163.194 201.826 163.18H180.222C179.52 163.18 178.847 162.901 178.351 162.405C177.855 161.909 177.576 161.236 177.576 160.534C177.576 159.832 177.855 159.159 178.351 158.663C178.847 158.167 179.52 157.888 180.222 157.888H201.63C201.803 157.873 201.964 157.794 202.081 157.667C202.198 157.539 202.263 157.372 202.263 157.199C202.263 157.026 202.198 156.859 202.081 156.732C201.964 156.604 201.803 156.525 201.63 156.511H180.222C179.155 156.511 178.132 156.935 177.377 157.689C176.623 158.444 176.199 159.467 176.199 160.534C176.199 161.601 176.623 162.624 177.377 163.378C178.132 164.133 179.155 164.557 180.222 164.557Z" fill="#36A9E1"/>
<path d="M139.602 165.159C140.451 167.23 140.451 169.552 139.602 171.622H161.108C161.108 171.622 163.763 170.936 163.763 168.393C163.6 167.704 163.282 167.06 162.833 166.512C162.383 165.963 161.815 165.524 161.171 165.228L139.602 165.159Z" fill="white"/>
<path opacity="0.25" d="M162.137 165.708C161.201 165.169 160.344 165.218 159.266 165.218H157.232H151.935L141.645 165.184C141.474 165.184 139.808 165.331 139.734 165.184C139.922 165.609 140.063 166.052 140.156 166.507H161.632V171.441C162.244 171.2 162.772 170.786 163.152 170.248C163.532 169.711 163.746 169.075 163.769 168.418C163.789 167.9 163.667 167.387 163.414 166.935C163.162 166.483 162.789 166.109 162.338 165.855L162.137 165.708Z" fill="black"/>
<path d="M160.298 172.519H138.68C138.507 172.505 138.346 172.426 138.229 172.298C138.112 172.171 138.047 172.004 138.047 171.831C138.047 171.658 138.112 171.491 138.229 171.363C138.346 171.236 138.507 171.157 138.68 171.142H160.284C160.641 171.158 160.998 171.101 161.333 170.974C161.667 170.848 161.973 170.656 162.231 170.408C162.49 170.161 162.695 169.864 162.836 169.535C162.976 169.206 163.049 168.852 163.049 168.494C163.049 168.136 162.976 167.782 162.836 167.453C162.695 167.124 162.49 166.827 162.231 166.58C161.973 166.332 161.667 166.139 161.333 166.013C160.998 165.887 160.641 165.83 160.284 165.845H138.89C138.708 165.845 138.534 165.773 138.405 165.644C138.277 165.516 138.204 165.341 138.204 165.159C138.204 164.977 138.277 164.803 138.405 164.674C138.534 164.546 138.708 164.473 138.89 164.473H160.298C161.365 164.473 162.389 164.897 163.143 165.652C163.897 166.406 164.321 167.429 164.321 168.496C164.321 169.563 163.897 170.586 163.143 171.341C162.389 172.095 161.365 172.519 160.298 172.519Z" fill="#36A9E1"/>
<path d="M139.602 157.197C140.45 159.268 140.45 161.589 139.602 163.66H161.108C161.108 163.66 163.763 162.974 163.763 160.431C163.597 159.746 163.277 159.107 162.828 158.563C162.379 158.019 161.813 157.584 161.171 157.29L139.602 157.197Z" fill="white"/>
<path opacity="0.25" d="M162.137 157.746C161.201 157.207 160.344 157.256 159.266 157.256H157.232H151.935L141.645 157.226C141.474 157.226 139.808 157.373 139.734 157.226C139.921 157.651 140.062 158.095 140.156 158.549H161.632V163.484C162.244 163.242 162.772 162.828 163.152 162.291C163.532 161.754 163.746 161.118 163.769 160.46C163.789 159.943 163.667 159.43 163.414 158.977C163.162 158.525 162.789 158.152 162.338 157.898L162.137 157.746Z" fill="black"/>
<path d="M160.298 164.557H138.68C138.507 164.542 138.346 164.463 138.229 164.336C138.112 164.208 138.047 164.041 138.047 163.868C138.047 163.695 138.112 163.528 138.229 163.401C138.346 163.273 138.507 163.194 138.68 163.18H160.284C160.985 163.18 161.659 162.901 162.155 162.405C162.651 161.909 162.93 161.236 162.93 160.534C162.93 159.832 162.651 159.159 162.155 158.663C161.659 158.167 160.985 157.888 160.284 157.888H138.89C138.718 157.873 138.557 157.794 138.44 157.667C138.323 157.539 138.258 157.372 138.258 157.199C138.258 157.026 138.323 156.859 138.44 156.732C138.557 156.604 138.718 156.525 138.89 156.511H160.298C161.365 156.511 162.389 156.935 163.143 157.689C163.897 158.444 164.321 159.467 164.321 160.534C164.321 161.601 163.897 162.624 163.143 163.378C162.389 164.133 161.365 164.557 160.298 164.557Z" fill="#36A9E1"/>
<path d="M48.8086 165.159C49.6578 167.23 49.6578 169.552 48.8086 171.622H70.3147C70.3147 171.622 72.9705 170.936 72.9705 168.393C72.807 167.704 72.4887 167.06 72.0396 166.512C71.5905 165.963 71.0224 165.524 70.3784 165.228L48.8086 165.159Z" fill="white"/>
<path opacity="0.25" d="M71.3442 165.708C70.4083 165.169 69.5508 165.218 68.4728 165.218H66.4393H61.1424L50.8524 165.184C50.6809 165.184 49.0149 165.331 48.9414 165.184C49.1287 165.609 49.27 166.052 49.3628 166.507H70.8395V171.441C71.4514 171.2 71.9795 170.786 72.359 170.248C72.7386 169.711 72.953 169.075 72.9759 168.418C72.9964 167.901 72.8742 167.388 72.6227 166.936C72.3711 166.484 72 166.11 71.55 165.855L71.3442 165.708Z" fill="black"/>
<path d="M69.5064 172.519H47.9023C47.7297 172.505 47.5689 172.426 47.4518 172.298C47.3346 172.171 47.2695 172.004 47.2695 171.831C47.2695 171.658 47.3346 171.491 47.4518 171.363C47.5689 171.236 47.7297 171.157 47.9023 171.142H69.5064C69.8638 171.158 70.2206 171.101 70.5553 170.974C70.89 170.848 71.1958 170.656 71.4541 170.408C71.7124 170.161 71.918 169.864 72.0584 169.535C72.1988 169.206 72.2712 168.852 72.2712 168.494C72.2712 168.136 72.1988 167.782 72.0584 167.453C71.918 167.124 71.7124 166.827 71.4541 166.58C71.1958 166.332 70.89 166.139 70.5553 166.013C70.2206 165.887 69.8638 165.83 69.5064 165.845H48.0983C47.9164 165.845 47.7419 165.773 47.6132 165.644C47.4846 165.516 47.4123 165.341 47.4123 165.159C47.4123 164.977 47.4846 164.803 47.6132 164.674C47.7419 164.546 47.9164 164.473 48.0983 164.473H69.5064C70.5733 164.473 71.5966 164.897 72.351 165.652C73.1055 166.406 73.5293 167.429 73.5293 168.496C73.5293 169.563 73.1055 170.586 72.351 171.341C71.5966 172.095 70.5733 172.519 69.5064 172.519Z" fill="#36A9E1"/>
<path d="M71.9373 157.197C71.0886 159.268 71.0886 161.589 71.9373 163.66H50.4312C50.4312 163.66 47.7754 162.974 47.7754 160.431C47.9383 159.742 48.2559 159.098 48.7042 158.55C49.1524 158.002 49.7195 157.562 50.3626 157.266L71.9373 157.197Z" fill="white"/>
<path opacity="0.25" d="M49.4024 157.746C50.3383 157.207 51.1958 157.256 52.2738 157.256H54.3073H59.6042L69.8942 157.226C70.0608 157.226 71.7318 157.373 71.8053 157.226C71.6185 157.652 71.4756 158.095 71.3789 158.549H49.912V163.484C49.3002 163.242 48.772 162.828 48.3925 162.291C48.013 161.754 47.7986 161.118 47.7756 160.46C47.7552 159.943 47.8774 159.431 48.1289 158.979C48.3804 158.527 48.7515 158.153 49.2015 157.898L49.4024 157.746Z" fill="black"/>
<path d="M51.2397 164.557H72.8438C73.0164 164.542 73.1772 164.463 73.2943 164.336C73.4115 164.208 73.4766 164.041 73.4766 163.868C73.4766 163.695 73.4115 163.528 73.2943 163.401C73.1772 163.273 73.0164 163.194 72.8438 163.18H51.2397C50.5379 163.18 49.8649 162.901 49.3687 162.405C48.8725 161.909 48.5937 161.236 48.5937 160.534C48.5937 159.832 48.8725 159.159 49.3687 158.663C49.8649 158.167 50.5379 157.888 51.2397 157.888H72.6478C72.8204 157.873 72.9812 157.794 73.0983 157.667C73.2155 157.539 73.2806 157.372 73.2806 157.199C73.2806 157.026 73.2155 156.859 73.0983 156.732C72.9812 156.604 72.8204 156.525 72.6478 156.511H51.2397C50.1728 156.511 49.1495 156.935 48.3951 157.689C47.6406 158.444 47.2168 159.467 47.2168 160.534C47.2168 161.601 47.6406 162.624 48.3951 163.378C49.1495 164.133 50.1728 164.557 51.2397 164.557Z" fill="#36A9E1"/>
<path d="M151.547 119.33C152.396 121.4 152.396 123.722 151.547 125.793H173.053C173.053 125.793 175.709 125.107 175.709 122.564C175.544 121.874 175.226 121.231 174.777 120.683C174.328 120.135 173.76 119.695 173.117 119.398L151.547 119.33Z" fill="white"/>
<path opacity="0.25" d="M174.083 119.878C173.143 119.339 172.285 119.388 171.207 119.388H169.174H163.882L153.592 119.359C153.425 119.359 151.759 119.501 151.686 119.359C151.869 119.785 152.01 120.228 152.107 120.682H173.584V125.587C174.195 125.345 174.723 124.931 175.102 124.394C175.482 123.857 175.696 123.221 175.72 122.564C175.738 122.047 175.615 121.534 175.363 121.083C175.11 120.631 174.739 120.257 174.289 120.001L174.083 119.878Z" fill="black"/>
<path d="M172.245 126.689H150.641C150.468 126.675 150.307 126.596 150.19 126.469C150.073 126.341 150.008 126.174 150.008 126.001C150.008 125.828 150.073 125.661 150.19 125.533C150.307 125.406 150.468 125.327 150.641 125.313H172.245C172.946 125.313 173.619 125.034 174.116 124.538C174.612 124.041 174.891 123.368 174.891 122.667C174.891 121.965 174.612 121.292 174.116 120.796C173.619 120.299 172.946 120.021 172.245 120.021H150.832C150.659 120.006 150.498 119.927 150.381 119.8C150.264 119.672 150.199 119.505 150.199 119.332C150.199 119.159 150.264 118.992 150.381 118.865C150.498 118.737 150.659 118.658 150.832 118.644H172.245C173.312 118.644 174.335 119.068 175.089 119.822C175.844 120.576 176.268 121.6 176.268 122.667C176.268 123.734 175.844 124.757 175.089 125.511C174.335 126.266 173.312 126.689 172.245 126.689Z" fill="#36A9E1"/>
<path d="M174.67 111.367C173.824 113.438 173.824 115.759 174.67 117.83H153.164C153.164 117.83 150.508 117.144 150.508 114.601C150.672 113.912 150.991 113.269 151.44 112.721C151.889 112.172 152.457 111.733 153.1 111.436L174.67 111.367Z" fill="white"/>
<path opacity="0.25" d="M152.136 111.916C153.077 111.377 153.935 111.426 155.013 111.426H157.046H162.338L172.628 111.397C172.795 111.397 174.461 111.544 174.534 111.397C174.35 111.824 174.209 112.269 174.113 112.725H152.646V117.654C152.034 117.412 151.507 116.998 151.127 116.461C150.748 115.924 150.533 115.288 150.51 114.631C150.491 114.114 150.615 113.601 150.867 113.149C151.119 112.698 151.491 112.324 151.94 112.068L152.136 111.916Z" fill="black"/>
<path d="M153.972 118.727H175.576C175.749 118.712 175.91 118.634 176.027 118.506C176.144 118.379 176.209 118.212 176.209 118.039C176.209 117.865 176.144 117.698 176.027 117.571C175.91 117.443 175.749 117.365 175.576 117.35H153.972C153.27 117.35 152.597 117.071 152.101 116.575C151.605 116.079 151.326 115.406 151.326 114.704C151.326 114.002 151.605 113.329 152.101 112.833C152.597 112.337 153.27 112.058 153.972 112.058H175.385C175.558 112.043 175.718 111.965 175.836 111.837C175.953 111.71 176.018 111.543 176.018 111.37C176.018 111.196 175.953 111.03 175.836 110.902C175.718 110.775 175.558 110.696 175.385 110.681H153.972C152.905 110.681 151.882 111.105 151.128 111.859C150.373 112.614 149.949 113.637 149.949 114.704C149.949 115.771 150.373 116.794 151.128 117.549C151.882 118.303 152.905 118.727 153.972 118.727Z" fill="#36A9E1"/>
<path d="M207.28 50.96H41.6992V57.134H43.9385V207.789H47.54V205.756H202.806V207.789H206.383V57.1193H207.28V50.96ZM70.7856 128.929H202.806V149.391H70.7856V128.929ZM47.54 125.842V105.379H202.806V125.842H47.54ZM47.54 102.292V81.83H202.806V102.292H47.54ZM144.653 57.1193V78.743H47.54V57.1193H144.653ZM47.54 172.941V152.478H202.806V172.941H47.54Z" fill="#263238"/>
<path opacity="0.9" d="M207.28 50.96H41.6992V57.134H43.9385V207.789H47.54V205.756H202.806V207.789H206.383V57.1193H207.28V50.96ZM70.7856 128.929H202.806V149.391H70.7856V128.929ZM47.54 125.842V105.379H202.806V125.842H47.54ZM47.54 102.292V81.83H202.806V102.292H47.54ZM144.653 57.1193V78.743H47.54V57.1193H144.653ZM47.54 172.941V152.478H202.806V172.941H47.54Z" fill="white"/>
<path d="M170.609 69.7613C171.97 69.7613 173.074 68.7346 173.074 67.4681C173.074 66.2016 171.97 65.1749 170.609 65.1749C169.248 65.1749 168.145 66.2016 168.145 67.4681C168.145 68.7346 169.248 69.7613 170.609 69.7613Z" fill="white"/>
<path d="M180.115 69.7613C181.476 69.7613 182.58 68.7346 182.58 67.4681C182.58 66.2016 181.476 65.1749 180.115 65.1749C178.754 65.1749 177.65 66.2016 177.65 67.4681C177.65 68.7346 178.754 69.7613 180.115 69.7613Z" fill="white"/>
<path d="M108.152 198.494L107.334 199.719L108.559 200.537L107.745 201.9L108.833 202.85L106.79 204.212L107.878 204.894L107.608 205.849L108.696 206.393L107.608 208.025H74.2489L73.5678 206.393L74.3861 205.437L73.1611 204.756L75.0672 204.212L73.8422 203.394L75.1995 202.85L73.4306 202.169L77.9239 200.807L72.8867 199.994L74.5184 187.601L107.633 193.295L108.152 198.494Z" fill="white" stroke="#263238" stroke-miterlimit="10" stroke-linecap="round"/>
<path opacity="0.25" d="M106.715 200.199C106.715 200.199 91.0354 201.885 81.4314 200.689L86.3314 201.87L77.2272 202.36L85.8218 203.708L76.7225 204.551L83.9696 206.07L75.3652 206.78H106.544L99.4781 205.085L103.692 204.413L99.8113 203.737L106.892 203.066L99.6447 202.728L106.387 202.052L99.14 201.713C99.14 201.713 102.84 201.042 106.715 200.199Z" fill="black"/>
<path d="M71.7598 199.92C71.7598 199.92 91.9478 200.817 108.152 198.504L107.633 190.61L73.5679 187.356L71.7598 199.92Z" fill="white"/>
<mask id="mask0_167_5265" style="mask-type:luminance" maskUnits="userSpaceOnUse" x="71" y="187" width="38" height="14">
<path d="M71.7598 199.92C71.7598 199.92 91.9478 200.817 108.152 198.504L107.633 190.61L73.5679 187.356L71.7598 199.92Z" fill="white"/>
</mask>
<g mask="url(#mask0_167_5265)">
<path opacity="0.1" d="M71.7598 199.92C71.7598 199.92 91.9478 200.817 108.152 198.504L107.633 190.61L73.5679 187.356L71.7598 199.92Z" fill="black"/>
</g>
<path d="M71.7598 199.92C71.7598 199.92 91.9478 200.817 108.152 198.504L107.633 190.61L73.5679 187.356L71.7598 199.92Z" stroke="#263238" stroke-miterlimit="10" stroke-linecap="round"/>
<path d="M79.7521 189.542L79.1445 195.976" stroke="#263238" stroke-linecap="round" stroke-linejoin="round"/>
<path d="M84.779 189.944L84.5781 196.583" stroke="#263238" stroke-linecap="round" stroke-linejoin="round"/>
<path d="M89.8064 190.546L89.6055 196.985" stroke="#263238" stroke-linecap="round" stroke-linejoin="round"/>
<path d="M94.4375 191.953V197.186" stroke="#263238" stroke-linecap="round" stroke-linejoin="round"/>
<path d="M99.8652 193.163L100.066 197.186" stroke="#263238" stroke-linecap="round" stroke-linejoin="round"/>
<path d="M104.697 193.967L104.898 197.186" stroke="#263238" stroke-linecap="round" stroke-linejoin="round"/>
<path d="M108.299 184.833C108.299 184.833 81.4372 196.691 71.7695 199.91L73.5776 187.332L100.675 176.121L108.299 184.833Z" fill="white"/>
<mask id="mask1_167_5265" style="mask-type:luminance" maskUnits="userSpaceOnUse" x="71" y="176" width="38" height="24">
<path d="M108.299 184.833C108.299 184.833 81.4372 196.691 71.7695 199.91L73.5776 187.332L100.675 176.121L108.299 184.833Z" fill="white"/>
</mask>
<g mask="url(#mask1_167_5265)">
<path opacity="0.1" d="M86.1713 194.221C96.819 190.767 108.29 184.833 108.29 184.833L100.666 176.121L82.707 182.437L86.1713 194.221Z" fill="black"/>
</g>
<path d="M108.299 184.833C108.299 184.833 81.4372 196.691 71.7695 199.91L73.5776 187.332L100.675 176.121L108.299 184.833Z" stroke="#263238" stroke-linecap="round" stroke-linejoin="round"/>
<path d="M82.2804 185.921L108.29 184.833L103.115 173.534L77.5176 173.671L82.2804 185.921Z" fill="white"/>
<mask id="mask2_167_5265" style="mask-type:luminance" maskUnits="userSpaceOnUse" x="77" y="173" width="32" height="13">
<path d="M82.2804 185.921L108.29 184.833L103.115 173.534L77.5176 173.671L82.2804 185.921Z" fill="white"/>
</mask>
<g mask="url(#mask2_167_5265)">
<path opacity="0.1" d="M82.2804 185.921L108.29 184.833L103.115 173.534L77.5176 173.671L82.2804 185.921Z" fill="black"/>
</g>
<path d="M82.2804 185.921L108.29 184.833L103.115 173.534L77.5176 173.671L82.2804 185.921Z" stroke="#263238" stroke-linecap="round" stroke-linejoin="round"/>
<path d="M84.377 175.459L86.7927 183.505" stroke="#263238" stroke-linecap="round" stroke-linejoin="round"/>
<path d="M89.002 175.052L91.4177 183.505" stroke="#263238" stroke-linecap="round" stroke-linejoin="round"/>
<path d="M93.6328 174.852L95.8427 182.902" stroke="#263238" stroke-linecap="round" stroke-linejoin="round"/>
<path d="M98.459 174.852L100.875 182.701" stroke="#263238" stroke-linecap="round" stroke-linejoin="round"/>
<path d="M109.436 141.884L117.227 169.03L114.11 170.059L99.9004 139.248C99.9004 139.248 105.29 137.489 109.436 141.884Z" fill="#263238" stroke="#263238" stroke-linecap="round" stroke-linejoin="round"/>
<path d="M117.227 169.05C117.227 169.05 119.241 172.441 119.241 173.573C119.241 174.705 115.596 174.577 113.964 174.827C112.332 175.077 108.79 177.449 107.32 176.821C107.32 176.821 106.442 176.331 107.32 175.312C108.197 174.293 112.273 172.343 114.131 170.059L117.227 169.05Z" fill="white" stroke="#263238" stroke-linecap="round" stroke-linejoin="round"/>
<path d="M142.785 70.0014C142.785 70.4914 142.217 70.952 142.168 71.4371C142.119 71.9222 142.579 72.4906 142.477 72.9659C142.374 73.4412 141.727 73.7793 141.575 74.2399C141.423 74.7005 141.756 75.3571 141.575 75.803C141.394 76.2489 140.668 76.44 140.428 76.8614C140.188 77.2828 140.37 77.9884 140.085 78.3853C139.801 78.7822 139.066 78.8165 138.738 79.1791C138.41 79.5417 138.449 80.2718 138.086 80.6001C137.724 80.9284 137.003 80.8108 136.616 81.0901C136.229 81.3694 136.126 82.0995 135.685 82.3445C135.244 82.5895 134.583 82.3445 134.137 82.5258C133.691 82.7071 133.431 83.4078 132.966 83.5597C132.5 83.7116 131.888 83.3098 131.407 83.4078C130.927 83.5058 130.535 84.1232 130.045 84.1771C129.555 84.231 129.065 83.6871 128.575 83.6871C128.085 83.6871 127.566 84.2065 127.105 84.1771C126.645 84.1477 126.213 83.5107 125.743 83.4078C125.273 83.3049 124.645 83.7067 124.185 83.5548C123.724 83.4029 123.46 82.7218 123.014 82.5258C122.568 82.3298 121.882 82.5846 121.46 82.3445C121.039 82.1044 120.926 81.3645 120.529 81.0901C120.133 80.8157 119.412 80.9137 119.059 80.6001C118.707 80.2865 118.736 79.5417 118.413 79.1791C118.089 78.8165 117.354 78.7773 117.065 78.3853C116.776 77.9933 116.967 77.2828 116.722 76.8614C116.477 76.44 115.772 76.2489 115.576 75.803C115.38 75.3571 115.708 74.7054 115.576 74.2399C115.443 73.7744 114.772 73.4461 114.674 72.9659C114.576 72.4857 115.032 71.9271 114.983 71.4371C114.934 70.9471 114.365 70.4963 114.365 70.0014C114.365 69.5065 114.934 69.0214 114.983 68.5657C115.032 68.11 114.571 67.5073 114.674 67.032C114.777 66.5567 115.424 66.2235 115.576 65.758C115.727 65.2925 115.394 64.6408 115.576 64.1998C115.757 63.7588 116.482 63.5628 116.722 63.1414C116.962 62.72 116.781 62.0095 117.065 61.6175C117.349 61.2255 118.084 61.1863 118.413 60.8237C118.741 60.4611 118.702 59.731 119.064 59.4027C119.427 59.0744 120.147 59.192 120.534 58.9127C120.921 58.6334 121.024 57.9033 121.465 57.6583C121.906 57.4133 122.568 57.6583 123.014 57.477C123.46 57.2957 123.719 56.595 124.185 56.4431C124.65 56.2912 125.263 56.693 125.743 56.5901C126.223 56.4872 126.615 55.8747 127.105 55.8257C127.595 55.7767 128.085 56.3157 128.575 56.3157C129.065 56.3157 129.585 55.7963 130.045 55.8257C130.506 55.8551 130.937 56.4921 131.407 56.5901C131.878 56.6881 132.505 56.2961 132.966 56.4431C133.426 56.5901 133.691 57.281 134.137 57.477C134.583 57.673 135.269 57.4133 135.69 57.6583C136.111 57.9033 136.224 58.6383 136.621 58.9127C137.018 59.1871 137.738 59.0842 138.091 59.4027C138.444 59.7212 138.414 60.4611 138.738 60.8237C139.061 61.1863 139.796 61.2206 140.085 61.6175C140.374 62.0144 140.183 62.72 140.428 63.1414C140.673 63.5628 141.379 63.749 141.575 64.1998C141.771 64.6506 141.443 65.2925 141.575 65.7629C141.707 66.2333 142.379 66.5518 142.477 67.0369C142.575 67.522 142.119 68.0757 142.168 68.5657C142.217 69.0557 142.785 69.5065 142.785 70.0014Z" fill="#263238"/>
<path d="M117.58 88.7684C117.58 88.7684 112.68 99.6366 110.23 105.512C107.78 111.387 109.627 116.409 111.21 116.968C112.871 117.556 124.896 113.278 127.752 112.171C130.467 111.117 130.496 111.191 130.496 111.191C130.496 111.191 130.692 120.295 130.692 121.373C130.692 122.451 128.732 126.366 128.928 127.542C129.124 128.718 131.77 130.972 139.6 131.751C147.431 132.53 151.939 130.673 152.718 129.595C153.497 128.517 153.502 127.145 153.502 124.994C153.502 122.843 152.424 110.603 150.861 100.984C149.298 91.3654 145.182 87.2641 143.222 86.2008C141.262 85.1375 137.934 86.5928 134.607 88.8419C131.28 91.091 129.418 95.501 128.928 96.6819C128.438 97.8628 119.04 105.688 118.354 106.374C117.668 107.06 119.726 89.5328 119.726 89.5328L117.58 88.7684Z" fill="white" stroke="#263238" stroke-linecap="round" stroke-linejoin="round"/>
<path d="M116.766 90.6059L119.461 91.5516" stroke="#263238" stroke-linecap="round" stroke-linejoin="round"/>
<path d="M118.364 106.394C118.214 107.977 117.952 109.547 117.58 111.093L118.364 106.394Z" fill="white"/>
<path d="M118.364 106.394C118.214 107.977 117.952 109.547 117.58 111.093" stroke="#263238" stroke-linecap="round" stroke-linejoin="round"/>
<path d="M130.506 111.191L129.33 103.062" stroke="#263238" stroke-linecap="round" stroke-linejoin="round"/>
<path d="M132.56 89.2584C132.56 89.2584 129.723 96.1184 130.311 96.1184C130.899 96.1184 132.173 93.9624 132.173 93.9624L133.834 97.2944C133.834 97.2944 134.128 89.4544 133.932 89.1653C133.736 88.8762 132.952 88.2 132.56 89.2584Z" fill="white" stroke="#263238" stroke-linecap="round" stroke-linejoin="round"/>
<path d="M129.623 86.0293C129.623 86.0293 132.656 90.2384 132.95 91.4193C133.244 92.6002 133.538 98.2793 133.832 97.2993C134.126 96.3193 139.805 86.3331 139.903 85.8431C140.001 85.3531 138.237 82.222 138.237 82.222C138.237 82.222 134.317 85.0591 132.465 85.5491C131.539 85.8177 130.586 85.9789 129.623 86.0293Z" fill="white"/>
<mask id="mask3_167_5265" style="mask-type:luminance" maskUnits="userSpaceOnUse" x="129" y="82" width="11" height="16">
<path d="M129.623 86.0293C129.623 86.0293 132.656 90.2384 132.95 91.4193C133.244 92.6002 133.538 98.2793 133.832 97.2993C134.126 96.3193 139.805 86.3331 139.903 85.8431C140.001 85.3531 138.237 82.222 138.237 82.222C138.237 82.222 134.317 85.0591 132.465 85.5491C131.539 85.8177 130.586 85.9789 129.623 86.0293Z" fill="white"/>
</mask>
<g mask="url(#mask3_167_5265)">
<path opacity="0.1" d="M129.623 86.0293C129.623 86.0293 132.656 90.2384 132.95 91.4193C133.244 92.6002 133.538 98.2793 133.832 97.2993C134.126 96.3193 139.805 86.3331 139.903 85.8431C140.001 85.3531 138.237 82.222 138.237 82.222C138.237 82.222 134.317 85.0591 132.465 85.5491C131.539 85.8177 130.586 85.9789 129.623 86.0293Z" fill="black"/>
</g>
<path d="M129.623 86.0293C129.623 86.0293 132.656 90.2384 132.95 91.4193C133.244 92.6002 133.538 98.2793 133.832 97.2993C134.126 96.3193 139.805 86.3331 139.903 85.8431C140.001 85.3531 138.237 82.222 138.237 82.222C138.237 82.222 134.317 85.0591 132.465 85.5491C131.539 85.8177 130.586 85.9789 129.623 86.0293Z" stroke="#263238" stroke-linecap="round" stroke-linejoin="round"/>
<path d="M134.322 92.7815L133.832 97.2895L136.184 94.1535L134.322 92.7815Z" fill="white" stroke="#263238" stroke-linecap="round" stroke-linejoin="round"/>
<path d="M134.322 92.7815L136.282 95.6235L143.137 85.9313L140.491 83.6773L134.322 92.7815Z" fill="white" stroke="#263238" stroke-linecap="round" stroke-linejoin="round"/>
<path d="M136.758 74.9014C136.758 74.9014 137.248 72.3584 138.321 72.5544C139.394 72.7504 139.301 74.7054 138.713 76.0774C138.491 76.6487 138.229 77.2038 137.929 77.7385L136.758 74.9014Z" fill="white"/>
<mask id="mask4_167_5265" style="mask-type:luminance" maskUnits="userSpaceOnUse" x="136" y="72" width="4" height="6">
<path d="M136.758 74.9014C136.758 74.9014 137.248 72.3584 138.321 72.5544C139.394 72.7504 139.301 74.7054 138.713 76.0774C138.491 76.6487 138.229 77.2038 137.929 77.7385L136.758 74.9014Z" fill="white"/>
</mask>
<g mask="url(#mask4_167_5265)">
<path opacity="0.1" d="M136.758 74.9014C136.758 74.9014 137.248 72.3584 138.321 72.5544C139.394 72.7504 139.301 74.7054 138.713 76.0774C138.491 76.6487 138.229 77.2038 137.929 77.7385L136.758 74.9014Z" fill="black"/>
</g>
<path d="M136.758 74.9014C136.758 74.9014 137.248 72.3584 138.321 72.5544C139.394 72.7504 139.301 74.7054 138.713 76.0774C138.491 76.6487 138.229 77.2038 137.929 77.7385L136.758 74.9014Z" stroke="#263238" stroke-linecap="round" stroke-linejoin="round"/>
<path d="M123.735 78.7185C123.735 78.7185 122.172 77.2485 121.878 79.3065C121.584 81.3645 124.911 81.7565 124.911 81.7565L123.735 78.7185Z" fill="white"/>
<mask id="mask5_167_5265" style="mask-type:luminance" maskUnits="userSpaceOnUse" x="121" y="78" width="4" height="4">
<path d="M123.735 78.7185C123.735 78.7185 122.172 77.2485 121.878 79.3065C121.584 81.3645 124.911 81.7565 124.911 81.7565L123.735 78.7185Z" fill="white"/>
</mask>
<g mask="url(#mask5_167_5265)">
<path opacity="0.1" d="M123.735 78.7185C123.735 78.7185 122.172 77.2485 121.878 79.3065C121.584 81.3645 124.911 81.7565 124.911 81.7565L123.735 78.7185Z" fill="black"/>
</g>
<path d="M123.735 78.7185C123.735 78.7185 122.172 77.2485 121.878 79.3065C121.584 81.3645 124.911 81.7565 124.911 81.7565L123.735 78.7185Z" stroke="#263238" stroke-linecap="round" stroke-linejoin="round"/>
<path d="M121.485 72.7454C121.485 72.7454 125.792 84.5936 127.365 86.3576C128.938 88.1216 133.137 89.0967 136.567 86.4556C139.997 83.8145 138.915 80.8745 138.131 78.5225C137.347 76.1705 134.117 68.0463 133.627 66.9732C133.137 65.9001 130.79 65.3072 129.614 66.1892C128.438 67.0712 128.928 68.1492 126.973 68.6392C125.018 69.1292 122.666 68.3452 121.583 69.8152C121.279 70.2391 121.107 70.7438 121.089 71.2654C121.072 71.7871 121.21 72.3022 121.485 72.7454Z" fill="white"/>
<mask id="mask6_167_5265" style="mask-type:luminance" maskUnits="userSpaceOnUse" x="121" y="65" width="18" height="24">
<path d="M121.485 72.7454C121.485 72.7454 125.792 84.5936 127.365 86.3576C128.938 88.1216 133.137 89.0967 136.567 86.4556C139.997 83.8145 138.915 80.8745 138.131 78.5225C137.347 76.1705 134.117 68.0463 133.627 66.9732C133.137 65.9001 130.79 65.3072 129.614 66.1892C128.438 67.0712 128.928 68.1492 126.973 68.6392C125.018 69.1292 122.666 68.3452 121.583 69.8152C121.279 70.2391 121.107 70.7438 121.089 71.2654C121.072 71.7871 121.21 72.3022 121.485 72.7454Z" fill="white"/>
</mask>
<g mask="url(#mask6_167_5265)">
<path opacity="0.1" d="M121.485 72.7454C121.485 72.7454 125.792 84.5936 127.365 86.3576C128.938 88.1216 133.137 89.0967 136.567 86.4556C139.997 83.8145 138.915 80.8745 138.131 78.5225C137.347 76.1705 134.117 68.0463 133.627 66.9732C133.137 65.9001 130.79 65.3072 129.614 66.1892C128.438 67.0712 128.928 68.1492 126.973 68.6392C125.018 69.1292 122.666 68.3452 121.583 69.8152C121.279 70.2391 121.107 70.7438 121.089 71.2654C121.072 71.7871 121.21 72.3022 121.485 72.7454Z" fill="black"/>
</g>
<path d="M121.485 72.7454C121.485 72.7454 125.792 84.5936 127.365 86.3576C128.938 88.1216 133.137 89.0967 136.567 86.4556C139.997 83.8145 138.915 80.8745 138.131 78.5225C137.347 76.1705 134.117 68.0463 133.627 66.9732C133.137 65.9001 130.79 65.3072 129.614 66.1892C128.438 67.0712 128.928 68.1492 126.973 68.6392C125.018 69.1292 122.666 68.3452 121.583 69.8152C121.279 70.2391 121.107 70.7438 121.089 71.2654C121.072 71.7871 121.21 72.3022 121.485 72.7454Z" stroke="#263238" stroke-linecap="round" stroke-linejoin="round"/>
<path d="M123.249 76.3657L127.917 74.6516C128.102 74.584 128.305 74.5923 128.483 74.6747C128.661 74.7572 128.799 74.907 128.867 75.0912L129.374 76.4711C129.443 76.6596 129.474 76.8598 129.466 77.0604C129.458 77.261 129.41 77.4581 129.326 77.6402C129.241 77.8224 129.122 77.9862 128.974 78.1223C128.827 78.2583 128.654 78.364 128.465 78.4332L125.282 79.6018C125.094 79.671 124.894 79.7024 124.693 79.6942C124.492 79.686 124.295 79.6383 124.113 79.554C123.931 79.4697 123.767 79.3503 123.631 79.2026C123.495 79.055 123.389 78.882 123.32 78.6935L122.814 77.3136C122.746 77.1294 122.754 76.9258 122.837 76.7478C122.919 76.5697 123.069 76.4316 123.253 76.364L123.249 76.3657Z" fill="white" stroke="#263238" stroke-linecap="round" stroke-linejoin="round"/>
<path d="M130.835 73.5843L135.503 71.8702C135.688 71.8026 135.891 71.8109 136.069 71.8933C136.247 71.9757 136.385 72.1256 136.453 72.3098L136.959 73.6897C137.099 74.0703 137.082 74.4909 136.912 74.8588C136.741 75.2268 136.432 75.512 136.051 75.6517L132.868 76.8203C132.488 76.9601 132.067 76.9429 131.699 76.7726C131.331 76.6022 131.046 76.2927 130.906 75.9121L130.4 74.5322C130.332 74.3479 130.34 74.1444 130.423 73.9663C130.505 73.7883 130.655 73.6502 130.839 73.5826L130.835 73.5843Z" fill="white" stroke="#263238" stroke-linecap="round" stroke-linejoin="round"/>
<path d="M125.004 79.7083L126.366 76.3371" stroke="#263238" stroke-width="0.5" stroke-linecap="round" stroke-linejoin="round"/>
<path d="M127.409 75.2983L126.365 77.9443" stroke="#263238" stroke-width="0.5" stroke-linecap="round" stroke-linejoin="round"/>
<path d="M132.701 76.7389L134.068 73.3726" stroke="#263238" stroke-width="0.5" stroke-linecap="round" stroke-linejoin="round"/>
<path d="M135.107 72.3289L134.068 74.9749" stroke="#263238" stroke-width="0.5" stroke-linecap="round" stroke-linejoin="round"/>
<path d="M127.84 74.6809L130.922 73.549" stroke="#263238" stroke-linecap="round" stroke-linejoin="round"/>
<path d="M128.879 75.1709C129.335 74.85 129.867 74.654 130.422 74.6025" stroke="#263238" stroke-linecap="round" stroke-linejoin="round"/>
<path d="M130.584 72.52C131.004 71.923 131.588 71.4598 132.265 71.1861C132.942 70.9123 133.684 70.8395 134.401 70.9765" stroke="#263238" stroke-linecap="round" stroke-linejoin="round"/>
<path d="M127.761 73.8577C127.181 73.3691 126.438 73.1165 125.68 73.1501C124.922 73.1836 124.205 73.501 123.67 74.039" stroke="#263238" stroke-linecap="round" stroke-linejoin="round"/>
<path d="M129.369 79.233C129.369 79.233 129.614 80.213 129.83 80.2963C130.579 80.6099 133.02 79.9925 132.976 78.8949C132.911 78.5384 132.79 78.1944 132.618 77.8757" stroke="#263238" stroke-linecap="round" stroke-linejoin="round"/>
<path d="M130.662 82.5797C131.239 82.6161 131.817 82.5208 132.352 82.301C132.887 82.0811 133.364 81.7424 133.749 81.3106" stroke="#263238" stroke-linecap="round" stroke-linejoin="round"/>
<path d="M114.958 107.359C114.958 107.359 113.596 122.608 108.015 137.862C102.434 153.115 77.5176 173.671 77.5176 173.671L82.2804 185.921C82.2804 185.921 100.116 172.446 108.559 152.566C117.002 132.687 117.276 107.771 117.276 107.771L114.958 107.359Z" fill="white"/>
<mask id="mask7_167_5265" style="mask-type:luminance" maskUnits="userSpaceOnUse" x="77" y="107" width="41" height="79">
<path d="M114.958 107.359C114.958 107.359 113.596 122.608 108.015 137.862C102.434 153.115 77.5176 173.671 77.5176 173.671L82.2804 185.921C82.2804 185.921 100.116 172.446 108.559 152.566C117.002 132.687 117.276 107.771 117.276 107.771L114.958 107.359Z" fill="white"/>
</mask>
<g mask="url(#mask7_167_5265)">
<path opacity="0.1" d="M107.035 140.189L110.749 146.819C117.061 128.199 117.286 107.771 117.286 107.771L114.968 107.359C114.968 107.359 113.606 122.608 108.025 137.862C107.736 138.626 107.403 139.405 107.035 140.189Z" fill="black"/>
</g>
<path d="M114.958 107.359C114.958 107.359 113.596 122.608 108.015 137.862C102.434 153.115 77.5176 173.671 77.5176 173.671L82.2804 185.921C82.2804 185.921 100.116 172.446 108.559 152.566C117.002 132.687 117.276 107.771 117.276 107.771L114.958 107.359Z" stroke="#263238" stroke-linecap="round" stroke-linejoin="round"/>
<path d="M92.6193 134.627C92.6193 134.627 90.4829 136.661 91.5021 139.312C92.5213 141.963 110.029 171.279 110.029 171.279L114.101 170.363C114.101 170.363 105.957 143.688 104.428 140.429C102.899 137.171 101.679 135.137 100.665 134.422" fill="#263238"/>
<path d="M92.6193 134.627C92.6193 134.627 90.4829 136.661 91.5021 139.312C92.5213 141.963 110.029 171.279 110.029 171.279L114.101 170.363C114.101 170.363 105.957 143.688 104.428 140.429C102.899 137.171 101.679 135.137 100.665 134.422" stroke="#263238" stroke-linecap="round" stroke-linejoin="round"/>
<path d="M110.039 171.28C110.039 171.28 104.85 174.842 102.605 175.758C100.361 176.674 101.082 177.797 102.605 177.797C104.129 177.797 109.955 177.081 112.405 176.777C114.855 176.474 116.174 176.674 116.276 175.351C116.379 174.028 114.135 170.059 114.135 170.059L110.039 171.28Z" fill="white" stroke="#263238" stroke-linecap="round" stroke-linejoin="round"/>
<path d="M119.637 79.4682C119.637 79.4682 119.637 76.9251 120.225 76.4351C120.813 75.9451 123.655 74.5731 124.238 74.8671C124.821 75.1611 124.336 75.5531 123.944 75.8471C123.552 76.1411 121.714 77.3612 121.714 77.3612L121.989 80.1542L119.637 79.4682Z" fill="white"/>
<mask id="mask8_167_5265" style="mask-type:luminance" maskUnits="userSpaceOnUse" x="119" y="74" width="6" height="7">
<path d="M119.637 79.4682C119.637 79.4682 119.637 76.9251 120.225 76.4351C120.813 75.9451 123.655 74.5731 124.238 74.8671C124.821 75.1611 124.336 75.5531 123.944 75.8471C123.552 76.1411 121.714 77.3612 121.714 77.3612L121.989 80.1542L119.637 79.4682Z" fill="white"/>
</mask>
<g mask="url(#mask8_167_5265)">
<path opacity="0.1" d="M119.637 79.4682C119.637 79.4682 119.637 76.9251 120.225 76.4351C120.813 75.9451 123.655 74.5731 124.238 74.8671C124.821 75.1611 124.336 75.5531 123.944 75.8471C123.552 76.1411 121.714 77.3612 121.714 77.3612L121.989 80.1542L119.637 79.4682Z" fill="black"/>
</g>
<path d="M119.637 79.4682C119.637 79.4682 119.637 76.9251 120.225 76.4351C120.813 75.9451 123.655 74.5731 124.238 74.8671C124.821 75.1611 124.336 75.5531 123.944 75.8471C123.552 76.1411 121.714 77.3612 121.714 77.3612L121.989 80.1542L119.637 79.4682Z" stroke="#263238" stroke-linecap="round" stroke-linejoin="round"/>
<path d="M124.053 82.8884C124.053 82.8884 125.523 82.8884 125.812 82.5013C126.101 82.1142 127.87 80.0513 127.968 79.6593C128.066 79.2673 127.968 78.8753 126.89 79.2673C126.575 79.3818 126.289 79.564 126.052 79.801C125.815 80.0381 125.632 80.3242 125.518 80.6393L124.151 80.7373L124.053 82.8884Z" fill="white"/>
<mask id="mask9_167_5265" style="mask-type:luminance" maskUnits="userSpaceOnUse" x="124" y="79" width="4" height="4">
<path d="M124.053 82.8884C124.053 82.8884 125.523 82.8884 125.812 82.5013C126.101 82.1142 127.87 80.0513 127.968 79.6593C128.066 79.2673 127.968 78.8753 126.89 79.2673C126.575 79.3818 126.289 79.564 126.052 79.801C125.815 80.0381 125.632 80.3242 125.518 80.6393L124.151 80.7373L124.053 82.8884Z" fill="white"/>
</mask>
<g mask="url(#mask9_167_5265)">
<path opacity="0.1" d="M124.053 82.8884C124.053 82.8884 125.523 82.8884 125.812 82.5013C126.101 82.1142 127.87 80.0513 127.968 79.6593C128.066 79.2673 127.968 78.8753 126.89 79.2673C126.575 79.3818 126.289 79.564 126.052 79.801C125.815 80.0381 125.632 80.3242 125.518 80.6393L124.151 80.7373L124.053 82.8884Z" fill="black"/>
</g>
<path d="M124.053 82.8884C124.053 82.8884 125.523 82.8884 125.812 82.5013C126.101 82.1142 127.87 80.0513 127.968 79.6593C128.066 79.2673 127.968 78.8753 126.89 79.2673C126.575 79.3818 126.289 79.564 126.052 79.801C125.815 80.0381 125.632 80.3242 125.518 80.6393L124.151 80.7373L124.053 82.8884Z" stroke="#263238" stroke-linecap="round" stroke-linejoin="round"/>
<path d="M117.58 88.7684C117.58 88.7684 118.658 83.1873 118.854 81.7222C119.05 80.2571 118.854 79.5662 119.638 79.4682C120.95 79.4647 122.261 79.563 123.558 79.7622C124.244 79.8602 124.93 79.8602 124.734 80.9382C124.538 82.0162 125.126 84.3682 124.44 85.0493C123.951 85.4778 123.326 85.7206 122.676 85.7353C122.676 85.7353 123.068 86.7153 121.897 87.3033C121.395 87.5776 120.871 87.8072 120.329 87.9893L119.741 89.5524L117.58 88.7684Z" fill="white"/>
<mask id="mask10_167_5265" style="mask-type:luminance" maskUnits="userSpaceOnUse" x="117" y="79" width="8" height="11">
<path d="M117.58 88.7684C117.58 88.7684 118.658 83.1873 118.854 81.7222C119.05 80.2571 118.854 79.5662 119.638 79.4682C120.95 79.4647 122.261 79.563 123.558 79.7622C124.244 79.8602 124.93 79.8602 124.734 80.9382C124.538 82.0162 125.126 84.3682 124.44 85.0493C123.951 85.4778 123.326 85.7206 122.676 85.7353C122.676 85.7353 123.068 86.7153 121.897 87.3033C121.395 87.5776 120.871 87.8072 120.329 87.9893L119.741 89.5524L117.58 88.7684Z" fill="white"/>
</mask>
<g mask="url(#mask10_167_5265)">
<path opacity="0.1" d="M117.58 88.7684C117.58 88.7684 118.658 83.1873 118.854 81.7222C119.05 80.2571 118.854 79.5662 119.638 79.4682C120.95 79.4647 122.261 79.563 123.558 79.7622C124.244 79.8602 124.93 79.8602 124.734 80.9382C124.538 82.0162 125.126 84.3682 124.44 85.0493C123.951 85.4778 123.326 85.7206 122.676 85.7353C122.676 85.7353 123.068 86.7153 121.897 87.3033C121.395 87.5776 120.871 87.8072 120.329 87.9893L119.741 89.5524L117.58 88.7684Z" fill="black"/>
</g>
<path d="M117.58 88.7684C117.58 88.7684 118.658 83.1873 118.854 81.7222C119.05 80.2571 118.854 79.5662 119.638 79.4682C120.95 79.4647 122.261 79.563 123.558 79.7622C124.244 79.8602 124.93 79.8602 124.734 80.9382C124.538 82.0162 125.126 84.3682 124.44 85.0493C123.951 85.4778 123.326 85.7206 122.676 85.7353C122.676 85.7353 123.068 86.7153 121.897 87.3033C121.395 87.5776 120.871 87.8072 120.329 87.9893L119.741 89.5524L117.58 88.7684Z" stroke="#263238" stroke-linecap="round" stroke-linejoin="round"/>
<path d="M122.675 85.7353L122.479 83.8733L121.205 83.6773" stroke="#263238" stroke-linecap="round" stroke-linejoin="round"/>
<path d="M121.312 81.8888C121.312 81.8888 123.914 82.0211 124.252 82.222C124.591 82.4229 124.654 84.4172 124.654 84.4172" stroke="#263238" stroke-linecap="round" stroke-linejoin="round"/>
<path d="M121.25 80.6246L124.729 80.9382" stroke="#263238" stroke-linecap="round" stroke-linejoin="round"/>
<path d="M139.609 131.751C133.298 131.119 130.358 129.536 129.354 128.321L128.467 129.429L128.57 130.242C128.57 130.242 116.452 128.409 106.985 129.532C97.5185 130.654 91.7953 133.501 91.4082 136.965L96.3082 139.204C103.536 143.482 119.622 144.398 125.218 144.805C130.814 145.212 141.511 144.805 145.583 144.192C149.654 143.58 151.487 141.85 151.894 138.489C152.232 135.715 152.291 131.418 152.3 130.002C150.826 131.08 146.518 132.442 139.609 131.751Z" fill="#263238" stroke="#263238" stroke-linecap="round" stroke-linejoin="round"/>
<path d="M128.977 130.757L135.288 136.357" stroke="white" stroke-linecap="round" stroke-linejoin="round"/>
<path d="M129.996 131.065L134.578 132.795" stroke="white" stroke-linecap="round" stroke-linejoin="round"/>
<path d="M107.697 107.668C107.697 107.668 99.8567 110.211 97.4067 113.548L87.8223 96.53C92.5508 95.3194 97.4398 94.8564 102.312 95.158C109.848 95.746 114.841 101.038 116.899 104.468L107.697 107.668Z" fill="white" stroke="#263238" stroke-linecap="round" stroke-linejoin="round"/>
<path d="M95.2402 98.2058L100.067 107.055" stroke="#263238" stroke-linecap="round" stroke-linejoin="round"/>
<path d="M99.8652 97.4022L104.089 105.448" stroke="#263238" stroke-linecap="round" stroke-linejoin="round"/>
<path d="M104.496 97.2013L108.117 104.243" stroke="#263238" stroke-linecap="round" stroke-linejoin="round"/>
<path d="M140.296 95.7215C140.296 95.7215 139.218 98.4606 139.414 100.132C139.61 101.802 140.198 112.764 140.198 112.764C140.198 112.764 131.29 112.176 127.762 110.902C124.234 109.628 121.206 108.158 121.206 108.158L120.422 111.294C120.422 111.294 126.689 116.875 131.976 119.026C137.263 121.177 147.44 123.235 148.636 122.745C149.832 122.255 150.89 111.392 150.792 107.183C150.694 102.974 150.89 98.4655 148.93 95.3344" fill="white"/>
<path d="M140.296 95.7215C140.296 95.7215 139.218 98.4606 139.414 100.132C139.61 101.802 140.198 112.764 140.198 112.764C140.198 112.764 131.29 112.176 127.762 110.902C124.234 109.628 121.206 108.158 121.206 108.158L120.422 111.294C120.422 111.294 126.689 116.875 131.976 119.026C137.263 121.177 147.44 123.235 148.636 122.745C149.832 122.255 150.89 111.392 150.792 107.183C150.694 102.974 150.89 98.4655 148.93 95.3344" stroke="#263238" stroke-linecap="round" stroke-linejoin="round"/>
<path d="M123.367 109.197L122.559 112.97" stroke="#263238" stroke-linecap="round" stroke-linejoin="round"/>
<path d="M140.197 112.759C140.197 112.759 142.544 115.596 143.818 116.38L140.197 112.759Z" fill="white"/>
<path d="M140.197 112.759C140.197 112.759 142.544 115.596 143.818 116.38" stroke="#263238" stroke-linecap="round" stroke-linejoin="round"/>
<path d="M121.206 108.153C120.053 107.408 118.999 106.521 118.07 105.512C116.8 104.042 116.016 104.042 114.252 103.944C112.488 103.846 110.631 102.283 110.141 102.381C109.651 102.479 109.553 103.361 110.043 103.851C110.533 104.341 112.983 105.615 112.983 105.615L107.701 107.673C107.968 107.976 108.304 108.21 108.681 108.354C109.367 108.648 110.053 108.354 110.347 108.648C110.641 108.942 112.405 109.53 113.478 109.922C114.551 110.314 118.079 109.726 118.079 109.726L120.431 111.294L121.206 108.153Z" fill="white"/>
<mask id="mask11_167_5265" style="mask-type:luminance" maskUnits="userSpaceOnUse" x="107" y="102" width="15" height="10">
<path d="M121.206 108.153C120.053 107.408 118.999 106.521 118.07 105.512C116.8 104.042 116.016 104.042 114.252 103.944C112.488 103.846 110.631 102.283 110.141 102.381C109.651 102.479 109.553 103.361 110.043 103.851C110.533 104.341 112.983 105.615 112.983 105.615L107.701 107.673C107.968 107.976 108.304 108.21 108.681 108.354C109.367 108.648 110.053 108.354 110.347 108.648C110.641 108.942 112.405 109.53 113.478 109.922C114.551 110.314 118.079 109.726 118.079 109.726L120.431 111.294L121.206 108.153Z" fill="white"/>
</mask>
<g mask="url(#mask11_167_5265)">
<path opacity="0.1" d="M121.206 108.153C120.053 107.408 118.999 106.521 118.07 105.512C116.8 104.042 116.016 104.042 114.252 103.944C112.488 103.846 110.631 102.283 110.141 102.381C109.651 102.479 109.553 103.361 110.043 103.851C110.533 104.341 112.983 105.615 112.983 105.615L107.701 107.673C107.968 107.976 108.304 108.21 108.681 108.354C109.367 108.648 110.053 108.354 110.347 108.648C110.641 108.942 112.405 109.53 113.478 109.922C114.551 110.314 118.079 109.726 118.079 109.726L120.431 111.294L121.206 108.153Z" fill="black"/>
</g>
<path d="M121.206 108.153C120.053 107.408 118.999 106.521 118.07 105.512C116.8 104.042 116.016 104.042 114.252 103.944C112.488 103.846 110.631 102.283 110.141 102.381C109.651 102.479 109.553 103.361 110.043 103.851C110.533 104.341 112.983 105.615 112.983 105.615L107.701 107.673C107.968 107.976 108.304 108.21 108.681 108.354C109.367 108.648 110.053 108.354 110.347 108.648C110.641 108.942 112.405 109.53 113.478 109.922C114.551 110.314 118.079 109.726 118.079 109.726L120.431 111.294L121.206 108.153Z" stroke="#263238" stroke-linecap="round" stroke-linejoin="round"/>
<path d="M116.32 146.02C117.202 148.038 117.656 150.217 117.656 152.419C117.656 154.622 117.202 156.8 116.32 158.819H161.523C161.523 158.819 167.099 157.437 167.099 152.39C167.099 152.39 166.144 147.897 161.65 146.128L116.32 146.02Z" fill="white" stroke="#263238" stroke-linecap="round" stroke-linejoin="round"/>
<path opacity="0.25" d="M163.669 147.088C161.709 146.02 159.901 146.133 157.632 146.108H153.359L142.232 146.074L120.603 146.02C120.25 146.02 116.742 146.309 116.59 146.02C116.979 146.859 117.276 147.738 117.477 148.641H162.616V158.412C163.87 157.957 164.964 157.145 165.761 156.074C166.558 155.003 167.023 153.722 167.099 152.39C167.285 150.17 165.889 148.436 164.095 147.323C163.963 147.245 163.826 147.162 163.669 147.088Z" fill="black"/>
<path d="M162.625 147.456V157.515" stroke="#263238" stroke-linecap="round" stroke-linejoin="round"/>
<path d="M117.551 149.131H124.489" stroke="#263238" stroke-linecap="round" stroke-linejoin="round"/>
<path d="M119.727 150.087H127.488" stroke="#263238" stroke-linecap="round" stroke-linejoin="round"/>
<path d="M117.545 154.717H130.481" stroke="#263238" stroke-linecap="round" stroke-linejoin="round"/>
<path d="M162.479 149.675H156.623" stroke="#263238" stroke-linecap="round" stroke-linejoin="round"/>
<path d="M162.205 151.312H149.406" stroke="#263238" stroke-linecap="round" stroke-linejoin="round"/>
<path d="M148.044 151.312H143.688" stroke="#263238" stroke-linecap="round" stroke-linejoin="round"/>
<path d="M154.443 154.036H162.479" stroke="#263238" stroke-linecap="round" stroke-linejoin="round"/>
<path d="M117.275 156.486H122.45" stroke="#263238" stroke-linecap="round" stroke-linejoin="round"/>
<path d="M159.823 160.568H114.415C114.229 160.579 114.043 160.552 113.869 160.489C113.694 160.426 113.534 160.327 113.399 160.2C113.264 160.073 113.156 159.919 113.082 159.748C113.009 159.578 112.971 159.394 112.971 159.208C112.971 159.023 113.009 158.839 113.082 158.668C113.156 158.498 113.264 158.344 113.399 158.217C113.534 158.089 113.694 157.991 113.869 157.928C114.043 157.864 114.229 157.837 114.415 157.849H159.823C162.939 157.849 165.473 155.497 165.473 152.606C165.473 149.715 162.939 147.363 159.823 147.363H114.821C114.46 147.363 114.114 147.219 113.858 146.964C113.603 146.708 113.459 146.362 113.459 146C113.459 145.639 113.603 145.293 113.858 145.037C114.114 144.782 114.46 144.638 114.821 144.638H159.823C164.439 144.638 168.197 148.215 168.197 152.606C168.197 156.996 164.439 160.568 159.823 160.568Z" fill="#263238"/>
<path d="M164.928 161.798C164.047 163.816 163.592 165.995 163.592 168.197C163.592 170.4 164.047 172.578 164.928 174.597H119.726C119.726 174.597 114.145 173.235 114.145 168.197C114.145 168.197 115.095 163.704 119.588 161.93L164.928 161.798Z" fill="white" stroke="#263238" stroke-linecap="round" stroke-linejoin="round"/>
<path opacity="0.25" d="M117.565 162.881C119.525 161.813 121.338 161.901 123.601 161.901H127.874L139.002 161.867L160.645 161.803C160.998 161.803 164.507 162.092 164.663 161.803C164.27 162.641 163.971 163.52 163.772 164.424H118.633V174.19C117.381 173.74 116.289 172.933 115.491 171.869C114.693 170.805 114.225 169.53 114.144 168.202C113.953 165.983 115.35 164.243 117.148 163.131C117.285 163.038 117.427 162.959 117.565 162.881Z" fill="black"/>
<path d="M118.502 163.954V172.794" stroke="#263238" stroke-linecap="round" stroke-linejoin="round"/>
<path d="M163.703 164.929H156.76" stroke="#263238" stroke-linecap="round" stroke-linejoin="round"/>
<path d="M161.522 165.88H153.766" stroke="#263238" stroke-linecap="round" stroke-linejoin="round"/>
<path d="M163.704 170.51H150.768" stroke="#263238" stroke-linecap="round" stroke-linejoin="round"/>
<path d="M118.771 165.473H124.627" stroke="#263238" stroke-linecap="round" stroke-linejoin="round"/>
<path d="M119.045 167.105H131.844" stroke="#263238" stroke-linecap="round" stroke-linejoin="round"/>
<path d="M133.207 167.105H137.563" stroke="#263238" stroke-linecap="round" stroke-linejoin="round"/>
<path d="M126.807 169.829H118.771" stroke="#263238" stroke-linecap="round" stroke-linejoin="round"/>
<path d="M163.977 172.279H158.803" stroke="#263238" stroke-linecap="round" stroke-linejoin="round"/>
<path d="M121.427 176.366H166.835C167.196 176.366 167.543 176.222 167.798 175.967C168.054 175.711 168.197 175.365 168.197 175.003C168.197 174.642 168.054 174.296 167.798 174.04C167.543 173.785 167.196 173.641 166.835 173.641H121.427C118.31 173.641 115.777 171.289 115.777 168.398C115.777 165.507 118.31 163.155 121.427 163.155H166.428C166.614 163.166 166.8 163.14 166.974 163.076C167.149 163.013 167.309 162.915 167.444 162.787C167.579 162.66 167.687 162.506 167.761 162.336C167.834 162.165 167.872 161.981 167.872 161.796C167.872 161.61 167.834 161.426 167.761 161.255C167.687 161.085 167.579 160.931 167.444 160.804C167.309 160.677 167.149 160.578 166.974 160.515C166.8 160.452 166.614 160.425 166.428 160.436H121.427C116.811 160.436 113.053 164.008 113.053 168.398C113.053 172.789 116.811 176.366 121.427 176.366Z" fill="#36A9E1" stroke="#263238" stroke-linecap="round" stroke-linejoin="round"/>
<path d="M116.32 177.664C117.202 179.683 117.656 181.861 117.656 184.064C117.656 186.266 117.202 188.445 116.32 190.463H161.523C161.523 190.463 167.109 189.101 167.109 184.064C167.109 184.064 166.153 179.57 161.66 177.796L116.32 177.664Z" fill="white" stroke="#263238" stroke-linecap="round" stroke-linejoin="round"/>
<path opacity="0.25" d="M163.67 178.747C161.71 177.679 159.902 177.767 157.633 177.767H153.36L142.233 177.738L120.589 177.669C120.236 177.669 116.728 177.963 116.576 177.669C116.966 178.508 117.264 179.387 117.463 180.291H162.602V190.056C163.855 189.607 164.95 188.799 165.749 187.734C166.549 186.669 167.018 185.393 167.1 184.064C167.286 181.844 165.89 180.109 164.096 178.992C163.964 178.904 163.827 178.85 163.67 178.747Z" fill="black"/>
<path d="M162.625 179.115V189.179" stroke="#263238" stroke-linecap="round" stroke-linejoin="round"/>
<path d="M117.551 180.795H124.489" stroke="#263238" stroke-linecap="round" stroke-linejoin="round"/>
<path d="M119.727 181.746H127.488" stroke="#263238" stroke-linecap="round" stroke-linejoin="round"/>
<path d="M117.545 186.376H130.481" stroke="#263238" stroke-linecap="round" stroke-linejoin="round"/>
<path d="M162.479 181.339H156.623" stroke="#263238" stroke-linecap="round" stroke-linejoin="round"/>
<path d="M162.205 182.971H149.406" stroke="#263238" stroke-linecap="round" stroke-linejoin="round"/>
<path d="M148.044 182.971H143.688" stroke="#263238" stroke-linecap="round" stroke-linejoin="round"/>
<path d="M154.443 185.695H162.479" stroke="#263238" stroke-linecap="round" stroke-linejoin="round"/>
<path d="M117.275 188.145H122.45" stroke="#263238" stroke-linecap="round" stroke-linejoin="round"/>
<path d="M159.823 192.232H114.415C114.054 192.232 113.707 192.088 113.452 191.833C113.196 191.577 113.053 191.231 113.053 190.87C113.053 190.508 113.196 190.162 113.452 189.906C113.707 189.651 114.054 189.507 114.415 189.507H159.823C162.94 189.507 165.473 187.155 165.473 184.264C165.473 181.373 162.94 179.026 159.823 179.026H114.822C114.46 179.026 114.114 178.883 113.858 178.627C113.603 178.372 113.459 178.025 113.459 177.664C113.459 177.303 113.603 176.956 113.858 176.701C114.114 176.445 114.46 176.302 114.822 176.302H159.823C164.439 176.302 168.197 179.874 168.197 184.264C168.197 188.655 164.439 192.232 159.823 192.232Z" fill="#263238"/>
<path d="M164.928 193.457C164.047 195.475 163.592 197.654 163.592 199.856C163.592 202.059 164.047 204.237 164.928 206.256H119.726C119.726 206.256 114.145 204.893 114.145 199.856C114.145 199.856 115.095 195.363 119.588 193.594L164.928 193.457Z" fill="white" stroke="#263238" stroke-linecap="round" stroke-linejoin="round"/>
<path opacity="0.25" d="M117.565 194.53C119.525 193.462 121.338 193.574 123.601 193.55H127.874L139.002 193.516L160.645 193.452C160.998 193.452 164.507 193.741 164.663 193.452C164.271 194.291 163.972 195.17 163.772 196.073H118.633V205.849C117.381 205.398 116.288 204.59 115.491 203.525C114.693 202.46 114.225 201.185 114.144 199.856C113.953 197.637 115.35 195.902 117.148 194.785C117.285 194.697 117.427 194.618 117.565 194.53Z" fill="black"/>
<path d="M118.502 195.613V204.452" stroke="#263238" stroke-linecap="round" stroke-linejoin="round"/>
<path d="M163.703 196.588H156.76" stroke="#263238" stroke-linecap="round" stroke-linejoin="round"/>
<path d="M161.522 197.543H153.766" stroke="#263238" stroke-linecap="round" stroke-linejoin="round"/>
<path d="M163.704 202.169H150.768" stroke="#263238" stroke-linecap="round" stroke-linejoin="round"/>
<path d="M118.771 197.132H124.627" stroke="#263238" stroke-linecap="round" stroke-linejoin="round"/>
<path d="M119.045 198.768H131.844" stroke="#263238" stroke-linecap="round" stroke-linejoin="round"/>
<path d="M133.207 198.768H137.563" stroke="#263238" stroke-linecap="round" stroke-linejoin="round"/>
<path d="M126.807 201.488H118.771" stroke="#263238" stroke-linecap="round" stroke-linejoin="round"/>
<path d="M163.977 203.943H158.803" stroke="#263238" stroke-linecap="round" stroke-linejoin="round"/>
<path d="M121.427 208.025H166.835C167.196 208.025 167.543 207.881 167.798 207.626C168.054 207.37 168.197 207.024 168.197 206.662C168.197 206.301 168.054 205.955 167.798 205.699C167.543 205.444 167.196 205.3 166.835 205.3H121.427C118.31 205.3 115.777 202.953 115.777 200.062C115.777 197.171 118.31 194.819 121.427 194.819H166.428C166.79 194.819 167.136 194.676 167.392 194.42C167.647 194.165 167.791 193.818 167.791 193.457C167.791 193.096 167.647 192.749 167.392 192.494C167.136 192.238 166.79 192.095 166.428 192.095H121.427C116.811 192.095 113.053 195.667 113.053 200.062C113.053 204.457 116.811 208.025 121.427 208.025Z" fill="#36A9E1" stroke="#263238" stroke-linecap="round" stroke-linejoin="round"/>
<path d="M186.861 138.136C187.949 138.626 190.61 138.552 190.614 138.552C190.619 138.552 190.041 136.808 189.992 136.705C189.404 135.48 187.542 133.461 186.072 133.667C185.823 133.708 185.586 133.8 185.375 133.938C185.165 134.077 184.986 134.258 184.85 134.47C184.714 134.682 184.624 134.921 184.586 135.17C184.549 135.419 184.564 135.673 184.632 135.916C184.862 136.955 185.935 137.729 186.861 138.136Z" fill="#263238"/>
<path d="M221.734 129.076C220.225 128.909 218.436 130.977 217.883 132.217C217.834 132.325 217.285 134.079 217.309 134.079H217.344C217.059 134.402 216.756 134.755 216.432 135.142C215.844 135.867 215.183 136.695 214.526 137.636C213.811 138.649 213.157 139.702 212.566 140.792C211.893 142.008 211.327 143.28 210.876 144.594C210.876 144.594 210.876 144.624 210.876 144.643C210.876 144.197 210.876 142.953 210.876 142.86C210.699 141.517 209.572 139.023 208.083 138.748C207.834 138.709 207.58 138.722 207.336 138.788C207.093 138.853 206.867 138.969 206.671 139.128C206.476 139.288 206.317 139.486 206.204 139.711C206.09 139.936 206.026 140.182 206.015 140.434C205.927 141.502 206.701 142.57 207.455 143.242C208.303 144.006 210.665 144.741 210.856 144.8C210.437 146.148 210.11 147.523 209.876 148.916C209.729 149.729 209.611 150.553 209.499 151.366C209.499 150.984 209.499 150.641 209.499 150.592C209.327 149.249 208.2 146.755 206.711 146.481C206.462 146.441 206.207 146.454 205.964 146.52C205.72 146.585 205.493 146.701 205.298 146.86C205.102 147.019 204.942 147.218 204.829 147.443C204.715 147.668 204.65 147.914 204.638 148.166C204.55 149.234 205.324 150.303 206.078 150.979C206.833 151.655 208.847 152.326 209.376 152.498L209.259 153.448C209.077 154.972 208.901 156.491 208.685 157.976C208.607 158.5 208.514 159.015 208.421 159.524C208.421 159.186 208.421 158.897 208.421 158.853C208.249 157.511 207.122 155.016 205.633 154.742C205.384 154.702 205.129 154.716 204.886 154.781C204.642 154.847 204.415 154.963 204.22 155.122C204.024 155.281 203.864 155.479 203.751 155.704C203.637 155.929 203.572 156.176 203.56 156.428C203.472 157.496 204.246 158.564 205 159.24C205.755 159.916 207.573 160.524 208.205 160.71C208.092 161.235 207.985 161.754 207.852 162.259C207.754 162.597 207.686 162.935 207.568 163.268C207.45 163.601 207.352 163.939 207.25 164.248C207.019 164.875 206.789 165.522 206.549 166.125C206.387 166.551 206.225 166.948 206.059 167.35C206.142 166.83 206.279 165.811 206.284 165.723C206.267 164.531 205.945 163.364 205.348 162.332C205.361 162.2 205.361 162.067 205.348 161.935C205.317 161.685 205.233 161.445 205.102 161.229C204.971 161.014 204.797 160.828 204.59 160.685C204.383 160.541 204.148 160.442 203.901 160.395C203.653 160.348 203.398 160.354 203.153 160.411C201.683 160.803 200.757 163.351 200.703 164.728C200.703 164.807 200.752 165.679 200.791 166.228C200.718 165.909 200.649 165.6 200.571 165.272C200.419 164.62 200.243 163.979 200.081 163.288L199.777 162.308C199.684 161.974 199.542 161.627 199.424 161.284C199.135 160.49 198.802 159.701 198.444 158.917C199.013 158.78 201.022 158.265 201.825 157.648C202.629 157.03 203.481 156.026 203.472 154.953C203.479 154.699 203.432 154.446 203.335 154.212C203.237 153.977 203.091 153.766 202.906 153.592C202.72 153.419 202.5 153.286 202.26 153.204C202.02 153.122 201.765 153.092 201.512 153.115C200.007 153.282 198.699 155.683 198.425 157.035C198.425 157.119 198.317 158.089 198.278 158.628C198.062 158.138 197.851 157.682 197.616 157.212C196.945 155.854 196.22 154.502 195.499 153.15L194.71 151.9C194.911 151.856 197.312 151.297 198.214 150.602C199.018 149.989 199.87 148.98 199.86 147.911C199.868 147.658 199.821 147.405 199.723 147.17C199.626 146.936 199.48 146.725 199.294 146.551C199.109 146.377 198.889 146.245 198.649 146.163C198.408 146.08 198.153 146.05 197.9 146.074C196.396 146.236 195.088 148.637 194.813 149.965C194.813 150.063 194.666 151.464 194.652 151.822C194.162 150.91 193.711 149.994 193.289 149.073C192.716 147.832 192.225 146.556 191.819 145.251C191.913 145.226 194.421 144.658 195.343 143.947C196.146 143.335 196.999 142.325 196.989 141.257C196.997 141.005 196.951 140.755 196.855 140.522C196.759 140.289 196.615 140.078 196.433 139.905C196.25 139.732 196.033 139.599 195.795 139.515C195.557 139.431 195.305 139.399 195.053 139.42C193.544 139.581 192.236 141.982 191.962 143.31C191.962 143.413 191.805 144.922 191.8 145.197L191.721 144.971C191.349 143.65 191.092 142.299 190.952 140.934C190.869 140.179 190.83 139.464 190.81 138.748C191.3 138.69 193.466 138.401 194.372 137.852C195.279 137.303 196.195 136.421 196.303 135.358C196.337 135.108 196.319 134.854 196.249 134.611C196.179 134.369 196.058 134.144 195.896 133.952C195.733 133.759 195.532 133.603 195.305 133.493C195.078 133.383 194.83 133.322 194.578 133.314C193.059 133.314 191.496 135.559 191.08 136.847C191.08 136.916 190.903 137.656 190.8 138.195C190.8 137.876 190.8 137.543 190.8 137.215C190.8 136.068 190.874 135.02 190.947 134.089C190.991 133.559 191.045 133.109 191.094 132.619C191.535 132.315 193.289 131.08 193.828 130.193C194.367 129.306 194.784 128.081 194.392 127.086C194.308 126.851 194.175 126.636 194.003 126.455C193.831 126.274 193.623 126.131 193.392 126.036C193.161 125.94 192.913 125.894 192.663 125.9C192.413 125.907 192.168 125.965 191.942 126.072C190.594 126.768 190.242 129.502 190.472 130.815C190.472 130.933 191.001 132.702 191.026 132.687H191.05C190.991 133.118 190.933 133.574 190.879 134.079C190.786 135.01 190.692 136.039 190.663 137.21C190.621 138.45 190.65 139.692 190.751 140.929C190.859 142.315 191.09 143.69 191.442 145.035V145.084C191.202 144.707 190.501 143.683 190.438 143.614C189.551 142.59 187.238 141.13 185.841 141.723C185.612 141.828 185.408 141.98 185.242 142.17C185.076 142.359 184.951 142.582 184.876 142.822C184.801 143.063 184.778 143.317 184.807 143.567C184.837 143.818 184.919 144.059 185.048 144.276C185.562 145.212 186.797 145.677 187.797 145.824C188.928 145.986 191.305 145.3 191.491 145.241C191.883 146.601 192.364 147.933 192.932 149.23C193.26 149.989 193.613 150.739 193.975 151.488C193.76 151.17 193.564 150.891 193.53 150.851C192.643 149.827 190.33 148.372 188.933 148.965C188.704 149.07 188.5 149.222 188.334 149.411C188.168 149.6 188.043 149.822 187.968 150.062C187.893 150.302 187.87 150.556 187.899 150.806C187.929 151.056 188.011 151.297 188.14 151.513C188.654 152.449 189.889 152.914 190.888 153.061C191.888 153.208 193.941 152.664 194.48 152.513L194.906 153.37C195.592 154.737 196.288 156.104 196.925 157.462C197.151 157.952 197.352 158.442 197.557 158.902C197.366 158.618 197.205 158.383 197.175 158.348C196.288 157.324 193.971 155.864 192.574 156.457C192.345 156.562 192.141 156.715 191.974 156.904C191.808 157.094 191.683 157.316 191.609 157.557C191.534 157.797 191.51 158.051 191.54 158.302C191.57 158.552 191.651 158.793 191.78 159.01C192.295 159.946 193.53 160.411 194.534 160.558C195.539 160.705 197.386 160.21 198.028 160.034C198.224 160.524 198.42 161.014 198.586 161.504C198.694 161.842 198.822 162.161 198.91 162.484C198.998 162.807 199.096 163.16 199.189 163.493C199.346 164.14 199.512 164.812 199.645 165.453C199.743 165.899 199.831 166.321 199.914 166.747C199.699 166.257 199.248 165.336 199.204 165.277C198.483 164.13 196.416 162.337 194.946 162.714C194.703 162.783 194.478 162.902 194.285 163.064C194.091 163.226 193.934 163.427 193.824 163.653C193.713 163.88 193.652 164.127 193.643 164.379C193.635 164.631 193.68 164.882 193.775 165.115C194.142 166.095 195.294 166.767 196.259 167.075C197.322 167.404 199.689 167.105 199.978 167.075C200.12 167.781 200.247 168.467 200.36 169.119C200.757 171.368 201.002 173.259 201.159 174.582C201.159 174.817 201.208 175.028 201.227 175.229H196.646L198.312 207.76H206.088L207.754 175.239H203.506C203.535 175.17 203.565 175.111 203.599 175.043C204.182 173.828 204.991 172.078 205.863 169.942C206.142 169.266 206.426 168.54 206.711 167.791C206.995 167.85 209.332 168.325 210.42 168.08C211.4 167.854 212.6 167.296 213.041 166.321C213.153 166.096 213.217 165.85 213.227 165.598C213.238 165.347 213.196 165.097 213.103 164.863C213.011 164.629 212.871 164.417 212.691 164.241C212.511 164.065 212.297 163.929 212.061 163.841C210.621 163.351 208.43 164.993 207.622 166.081C207.578 166.144 207.132 166.899 206.872 167.379C206.985 167.075 207.103 166.776 207.215 166.463C207.446 165.836 207.656 165.204 207.882 164.503C207.985 164.17 208.083 163.836 208.185 163.523C208.288 163.209 208.362 162.822 208.455 162.474C208.651 161.651 208.808 160.808 208.945 159.961C209.494 160.157 211.449 160.838 212.463 160.769C213.477 160.7 214.737 160.328 215.32 159.426C215.465 159.22 215.564 158.986 215.613 158.738C215.661 158.491 215.656 158.236 215.599 157.991C215.543 157.745 215.435 157.515 215.283 157.314C215.131 157.113 214.938 156.946 214.717 156.825C213.37 156.129 210.954 157.413 209.994 158.368C209.935 158.427 209.322 159.191 209.014 159.618C209.092 159.103 209.175 158.593 209.244 158.074C209.43 156.57 209.572 155.041 209.734 153.517C209.778 153.052 209.832 152.586 209.881 152.121C210.072 152.194 212.38 153.052 213.517 152.973C214.526 152.9 215.79 152.532 216.378 151.635C216.523 151.429 216.622 151.194 216.67 150.947C216.718 150.699 216.713 150.444 216.656 150.199C216.598 149.953 216.49 149.723 216.337 149.522C216.185 149.321 215.992 149.155 215.771 149.034C214.423 148.338 212.007 149.617 211.047 150.572C210.974 150.646 210.096 151.743 209.886 152.042C209.994 151.018 210.111 149.999 210.268 148.999C210.473 147.645 210.766 146.307 211.145 144.991C211.233 145.025 213.639 145.937 214.8 145.853C215.81 145.785 217.079 145.412 217.662 144.516C217.807 144.309 217.907 144.075 217.955 143.828C218.003 143.58 217.999 143.326 217.942 143.08C217.885 142.835 217.777 142.604 217.625 142.403C217.473 142.202 217.28 142.035 217.059 141.914C215.712 141.218 213.296 142.497 212.336 143.452C212.257 143.531 211.312 144.712 211.16 144.922C211.16 144.849 211.194 144.766 211.219 144.692C211.634 143.383 212.165 142.114 212.806 140.9C213.149 140.228 213.517 139.601 213.889 138.998C214.32 139.214 216.3 140.174 217.353 140.218C218.407 140.263 219.661 140.027 220.342 139.199C220.509 139.01 220.633 138.788 220.708 138.548C220.783 138.307 220.807 138.054 220.777 137.804C220.747 137.554 220.665 137.313 220.537 137.096C220.408 136.88 220.235 136.693 220.029 136.548C218.765 135.71 216.221 136.715 215.163 137.563C215.104 137.607 214.57 138.141 214.183 138.543C214.355 138.273 214.526 137.994 214.698 137.739C215.33 136.784 215.972 135.946 216.545 135.211C216.873 134.794 217.177 134.427 217.466 134.084C218 134.084 220.146 134.01 221.087 133.569C222.028 133.128 223.047 132.334 223.268 131.291C223.33 131.043 223.339 130.785 223.293 130.534C223.248 130.283 223.149 130.045 223.004 129.835C222.859 129.625 222.67 129.449 222.451 129.318C222.232 129.187 221.988 129.104 221.734 129.076ZM205.035 169.589C204.123 171.691 203.285 173.401 202.683 174.592C202.56 174.827 202.452 175.043 202.354 175.239H202.252C202.222 175.004 202.188 174.749 202.149 174.465C201.967 173.132 201.659 171.226 201.227 168.962C201.085 168.246 200.919 167.492 200.737 166.703C201.448 166.415 202.141 166.088 202.815 165.723C203.589 166.561 205.579 167.546 205.838 167.683C205.569 168.34 205.319 168.986 205.035 169.589Z" fill="#263238"/>
<path d="M213.786 138.719C213.811 138.719 214.276 136.95 214.276 136.837C214.462 135.495 214.031 132.795 212.669 132.133C212.439 132.029 212.189 131.975 211.936 131.974C211.683 131.973 211.433 132.026 211.202 132.128C210.971 132.23 210.764 132.38 210.595 132.567C210.425 132.755 210.297 132.976 210.219 133.216C209.852 134.221 210.317 135.456 210.866 136.303C211.532 137.303 213.786 138.719 213.786 138.719Z" fill="#263238"/>
<path d="M27.9395 208.025H221.489" stroke="#263238" stroke-width="2" stroke-linecap="round" stroke-linejoin="round"/>
</svg>
