<svg width="192" height="56" viewBox="0 0 192 56" fill="none" xmlns="http://www.w3.org/2000/svg">
<g clip-path="url(#clip0_1102_7228)">
<path d="M74.9982 23.1549C73.8943 21.7375 72.5041 20.4973 70.8687 19.4207C69.2196 18.344 67.1617 17.8125 64.6677 17.8125C62.8687 17.8125 61.1242 18.1532 59.4207 18.8483C57.7171 19.5433 56.2179 20.5519 54.9232 21.9011C53.6285 23.2503 52.5791 24.8858 51.8023 26.8483C51.5978 27.3389 51.4343 27.8568 51.2844 28.3883C51.2435 28.2248 51.189 28.0749 51.1481 27.9113C50.5348 25.9352 49.6217 24.2043 48.4224 22.7052C47.2094 21.206 45.6966 20.0203 43.884 19.1345C42.0578 18.2486 39.9454 17.8125 37.5331 17.8125C35.3525 17.8125 33.3491 18.2214 31.5501 19.0527C29.7512 19.8841 28.1839 21.0016 26.8619 22.4462C25.5399 23.8772 24.5178 25.5672 23.7818 27.4752C23.0595 29.3968 22.6915 31.4411 22.6915 33.6353V33.7444C22.6915 34.3168 22.7188 34.8892 22.7597 35.4343C22.2827 34.821 21.7375 34.2759 21.1106 33.7989C20.2111 33.1311 19.2026 32.5587 18.0851 32.1089C16.9675 31.6456 15.8636 31.2503 14.7461 30.9096C13.8602 30.637 13.0152 30.3645 12.1839 30.0783C11.3525 29.7921 10.6302 29.4786 10.0033 29.1651C9.37638 28.8381 8.85849 28.4701 8.47689 28.0749C8.09528 27.6796 7.90448 27.2026 7.90448 26.6711V26.5621C7.90448 25.6898 8.27246 24.9539 9.02203 24.3815C9.7716 23.8091 10.8074 23.5229 12.1566 23.5229C13.4241 23.5229 14.8006 23.7818 16.2997 24.2997C17.7989 24.8176 19.2708 25.5127 20.729 26.3985L23.4956 21.4241C21.8874 20.3338 20.1021 19.4888 18.1532 18.8619C16.2043 18.2486 14.2554 17.9352 12.3474 17.9352C10.8483 17.9352 9.44452 18.1396 8.12254 18.5621C6.80057 18.9846 5.65576 19.5979 4.6745 20.4019C3.69324 21.206 2.93004 22.1873 2.37127 23.3321C1.81249 24.4769 1.53992 25.758 1.53992 27.1754V27.2844C1.53992 28.7427 1.82612 29.9556 2.39852 30.9505C2.97092 31.9454 3.70687 32.7767 4.60636 33.4445C5.50585 34.1123 6.52799 34.6575 7.65917 35.08C8.79034 35.5025 9.90789 35.8704 11.0254 36.1703C11.9113 36.4428 12.7563 36.7018 13.5876 36.9743C14.4053 37.2469 15.1413 37.5331 15.7682 37.833C16.3951 38.1328 16.8994 38.5008 17.2673 38.9232C17.6353 39.3457 17.8125 39.8364 17.8125 40.4088V40.5178C17.8125 41.5127 17.4036 42.3031 16.5723 42.9028C15.7409 43.5025 14.5825 43.7887 13.097 43.7887C11.5297 43.7887 9.88063 43.4752 8.17706 42.8347C6.47348 42.2077 4.79716 41.2674 3.1481 40.0408L0.0407715 44.7699C1.96241 46.2827 4.03396 47.4275 6.28268 48.2043C8.5314 48.9812 10.7392 49.3628 12.9198 49.3628C14.4871 49.3628 15.9726 49.1583 17.3491 48.7631C18.7256 48.3679 19.9249 47.7682 20.9471 46.9778C21.9692 46.2009 22.7597 45.206 23.3321 44.0203C23.7955 43.0527 24.0817 41.9488 24.1634 40.695C24.9403 42.3849 25.9624 43.8568 27.2162 45.097C28.62 46.4735 30.269 47.5502 32.1634 48.3134C34.0578 49.0766 36.1021 49.4582 38.2827 49.4582C41.0765 49.4582 43.4888 48.9403 45.5058 47.9045C47.5229 46.8687 49.2537 45.4922 50.712 43.7614L46.6234 40.1362C45.3968 41.3219 44.1566 42.2214 42.8891 42.8347C41.6217 43.4479 40.1225 43.7614 38.4053 43.7614C36.143 43.7614 34.2213 43.0936 32.6268 41.7716C31.0322 40.4496 30.051 38.5416 29.6694 36.0476H50.7938C50.9709 37.6149 51.3253 39.0595 51.8704 40.3679C52.6745 42.3168 53.7239 43.9658 55.0322 45.3151C56.3406 46.6643 57.8261 47.6728 59.5161 48.3679C61.206 49.0629 62.9505 49.4036 64.7495 49.4036C67.2026 49.4036 69.2605 48.8449 70.9368 47.741C72.5995 46.6234 73.9897 45.2878 75.1072 43.7205L75.0527 48.7767H82.0714V6.81421H75.0527V23.1549H74.9982ZM29.5604 31.4956C29.8602 29.1243 30.7188 27.189 32.1225 25.7171C33.5263 24.2452 35.298 23.5093 37.4377 23.5093C38.5825 23.5093 39.6183 23.7137 40.5178 24.1362C41.4173 24.5587 42.1941 25.1174 42.8483 25.8261C43.5024 26.5348 44.0203 27.3798 44.4019 28.3611C44.7835 29.3423 45.0288 30.3781 45.1515 31.4956H29.5604ZM75.1072 33.6762C75.1072 35.1345 74.8619 36.4565 74.3849 37.6422C73.9079 38.8278 73.2673 39.85 72.4632 40.7222C71.6592 41.5808 70.7188 42.2486 69.6558 42.712C68.5791 43.1754 67.4752 43.4071 66.3304 43.4071C65.1856 43.4071 64.0271 43.1754 62.9777 42.712C61.9283 42.2486 61.0016 41.5944 60.1975 40.7631C59.3934 39.9181 58.7665 38.896 58.3031 37.683C57.8397 36.4701 57.6217 35.1481 57.6217 33.6899V33.5808C57.6217 32.0817 57.8534 30.7324 58.3031 29.5195C58.7665 28.3065 59.3934 27.2844 60.1975 26.4394C61.0016 25.5944 61.9283 24.9539 62.9777 24.5178C64.0271 24.0817 65.1447 23.85 66.3304 23.85C67.5161 23.85 68.5791 24.0817 69.6558 24.545C70.7188 25.0084 71.6592 25.6626 72.4632 26.4939C73.2673 27.3389 73.9079 28.3611 74.3849 29.574C74.8619 30.787 75.1072 32.1089 75.1072 33.5672V33.6762Z" fill="#00446B"/>
<path d="M92.5928 6.81421H85.0562V13.4241H92.5928V6.81421Z" fill="#00446B"/>
<path d="M92.361 16.6267H85.3423V48.8311H92.361V16.6267Z" fill="#00446B"/>
<path d="M116.456 36.2383C115.884 35.2843 115.148 34.4666 114.249 33.7988C113.349 33.131 112.341 32.5586 111.223 32.1088C110.106 31.6454 109.002 31.2502 107.884 30.9095C106.998 30.6369 106.153 30.3644 105.322 30.0782C104.491 29.792 103.768 29.4785 103.141 29.165C102.514 28.838 101.996 28.47 101.615 28.0748C101.233 27.6795 101.042 27.2025 101.042 26.671V26.562C101.042 25.6897 101.41 24.9538 102.16 24.3814C102.91 23.809 103.945 23.5228 105.295 23.5228C106.562 23.5228 107.939 23.7817 109.438 24.2996C110.937 24.8175 112.409 25.5126 113.867 26.3984L116.634 21.424C115.025 20.3337 113.24 19.4887 111.291 18.8618C109.342 18.2485 107.393 17.9351 105.485 17.9351C103.986 17.9351 102.583 18.1395 101.261 18.562C99.9386 18.9845 98.7937 19.5978 97.8125 20.4018C96.8312 21.2059 96.068 22.1872 95.5093 23.332C94.9505 24.4768 94.6779 25.7579 94.6779 27.1753V27.2843C94.6779 28.7426 94.9641 29.9555 95.5365 30.9504C96.1089 31.9453 96.8449 32.7766 97.758 33.4444C98.6575 34.1122 99.6796 34.6574 100.811 35.0799C101.942 35.5023 103.06 35.8703 104.177 36.1702C105.063 36.4427 105.908 36.7017 106.739 36.9742C107.557 37.2468 108.293 37.533 108.92 37.8328C109.547 38.1327 110.051 38.5006 110.419 38.9231C110.787 39.3456 110.964 39.8363 110.964 40.4087V40.5177C110.964 41.5126 110.555 42.303 109.724 42.9027C108.893 43.5023 107.734 43.7886 106.249 43.7886C104.681 43.7886 103.032 43.4751 101.329 42.8345C99.6251 42.2076 97.9488 41.2673 96.2997 40.0407L93.1924 44.7698C95.114 46.2826 97.1856 47.4274 99.4343 48.2042C101.683 48.9811 103.891 49.3627 106.071 49.3627C107.639 49.3627 109.124 49.1582 110.501 48.763C111.877 48.3678 113.077 47.7681 114.099 46.9776C115.107 46.2008 115.911 45.2059 116.484 44.0202C117.056 42.8345 117.342 41.4308 117.342 39.8363V39.7272C117.342 38.3507 117.056 37.1787 116.484 36.2247L116.456 36.2383Z" fill="#00446B"/>
<path d="M191.223 10.3304C190.896 10.4667 190.555 10.6166 190.228 10.7529C172.32 12.7835 156.034 21.0425 143.877 33.5127C143.427 33.2673 142.978 33.022 142.514 32.7903C141.547 29.0288 140.32 25.3627 138.807 21.8329C153.008 12.6609 170.289 8.09528 188.402 9.97603C189.342 10.0714 190.283 10.1941 191.209 10.3304H191.223Z" fill="#36A9E1"/>
<g style="mix-blend-mode:multiply">
<path d="M191.237 10.3303L190.896 10.6847C190.678 10.7119 190.46 10.7392 190.228 10.7664C190.555 10.6165 190.882 10.4802 191.223 10.344L191.237 10.3303Z" fill="#36A9E1"/>
</g>
<path d="M143.891 33.5126C143.441 33.2673 142.991 33.022 142.528 32.7903C142.678 33.3627 142.814 33.9351 142.937 34.4939C143.754 38.0237 144.327 41.6489 144.64 45.3286C146.671 42.7528 148.852 40.3269 151.182 38.0509C148.852 36.4019 146.412 34.8891 143.877 33.5126H143.891Z" fill="#0084CA"/>
<path d="M190.242 10.7529C182.133 14.3372 174.719 19.298 168.327 25.3628C162.058 28.7836 156.293 33.0493 151.196 38.0374C148.865 36.3883 146.426 34.8755 143.891 33.4991C156.047 21.0289 172.334 12.7699 190.242 10.7393V10.7529Z" fill="#009FDD"/>
<path d="M190.896 10.6711C187.57 13.3969 184.477 16.4088 181.642 19.6797C177.008 21.1516 172.538 23.0596 168.313 25.3628C174.705 19.2981 182.119 14.3372 190.228 10.7529C190.446 10.7257 190.678 10.6984 190.896 10.6711Z" fill="#0084CA"/>
<g style="mix-blend-mode:multiply">
<path d="M191.237 10.3303L190.896 10.6847C190.678 10.7119 190.46 10.7392 190.228 10.7664C190.555 10.6165 190.882 10.4802 191.223 10.344L191.237 10.3303Z" fill="#36A9E1"/>
</g>
<path d="M142.528 32.7904C138.766 30.8279 134.814 29.1788 130.698 27.8569C133.274 25.6627 135.986 23.6592 138.821 21.833C140.334 25.3628 141.574 29.0289 142.528 32.7904Z" fill="#0090D7"/>
<path d="M168.313 25.3628C163.38 30.051 159.059 35.3935 155.489 41.281C154.085 40.1498 152.654 39.0596 151.182 38.0374C156.279 33.0493 162.031 28.7836 168.313 25.3628Z" fill="#0084CA"/>
<path d="M181.642 19.6797C174.01 28.4429 168.313 39.0187 165.274 50.7802C162.303 47.3322 159.032 44.1567 155.489 41.2947C159.046 35.4071 163.38 30.0647 168.313 25.3765C172.538 23.0732 177.008 21.1652 181.642 19.6933V19.6797Z" fill="#0075BF"/>
<path d="M188.606 8.66778C188.511 8.59964 188.211 8.53149 188.075 8.53149C173.642 8.53149 158.773 11.8841 144.709 19.1073C139.707 21.6831 135.005 24.6269 130.644 27.8841C134.419 29.0562 139.312 31.0732 143.182 32.9404C143.455 33.0766 143.932 33.322 144.545 33.6218C144.736 33.7172 144.94 33.8262 145.158 33.9352C145.117 33.9898 144.327 45.5605 144.3 45.9557C144.3 45.9557 144.49 45.7785 144.831 45.4651C144.913 45.3833 145.008 45.3015 145.117 45.2061C146.685 43.7342 150.187 40.4906 152.422 38.5008C152.545 38.3918 152.668 38.2828 152.79 38.1737C157.397 41.2266 162.058 44.8654 165.874 48.5996C169.444 34.7666 176.341 21.9012 186.18 11.3935L186.957 10.5758C187.53 9.97613 188.102 9.40373 188.688 8.81769H188.715C188.838 8.79044 188.715 8.74955 188.593 8.65415L188.606 8.66778ZM145.84 43.8978L148.811 35.816C149.519 36.184 150.146 36.5247 150.569 36.7564C151.155 37.1243 151.755 37.5059 152.354 37.9012C149.887 40.0817 147.666 42.126 145.84 43.9114V43.8978ZM165.301 47.0732C160.327 42.2896 154.821 38.2146 148.933 34.8756C154.14 28.1158 160.6 22.2283 168.272 17.4855C173.151 14.4599 179.448 12.5247 184.695 10.6848C178.998 12.4974 172.034 14.3918 166.596 17.3765C158.691 21.7104 151.864 27.1073 145.772 33.1584C141.628 31.046 137.117 29.1925 132.688 27.8024C136.763 24.5724 141.179 21.6695 145.935 19.1346C158.296 12.5383 171.557 9.1993 184.749 8.79044C185.812 8.76318 188.347 8.74955 188.347 8.74955C188.47 8.76318 188.593 8.79044 188.729 8.80407C177.363 19.3117 169.39 32.6405 165.301 47.0732Z" fill="#00446B"/>
<path d="M182.732 26.0034V47.6865C182.732 50.8483 180.17 53.4105 177.008 53.4105H130.603C130.385 53.4105 130.208 53.2333 130.208 53.0153V6.41904C130.208 3.36623 132.688 0.885817 135.741 0.885817H180.416C181.697 0.885817 182.732 1.92159 182.732 3.20268V5.12432C183.032 5.12432 183.318 5.12432 183.618 5.12432V3.42074C183.618 1.52636 182.078 -0.0136719 180.184 -0.0136719H134.528C130.821 -0.0136719 127.809 2.99825 127.809 6.70524V54.3373C127.809 55.155 128.463 55.8092 129.281 55.8092H176.695C180.511 55.8092 183.605 52.7155 183.605 48.8994V24.8177C183.305 25.2129 183.005 25.6081 182.719 26.0034H182.732Z" fill="#00446B"/>
</g>
<defs>
<clipPath id="clip0_1102_7228">
<rect width="191.237" height="56" fill="white"/>
</clipPath>
</defs>
</svg>
