<svg width="118" height="36" viewBox="0 0 118 36" fill="none" xmlns="http://www.w3.org/2000/svg">
<g clip-path="url(#clip0_1102_5557)">
<path d="M33.0682 0.74292L32.7803 3.17096H56.5253L55.8882 8.66095H40.7413L40.0732 14.4199H53.8502L53.2023 19.9929H39.4252L38.1882 30.6309H29.5182L28.9692 35.2579H52.8102L57.0792 0.743958L33.0682 0.74292Z" fill="white"/>
<path fill-rule="evenodd" clip-rule="evenodd" d="M74.6253 11.459C74.6664 11.0084 74.5778 10.5553 74.3697 10.1534C74.1617 9.75156 73.843 9.41763 73.4513 9.19104C72.5982 8.56906 71.568 8.23711 70.5122 8.24402H64.6502L63.8742 14.921H69.8113C70.9729 14.9512 72.1174 14.6355 73.0993 14.014C73.5284 13.7296 73.8883 13.3525 74.1522 12.9105C74.4161 12.4684 74.5774 11.9727 74.6242 11.46M82.0022 30.63H72.6092L72.8623 22.72C72.8131 22.1523 72.6132 21.6079 72.2832 21.1432C71.9532 20.6786 71.5051 20.3105 70.9853 20.077C70.1039 20.077 68.6372 20.0484 66.5852 19.991C64.5272 19.938 63.4322 19.909 63.2912 19.909L62.0423 30.63H53.2713L56.4602 3.172H74.6343C76.9024 3.11393 79.1385 3.71568 81.0713 4.90405C82.0504 5.43528 82.8445 6.25215 83.3478 7.24597C83.851 8.23979 84.0396 9.36338 83.8883 10.467C83.6904 12.0926 82.8848 13.583 81.6333 14.639C80.3241 15.7611 78.7631 16.5502 77.0832 16.939L77.0433 17.274C77.7538 17.3525 78.4524 17.5156 79.1242 17.76C81.2612 18.56 81.7313 19.9 81.9443 22.172L81.9942 29.95L85.1073 3.16602H97.5973L107.404 21.3391L109.525 3.17102H117.725L114.533 30.629H102.625L92.2923 12.034L90.1322 30.629L82.0022 30.63ZM30.9883 18.476C30.4983 22.6713 29.1349 25.7607 26.8982 27.744C24.2289 30.1154 20.0236 31.301 14.2823 31.301C8.4596 31.301 4.47724 30.227 2.33524 28.079C0.365909 26.0964 -0.361741 22.8963 0.152259 18.479L1.93125 3.17902H10.7063L8.92728 18.479C8.55885 20.4068 8.9474 22.4024 10.0122 24.051C10.5434 24.7292 11.2325 25.267 12.0193 25.6177C12.8061 25.9684 13.6668 26.1214 14.5263 26.063C16.3202 26.1108 18.0685 25.4939 19.4353 24.3311C21.0826 22.8119 22.0802 20.7155 22.2203 18.479L23.9983 3.17902H32.7693L30.9883 18.476Z" fill="white"/>
</g>
<defs>
<clipPath id="clip0_1102_5557">
<rect width="117.736" height="34.514" fill="white" transform="translate(-0.00683594 0.74292)"/>
</clipPath>
</defs>
</svg>
